<?xml version="1.0" encoding="UTF-8"?>
<svg xmlns="http://www.w3.org/2000/svg" xmlns:xlink="http://www.w3.org/1999/xlink" width="500pt" height="500pt" viewBox="0 0 500 500" version="1.1">
<g id="surface6">
<rect x="0" y="0" width="500" height="500" style="fill:rgb(100%,100%,100%);fill-opacity:1;stroke:none;"/>
<path style=" stroke:none;fill-rule:nonzero;fill:rgb(0%,0%,0%);fill-opacity:1;" d="M 155 150 C 155 156.667969 145 156.667969 145 150 C 145 143.332031 155 143.332031 155 150 "/>
<path style=" stroke:none;fill-rule:nonzero;fill:rgb(0%,0%,0%);fill-opacity:1;" d="M 155 350 C 155 356.667969 145 356.667969 145 350 C 145 343.332031 155 343.332031 155 350 "/>
<path style=" stroke:none;fill-rule:nonzero;fill:rgb(0%,0%,0%);fill-opacity:1;" d="M 355 150 C 355 156.667969 345 156.667969 345 150 C 345 143.332031 355 143.332031 355 150 "/>
<path style=" stroke:none;fill-rule:nonzero;fill:rgb(0%,0%,0%);fill-opacity:1;" d="M 355 350 C 355 356.667969 345 356.667969 345 350 C 345 343.332031 355 343.332031 355 350 "/>
<path style=" stroke:none;fill-rule:nonzero;fill:rgb(0%,0%,0%);fill-opacity:1;" d="M 195 190 C 195 196.667969 185 196.667969 185 190 C 185 183.332031 195 183.332031 195 190 "/>
<path style=" stroke:none;fill-rule:nonzero;fill:rgb(0%,0%,0%);fill-opacity:1;" d="M 195 310 C 195 316.667969 185 316.667969 185 310 C 185 303.332031 195 303.332031 195 310 "/>
<path style=" stroke:none;fill-rule:nonzero;fill:rgb(0%,0%,0%);fill-opacity:1;" d="M 315 190 C 315 196.667969 305 196.667969 305 190 C 305 183.332031 315 183.332031 315 190 "/>
<path style=" stroke:none;fill-rule:nonzero;fill:rgb(0%,0%,0%);fill-opacity:1;" d="M 315 310 C 315 316.667969 305 316.667969 305 310 C 305 303.332031 315 303.332031 315 310 "/>
</g>
</svg>
