<?xml version="1.0" encoding="UTF-8"?>
<svg xmlns="http://www.w3.org/2000/svg" xmlns:xlink="http://www.w3.org/1999/xlink" width="300pt" height="300pt" viewBox="0 0 300 300" version="1.1">
<g id="surface14267">
<rect x="0" y="0" width="300" height="300" style="fill:rgb(0%,0%,0%);fill-opacity:1;stroke:none;"/>
<path style=" stroke:none;fill-rule:nonzero;fill:rgb(80%,80%,80%);fill-opacity:1;" d="M 297 150 L 296.953125 263.96875 L 296.816406 272.109375 L 296.589844 277.097656 L 296.265625 280.710938 L 295.839844 283.535156 L 295.3125 285.839844 L 294.675781 287.761719 L 293.917969 289.390625 L 293.027344 290.789062 L 291.992188 291.992188 L 290.789062 293.027344 L 289.390625 293.917969 L 287.761719 294.675781 L 285.839844 295.3125 L 283.535156 295.839844 L 280.710938 296.265625 L 277.097656 296.589844 L 272.109375 296.816406 L 263.96875 296.953125 L 153.515625 297 L 36.03125 296.953125 L 27.890625 296.816406 L 22.902344 296.589844 L 19.289062 296.265625 L 16.464844 295.839844 L 14.160156 295.3125 L 12.238281 294.675781 L 10.609375 293.917969 L 9.210938 293.027344 L 8.007812 291.992188 L 6.972656 290.789062 L 6.082031 289.390625 L 5.324219 287.761719 L 4.6875 285.839844 L 4.160156 283.535156 L 3.734375 280.710938 L 3.410156 277.097656 L 3.183594 272.109375 L 3.046875 263.96875 L 3 153.769531 L 3.046875 36.03125 L 3.183594 27.890625 L 3.410156 22.902344 L 3.734375 19.289062 L 4.160156 16.464844 L 4.6875 14.160156 L 5.324219 12.238281 L 6.082031 10.609375 L 6.972656 9.210938 L 8.007812 8.007812 L 9.210938 6.972656 L 10.609375 6.082031 L 12.238281 5.324219 L 14.160156 4.6875 L 16.464844 4.160156 L 19.289062 3.734375 L 22.902344 3.410156 L 27.890625 3.183594 L 36.03125 3.046875 L 146.074219 3 L 263.96875 3.046875 L 272.109375 3.183594 L 277.097656 3.410156 L 280.710938 3.734375 L 283.535156 4.160156 L 285.839844 4.6875 L 287.761719 5.324219 L 289.390625 6.082031 L 290.789062 6.972656 L 291.992188 8.007812 L 293.027344 9.210938 L 293.917969 10.609375 L 294.675781 12.238281 L 295.3125 14.160156 L 295.839844 16.464844 L 296.265625 19.289062 L 296.589844 22.902344 L 296.816406 27.890625 L 296.953125 36.03125 L 297 145.960938 Z M 21.5 16.5 L 21.5 11.5 L 16.5 11.5 L 16.5 16.5 Z M 28.5 16.5 L 28.5 11.5 L 23.5 11.5 L 23.5 16.5 Z M 35.5 16.5 L 35.5 11.5 L 30.5 11.5 L 30.5 16.5 Z M 49.5 16.5 L 49.5 11.5 L 44.5 11.5 L 44.5 16.5 Z M 56.5 16.5 L 56.5 11.5 L 51.5 11.5 L 51.5 16.5 Z M 70.5 16.5 L 70.5 11.5 L 65.5 11.5 L 65.5 16.5 Z M 112.5 16.5 L 112.5 11.5 L 107.5 11.5 L 107.5 16.5 Z M 126.5 16.5 L 126.5 11.5 L 121.5 11.5 L 121.5 16.5 Z M 147.5 16.5 L 147.5 11.5 L 142.5 11.5 L 142.5 16.5 Z M 168.5 16.5 L 168.5 11.5 L 163.5 11.5 L 163.5 16.5 Z M 196.5 16.5 L 196.5 11.5 L 191.5 11.5 L 191.5 16.5 Z M 203.5 16.5 L 203.5 11.5 L 198.5 11.5 L 198.5 16.5 Z M 217.5 16.5 L 217.5 11.5 L 212.5 11.5 L 212.5 16.5 Z M 224.5 16.5 L 224.5 11.5 L 219.5 11.5 L 219.5 16.5 Z M 231.5 16.5 L 231.5 11.5 L 226.5 11.5 L 226.5 16.5 Z M 245.5 16.5 L 245.5 11.5 L 240.5 11.5 L 240.5 16.5 Z M 252.5 16.5 L 252.5 11.5 L 247.5 11.5 L 247.5 16.5 Z M 259.5 16.5 L 259.5 11.5 L 254.5 11.5 L 254.5 16.5 Z M 280.5 16.5 L 280.5 11.5 L 275.5 11.5 L 275.5 16.5 Z M 14.5 23.5 L 14.5 18.5 L 9.5 18.5 L 9.5 23.5 Z M 21.5 23.5 L 21.5 18.5 L 16.5 18.5 L 16.5 23.5 Z M 35.5 23.5 L 35.5 18.5 L 30.5 18.5 L 30.5 23.5 Z M 42.5 23.5 L 42.5 18.5 L 37.5 18.5 L 37.5 23.5 Z M 49.5 23.5 L 49.5 18.5 L 44.5 18.5 L 44.5 23.5 Z M 56.5 23.5 L 56.5 18.5 L 51.5 18.5 L 51.5 23.5 Z M 63.5 23.5 L 63.5 18.5 L 58.5 18.5 L 58.5 23.5 Z M 70.5 23.5 L 70.5 18.5 L 65.5 18.5 L 65.5 23.5 Z M 105.5 23.5 L 105.5 18.5 L 100.5 18.5 L 100.5 23.5 Z M 112.5 23.5 L 112.5 18.5 L 107.5 18.5 L 107.5 23.5 Z M 119.5 23.5 L 119.5 18.5 L 114.5 18.5 L 114.5 23.5 Z M 126.5 23.5 L 126.5 18.5 L 121.5 18.5 L 121.5 23.5 Z M 140.5 23.5 L 140.5 18.5 L 135.5 18.5 L 135.5 23.5 Z M 147.5 23.5 L 147.5 18.5 L 142.5 18.5 L 142.5 23.5 Z M 161.5 23.5 L 161.5 18.5 L 156.5 18.5 L 156.5 23.5 Z M 168.5 23.5 L 168.5 18.5 L 163.5 18.5 L 163.5 23.5 Z M 189.5 23.5 L 189.5 18.5 L 184.5 18.5 L 184.5 23.5 Z M 196.5 23.5 L 196.5 18.5 L 191.5 18.5 L 191.5 23.5 Z M 203.5 23.5 L 203.5 18.5 L 198.5 18.5 L 198.5 23.5 Z M 210.5 23.5 L 210.5 18.5 L 205.5 18.5 L 205.5 23.5 Z M 217.5 23.5 L 217.5 18.5 L 212.5 18.5 L 212.5 23.5 Z M 231.5 23.5 L 231.5 18.5 L 226.5 18.5 L 226.5 23.5 Z M 238.5 23.5 L 238.5 18.5 L 233.5 18.5 L 233.5 23.5 Z M 245.5 23.5 L 245.5 18.5 L 240.5 18.5 L 240.5 23.5 Z M 259.5 23.5 L 259.5 18.5 L 254.5 18.5 L 254.5 23.5 Z M 273.5 23.5 L 273.5 18.5 L 268.5 18.5 L 268.5 23.5 Z M 280.5 23.5 L 280.5 18.5 L 275.5 18.5 L 275.5 23.5 Z M 14.5 30.5 L 14.5 25.5 L 9.5 25.5 L 9.5 30.5 Z M 21.5 30.5 L 21.5 25.5 L 16.5 25.5 L 16.5 30.5 Z M 28.5 30.5 L 28.5 25.5 L 23.5 25.5 L 23.5 30.5 Z M 35.5 30.5 L 35.5 25.5 L 30.5 25.5 L 30.5 30.5 Z M 70.5 30.5 L 70.5 25.5 L 65.5 25.5 L 65.5 30.5 Z M 98.5 30.5 L 98.5 25.5 L 93.5 25.5 L 93.5 30.5 Z M 105.5 30.5 L 105.5 25.5 L 100.5 25.5 L 100.5 30.5 Z M 126.5 30.5 L 126.5 25.5 L 121.5 25.5 L 121.5 30.5 Z M 133.5 30.5 L 133.5 25.5 L 128.5 25.5 L 128.5 30.5 Z M 140.5 30.5 L 140.5 25.5 L 135.5 25.5 L 135.5 30.5 Z M 147.5 30.5 L 147.5 25.5 L 142.5 25.5 L 142.5 30.5 Z M 154.5 30.5 L 154.5 25.5 L 149.5 25.5 L 149.5 30.5 Z M 161.5 30.5 L 161.5 25.5 L 156.5 25.5 L 156.5 30.5 Z M 168.5 30.5 L 168.5 25.5 L 163.5 25.5 L 163.5 30.5 Z M 182.5 30.5 L 182.5 25.5 L 177.5 25.5 L 177.5 30.5 Z M 189.5 30.5 L 189.5 25.5 L 184.5 25.5 L 184.5 30.5 Z M 217.5 30.5 L 217.5 25.5 L 212.5 25.5 L 212.5 30.5 Z M 224.5 30.5 L 224.5 25.5 L 219.5 25.5 L 219.5 30.5 Z M 231.5 30.5 L 231.5 25.5 L 226.5 25.5 L 226.5 30.5 Z M 245.5 30.5 L 245.5 25.5 L 240.5 25.5 L 240.5 30.5 Z M 252.5 30.5 L 252.5 25.5 L 247.5 25.5 L 247.5 30.5 Z M 259.5 30.5 L 259.5 25.5 L 254.5 25.5 L 254.5 30.5 Z M 266.5 30.5 L 266.5 25.5 L 261.5 25.5 L 261.5 30.5 Z M 273.5 30.5 L 273.5 25.5 L 268.5 25.5 L 268.5 30.5 Z M 280.5 30.5 L 280.5 25.5 L 275.5 25.5 L 275.5 30.5 Z M 287.5 30.5 L 287.5 25.5 L 282.5 25.5 L 282.5 30.5 Z M 35.5 37.5 L 35.5 32.5 L 30.5 32.5 L 30.5 37.5 Z M 63.5 37.5 L 63.5 32.5 L 58.5 32.5 L 58.5 37.5 Z M 70.5 37.5 L 70.5 32.5 L 65.5 32.5 L 65.5 37.5 Z M 91.5 37.5 L 91.5 32.5 L 86.5 32.5 L 86.5 37.5 Z M 98.5 37.5 L 98.5 32.5 L 93.5 32.5 L 93.5 37.5 Z M 105.5 37.5 L 105.5 32.5 L 100.5 32.5 L 100.5 37.5 Z M 119.5 37.5 L 119.5 32.5 L 114.5 32.5 L 114.5 37.5 Z M 126.5 37.5 L 126.5 32.5 L 121.5 32.5 L 121.5 37.5 Z M 168.5 37.5 L 168.5 32.5 L 163.5 32.5 L 163.5 37.5 Z M 175.5 37.5 L 175.5 32.5 L 170.5 32.5 L 170.5 37.5 Z M 182.5 37.5 L 182.5 32.5 L 177.5 32.5 L 177.5 37.5 Z M 189.5 37.5 L 189.5 32.5 L 184.5 32.5 L 184.5 37.5 Z M 210.5 37.5 L 210.5 32.5 L 205.5 32.5 L 205.5 37.5 Z M 217.5 37.5 L 217.5 32.5 L 212.5 32.5 L 212.5 37.5 Z M 231.5 37.5 L 231.5 32.5 L 226.5 32.5 L 226.5 37.5 Z M 238.5 37.5 L 238.5 32.5 L 233.5 32.5 L 233.5 37.5 Z M 245.5 37.5 L 245.5 32.5 L 240.5 32.5 L 240.5 37.5 Z M 28.5 44.5 L 28.5 39.5 L 23.5 39.5 L 23.5 44.5 Z M 35.5 44.5 L 35.5 39.5 L 30.5 39.5 L 30.5 44.5 Z M 56.5 44.5 L 56.5 39.5 L 51.5 39.5 L 51.5 44.5 Z M 63.5 44.5 L 63.5 39.5 L 58.5 39.5 L 58.5 44.5 Z M 70.5 44.5 L 70.5 39.5 L 65.5 39.5 L 65.5 44.5 Z M 84.5 44.5 L 84.5 39.5 L 79.5 39.5 L 79.5 44.5 Z M 91.5 44.5 L 91.5 39.5 L 86.5 39.5 L 86.5 44.5 Z M 105.5 44.5 L 105.5 39.5 L 100.5 39.5 L 100.5 44.5 Z M 112.5 44.5 L 112.5 39.5 L 107.5 39.5 L 107.5 44.5 Z M 119.5 44.5 L 119.5 39.5 L 114.5 39.5 L 114.5 44.5 Z M 126.5 44.5 L 126.5 39.5 L 121.5 39.5 L 121.5 44.5 Z M 161.5 44.5 L 161.5 39.5 L 156.5 39.5 L 156.5 44.5 Z M 168.5 44.5 L 168.5 39.5 L 163.5 39.5 L 163.5 44.5 Z M 189.5 44.5 L 189.5 39.5 L 184.5 39.5 L 184.5 44.5 Z M 203.5 44.5 L 203.5 39.5 L 198.5 39.5 L 198.5 44.5 Z M 210.5 44.5 L 210.5 39.5 L 205.5 39.5 L 205.5 44.5 Z M 217.5 44.5 L 217.5 39.5 L 212.5 39.5 L 212.5 44.5 Z M 224.5 44.5 L 224.5 39.5 L 219.5 39.5 L 219.5 44.5 Z M 231.5 44.5 L 231.5 39.5 L 226.5 39.5 L 226.5 44.5 Z M 245.5 44.5 L 245.5 39.5 L 240.5 39.5 L 240.5 44.5 Z M 21.5 51.5 L 21.5 46.5 L 16.5 46.5 L 16.5 51.5 Z M 28.5 51.5 L 28.5 46.5 L 23.5 46.5 L 23.5 51.5 Z M 35.5 51.5 L 35.5 46.5 L 30.5 46.5 L 30.5 51.5 Z M 49.5 51.5 L 49.5 46.5 L 44.5 46.5 L 44.5 51.5 Z M 56.5 51.5 L 56.5 46.5 L 51.5 46.5 L 51.5 51.5 Z M 70.5 51.5 L 70.5 46.5 L 65.5 46.5 L 65.5 51.5 Z M 77.5 51.5 L 77.5 46.5 L 72.5 46.5 L 72.5 51.5 Z M 84.5 51.5 L 84.5 46.5 L 79.5 46.5 L 79.5 51.5 Z M 91.5 51.5 L 91.5 46.5 L 86.5 46.5 L 86.5 51.5 Z M 98.5 51.5 L 98.5 46.5 L 93.5 46.5 L 93.5 51.5 Z M 105.5 51.5 L 105.5 46.5 L 100.5 46.5 L 100.5 51.5 Z M 126.5 51.5 L 126.5 46.5 L 121.5 46.5 L 121.5 51.5 Z M 154.5 51.5 L 154.5 46.5 L 149.5 46.5 L 149.5 51.5 Z M 161.5 51.5 L 161.5 46.5 L 156.5 46.5 L 156.5 51.5 Z M 168.5 51.5 L 168.5 46.5 L 163.5 46.5 L 163.5 51.5 Z M 182.5 51.5 L 182.5 46.5 L 177.5 46.5 L 177.5 51.5 Z M 189.5 51.5 L 189.5 46.5 L 184.5 46.5 L 184.5 51.5 Z M 196.5 51.5 L 196.5 46.5 L 191.5 46.5 L 191.5 51.5 Z M 203.5 51.5 L 203.5 46.5 L 198.5 46.5 L 198.5 51.5 Z M 231.5 51.5 L 231.5 46.5 L 226.5 46.5 L 226.5 51.5 Z M 238.5 51.5 L 238.5 46.5 L 233.5 46.5 L 233.5 51.5 Z M 245.5 51.5 L 245.5 46.5 L 240.5 46.5 L 240.5 51.5 Z M 14.5 58.5 L 14.5 53.5 L 9.5 53.5 L 9.5 58.5 Z M 21.5 58.5 L 21.5 53.5 L 16.5 53.5 L 16.5 58.5 Z M 35.5 58.5 L 35.5 53.5 L 30.5 53.5 L 30.5 58.5 Z M 42.5 58.5 L 42.5 53.5 L 37.5 53.5 L 37.5 58.5 Z M 49.5 58.5 L 49.5 53.5 L 44.5 53.5 L 44.5 58.5 Z M 56.5 58.5 L 56.5 53.5 L 51.5 53.5 L 51.5 58.5 Z M 63.5 58.5 L 63.5 53.5 L 58.5 53.5 L 58.5 58.5 Z M 70.5 58.5 L 70.5 53.5 L 65.5 53.5 L 65.5 58.5 Z M 105.5 58.5 L 105.5 53.5 L 100.5 53.5 L 100.5 58.5 Z M 119.5 58.5 L 119.5 53.5 L 114.5 53.5 L 114.5 58.5 Z M 126.5 58.5 L 126.5 53.5 L 121.5 53.5 L 121.5 58.5 Z M 147.5 58.5 L 147.5 53.5 L 142.5 53.5 L 142.5 58.5 Z M 154.5 58.5 L 154.5 53.5 L 149.5 53.5 L 149.5 58.5 Z M 168.5 58.5 L 168.5 53.5 L 163.5 53.5 L 163.5 58.5 Z M 175.5 58.5 L 175.5 53.5 L 170.5 53.5 L 170.5 58.5 Z M 182.5 58.5 L 182.5 53.5 L 177.5 53.5 L 177.5 58.5 Z M 203.5 58.5 L 203.5 53.5 L 198.5 53.5 L 198.5 58.5 Z M 224.5 58.5 L 224.5 53.5 L 219.5 53.5 L 219.5 58.5 Z M 231.5 58.5 L 231.5 53.5 L 226.5 53.5 L 226.5 58.5 Z M 245.5 58.5 L 245.5 53.5 L 240.5 53.5 L 240.5 58.5 Z M 14.5 65.5 L 14.5 60.5 L 9.5 60.5 L 9.5 65.5 Z M 21.5 65.5 L 21.5 60.5 L 16.5 60.5 L 16.5 65.5 Z M 28.5 65.5 L 28.5 60.5 L 23.5 60.5 L 23.5 65.5 Z M 35.5 65.5 L 35.5 60.5 L 30.5 60.5 L 30.5 65.5 Z M 70.5 65.5 L 70.5 60.5 L 65.5 60.5 L 65.5 65.5 Z M 98.5 65.5 L 98.5 60.5 L 93.5 60.5 L 93.5 65.5 Z M 105.5 65.5 L 105.5 60.5 L 100.5 60.5 L 100.5 65.5 Z M 112.5 65.5 L 112.5 60.5 L 107.5 60.5 L 107.5 65.5 Z M 119.5 65.5 L 119.5 60.5 L 114.5 60.5 L 114.5 65.5 Z M 126.5 65.5 L 126.5 60.5 L 121.5 60.5 L 121.5 65.5 Z M 140.5 65.5 L 140.5 60.5 L 135.5 60.5 L 135.5 65.5 Z M 147.5 65.5 L 147.5 60.5 L 142.5 60.5 L 142.5 65.5 Z M 154.5 65.5 L 154.5 60.5 L 149.5 60.5 L 149.5 65.5 Z M 161.5 65.5 L 161.5 60.5 L 156.5 60.5 L 156.5 65.5 Z M 168.5 65.5 L 168.5 60.5 L 163.5 60.5 L 163.5 65.5 Z M 182.5 65.5 L 182.5 60.5 L 177.5 60.5 L 177.5 65.5 Z M 196.5 65.5 L 196.5 60.5 L 191.5 60.5 L 191.5 65.5 Z M 203.5 65.5 L 203.5 60.5 L 198.5 60.5 L 198.5 65.5 Z M 217.5 65.5 L 217.5 60.5 L 212.5 60.5 L 212.5 65.5 Z M 224.5 65.5 L 224.5 60.5 L 219.5 60.5 L 219.5 65.5 Z M 231.5 65.5 L 231.5 60.5 L 226.5 60.5 L 226.5 65.5 Z M 238.5 65.5 L 238.5 60.5 L 233.5 60.5 L 233.5 65.5 Z M 245.5 65.5 L 245.5 60.5 L 240.5 60.5 L 240.5 65.5 Z M 287.5 65.5 L 287.5 60.5 L 282.5 60.5 L 282.5 65.5 Z M 35.5 72.5 L 35.5 67.5 L 30.5 67.5 L 30.5 72.5 Z M 63.5 72.5 L 63.5 67.5 L 58.5 67.5 L 58.5 72.5 Z M 70.5 72.5 L 70.5 67.5 L 65.5 67.5 L 65.5 72.5 Z M 91.5 72.5 L 91.5 67.5 L 86.5 67.5 L 86.5 72.5 Z M 98.5 72.5 L 98.5 67.5 L 93.5 67.5 L 93.5 72.5 Z M 126.5 72.5 L 126.5 67.5 L 121.5 67.5 L 121.5 72.5 Z M 133.5 72.5 L 133.5 67.5 L 128.5 67.5 L 128.5 72.5 Z M 140.5 72.5 L 140.5 67.5 L 135.5 67.5 L 135.5 72.5 Z M 168.5 72.5 L 168.5 67.5 L 163.5 67.5 L 163.5 72.5 Z M 175.5 72.5 L 175.5 67.5 L 170.5 67.5 L 170.5 72.5 Z M 182.5 72.5 L 182.5 67.5 L 177.5 67.5 L 177.5 72.5 Z M 189.5 72.5 L 189.5 67.5 L 184.5 67.5 L 184.5 72.5 Z M 196.5 72.5 L 196.5 67.5 L 191.5 67.5 L 191.5 72.5 Z M 203.5 72.5 L 203.5 67.5 L 198.5 67.5 L 198.5 72.5 Z M 210.5 72.5 L 210.5 67.5 L 205.5 67.5 L 205.5 72.5 Z M 217.5 72.5 L 217.5 67.5 L 212.5 67.5 L 212.5 72.5 Z M 245.5 72.5 L 245.5 67.5 L 240.5 67.5 L 240.5 72.5 Z M 280.5 72.5 L 280.5 67.5 L 275.5 67.5 L 275.5 72.5 Z M 287.5 72.5 L 287.5 67.5 L 282.5 67.5 L 282.5 72.5 Z M 28.5 79.5 L 28.5 74.5 L 23.5 74.5 L 23.5 79.5 Z M 35.5 79.5 L 35.5 74.5 L 30.5 74.5 L 30.5 79.5 Z M 56.5 79.5 L 56.5 74.5 L 51.5 74.5 L 51.5 79.5 Z M 63.5 79.5 L 63.5 74.5 L 58.5 74.5 L 58.5 79.5 Z M 70.5 79.5 L 70.5 74.5 L 65.5 74.5 L 65.5 79.5 Z M 84.5 79.5 L 84.5 74.5 L 79.5 74.5 L 79.5 79.5 Z M 91.5 79.5 L 91.5 74.5 L 86.5 74.5 L 86.5 79.5 Z M 98.5 79.5 L 98.5 74.5 L 93.5 74.5 L 93.5 79.5 Z M 119.5 79.5 L 119.5 74.5 L 114.5 74.5 L 114.5 79.5 Z M 126.5 79.5 L 126.5 74.5 L 121.5 74.5 L 121.5 79.5 Z M 140.5 79.5 L 140.5 74.5 L 135.5 74.5 L 135.5 79.5 Z M 161.5 79.5 L 161.5 74.5 L 156.5 74.5 L 156.5 79.5 Z M 168.5 79.5 L 168.5 74.5 L 163.5 74.5 L 163.5 79.5 Z M 217.5 79.5 L 217.5 74.5 L 212.5 74.5 L 212.5 79.5 Z M 238.5 79.5 L 238.5 74.5 L 233.5 74.5 L 233.5 79.5 Z M 245.5 79.5 L 245.5 74.5 L 240.5 74.5 L 240.5 79.5 Z M 273.5 79.5 L 273.5 74.5 L 268.5 74.5 L 268.5 79.5 Z M 280.5 79.5 L 280.5 74.5 L 275.5 74.5 L 275.5 79.5 Z M 287.5 79.5 L 287.5 74.5 L 282.5 74.5 L 282.5 79.5 Z M 21.5 86.5 L 21.5 81.5 L 16.5 81.5 L 16.5 86.5 Z M 28.5 86.5 L 28.5 81.5 L 23.5 81.5 L 23.5 86.5 Z M 35.5 86.5 L 35.5 81.5 L 30.5 81.5 L 30.5 86.5 Z M 49.5 86.5 L 49.5 81.5 L 44.5 81.5 L 44.5 86.5 Z M 56.5 86.5 L 56.5 81.5 L 51.5 81.5 L 51.5 86.5 Z M 70.5 86.5 L 70.5 81.5 L 65.5 81.5 L 65.5 86.5 Z M 77.5 86.5 L 77.5 81.5 L 72.5 81.5 L 72.5 86.5 Z M 84.5 86.5 L 84.5 81.5 L 79.5 81.5 L 79.5 86.5 Z M 98.5 86.5 L 98.5 81.5 L 93.5 81.5 L 93.5 86.5 Z M 112.5 86.5 L 112.5 81.5 L 107.5 81.5 L 107.5 86.5 Z M 119.5 86.5 L 119.5 81.5 L 114.5 81.5 L 114.5 86.5 Z M 126.5 86.5 L 126.5 81.5 L 121.5 81.5 L 121.5 86.5 Z M 133.5 86.5 L 133.5 81.5 L 128.5 81.5 L 128.5 86.5 Z M 140.5 86.5 L 140.5 81.5 L 135.5 81.5 L 135.5 86.5 Z M 154.5 86.5 L 154.5 81.5 L 149.5 81.5 L 149.5 86.5 Z M 161.5 86.5 L 161.5 81.5 L 156.5 81.5 L 156.5 86.5 Z M 168.5 86.5 L 168.5 81.5 L 163.5 81.5 L 163.5 86.5 Z M 210.5 86.5 L 210.5 81.5 L 205.5 81.5 L 205.5 86.5 Z M 217.5 86.5 L 217.5 81.5 L 212.5 81.5 L 212.5 86.5 Z M 231.5 86.5 L 231.5 81.5 L 226.5 81.5 L 226.5 86.5 Z M 238.5 86.5 L 238.5 81.5 L 233.5 81.5 L 233.5 86.5 Z M 245.5 86.5 L 245.5 81.5 L 240.5 81.5 L 240.5 86.5 Z M 266.5 86.5 L 266.5 81.5 L 261.5 81.5 L 261.5 86.5 Z M 273.5 86.5 L 273.5 81.5 L 268.5 81.5 L 268.5 86.5 Z M 287.5 86.5 L 287.5 81.5 L 282.5 81.5 L 282.5 86.5 Z M 14.5 93.5 L 14.5 88.5 L 9.5 88.5 L 9.5 93.5 Z M 21.5 93.5 L 21.5 88.5 L 16.5 88.5 L 16.5 93.5 Z M 35.5 93.5 L 35.5 88.5 L 30.5 88.5 L 30.5 93.5 Z M 42.5 93.5 L 42.5 88.5 L 37.5 88.5 L 37.5 93.5 Z M 49.5 93.5 L 49.5 88.5 L 44.5 88.5 L 44.5 93.5 Z M 56.5 93.5 L 56.5 88.5 L 51.5 88.5 L 51.5 93.5 Z M 63.5 93.5 L 63.5 88.5 L 58.5 88.5 L 58.5 93.5 Z M 70.5 93.5 L 70.5 88.5 L 65.5 88.5 L 65.5 93.5 Z M 84.5 93.5 L 84.5 88.5 L 79.5 88.5 L 79.5 93.5 Z M 91.5 93.5 L 91.5 88.5 L 86.5 88.5 L 86.5 93.5 Z M 98.5 93.5 L 98.5 88.5 L 93.5 88.5 L 93.5 93.5 Z M 105.5 93.5 L 105.5 88.5 L 100.5 88.5 L 100.5 93.5 Z M 112.5 93.5 L 112.5 88.5 L 107.5 88.5 L 107.5 93.5 Z M 140.5 93.5 L 140.5 88.5 L 135.5 88.5 L 135.5 93.5 Z M 147.5 93.5 L 147.5 88.5 L 142.5 88.5 L 142.5 93.5 Z M 154.5 93.5 L 154.5 88.5 L 149.5 88.5 L 149.5 93.5 Z M 168.5 93.5 L 168.5 88.5 L 163.5 88.5 L 163.5 93.5 Z M 203.5 93.5 L 203.5 88.5 L 198.5 88.5 L 198.5 93.5 Z M 210.5 93.5 L 210.5 88.5 L 205.5 88.5 L 205.5 93.5 Z M 217.5 93.5 L 217.5 88.5 L 212.5 88.5 L 212.5 93.5 Z M 224.5 93.5 L 224.5 88.5 L 219.5 88.5 L 219.5 93.5 Z M 231.5 93.5 L 231.5 88.5 L 226.5 88.5 L 226.5 93.5 Z M 245.5 93.5 L 245.5 88.5 L 240.5 88.5 L 240.5 93.5 Z M 259.5 93.5 L 259.5 88.5 L 254.5 88.5 L 254.5 93.5 Z M 266.5 93.5 L 266.5 88.5 L 261.5 88.5 L 261.5 93.5 Z M 273.5 93.5 L 273.5 88.5 L 268.5 88.5 L 268.5 93.5 Z M 280.5 93.5 L 280.5 88.5 L 275.5 88.5 L 275.5 93.5 Z M 287.5 93.5 L 287.5 88.5 L 282.5 88.5 L 282.5 93.5 Z M 21.5 100.5 L 21.5 95.5 L 16.5 95.5 L 16.5 100.5 Z M 28.5 100.5 L 28.5 95.5 L 23.5 95.5 L 23.5 100.5 Z M 35.5 100.5 L 35.5 95.5 L 30.5 95.5 L 30.5 100.5 Z M 70.5 100.5 L 70.5 95.5 L 65.5 95.5 L 65.5 100.5 Z M 77.5 100.5 L 77.5 95.5 L 72.5 95.5 L 72.5 100.5 Z M 84.5 100.5 L 84.5 95.5 L 79.5 95.5 L 79.5 100.5 Z M 112.5 100.5 L 112.5 95.5 L 107.5 95.5 L 107.5 100.5 Z M 133.5 100.5 L 133.5 95.5 L 128.5 95.5 L 128.5 100.5 Z M 140.5 100.5 L 140.5 95.5 L 135.5 95.5 L 135.5 100.5 Z M 154.5 100.5 L 154.5 95.5 L 149.5 95.5 L 149.5 100.5 Z M 161.5 100.5 L 161.5 95.5 L 156.5 95.5 L 156.5 100.5 Z M 168.5 100.5 L 168.5 95.5 L 163.5 95.5 L 163.5 100.5 Z M 196.5 100.5 L 196.5 95.5 L 191.5 95.5 L 191.5 100.5 Z M 203.5 100.5 L 203.5 95.5 L 198.5 95.5 L 198.5 100.5 Z M 231.5 100.5 L 231.5 95.5 L 226.5 95.5 L 226.5 100.5 Z M 238.5 100.5 L 238.5 95.5 L 233.5 95.5 L 233.5 100.5 Z M 245.5 100.5 L 245.5 95.5 L 240.5 95.5 L 240.5 100.5 Z M 252.5 100.5 L 252.5 95.5 L 247.5 95.5 L 247.5 100.5 Z M 259.5 100.5 L 259.5 95.5 L 254.5 95.5 L 254.5 100.5 Z M 14.5 107.5 L 14.5 102.5 L 9.5 102.5 L 9.5 107.5 Z M 21.5 107.5 L 21.5 102.5 L 16.5 102.5 L 16.5 107.5 Z M 35.5 107.5 L 35.5 102.5 L 30.5 102.5 L 30.5 107.5 Z M 63.5 107.5 L 63.5 102.5 L 58.5 102.5 L 58.5 107.5 Z M 70.5 107.5 L 70.5 102.5 L 65.5 102.5 L 65.5 107.5 Z M 84.5 107.5 L 84.5 102.5 L 79.5 102.5 L 79.5 107.5 Z M 105.5 107.5 L 105.5 102.5 L 100.5 102.5 L 100.5 107.5 Z M 112.5 107.5 L 112.5 102.5 L 107.5 102.5 L 107.5 107.5 Z M 126.5 107.5 L 126.5 102.5 L 121.5 102.5 L 121.5 107.5 Z M 133.5 107.5 L 133.5 102.5 L 128.5 102.5 L 128.5 107.5 Z M 140.5 107.5 L 140.5 102.5 L 135.5 102.5 L 135.5 107.5 Z M 147.5 107.5 L 147.5 102.5 L 142.5 102.5 L 142.5 107.5 Z M 154.5 107.5 L 154.5 102.5 L 149.5 102.5 L 149.5 107.5 Z M 168.5 107.5 L 168.5 102.5 L 163.5 102.5 L 163.5 107.5 Z M 189.5 107.5 L 189.5 102.5 L 184.5 102.5 L 184.5 107.5 Z M 196.5 107.5 L 196.5 102.5 L 191.5 102.5 L 191.5 107.5 Z M 203.5 107.5 L 203.5 102.5 L 198.5 102.5 L 198.5 107.5 Z M 224.5 107.5 L 224.5 102.5 L 219.5 102.5 L 219.5 107.5 Z M 231.5 107.5 L 231.5 102.5 L 226.5 102.5 L 226.5 107.5 Z M 259.5 107.5 L 259.5 102.5 L 254.5 102.5 L 254.5 107.5 Z M 14.5 114.5 L 14.5 109.5 L 9.5 109.5 L 9.5 114.5 Z M 21.5 114.5 L 21.5 109.5 L 16.5 109.5 L 16.5 114.5 Z M 28.5 114.5 L 28.5 109.5 L 23.5 109.5 L 23.5 114.5 Z M 35.5 114.5 L 35.5 109.5 L 30.5 109.5 L 30.5 114.5 Z M 56.5 114.5 L 56.5 109.5 L 51.5 109.5 L 51.5 114.5 Z M 63.5 114.5 L 63.5 109.5 L 58.5 109.5 L 58.5 114.5 Z M 70.5 114.5 L 70.5 109.5 L 65.5 109.5 L 65.5 114.5 Z M 77.5 114.5 L 77.5 109.5 L 72.5 109.5 L 72.5 114.5 Z M 84.5 114.5 L 84.5 109.5 L 79.5 109.5 L 79.5 114.5 Z M 98.5 114.5 L 98.5 109.5 L 93.5 109.5 L 93.5 114.5 Z M 105.5 114.5 L 105.5 109.5 L 100.5 109.5 L 100.5 114.5 Z M 112.5 114.5 L 112.5 109.5 L 107.5 109.5 L 107.5 114.5 Z M 119.5 114.5 L 119.5 109.5 L 114.5 109.5 L 114.5 114.5 Z M 126.5 114.5 L 126.5 109.5 L 121.5 109.5 L 121.5 114.5 Z M 154.5 114.5 L 154.5 109.5 L 149.5 109.5 L 149.5 114.5 Z M 161.5 114.5 L 161.5 109.5 L 156.5 109.5 L 156.5 114.5 Z M 168.5 114.5 L 168.5 109.5 L 163.5 109.5 L 163.5 114.5 Z M 182.5 114.5 L 182.5 109.5 L 177.5 109.5 L 177.5 114.5 Z M 189.5 114.5 L 189.5 109.5 L 184.5 109.5 L 184.5 114.5 Z M 203.5 114.5 L 203.5 109.5 L 198.5 109.5 L 198.5 114.5 Z M 217.5 114.5 L 217.5 109.5 L 212.5 109.5 L 212.5 114.5 Z M 224.5 114.5 L 224.5 109.5 L 219.5 109.5 L 219.5 114.5 Z M 231.5 114.5 L 231.5 109.5 L 226.5 109.5 L 226.5 114.5 Z M 252.5 114.5 L 252.5 109.5 L 247.5 109.5 L 247.5 114.5 Z M 259.5 114.5 L 259.5 109.5 L 254.5 109.5 L 254.5 114.5 Z M 287.5 114.5 L 287.5 109.5 L 282.5 109.5 L 282.5 114.5 Z M 35.5 121.5 L 35.5 116.5 L 30.5 116.5 L 30.5 121.5 Z M 49.5 121.5 L 49.5 116.5 L 44.5 116.5 L 44.5 121.5 Z M 56.5 121.5 L 56.5 116.5 L 51.5 116.5 L 51.5 121.5 Z M 84.5 121.5 L 84.5 116.5 L 79.5 116.5 L 79.5 121.5 Z M 91.5 121.5 L 91.5 116.5 L 86.5 116.5 L 86.5 121.5 Z M 98.5 121.5 L 98.5 116.5 L 93.5 116.5 L 93.5 121.5 Z M 126.5 121.5 L 126.5 116.5 L 121.5 116.5 L 121.5 121.5 Z M 147.5 121.5 L 147.5 116.5 L 142.5 116.5 L 142.5 121.5 Z M 154.5 121.5 L 154.5 116.5 L 149.5 116.5 L 149.5 121.5 Z M 168.5 121.5 L 168.5 116.5 L 163.5 116.5 L 163.5 121.5 Z M 175.5 121.5 L 175.5 116.5 L 170.5 116.5 L 170.5 121.5 Z M 182.5 121.5 L 182.5 116.5 L 177.5 116.5 L 177.5 121.5 Z M 189.5 121.5 L 189.5 116.5 L 184.5 116.5 L 184.5 121.5 Z M 196.5 121.5 L 196.5 116.5 L 191.5 116.5 L 191.5 121.5 Z M 203.5 121.5 L 203.5 116.5 L 198.5 116.5 L 198.5 121.5 Z M 210.5 121.5 L 210.5 116.5 L 205.5 116.5 L 205.5 121.5 Z M 217.5 121.5 L 217.5 116.5 L 212.5 116.5 L 212.5 121.5 Z M 231.5 121.5 L 231.5 116.5 L 226.5 116.5 L 226.5 121.5 Z M 245.5 121.5 L 245.5 116.5 L 240.5 116.5 L 240.5 121.5 Z M 252.5 121.5 L 252.5 116.5 L 247.5 116.5 L 247.5 121.5 Z M 259.5 121.5 L 259.5 116.5 L 254.5 116.5 L 254.5 121.5 Z M 280.5 121.5 L 280.5 116.5 L 275.5 116.5 L 275.5 121.5 Z M 287.5 121.5 L 287.5 116.5 L 282.5 116.5 L 282.5 121.5 Z M 28.5 128.5 L 28.5 123.5 L 23.5 123.5 L 23.5 128.5 Z M 35.5 128.5 L 35.5 123.5 L 30.5 123.5 L 30.5 128.5 Z M 42.5 128.5 L 42.5 123.5 L 37.5 123.5 L 37.5 128.5 Z M 49.5 128.5 L 49.5 123.5 L 44.5 123.5 L 44.5 128.5 Z M 56.5 128.5 L 56.5 123.5 L 51.5 123.5 L 51.5 128.5 Z M 77.5 128.5 L 77.5 123.5 L 72.5 123.5 L 72.5 128.5 Z M 84.5 128.5 L 84.5 123.5 L 79.5 123.5 L 79.5 128.5 Z M 98.5 128.5 L 98.5 123.5 L 93.5 123.5 L 93.5 128.5 Z M 119.5 128.5 L 119.5 123.5 L 114.5 123.5 L 114.5 128.5 Z M 126.5 128.5 L 126.5 123.5 L 121.5 123.5 L 121.5 128.5 Z M 140.5 128.5 L 140.5 123.5 L 135.5 123.5 L 135.5 128.5 Z M 147.5 128.5 L 147.5 123.5 L 142.5 123.5 L 142.5 128.5 Z M 154.5 128.5 L 154.5 123.5 L 149.5 123.5 L 149.5 128.5 Z M 161.5 128.5 L 161.5 123.5 L 156.5 123.5 L 156.5 128.5 Z M 168.5 128.5 L 168.5 123.5 L 163.5 123.5 L 163.5 128.5 Z M 217.5 128.5 L 217.5 123.5 L 212.5 123.5 L 212.5 128.5 Z M 224.5 128.5 L 224.5 123.5 L 219.5 123.5 L 219.5 128.5 Z M 231.5 128.5 L 231.5 123.5 L 226.5 123.5 L 226.5 128.5 Z M 238.5 128.5 L 238.5 123.5 L 233.5 123.5 L 233.5 128.5 Z M 245.5 128.5 L 245.5 123.5 L 240.5 123.5 L 240.5 128.5 Z M 259.5 128.5 L 259.5 123.5 L 254.5 123.5 L 254.5 128.5 Z M 273.5 128.5 L 273.5 123.5 L 268.5 123.5 L 268.5 128.5 Z M 280.5 128.5 L 280.5 123.5 L 275.5 123.5 L 275.5 128.5 Z M 287.5 128.5 L 287.5 123.5 L 282.5 123.5 L 282.5 128.5 Z M 21.5 135.5 L 21.5 130.5 L 16.5 130.5 L 16.5 135.5 Z M 28.5 135.5 L 28.5 130.5 L 23.5 130.5 L 23.5 135.5 Z M 56.5 135.5 L 56.5 130.5 L 51.5 130.5 L 51.5 135.5 Z M 70.5 135.5 L 70.5 130.5 L 65.5 130.5 L 65.5 135.5 Z M 77.5 135.5 L 77.5 130.5 L 72.5 130.5 L 72.5 135.5 Z M 84.5 135.5 L 84.5 130.5 L 79.5 130.5 L 79.5 135.5 Z M 91.5 135.5 L 91.5 130.5 L 86.5 130.5 L 86.5 135.5 Z M 98.5 135.5 L 98.5 130.5 L 93.5 130.5 L 93.5 135.5 Z M 112.5 135.5 L 112.5 130.5 L 107.5 130.5 L 107.5 135.5 Z M 119.5 135.5 L 119.5 130.5 L 114.5 130.5 L 114.5 135.5 Z M 126.5 135.5 L 126.5 130.5 L 121.5 130.5 L 121.5 135.5 Z M 133.5 135.5 L 133.5 130.5 L 128.5 130.5 L 128.5 135.5 Z M 140.5 135.5 L 140.5 130.5 L 135.5 130.5 L 135.5 135.5 Z M 168.5 135.5 L 168.5 130.5 L 163.5 130.5 L 163.5 135.5 Z M 210.5 135.5 L 210.5 130.5 L 205.5 130.5 L 205.5 135.5 Z M 217.5 135.5 L 217.5 130.5 L 212.5 130.5 L 212.5 135.5 Z M 245.5 135.5 L 245.5 130.5 L 240.5 130.5 L 240.5 135.5 Z M 252.5 135.5 L 252.5 130.5 L 247.5 130.5 L 247.5 135.5 Z M 259.5 135.5 L 259.5 130.5 L 254.5 130.5 L 254.5 135.5 Z M 266.5 135.5 L 266.5 130.5 L 261.5 130.5 L 261.5 135.5 Z M 273.5 135.5 L 273.5 130.5 L 268.5 130.5 L 268.5 135.5 Z M 287.5 135.5 L 287.5 130.5 L 282.5 130.5 L 282.5 135.5 Z M 14.5 142.5 L 14.5 137.5 L 9.5 137.5 L 9.5 142.5 Z M 21.5 142.5 L 21.5 137.5 L 16.5 137.5 L 16.5 142.5 Z M 28.5 142.5 L 28.5 137.5 L 23.5 137.5 L 23.5 142.5 Z M 49.5 142.5 L 49.5 137.5 L 44.5 137.5 L 44.5 142.5 Z M 56.5 142.5 L 56.5 137.5 L 51.5 137.5 L 51.5 142.5 Z M 63.5 142.5 L 63.5 137.5 L 58.5 137.5 L 58.5 142.5 Z M 70.5 142.5 L 70.5 137.5 L 65.5 137.5 L 65.5 142.5 Z M 98.5 142.5 L 98.5 137.5 L 93.5 137.5 L 93.5 142.5 Z M 105.5 142.5 L 105.5 137.5 L 100.5 137.5 L 100.5 142.5 Z M 112.5 142.5 L 112.5 137.5 L 107.5 137.5 L 107.5 142.5 Z M 140.5 142.5 L 140.5 137.5 L 135.5 137.5 L 135.5 142.5 Z M 161.5 142.5 L 161.5 137.5 L 156.5 137.5 L 156.5 142.5 Z M 168.5 142.5 L 168.5 137.5 L 163.5 137.5 L 163.5 142.5 Z M 203.5 142.5 L 203.5 137.5 L 198.5 137.5 L 198.5 142.5 Z M 210.5 142.5 L 210.5 137.5 L 205.5 137.5 L 205.5 142.5 Z M 217.5 142.5 L 217.5 137.5 L 212.5 137.5 L 212.5 142.5 Z M 238.5 142.5 L 238.5 137.5 L 233.5 137.5 L 233.5 142.5 Z M 245.5 142.5 L 245.5 137.5 L 240.5 137.5 L 240.5 142.5 Z M 273.5 142.5 L 273.5 137.5 L 268.5 137.5 L 268.5 142.5 Z M 280.5 142.5 L 280.5 137.5 L 275.5 137.5 L 275.5 142.5 Z M 287.5 142.5 L 287.5 137.5 L 282.5 137.5 L 282.5 142.5 Z M 28.5 149.5 L 28.5 144.5 L 23.5 144.5 L 23.5 149.5 Z M 42.5 149.5 L 42.5 144.5 L 37.5 144.5 L 37.5 149.5 Z M 49.5 149.5 L 49.5 144.5 L 44.5 144.5 L 44.5 149.5 Z M 70.5 149.5 L 70.5 144.5 L 65.5 144.5 L 65.5 149.5 Z M 91.5 149.5 L 91.5 144.5 L 86.5 144.5 L 86.5 149.5 Z M 98.5 149.5 L 98.5 144.5 L 93.5 144.5 L 93.5 149.5 Z M 112.5 149.5 L 112.5 144.5 L 107.5 144.5 L 107.5 149.5 Z M 133.5 149.5 L 133.5 144.5 L 128.5 144.5 L 128.5 149.5 Z M 140.5 149.5 L 140.5 144.5 L 135.5 144.5 L 135.5 149.5 Z M 154.5 149.5 L 154.5 144.5 L 149.5 144.5 L 149.5 149.5 Z M 161.5 149.5 L 161.5 144.5 L 156.5 144.5 L 156.5 149.5 Z M 168.5 149.5 L 168.5 144.5 L 163.5 144.5 L 163.5 149.5 Z M 196.5 149.5 L 196.5 144.5 L 191.5 144.5 L 191.5 149.5 Z M 203.5 149.5 L 203.5 144.5 L 198.5 144.5 L 198.5 149.5 Z M 217.5 149.5 L 217.5 144.5 L 212.5 144.5 L 212.5 149.5 Z M 231.5 149.5 L 231.5 144.5 L 226.5 144.5 L 226.5 149.5 Z M 238.5 149.5 L 238.5 144.5 L 233.5 144.5 L 233.5 149.5 Z M 245.5 149.5 L 245.5 144.5 L 240.5 144.5 L 240.5 149.5 Z M 266.5 149.5 L 266.5 144.5 L 261.5 144.5 L 261.5 149.5 Z M 273.5 149.5 L 273.5 144.5 L 268.5 144.5 L 268.5 149.5 Z M 21.5 156.5 L 21.5 151.5 L 16.5 151.5 L 16.5 156.5 Z M 28.5 156.5 L 28.5 151.5 L 23.5 151.5 L 23.5 156.5 Z M 35.5 156.5 L 35.5 151.5 L 30.5 151.5 L 30.5 156.5 Z M 42.5 156.5 L 42.5 151.5 L 37.5 151.5 L 37.5 156.5 Z M 49.5 156.5 L 49.5 151.5 L 44.5 151.5 L 44.5 156.5 Z M 63.5 156.5 L 63.5 151.5 L 58.5 151.5 L 58.5 156.5 Z M 70.5 156.5 L 70.5 151.5 L 65.5 151.5 L 65.5 156.5 Z M 84.5 156.5 L 84.5 151.5 L 79.5 151.5 L 79.5 156.5 Z M 91.5 156.5 L 91.5 151.5 L 86.5 151.5 L 86.5 156.5 Z M 98.5 156.5 L 98.5 151.5 L 93.5 151.5 L 93.5 156.5 Z M 105.5 156.5 L 105.5 151.5 L 100.5 151.5 L 100.5 156.5 Z M 112.5 156.5 L 112.5 151.5 L 107.5 151.5 L 107.5 156.5 Z M 126.5 156.5 L 126.5 151.5 L 121.5 151.5 L 121.5 156.5 Z M 133.5 156.5 L 133.5 151.5 L 128.5 151.5 L 128.5 156.5 Z M 140.5 156.5 L 140.5 151.5 L 135.5 151.5 L 135.5 156.5 Z M 147.5 156.5 L 147.5 151.5 L 142.5 151.5 L 142.5 156.5 Z M 154.5 156.5 L 154.5 151.5 L 149.5 151.5 L 149.5 156.5 Z M 168.5 156.5 L 168.5 151.5 L 163.5 151.5 L 163.5 156.5 Z M 189.5 156.5 L 189.5 151.5 L 184.5 151.5 L 184.5 156.5 Z M 196.5 156.5 L 196.5 151.5 L 191.5 151.5 L 191.5 156.5 Z M 203.5 156.5 L 203.5 151.5 L 198.5 151.5 L 198.5 156.5 Z M 210.5 156.5 L 210.5 151.5 L 205.5 151.5 L 205.5 156.5 Z M 217.5 156.5 L 217.5 151.5 L 212.5 151.5 L 212.5 156.5 Z M 224.5 156.5 L 224.5 151.5 L 219.5 151.5 L 219.5 156.5 Z M 231.5 156.5 L 231.5 151.5 L 226.5 151.5 L 226.5 156.5 Z M 245.5 156.5 L 245.5 151.5 L 240.5 151.5 L 240.5 156.5 Z M 259.5 156.5 L 259.5 151.5 L 254.5 151.5 L 254.5 156.5 Z M 266.5 156.5 L 266.5 151.5 L 261.5 151.5 L 261.5 156.5 Z M 273.5 156.5 L 273.5 151.5 L 268.5 151.5 L 268.5 156.5 Z M 14.5 163.5 L 14.5 158.5 L 9.5 158.5 L 9.5 163.5 Z M 21.5 163.5 L 21.5 158.5 L 16.5 158.5 L 16.5 163.5 Z M 49.5 163.5 L 49.5 158.5 L 44.5 158.5 L 44.5 163.5 Z M 56.5 163.5 L 56.5 158.5 L 51.5 158.5 L 51.5 163.5 Z M 63.5 163.5 L 63.5 158.5 L 58.5 158.5 L 58.5 163.5 Z M 70.5 163.5 L 70.5 158.5 L 65.5 158.5 L 65.5 163.5 Z M 77.5 163.5 L 77.5 158.5 L 72.5 158.5 L 72.5 163.5 Z M 84.5 163.5 L 84.5 158.5 L 79.5 158.5 L 79.5 163.5 Z M 112.5 163.5 L 112.5 158.5 L 107.5 158.5 L 107.5 163.5 Z M 119.5 163.5 L 119.5 158.5 L 114.5 158.5 L 114.5 163.5 Z M 126.5 163.5 L 126.5 158.5 L 121.5 158.5 L 121.5 163.5 Z M 154.5 163.5 L 154.5 158.5 L 149.5 158.5 L 149.5 163.5 Z M 161.5 163.5 L 161.5 158.5 L 156.5 158.5 L 156.5 163.5 Z M 168.5 163.5 L 168.5 158.5 L 163.5 158.5 L 163.5 163.5 Z M 182.5 163.5 L 182.5 158.5 L 177.5 158.5 L 177.5 163.5 Z M 189.5 163.5 L 189.5 158.5 L 184.5 158.5 L 184.5 163.5 Z M 231.5 163.5 L 231.5 158.5 L 226.5 158.5 L 226.5 163.5 Z M 238.5 163.5 L 238.5 158.5 L 233.5 158.5 L 233.5 163.5 Z M 245.5 163.5 L 245.5 158.5 L 240.5 158.5 L 240.5 163.5 Z M 252.5 163.5 L 252.5 158.5 L 247.5 158.5 L 247.5 163.5 Z M 259.5 163.5 L 259.5 158.5 L 254.5 158.5 L 254.5 163.5 Z M 273.5 163.5 L 273.5 158.5 L 268.5 158.5 L 268.5 163.5 Z M 14.5 170.5 L 14.5 165.5 L 9.5 165.5 L 9.5 170.5 Z M 21.5 170.5 L 21.5 165.5 L 16.5 165.5 L 16.5 170.5 Z M 42.5 170.5 L 42.5 165.5 L 37.5 165.5 L 37.5 170.5 Z M 49.5 170.5 L 49.5 165.5 L 44.5 165.5 L 44.5 170.5 Z M 84.5 170.5 L 84.5 165.5 L 79.5 165.5 L 79.5 170.5 Z M 105.5 170.5 L 105.5 165.5 L 100.5 165.5 L 100.5 170.5 Z M 112.5 170.5 L 112.5 165.5 L 107.5 165.5 L 107.5 170.5 Z M 126.5 170.5 L 126.5 165.5 L 121.5 165.5 L 121.5 170.5 Z M 147.5 170.5 L 147.5 165.5 L 142.5 165.5 L 142.5 170.5 Z M 154.5 170.5 L 154.5 165.5 L 149.5 165.5 L 149.5 170.5 Z M 168.5 170.5 L 168.5 165.5 L 163.5 165.5 L 163.5 170.5 Z M 175.5 170.5 L 175.5 165.5 L 170.5 165.5 L 170.5 170.5 Z M 182.5 170.5 L 182.5 165.5 L 177.5 165.5 L 177.5 170.5 Z M 189.5 170.5 L 189.5 165.5 L 184.5 165.5 L 184.5 170.5 Z M 224.5 170.5 L 224.5 165.5 L 219.5 165.5 L 219.5 170.5 Z M 231.5 170.5 L 231.5 165.5 L 226.5 165.5 L 226.5 170.5 Z M 259.5 170.5 L 259.5 165.5 L 254.5 165.5 L 254.5 170.5 Z M 266.5 170.5 L 266.5 165.5 L 261.5 165.5 L 261.5 170.5 Z M 273.5 170.5 L 273.5 165.5 L 268.5 165.5 L 268.5 170.5 Z M 287.5 170.5 L 287.5 165.5 L 282.5 165.5 L 282.5 170.5 Z M 21.5 177.5 L 21.5 172.5 L 16.5 172.5 L 16.5 177.5 Z M 35.5 177.5 L 35.5 172.5 L 30.5 172.5 L 30.5 177.5 Z M 42.5 177.5 L 42.5 172.5 L 37.5 172.5 L 37.5 177.5 Z M 49.5 177.5 L 49.5 172.5 L 44.5 172.5 L 44.5 177.5 Z M 77.5 177.5 L 77.5 172.5 L 72.5 172.5 L 72.5 177.5 Z M 84.5 177.5 L 84.5 172.5 L 79.5 172.5 L 79.5 177.5 Z M 98.5 177.5 L 98.5 172.5 L 93.5 172.5 L 93.5 177.5 Z M 105.5 177.5 L 105.5 172.5 L 100.5 172.5 L 100.5 177.5 Z M 112.5 177.5 L 112.5 172.5 L 107.5 172.5 L 107.5 177.5 Z M 119.5 177.5 L 119.5 172.5 L 114.5 172.5 L 114.5 177.5 Z M 126.5 177.5 L 126.5 172.5 L 121.5 172.5 L 121.5 177.5 Z M 140.5 177.5 L 140.5 172.5 L 135.5 172.5 L 135.5 177.5 Z M 147.5 177.5 L 147.5 172.5 L 142.5 172.5 L 142.5 177.5 Z M 154.5 177.5 L 154.5 172.5 L 149.5 172.5 L 149.5 177.5 Z M 161.5 177.5 L 161.5 172.5 L 156.5 172.5 L 156.5 177.5 Z M 168.5 177.5 L 168.5 172.5 L 163.5 172.5 L 163.5 177.5 Z M 189.5 177.5 L 189.5 172.5 L 184.5 172.5 L 184.5 177.5 Z M 217.5 177.5 L 217.5 172.5 L 212.5 172.5 L 212.5 177.5 Z M 224.5 177.5 L 224.5 172.5 L 219.5 172.5 L 219.5 177.5 Z M 231.5 177.5 L 231.5 172.5 L 226.5 172.5 L 226.5 177.5 Z M 252.5 177.5 L 252.5 172.5 L 247.5 172.5 L 247.5 177.5 Z M 259.5 177.5 L 259.5 172.5 L 254.5 172.5 L 254.5 177.5 Z M 273.5 177.5 L 273.5 172.5 L 268.5 172.5 L 268.5 177.5 Z M 280.5 177.5 L 280.5 172.5 L 275.5 172.5 L 275.5 177.5 Z M 287.5 177.5 L 287.5 172.5 L 282.5 172.5 L 282.5 177.5 Z M 14.5 184.5 L 14.5 179.5 L 9.5 179.5 L 9.5 184.5 Z M 21.5 184.5 L 21.5 179.5 L 16.5 179.5 L 16.5 184.5 Z M 28.5 184.5 L 28.5 179.5 L 23.5 179.5 L 23.5 184.5 Z M 35.5 184.5 L 35.5 179.5 L 30.5 179.5 L 30.5 184.5 Z M 49.5 184.5 L 49.5 179.5 L 44.5 179.5 L 44.5 184.5 Z M 70.5 184.5 L 70.5 179.5 L 65.5 179.5 L 65.5 184.5 Z M 77.5 184.5 L 77.5 179.5 L 72.5 179.5 L 72.5 184.5 Z M 84.5 184.5 L 84.5 179.5 L 79.5 179.5 L 79.5 184.5 Z M 91.5 184.5 L 91.5 179.5 L 86.5 179.5 L 86.5 184.5 Z M 98.5 184.5 L 98.5 179.5 L 93.5 179.5 L 93.5 184.5 Z M 126.5 184.5 L 126.5 179.5 L 121.5 179.5 L 121.5 184.5 Z M 133.5 184.5 L 133.5 179.5 L 128.5 179.5 L 128.5 184.5 Z M 140.5 184.5 L 140.5 179.5 L 135.5 179.5 L 135.5 184.5 Z M 168.5 184.5 L 168.5 179.5 L 163.5 179.5 L 163.5 184.5 Z M 182.5 184.5 L 182.5 179.5 L 177.5 179.5 L 177.5 184.5 Z M 189.5 184.5 L 189.5 179.5 L 184.5 179.5 L 184.5 184.5 Z M 210.5 184.5 L 210.5 179.5 L 205.5 179.5 L 205.5 184.5 Z M 217.5 184.5 L 217.5 179.5 L 212.5 179.5 L 212.5 184.5 Z M 231.5 184.5 L 231.5 179.5 L 226.5 179.5 L 226.5 184.5 Z M 245.5 184.5 L 245.5 179.5 L 240.5 179.5 L 240.5 184.5 Z M 252.5 184.5 L 252.5 179.5 L 247.5 179.5 L 247.5 184.5 Z M 259.5 184.5 L 259.5 179.5 L 254.5 179.5 L 254.5 184.5 Z M 266.5 184.5 L 266.5 179.5 L 261.5 179.5 L 261.5 184.5 Z M 273.5 184.5 L 273.5 179.5 L 268.5 179.5 L 268.5 184.5 Z M 287.5 184.5 L 287.5 179.5 L 282.5 179.5 L 282.5 184.5 Z M 35.5 191.5 L 35.5 186.5 L 30.5 186.5 L 30.5 191.5 Z M 42.5 191.5 L 42.5 186.5 L 37.5 186.5 L 37.5 191.5 Z M 49.5 191.5 L 49.5 186.5 L 44.5 186.5 L 44.5 191.5 Z M 63.5 191.5 L 63.5 186.5 L 58.5 186.5 L 58.5 191.5 Z M 70.5 191.5 L 70.5 186.5 L 65.5 186.5 L 65.5 191.5 Z M 98.5 191.5 L 98.5 186.5 L 93.5 186.5 L 93.5 191.5 Z M 119.5 191.5 L 119.5 186.5 L 114.5 186.5 L 114.5 191.5 Z M 126.5 191.5 L 126.5 186.5 L 121.5 186.5 L 121.5 191.5 Z M 140.5 191.5 L 140.5 186.5 L 135.5 186.5 L 135.5 191.5 Z M 161.5 191.5 L 161.5 186.5 L 156.5 186.5 L 156.5 191.5 Z M 168.5 191.5 L 168.5 186.5 L 163.5 186.5 L 163.5 191.5 Z M 175.5 191.5 L 175.5 186.5 L 170.5 186.5 L 170.5 191.5 Z M 182.5 191.5 L 182.5 186.5 L 177.5 186.5 L 177.5 191.5 Z M 189.5 191.5 L 189.5 186.5 L 184.5 186.5 L 184.5 191.5 Z M 203.5 191.5 L 203.5 186.5 L 198.5 186.5 L 198.5 191.5 Z M 210.5 191.5 L 210.5 186.5 L 205.5 186.5 L 205.5 191.5 Z M 217.5 191.5 L 217.5 186.5 L 212.5 186.5 L 212.5 191.5 Z M 224.5 191.5 L 224.5 186.5 L 219.5 186.5 L 219.5 191.5 Z M 231.5 191.5 L 231.5 186.5 L 226.5 186.5 L 226.5 191.5 Z M 238.5 191.5 L 238.5 186.5 L 233.5 186.5 L 233.5 191.5 Z M 245.5 191.5 L 245.5 186.5 L 240.5 186.5 L 240.5 191.5 Z M 273.5 191.5 L 273.5 186.5 L 268.5 186.5 L 268.5 191.5 Z M 280.5 191.5 L 280.5 186.5 L 275.5 186.5 L 275.5 191.5 Z M 287.5 191.5 L 287.5 186.5 L 282.5 186.5 L 282.5 191.5 Z M 28.5 198.5 L 28.5 193.5 L 23.5 193.5 L 23.5 198.5 Z M 35.5 198.5 L 35.5 193.5 L 30.5 193.5 L 30.5 198.5 Z M 49.5 198.5 L 49.5 193.5 L 44.5 193.5 L 44.5 198.5 Z M 56.5 198.5 L 56.5 193.5 L 51.5 193.5 L 51.5 198.5 Z M 63.5 198.5 L 63.5 193.5 L 58.5 193.5 L 58.5 198.5 Z M 70.5 198.5 L 70.5 193.5 L 65.5 193.5 L 65.5 198.5 Z M 91.5 198.5 L 91.5 193.5 L 86.5 193.5 L 86.5 198.5 Z M 98.5 198.5 L 98.5 193.5 L 93.5 193.5 L 93.5 198.5 Z M 112.5 198.5 L 112.5 193.5 L 107.5 193.5 L 107.5 198.5 Z M 119.5 198.5 L 119.5 193.5 L 114.5 193.5 L 114.5 198.5 Z M 126.5 198.5 L 126.5 193.5 L 121.5 193.5 L 121.5 198.5 Z M 133.5 198.5 L 133.5 193.5 L 128.5 193.5 L 128.5 198.5 Z M 140.5 198.5 L 140.5 193.5 L 135.5 193.5 L 135.5 198.5 Z M 154.5 198.5 L 154.5 193.5 L 149.5 193.5 L 149.5 198.5 Z M 161.5 198.5 L 161.5 193.5 L 156.5 193.5 L 156.5 198.5 Z M 189.5 198.5 L 189.5 193.5 L 184.5 193.5 L 184.5 198.5 Z M 196.5 198.5 L 196.5 193.5 L 191.5 193.5 L 191.5 198.5 Z M 203.5 198.5 L 203.5 193.5 L 198.5 193.5 L 198.5 198.5 Z M 245.5 198.5 L 245.5 193.5 L 240.5 193.5 L 240.5 198.5 Z M 266.5 198.5 L 266.5 193.5 L 261.5 193.5 L 261.5 198.5 Z M 273.5 198.5 L 273.5 193.5 L 268.5 193.5 L 268.5 198.5 Z M 287.5 198.5 L 287.5 193.5 L 282.5 193.5 L 282.5 198.5 Z M 21.5 205.5 L 21.5 200.5 L 16.5 200.5 L 16.5 205.5 Z M 28.5 205.5 L 28.5 200.5 L 23.5 200.5 L 23.5 205.5 Z M 35.5 205.5 L 35.5 200.5 L 30.5 200.5 L 30.5 205.5 Z M 42.5 205.5 L 42.5 200.5 L 37.5 200.5 L 37.5 205.5 Z M 49.5 205.5 L 49.5 200.5 L 44.5 200.5 L 44.5 205.5 Z M 70.5 205.5 L 70.5 200.5 L 65.5 200.5 L 65.5 205.5 Z M 84.5 205.5 L 84.5 200.5 L 79.5 200.5 L 79.5 205.5 Z M 91.5 205.5 L 91.5 200.5 L 86.5 200.5 L 86.5 205.5 Z M 98.5 205.5 L 98.5 200.5 L 93.5 200.5 L 93.5 205.5 Z M 105.5 205.5 L 105.5 200.5 L 100.5 200.5 L 100.5 205.5 Z M 112.5 205.5 L 112.5 200.5 L 107.5 200.5 L 107.5 205.5 Z M 140.5 205.5 L 140.5 200.5 L 135.5 200.5 L 135.5 205.5 Z M 147.5 205.5 L 147.5 200.5 L 142.5 200.5 L 142.5 205.5 Z M 154.5 205.5 L 154.5 200.5 L 149.5 200.5 L 149.5 205.5 Z M 161.5 205.5 L 161.5 200.5 L 156.5 200.5 L 156.5 205.5 Z M 182.5 205.5 L 182.5 200.5 L 177.5 200.5 L 177.5 205.5 Z M 189.5 205.5 L 189.5 200.5 L 184.5 200.5 L 184.5 205.5 Z M 203.5 205.5 L 203.5 200.5 L 198.5 200.5 L 198.5 205.5 Z M 238.5 205.5 L 238.5 200.5 L 233.5 200.5 L 233.5 205.5 Z M 245.5 205.5 L 245.5 200.5 L 240.5 200.5 L 240.5 205.5 Z M 259.5 205.5 L 259.5 200.5 L 254.5 200.5 L 254.5 205.5 Z M 266.5 205.5 L 266.5 200.5 L 261.5 200.5 L 261.5 205.5 Z M 273.5 205.5 L 273.5 200.5 L 268.5 200.5 L 268.5 205.5 Z M 280.5 205.5 L 280.5 200.5 L 275.5 200.5 L 275.5 205.5 Z M 287.5 205.5 L 287.5 200.5 L 282.5 200.5 L 282.5 205.5 Z M 14.5 212.5 L 14.5 207.5 L 9.5 207.5 L 9.5 212.5 Z M 21.5 212.5 L 21.5 207.5 L 16.5 207.5 L 16.5 212.5 Z M 49.5 212.5 L 49.5 207.5 L 44.5 207.5 L 44.5 212.5 Z M 63.5 212.5 L 63.5 207.5 L 58.5 207.5 L 58.5 212.5 Z M 70.5 212.5 L 70.5 207.5 L 65.5 207.5 L 65.5 212.5 Z M 77.5 212.5 L 77.5 207.5 L 72.5 207.5 L 72.5 212.5 Z M 84.5 212.5 L 84.5 207.5 L 79.5 207.5 L 79.5 212.5 Z M 112.5 212.5 L 112.5 207.5 L 107.5 207.5 L 107.5 212.5 Z M 133.5 212.5 L 133.5 207.5 L 128.5 207.5 L 128.5 212.5 Z M 140.5 212.5 L 140.5 207.5 L 135.5 207.5 L 135.5 212.5 Z M 161.5 212.5 L 161.5 207.5 L 156.5 207.5 L 156.5 212.5 Z M 175.5 212.5 L 175.5 207.5 L 170.5 207.5 L 170.5 212.5 Z M 182.5 212.5 L 182.5 207.5 L 177.5 207.5 L 177.5 212.5 Z M 189.5 212.5 L 189.5 207.5 L 184.5 207.5 L 184.5 212.5 Z M 196.5 212.5 L 196.5 207.5 L 191.5 207.5 L 191.5 212.5 Z M 203.5 212.5 L 203.5 207.5 L 198.5 207.5 L 198.5 212.5 Z M 231.5 212.5 L 231.5 207.5 L 226.5 207.5 L 226.5 212.5 Z M 238.5 212.5 L 238.5 207.5 L 233.5 207.5 L 233.5 212.5 Z M 245.5 212.5 L 245.5 207.5 L 240.5 207.5 L 240.5 212.5 Z M 252.5 212.5 L 252.5 207.5 L 247.5 207.5 L 247.5 212.5 Z M 259.5 212.5 L 259.5 207.5 L 254.5 207.5 L 254.5 212.5 Z M 287.5 212.5 L 287.5 207.5 L 282.5 207.5 L 282.5 212.5 Z M 21.5 219.5 L 21.5 214.5 L 16.5 214.5 L 16.5 219.5 Z M 42.5 219.5 L 42.5 214.5 L 37.5 214.5 L 37.5 219.5 Z M 49.5 219.5 L 49.5 214.5 L 44.5 214.5 L 44.5 219.5 Z M 56.5 219.5 L 56.5 214.5 L 51.5 214.5 L 51.5 219.5 Z M 63.5 219.5 L 63.5 214.5 L 58.5 214.5 L 58.5 219.5 Z M 84.5 219.5 L 84.5 214.5 L 79.5 214.5 L 79.5 219.5 Z M 105.5 219.5 L 105.5 214.5 L 100.5 214.5 L 100.5 219.5 Z M 112.5 219.5 L 112.5 214.5 L 107.5 214.5 L 107.5 219.5 Z M 126.5 219.5 L 126.5 214.5 L 121.5 214.5 L 121.5 219.5 Z M 133.5 219.5 L 133.5 214.5 L 128.5 214.5 L 128.5 219.5 Z M 140.5 219.5 L 140.5 214.5 L 135.5 214.5 L 135.5 219.5 Z M 154.5 219.5 L 154.5 214.5 L 149.5 214.5 L 149.5 219.5 Z M 161.5 219.5 L 161.5 214.5 L 156.5 214.5 L 156.5 219.5 Z M 168.5 219.5 L 168.5 214.5 L 163.5 214.5 L 163.5 219.5 Z M 175.5 219.5 L 175.5 214.5 L 170.5 214.5 L 170.5 219.5 Z M 203.5 219.5 L 203.5 214.5 L 198.5 214.5 L 198.5 219.5 Z M 224.5 219.5 L 224.5 214.5 L 219.5 214.5 L 219.5 219.5 Z M 231.5 219.5 L 231.5 214.5 L 226.5 214.5 L 226.5 219.5 Z M 259.5 219.5 L 259.5 214.5 L 254.5 214.5 L 254.5 219.5 Z M 280.5 219.5 L 280.5 214.5 L 275.5 214.5 L 275.5 219.5 Z M 287.5 219.5 L 287.5 214.5 L 282.5 214.5 L 282.5 219.5 Z M 14.5 226.5 L 14.5 221.5 L 9.5 221.5 L 9.5 226.5 Z M 21.5 226.5 L 21.5 221.5 L 16.5 221.5 L 16.5 226.5 Z M 35.5 226.5 L 35.5 221.5 L 30.5 221.5 L 30.5 226.5 Z M 42.5 226.5 L 42.5 221.5 L 37.5 221.5 L 37.5 226.5 Z M 63.5 226.5 L 63.5 221.5 L 58.5 221.5 L 58.5 226.5 Z M 77.5 226.5 L 77.5 221.5 L 72.5 221.5 L 72.5 226.5 Z M 84.5 226.5 L 84.5 221.5 L 79.5 221.5 L 79.5 226.5 Z M 98.5 226.5 L 98.5 221.5 L 93.5 221.5 L 93.5 226.5 Z M 105.5 226.5 L 105.5 221.5 L 100.5 221.5 L 100.5 226.5 Z M 112.5 226.5 L 112.5 221.5 L 107.5 221.5 L 107.5 226.5 Z M 119.5 226.5 L 119.5 221.5 L 114.5 221.5 L 114.5 226.5 Z M 126.5 226.5 L 126.5 221.5 L 121.5 221.5 L 121.5 226.5 Z M 140.5 226.5 L 140.5 221.5 L 135.5 221.5 L 135.5 226.5 Z M 147.5 226.5 L 147.5 221.5 L 142.5 221.5 L 142.5 226.5 Z M 154.5 226.5 L 154.5 221.5 L 149.5 221.5 L 149.5 226.5 Z M 175.5 226.5 L 175.5 221.5 L 170.5 221.5 L 170.5 226.5 Z M 196.5 226.5 L 196.5 221.5 L 191.5 221.5 L 191.5 226.5 Z M 203.5 226.5 L 203.5 221.5 L 198.5 221.5 L 198.5 226.5 Z M 217.5 226.5 L 217.5 221.5 L 212.5 221.5 L 212.5 226.5 Z M 224.5 226.5 L 224.5 221.5 L 219.5 221.5 L 219.5 226.5 Z M 231.5 226.5 L 231.5 221.5 L 226.5 221.5 L 226.5 226.5 Z M 252.5 226.5 L 252.5 221.5 L 247.5 221.5 L 247.5 226.5 Z M 259.5 226.5 L 259.5 221.5 L 254.5 221.5 L 254.5 226.5 Z M 273.5 226.5 L 273.5 221.5 L 268.5 221.5 L 268.5 226.5 Z M 280.5 226.5 L 280.5 221.5 L 275.5 221.5 L 275.5 226.5 Z M 287.5 226.5 L 287.5 221.5 L 282.5 221.5 L 282.5 226.5 Z M 21.5 233.5 L 21.5 228.5 L 16.5 228.5 L 16.5 233.5 Z M 28.5 233.5 L 28.5 228.5 L 23.5 228.5 L 23.5 233.5 Z M 35.5 233.5 L 35.5 228.5 L 30.5 228.5 L 30.5 233.5 Z M 42.5 233.5 L 42.5 228.5 L 37.5 228.5 L 37.5 233.5 Z M 56.5 233.5 L 56.5 228.5 L 51.5 228.5 L 51.5 233.5 Z M 63.5 233.5 L 63.5 228.5 L 58.5 228.5 L 58.5 233.5 Z M 70.5 233.5 L 70.5 228.5 L 65.5 228.5 L 65.5 233.5 Z M 77.5 233.5 L 77.5 228.5 L 72.5 228.5 L 72.5 233.5 Z M 84.5 233.5 L 84.5 228.5 L 79.5 228.5 L 79.5 233.5 Z M 91.5 233.5 L 91.5 228.5 L 86.5 228.5 L 86.5 233.5 Z M 98.5 233.5 L 98.5 228.5 L 93.5 228.5 L 93.5 233.5 Z M 126.5 233.5 L 126.5 228.5 L 121.5 228.5 L 121.5 233.5 Z M 133.5 233.5 L 133.5 228.5 L 128.5 228.5 L 128.5 233.5 Z M 140.5 233.5 L 140.5 228.5 L 135.5 228.5 L 135.5 233.5 Z M 154.5 233.5 L 154.5 228.5 L 149.5 228.5 L 149.5 233.5 Z M 168.5 233.5 L 168.5 228.5 L 163.5 228.5 L 163.5 233.5 Z M 175.5 233.5 L 175.5 228.5 L 170.5 228.5 L 170.5 233.5 Z M 189.5 233.5 L 189.5 228.5 L 184.5 228.5 L 184.5 233.5 Z M 196.5 233.5 L 196.5 228.5 L 191.5 228.5 L 191.5 233.5 Z M 203.5 233.5 L 203.5 228.5 L 198.5 228.5 L 198.5 233.5 Z M 210.5 233.5 L 210.5 228.5 L 205.5 228.5 L 205.5 233.5 Z M 217.5 233.5 L 217.5 228.5 L 212.5 228.5 L 212.5 233.5 Z M 231.5 233.5 L 231.5 228.5 L 226.5 228.5 L 226.5 233.5 Z M 245.5 233.5 L 245.5 228.5 L 240.5 228.5 L 240.5 233.5 Z M 252.5 233.5 L 252.5 228.5 L 247.5 228.5 L 247.5 233.5 Z M 259.5 233.5 L 259.5 228.5 L 254.5 228.5 L 254.5 233.5 Z M 266.5 233.5 L 266.5 228.5 L 261.5 228.5 L 261.5 233.5 Z M 273.5 233.5 L 273.5 228.5 L 268.5 228.5 L 268.5 233.5 Z M 14.5 240.5 L 14.5 235.5 L 9.5 235.5 L 9.5 240.5 Z M 21.5 240.5 L 21.5 235.5 L 16.5 235.5 L 16.5 240.5 Z M 42.5 240.5 L 42.5 235.5 L 37.5 235.5 L 37.5 240.5 Z M 49.5 240.5 L 49.5 235.5 L 44.5 235.5 L 44.5 240.5 Z M 56.5 240.5 L 56.5 235.5 L 51.5 235.5 L 51.5 240.5 Z M 98.5 240.5 L 98.5 235.5 L 93.5 235.5 L 93.5 240.5 Z M 119.5 240.5 L 119.5 235.5 L 114.5 235.5 L 114.5 240.5 Z M 126.5 240.5 L 126.5 235.5 L 121.5 235.5 L 121.5 240.5 Z M 140.5 240.5 L 140.5 235.5 L 135.5 235.5 L 135.5 240.5 Z M 147.5 240.5 L 147.5 235.5 L 142.5 235.5 L 142.5 240.5 Z M 154.5 240.5 L 154.5 235.5 L 149.5 235.5 L 149.5 240.5 Z M 161.5 240.5 L 161.5 235.5 L 156.5 235.5 L 156.5 240.5 Z M 168.5 240.5 L 168.5 235.5 L 163.5 235.5 L 163.5 240.5 Z M 175.5 240.5 L 175.5 235.5 L 170.5 235.5 L 170.5 240.5 Z M 182.5 240.5 L 182.5 235.5 L 177.5 235.5 L 177.5 240.5 Z M 189.5 240.5 L 189.5 235.5 L 184.5 235.5 L 184.5 240.5 Z M 217.5 240.5 L 217.5 235.5 L 212.5 235.5 L 212.5 240.5 Z M 224.5 240.5 L 224.5 235.5 L 219.5 235.5 L 219.5 240.5 Z M 231.5 240.5 L 231.5 235.5 L 226.5 235.5 L 226.5 240.5 Z M 238.5 240.5 L 238.5 235.5 L 233.5 235.5 L 233.5 240.5 Z M 245.5 240.5 L 245.5 235.5 L 240.5 235.5 L 240.5 240.5 Z M 273.5 240.5 L 273.5 235.5 L 268.5 235.5 L 268.5 240.5 Z M 14.5 247.5 L 14.5 242.5 L 9.5 242.5 L 9.5 247.5 Z M 21.5 247.5 L 21.5 242.5 L 16.5 242.5 L 16.5 247.5 Z M 35.5 247.5 L 35.5 242.5 L 30.5 242.5 L 30.5 247.5 Z M 42.5 247.5 L 42.5 242.5 L 37.5 242.5 L 37.5 247.5 Z M 56.5 247.5 L 56.5 242.5 L 51.5 242.5 L 51.5 247.5 Z M 91.5 247.5 L 91.5 242.5 L 86.5 242.5 L 86.5 247.5 Z M 98.5 247.5 L 98.5 242.5 L 93.5 242.5 L 93.5 247.5 Z M 112.5 247.5 L 112.5 242.5 L 107.5 242.5 L 107.5 247.5 Z M 119.5 247.5 L 119.5 242.5 L 114.5 242.5 L 114.5 247.5 Z M 126.5 247.5 L 126.5 242.5 L 121.5 242.5 L 121.5 247.5 Z M 133.5 247.5 L 133.5 242.5 L 128.5 242.5 L 128.5 247.5 Z M 140.5 247.5 L 140.5 242.5 L 135.5 242.5 L 135.5 247.5 Z M 189.5 247.5 L 189.5 242.5 L 184.5 242.5 L 184.5 247.5 Z M 210.5 247.5 L 210.5 242.5 L 205.5 242.5 L 205.5 247.5 Z M 217.5 247.5 L 217.5 242.5 L 212.5 242.5 L 212.5 247.5 Z M 245.5 247.5 L 245.5 242.5 L 240.5 242.5 L 240.5 247.5 Z M 266.5 247.5 L 266.5 242.5 L 261.5 242.5 L 261.5 247.5 Z M 273.5 247.5 L 273.5 242.5 L 268.5 242.5 L 268.5 247.5 Z M 287.5 247.5 L 287.5 242.5 L 282.5 242.5 L 282.5 247.5 Z M 21.5 254.5 L 21.5 249.5 L 16.5 249.5 L 16.5 254.5 Z M 28.5 254.5 L 28.5 249.5 L 23.5 249.5 L 23.5 254.5 Z M 35.5 254.5 L 35.5 249.5 L 30.5 249.5 L 30.5 254.5 Z M 42.5 254.5 L 42.5 249.5 L 37.5 249.5 L 37.5 254.5 Z M 49.5 254.5 L 49.5 249.5 L 44.5 249.5 L 44.5 254.5 Z M 56.5 254.5 L 56.5 249.5 L 51.5 249.5 L 51.5 254.5 Z M 84.5 254.5 L 84.5 249.5 L 79.5 249.5 L 79.5 254.5 Z M 91.5 254.5 L 91.5 249.5 L 86.5 249.5 L 86.5 254.5 Z M 98.5 254.5 L 98.5 249.5 L 93.5 249.5 L 93.5 254.5 Z M 105.5 254.5 L 105.5 249.5 L 100.5 249.5 L 100.5 254.5 Z M 112.5 254.5 L 112.5 249.5 L 107.5 249.5 L 107.5 254.5 Z M 140.5 254.5 L 140.5 249.5 L 135.5 249.5 L 135.5 254.5 Z M 182.5 254.5 L 182.5 249.5 L 177.5 249.5 L 177.5 254.5 Z M 189.5 254.5 L 189.5 249.5 L 184.5 249.5 L 184.5 254.5 Z M 203.5 254.5 L 203.5 249.5 L 198.5 249.5 L 198.5 254.5 Z M 210.5 254.5 L 210.5 249.5 L 205.5 249.5 L 205.5 254.5 Z M 217.5 254.5 L 217.5 249.5 L 212.5 249.5 L 212.5 254.5 Z M 238.5 254.5 L 238.5 249.5 L 233.5 249.5 L 233.5 254.5 Z M 245.5 254.5 L 245.5 249.5 L 240.5 249.5 L 240.5 254.5 Z M 259.5 254.5 L 259.5 249.5 L 254.5 249.5 L 254.5 254.5 Z M 266.5 254.5 L 266.5 249.5 L 261.5 249.5 L 261.5 254.5 Z M 273.5 254.5 L 273.5 249.5 L 268.5 249.5 L 268.5 254.5 Z M 280.5 254.5 L 280.5 249.5 L 275.5 249.5 L 275.5 254.5 Z M 287.5 254.5 L 287.5 249.5 L 282.5 249.5 L 282.5 254.5 Z M 14.5 261.5 L 14.5 256.5 L 9.5 256.5 L 9.5 261.5 Z M 21.5 261.5 L 21.5 256.5 L 16.5 256.5 L 16.5 261.5 Z M 56.5 261.5 L 56.5 256.5 L 51.5 256.5 L 51.5 261.5 Z M 77.5 261.5 L 77.5 256.5 L 72.5 256.5 L 72.5 261.5 Z M 84.5 261.5 L 84.5 256.5 L 79.5 256.5 L 79.5 261.5 Z M 112.5 261.5 L 112.5 256.5 L 107.5 256.5 L 107.5 261.5 Z M 133.5 261.5 L 133.5 256.5 L 128.5 256.5 L 128.5 261.5 Z M 140.5 261.5 L 140.5 256.5 L 135.5 256.5 L 135.5 261.5 Z M 175.5 261.5 L 175.5 256.5 L 170.5 256.5 L 170.5 261.5 Z M 182.5 261.5 L 182.5 256.5 L 177.5 256.5 L 177.5 261.5 Z M 189.5 261.5 L 189.5 256.5 L 184.5 256.5 L 184.5 261.5 Z M 196.5 261.5 L 196.5 256.5 L 191.5 256.5 L 191.5 261.5 Z M 203.5 261.5 L 203.5 256.5 L 198.5 256.5 L 198.5 261.5 Z M 217.5 261.5 L 217.5 256.5 L 212.5 256.5 L 212.5 261.5 Z M 231.5 261.5 L 231.5 256.5 L 226.5 256.5 L 226.5 261.5 Z M 238.5 261.5 L 238.5 256.5 L 233.5 256.5 L 233.5 261.5 Z M 245.5 261.5 L 245.5 256.5 L 240.5 256.5 L 240.5 261.5 Z M 252.5 261.5 L 252.5 256.5 L 247.5 256.5 L 247.5 261.5 Z M 259.5 261.5 L 259.5 256.5 L 254.5 256.5 L 254.5 261.5 Z M 287.5 261.5 L 287.5 256.5 L 282.5 256.5 L 282.5 261.5 Z M 21.5 268.5 L 21.5 263.5 L 16.5 263.5 L 16.5 268.5 Z M 49.5 268.5 L 49.5 263.5 L 44.5 263.5 L 44.5 268.5 Z M 56.5 268.5 L 56.5 263.5 L 51.5 263.5 L 51.5 268.5 Z M 70.5 268.5 L 70.5 263.5 L 65.5 263.5 L 65.5 268.5 Z M 77.5 268.5 L 77.5 263.5 L 72.5 263.5 L 72.5 268.5 Z M 84.5 268.5 L 84.5 263.5 L 79.5 263.5 L 79.5 268.5 Z M 105.5 268.5 L 105.5 263.5 L 100.5 263.5 L 100.5 268.5 Z M 112.5 268.5 L 112.5 263.5 L 107.5 263.5 L 107.5 268.5 Z M 126.5 268.5 L 126.5 263.5 L 121.5 263.5 L 121.5 268.5 Z M 133.5 268.5 L 133.5 263.5 L 128.5 263.5 L 128.5 268.5 Z M 140.5 268.5 L 140.5 263.5 L 135.5 263.5 L 135.5 268.5 Z M 168.5 268.5 L 168.5 263.5 L 163.5 263.5 L 163.5 268.5 Z M 175.5 268.5 L 175.5 263.5 L 170.5 263.5 L 170.5 268.5 Z M 203.5 268.5 L 203.5 263.5 L 198.5 263.5 L 198.5 268.5 Z M 210.5 268.5 L 210.5 263.5 L 205.5 263.5 L 205.5 268.5 Z M 217.5 268.5 L 217.5 263.5 L 212.5 263.5 L 212.5 268.5 Z M 224.5 268.5 L 224.5 263.5 L 219.5 263.5 L 219.5 268.5 Z M 231.5 268.5 L 231.5 263.5 L 226.5 263.5 L 226.5 268.5 Z M 259.5 268.5 L 259.5 263.5 L 254.5 263.5 L 254.5 268.5 Z M 280.5 268.5 L 280.5 263.5 L 275.5 263.5 L 275.5 268.5 Z M 287.5 268.5 L 287.5 263.5 L 282.5 263.5 L 282.5 268.5 Z M 14.5 275.5 L 14.5 270.5 L 9.5 270.5 L 9.5 275.5 Z M 21.5 275.5 L 21.5 270.5 L 16.5 270.5 L 16.5 275.5 Z M 42.5 275.5 L 42.5 270.5 L 37.5 270.5 L 37.5 275.5 Z M 49.5 275.5 L 49.5 270.5 L 44.5 270.5 L 44.5 275.5 Z M 56.5 275.5 L 56.5 270.5 L 51.5 270.5 L 51.5 275.5 Z M 63.5 275.5 L 63.5 270.5 L 58.5 270.5 L 58.5 275.5 Z M 70.5 275.5 L 70.5 270.5 L 65.5 270.5 L 65.5 275.5 Z M 84.5 275.5 L 84.5 270.5 L 79.5 270.5 L 79.5 275.5 Z M 98.5 275.5 L 98.5 270.5 L 93.5 270.5 L 93.5 275.5 Z M 105.5 275.5 L 105.5 270.5 L 100.5 270.5 L 100.5 275.5 Z M 112.5 275.5 L 112.5 270.5 L 107.5 270.5 L 107.5 275.5 Z M 119.5 275.5 L 119.5 270.5 L 114.5 270.5 L 114.5 275.5 Z M 126.5 275.5 L 126.5 270.5 L 121.5 270.5 L 121.5 275.5 Z M 140.5 275.5 L 140.5 270.5 L 135.5 270.5 L 135.5 275.5 Z M 161.5 275.5 L 161.5 270.5 L 156.5 270.5 L 156.5 275.5 Z M 168.5 275.5 L 168.5 270.5 L 163.5 270.5 L 163.5 275.5 Z M 175.5 275.5 L 175.5 270.5 L 170.5 270.5 L 170.5 275.5 Z M 196.5 275.5 L 196.5 270.5 L 191.5 270.5 L 191.5 275.5 Z M 203.5 275.5 L 203.5 270.5 L 198.5 270.5 L 198.5 275.5 Z M 231.5 275.5 L 231.5 270.5 L 226.5 270.5 L 226.5 275.5 Z M 252.5 275.5 L 252.5 270.5 L 247.5 270.5 L 247.5 275.5 Z M 259.5 275.5 L 259.5 270.5 L 254.5 270.5 L 254.5 275.5 Z M 273.5 275.5 L 273.5 270.5 L 268.5 270.5 L 268.5 275.5 Z M 280.5 275.5 L 280.5 270.5 L 275.5 270.5 L 275.5 275.5 Z M 287.5 275.5 L 287.5 270.5 L 282.5 270.5 L 282.5 275.5 Z M 21.5 282.5 L 21.5 277.5 L 16.5 277.5 L 16.5 282.5 Z M 35.5 282.5 L 35.5 277.5 L 30.5 277.5 L 30.5 282.5 Z M 42.5 282.5 L 42.5 277.5 L 37.5 277.5 L 37.5 282.5 Z M 70.5 282.5 L 70.5 277.5 L 65.5 277.5 L 65.5 282.5 Z M 77.5 282.5 L 77.5 277.5 L 72.5 277.5 L 72.5 282.5 Z M 84.5 282.5 L 84.5 277.5 L 79.5 277.5 L 79.5 282.5 Z M 91.5 282.5 L 91.5 277.5 L 86.5 277.5 L 86.5 282.5 Z M 98.5 282.5 L 98.5 277.5 L 93.5 277.5 L 93.5 282.5 Z M 126.5 282.5 L 126.5 277.5 L 121.5 277.5 L 121.5 282.5 Z M 133.5 282.5 L 133.5 277.5 L 128.5 277.5 L 128.5 282.5 Z M 140.5 282.5 L 140.5 277.5 L 135.5 277.5 L 135.5 282.5 Z M 154.5 282.5 L 154.5 277.5 L 149.5 277.5 L 149.5 282.5 Z M 161.5 282.5 L 161.5 277.5 L 156.5 277.5 L 156.5 282.5 Z M 175.5 282.5 L 175.5 277.5 L 170.5 277.5 L 170.5 282.5 Z M 189.5 282.5 L 189.5 277.5 L 184.5 277.5 L 184.5 282.5 Z M 196.5 282.5 L 196.5 277.5 L 191.5 277.5 L 191.5 282.5 Z M 203.5 282.5 L 203.5 277.5 L 198.5 277.5 L 198.5 282.5 Z M 224.5 282.5 L 224.5 277.5 L 219.5 277.5 L 219.5 282.5 Z M 231.5 282.5 L 231.5 277.5 L 226.5 277.5 L 226.5 282.5 Z M 245.5 282.5 L 245.5 277.5 L 240.5 277.5 L 240.5 282.5 Z M 252.5 282.5 L 252.5 277.5 L 247.5 277.5 L 247.5 282.5 Z M 259.5 282.5 L 259.5 277.5 L 254.5 277.5 L 254.5 282.5 Z M 266.5 282.5 L 266.5 277.5 L 261.5 277.5 L 261.5 282.5 Z M 273.5 282.5 L 273.5 277.5 L 268.5 277.5 L 268.5 282.5 Z M 14.5 289.5 L 14.5 284.5 L 9.5 284.5 L 9.5 289.5 Z M 21.5 289.5 L 21.5 284.5 L 16.5 284.5 L 16.5 289.5 Z M 28.5 289.5 L 28.5 284.5 L 23.5 284.5 L 23.5 289.5 Z M 35.5 289.5 L 35.5 284.5 L 30.5 284.5 L 30.5 289.5 Z M 42.5 289.5 L 42.5 284.5 L 37.5 284.5 L 37.5 289.5 Z M 63.5 289.5 L 63.5 284.5 L 58.5 284.5 L 58.5 289.5 Z M 70.5 289.5 L 70.5 284.5 L 65.5 284.5 L 65.5 289.5 Z M 98.5 289.5 L 98.5 284.5 L 93.5 284.5 L 93.5 289.5 Z M 119.5 289.5 L 119.5 284.5 L 114.5 284.5 L 114.5 289.5 Z M 126.5 289.5 L 126.5 284.5 L 121.5 284.5 L 121.5 289.5 Z M 140.5 289.5 L 140.5 284.5 L 135.5 284.5 L 135.5 289.5 Z M 147.5 289.5 L 147.5 284.5 L 142.5 284.5 L 142.5 289.5 Z M 154.5 289.5 L 154.5 284.5 L 149.5 284.5 L 149.5 289.5 Z M 161.5 289.5 L 161.5 284.5 L 156.5 284.5 L 156.5 289.5 Z M 168.5 289.5 L 168.5 284.5 L 163.5 284.5 L 163.5 289.5 Z M 175.5 289.5 L 175.5 284.5 L 170.5 284.5 L 170.5 289.5 Z M 182.5 289.5 L 182.5 284.5 L 177.5 284.5 L 177.5 289.5 Z M 189.5 289.5 L 189.5 284.5 L 184.5 284.5 L 184.5 289.5 Z M 203.5 289.5 L 203.5 284.5 L 198.5 284.5 L 198.5 289.5 Z M 217.5 289.5 L 217.5 284.5 L 212.5 284.5 L 212.5 289.5 Z M 224.5 289.5 L 224.5 284.5 L 219.5 284.5 L 219.5 289.5 Z M 231.5 289.5 L 231.5 284.5 L 226.5 284.5 L 226.5 289.5 Z M 238.5 289.5 L 238.5 284.5 L 233.5 284.5 L 233.5 289.5 Z M 245.5 289.5 L 245.5 284.5 L 240.5 284.5 L 240.5 289.5 Z M 273.5 289.5 L 273.5 284.5 L 268.5 284.5 L 268.5 289.5 Z M 273.5 289.5 "/>
</g>
</svg>
