<?xml version="1.0" encoding="UTF-8"?>
<svg xmlns="http://www.w3.org/2000/svg" xmlns:xlink="http://www.w3.org/1999/xlink" width="300pt" height="300pt" viewBox="0 0 300 300" version="1.1">
<g id="surface8953">
<rect x="0" y="0" width="300" height="300" style="fill:rgb(0%,0%,0%);fill-opacity:1;stroke:none;"/>
<path style=" stroke:none;fill-rule:nonzero;fill:rgb(80%,80%,80%);fill-opacity:1;" d="M 297 150 L 296.953125 263.96875 L 296.816406 272.109375 L 296.589844 277.097656 L 296.265625 280.710938 L 295.839844 283.535156 L 295.3125 285.839844 L 294.675781 287.761719 L 293.917969 289.390625 L 293.027344 290.789062 L 291.992188 291.992188 L 290.789062 293.027344 L 289.390625 293.917969 L 287.761719 294.675781 L 285.839844 295.3125 L 283.535156 295.839844 L 280.710938 296.265625 L 277.097656 296.589844 L 272.109375 296.816406 L 263.96875 296.953125 L 153.515625 297 L 36.03125 296.953125 L 27.890625 296.816406 L 22.902344 296.589844 L 19.289062 296.265625 L 16.464844 295.839844 L 14.160156 295.3125 L 12.238281 294.675781 L 10.609375 293.917969 L 9.210938 293.027344 L 8.007812 291.992188 L 6.972656 290.789062 L 6.082031 289.390625 L 5.324219 287.761719 L 4.6875 285.839844 L 4.160156 283.535156 L 3.734375 280.710938 L 3.410156 277.097656 L 3.183594 272.109375 L 3.046875 263.96875 L 3 153.769531 L 3.046875 36.03125 L 3.183594 27.890625 L 3.410156 22.902344 L 3.734375 19.289062 L 4.160156 16.464844 L 4.6875 14.160156 L 5.324219 12.238281 L 6.082031 10.609375 L 6.972656 9.210938 L 8.007812 8.007812 L 9.210938 6.972656 L 10.609375 6.082031 L 12.238281 5.324219 L 14.160156 4.6875 L 16.464844 4.160156 L 19.289062 3.734375 L 22.902344 3.410156 L 27.890625 3.183594 L 36.03125 3.046875 L 146.074219 3 L 263.96875 3.046875 L 272.109375 3.183594 L 277.097656 3.410156 L 280.710938 3.734375 L 283.535156 4.160156 L 285.839844 4.6875 L 287.761719 5.324219 L 289.390625 6.082031 L 290.789062 6.972656 L 291.992188 8.007812 L 293.027344 9.210938 L 293.917969 10.609375 L 294.675781 12.238281 L 295.3125 14.160156 L 295.839844 16.464844 L 296.265625 19.289062 L 296.589844 22.902344 L 296.816406 27.890625 L 296.953125 36.03125 L 297 145.960938 Z M 28.5 16.5 L 28.5 11.5 L 23.5 11.5 L 23.5 16.5 Z M 49.5 16.5 L 49.5 11.5 L 44.5 11.5 L 44.5 16.5 Z M 56.5 16.5 L 56.5 11.5 L 51.5 11.5 L 51.5 16.5 Z M 70.5 16.5 L 70.5 11.5 L 65.5 11.5 L 65.5 16.5 Z M 77.5 16.5 L 77.5 11.5 L 72.5 11.5 L 72.5 16.5 Z M 91.5 16.5 L 91.5 11.5 L 86.5 11.5 L 86.5 16.5 Z M 98.5 16.5 L 98.5 11.5 L 93.5 11.5 L 93.5 16.5 Z M 112.5 16.5 L 112.5 11.5 L 107.5 11.5 L 107.5 16.5 Z M 140.5 16.5 L 140.5 11.5 L 135.5 11.5 L 135.5 16.5 Z M 161.5 16.5 L 161.5 11.5 L 156.5 11.5 L 156.5 16.5 Z M 168.5 16.5 L 168.5 11.5 L 163.5 11.5 L 163.5 16.5 Z M 175.5 16.5 L 175.5 11.5 L 170.5 11.5 L 170.5 16.5 Z M 182.5 16.5 L 182.5 11.5 L 177.5 11.5 L 177.5 16.5 Z M 189.5 16.5 L 189.5 11.5 L 184.5 11.5 L 184.5 16.5 Z M 196.5 16.5 L 196.5 11.5 L 191.5 11.5 L 191.5 16.5 Z M 203.5 16.5 L 203.5 11.5 L 198.5 11.5 L 198.5 16.5 Z M 210.5 16.5 L 210.5 11.5 L 205.5 11.5 L 205.5 16.5 Z M 217.5 16.5 L 217.5 11.5 L 212.5 11.5 L 212.5 16.5 Z M 224.5 16.5 L 224.5 11.5 L 219.5 11.5 L 219.5 16.5 Z M 238.5 16.5 L 238.5 11.5 L 233.5 11.5 L 233.5 16.5 Z M 245.5 16.5 L 245.5 11.5 L 240.5 11.5 L 240.5 16.5 Z M 259.5 16.5 L 259.5 11.5 L 254.5 11.5 L 254.5 16.5 Z M 21.5 23.5 L 21.5 18.5 L 16.5 18.5 L 16.5 23.5 Z M 28.5 23.5 L 28.5 18.5 L 23.5 18.5 L 23.5 23.5 Z M 42.5 23.5 L 42.5 18.5 L 37.5 18.5 L 37.5 23.5 Z M 49.5 23.5 L 49.5 18.5 L 44.5 18.5 L 44.5 23.5 Z M 56.5 23.5 L 56.5 18.5 L 51.5 18.5 L 51.5 23.5 Z M 63.5 23.5 L 63.5 18.5 L 58.5 18.5 L 58.5 23.5 Z M 70.5 23.5 L 70.5 18.5 L 65.5 18.5 L 65.5 23.5 Z M 77.5 23.5 L 77.5 18.5 L 72.5 18.5 L 72.5 23.5 Z M 84.5 23.5 L 84.5 18.5 L 79.5 18.5 L 79.5 23.5 Z M 91.5 23.5 L 91.5 18.5 L 86.5 18.5 L 86.5 23.5 Z M 98.5 23.5 L 98.5 18.5 L 93.5 18.5 L 93.5 23.5 Z M 105.5 23.5 L 105.5 18.5 L 100.5 18.5 L 100.5 23.5 Z M 112.5 23.5 L 112.5 18.5 L 107.5 18.5 L 107.5 23.5 Z M 133.5 23.5 L 133.5 18.5 L 128.5 18.5 L 128.5 23.5 Z M 140.5 23.5 L 140.5 18.5 L 135.5 18.5 L 135.5 23.5 Z M 154.5 23.5 L 154.5 18.5 L 149.5 18.5 L 149.5 23.5 Z M 161.5 23.5 L 161.5 18.5 L 156.5 18.5 L 156.5 23.5 Z M 224.5 23.5 L 224.5 18.5 L 219.5 18.5 L 219.5 23.5 Z M 231.5 23.5 L 231.5 18.5 L 226.5 18.5 L 226.5 23.5 Z M 238.5 23.5 L 238.5 18.5 L 233.5 18.5 L 233.5 23.5 Z M 245.5 23.5 L 245.5 18.5 L 240.5 18.5 L 240.5 23.5 Z M 252.5 23.5 L 252.5 18.5 L 247.5 18.5 L 247.5 23.5 Z M 259.5 23.5 L 259.5 18.5 L 254.5 18.5 L 254.5 23.5 Z M 14.5 30.5 L 14.5 25.5 L 9.5 25.5 L 9.5 30.5 Z M 21.5 30.5 L 21.5 25.5 L 16.5 25.5 L 16.5 30.5 Z M 28.5 30.5 L 28.5 25.5 L 23.5 25.5 L 23.5 30.5 Z M 35.5 30.5 L 35.5 25.5 L 30.5 25.5 L 30.5 30.5 Z M 42.5 30.5 L 42.5 25.5 L 37.5 25.5 L 37.5 30.5 Z M 112.5 30.5 L 112.5 25.5 L 107.5 25.5 L 107.5 30.5 Z M 126.5 30.5 L 126.5 25.5 L 121.5 25.5 L 121.5 30.5 Z M 133.5 30.5 L 133.5 25.5 L 128.5 25.5 L 128.5 30.5 Z M 140.5 30.5 L 140.5 25.5 L 135.5 25.5 L 135.5 30.5 Z M 147.5 30.5 L 147.5 25.5 L 142.5 25.5 L 142.5 30.5 Z M 154.5 30.5 L 154.5 25.5 L 149.5 25.5 L 149.5 30.5 Z M 161.5 30.5 L 161.5 25.5 L 156.5 25.5 L 156.5 30.5 Z M 217.5 30.5 L 217.5 25.5 L 212.5 25.5 L 212.5 30.5 Z M 224.5 30.5 L 224.5 25.5 L 219.5 25.5 L 219.5 30.5 Z M 259.5 30.5 L 259.5 25.5 L 254.5 25.5 L 254.5 30.5 Z M 14.5 37.5 L 14.5 32.5 L 9.5 32.5 L 9.5 37.5 Z M 42.5 37.5 L 42.5 32.5 L 37.5 32.5 L 37.5 37.5 Z M 105.5 37.5 L 105.5 32.5 L 100.5 32.5 L 100.5 37.5 Z M 112.5 37.5 L 112.5 32.5 L 107.5 32.5 L 107.5 37.5 Z M 119.5 37.5 L 119.5 32.5 L 114.5 32.5 L 114.5 37.5 Z M 126.5 37.5 L 126.5 32.5 L 121.5 32.5 L 121.5 37.5 Z M 161.5 37.5 L 161.5 32.5 L 156.5 32.5 L 156.5 37.5 Z M 210.5 37.5 L 210.5 32.5 L 205.5 32.5 L 205.5 37.5 Z M 217.5 37.5 L 217.5 32.5 L 212.5 32.5 L 212.5 37.5 Z M 224.5 37.5 L 224.5 32.5 L 219.5 32.5 L 219.5 37.5 Z M 252.5 37.5 L 252.5 32.5 L 247.5 32.5 L 247.5 37.5 Z M 259.5 37.5 L 259.5 32.5 L 254.5 32.5 L 254.5 37.5 Z M 287.5 37.5 L 287.5 32.5 L 282.5 32.5 L 282.5 37.5 Z M 14.5 44.5 L 14.5 39.5 L 9.5 39.5 L 9.5 44.5 Z M 35.5 44.5 L 35.5 39.5 L 30.5 39.5 L 30.5 44.5 Z M 42.5 44.5 L 42.5 39.5 L 37.5 39.5 L 37.5 44.5 Z M 98.5 44.5 L 98.5 39.5 L 93.5 39.5 L 93.5 44.5 Z M 105.5 44.5 L 105.5 39.5 L 100.5 39.5 L 100.5 44.5 Z M 126.5 44.5 L 126.5 39.5 L 121.5 39.5 L 121.5 44.5 Z M 154.5 44.5 L 154.5 39.5 L 149.5 39.5 L 149.5 44.5 Z M 161.5 44.5 L 161.5 39.5 L 156.5 39.5 L 156.5 44.5 Z M 203.5 44.5 L 203.5 39.5 L 198.5 39.5 L 198.5 44.5 Z M 210.5 44.5 L 210.5 39.5 L 205.5 39.5 L 205.5 44.5 Z M 224.5 44.5 L 224.5 39.5 L 219.5 39.5 L 219.5 44.5 Z M 245.5 44.5 L 245.5 39.5 L 240.5 39.5 L 240.5 44.5 Z M 252.5 44.5 L 252.5 39.5 L 247.5 39.5 L 247.5 44.5 Z M 259.5 44.5 L 259.5 39.5 L 254.5 39.5 L 254.5 44.5 Z M 280.5 44.5 L 280.5 39.5 L 275.5 39.5 L 275.5 44.5 Z M 287.5 44.5 L 287.5 39.5 L 282.5 39.5 L 282.5 44.5 Z M 14.5 51.5 L 14.5 46.5 L 9.5 46.5 L 9.5 51.5 Z M 28.5 51.5 L 28.5 46.5 L 23.5 46.5 L 23.5 51.5 Z M 35.5 51.5 L 35.5 46.5 L 30.5 46.5 L 30.5 51.5 Z M 42.5 51.5 L 42.5 46.5 L 37.5 46.5 L 37.5 51.5 Z M 91.5 51.5 L 91.5 46.5 L 86.5 46.5 L 86.5 51.5 Z M 98.5 51.5 L 98.5 46.5 L 93.5 46.5 L 93.5 51.5 Z M 105.5 51.5 L 105.5 46.5 L 100.5 46.5 L 100.5 51.5 Z M 119.5 51.5 L 119.5 46.5 L 114.5 46.5 L 114.5 51.5 Z M 126.5 51.5 L 126.5 46.5 L 121.5 46.5 L 121.5 51.5 Z M 147.5 51.5 L 147.5 46.5 L 142.5 46.5 L 142.5 51.5 Z M 154.5 51.5 L 154.5 46.5 L 149.5 46.5 L 149.5 51.5 Z M 161.5 51.5 L 161.5 46.5 L 156.5 46.5 L 156.5 51.5 Z M 196.5 51.5 L 196.5 46.5 L 191.5 46.5 L 191.5 51.5 Z M 203.5 51.5 L 203.5 46.5 L 198.5 46.5 L 198.5 51.5 Z M 210.5 51.5 L 210.5 46.5 L 205.5 46.5 L 205.5 51.5 Z M 217.5 51.5 L 217.5 46.5 L 212.5 46.5 L 212.5 51.5 Z M 224.5 51.5 L 224.5 46.5 L 219.5 46.5 L 219.5 51.5 Z M 238.5 51.5 L 238.5 46.5 L 233.5 46.5 L 233.5 51.5 Z M 245.5 51.5 L 245.5 46.5 L 240.5 46.5 L 240.5 51.5 Z M 259.5 51.5 L 259.5 46.5 L 254.5 46.5 L 254.5 51.5 Z M 273.5 51.5 L 273.5 46.5 L 268.5 46.5 L 268.5 51.5 Z M 280.5 51.5 L 280.5 46.5 L 275.5 46.5 L 275.5 51.5 Z M 14.5 58.5 L 14.5 53.5 L 9.5 53.5 L 9.5 58.5 Z M 21.5 58.5 L 21.5 53.5 L 16.5 53.5 L 16.5 58.5 Z M 28.5 58.5 L 28.5 53.5 L 23.5 53.5 L 23.5 58.5 Z M 42.5 58.5 L 42.5 53.5 L 37.5 53.5 L 37.5 58.5 Z M 84.5 58.5 L 84.5 53.5 L 79.5 53.5 L 79.5 58.5 Z M 91.5 58.5 L 91.5 53.5 L 86.5 53.5 L 86.5 58.5 Z M 105.5 58.5 L 105.5 53.5 L 100.5 53.5 L 100.5 58.5 Z M 112.5 58.5 L 112.5 53.5 L 107.5 53.5 L 107.5 58.5 Z M 119.5 58.5 L 119.5 53.5 L 114.5 53.5 L 114.5 58.5 Z M 126.5 58.5 L 126.5 53.5 L 121.5 53.5 L 121.5 58.5 Z M 140.5 58.5 L 140.5 53.5 L 135.5 53.5 L 135.5 58.5 Z M 147.5 58.5 L 147.5 53.5 L 142.5 53.5 L 142.5 58.5 Z M 161.5 58.5 L 161.5 53.5 L 156.5 53.5 L 156.5 58.5 Z M 189.5 58.5 L 189.5 53.5 L 184.5 53.5 L 184.5 58.5 Z M 196.5 58.5 L 196.5 53.5 L 191.5 53.5 L 191.5 58.5 Z M 224.5 58.5 L 224.5 53.5 L 219.5 53.5 L 219.5 58.5 Z M 231.5 58.5 L 231.5 53.5 L 226.5 53.5 L 226.5 58.5 Z M 238.5 58.5 L 238.5 53.5 L 233.5 53.5 L 233.5 58.5 Z M 245.5 58.5 L 245.5 53.5 L 240.5 53.5 L 240.5 58.5 Z M 252.5 58.5 L 252.5 53.5 L 247.5 53.5 L 247.5 58.5 Z M 259.5 58.5 L 259.5 53.5 L 254.5 53.5 L 254.5 58.5 Z M 266.5 58.5 L 266.5 53.5 L 261.5 53.5 L 261.5 58.5 Z M 273.5 58.5 L 273.5 53.5 L 268.5 53.5 L 268.5 58.5 Z M 280.5 58.5 L 280.5 53.5 L 275.5 53.5 L 275.5 58.5 Z M 287.5 58.5 L 287.5 53.5 L 282.5 53.5 L 282.5 58.5 Z M 28.5 65.5 L 28.5 60.5 L 23.5 60.5 L 23.5 65.5 Z M 35.5 65.5 L 35.5 60.5 L 30.5 60.5 L 30.5 65.5 Z M 42.5 65.5 L 42.5 60.5 L 37.5 60.5 L 37.5 65.5 Z M 77.5 65.5 L 77.5 60.5 L 72.5 60.5 L 72.5 65.5 Z M 84.5 65.5 L 84.5 60.5 L 79.5 60.5 L 79.5 65.5 Z M 91.5 65.5 L 91.5 60.5 L 86.5 60.5 L 86.5 65.5 Z M 98.5 65.5 L 98.5 60.5 L 93.5 60.5 L 93.5 65.5 Z M 105.5 65.5 L 105.5 60.5 L 100.5 60.5 L 100.5 65.5 Z M 126.5 65.5 L 126.5 60.5 L 121.5 60.5 L 121.5 65.5 Z M 133.5 65.5 L 133.5 60.5 L 128.5 60.5 L 128.5 65.5 Z M 140.5 65.5 L 140.5 60.5 L 135.5 60.5 L 135.5 65.5 Z M 147.5 65.5 L 147.5 60.5 L 142.5 60.5 L 142.5 65.5 Z M 154.5 65.5 L 154.5 60.5 L 149.5 60.5 L 149.5 65.5 Z M 161.5 65.5 L 161.5 60.5 L 156.5 60.5 L 156.5 65.5 Z M 182.5 65.5 L 182.5 60.5 L 177.5 60.5 L 177.5 65.5 Z M 189.5 65.5 L 189.5 60.5 L 184.5 60.5 L 184.5 65.5 Z M 196.5 65.5 L 196.5 60.5 L 191.5 60.5 L 191.5 65.5 Z M 217.5 65.5 L 217.5 60.5 L 212.5 60.5 L 212.5 65.5 Z M 224.5 65.5 L 224.5 60.5 L 219.5 60.5 L 219.5 65.5 Z M 21.5 72.5 L 21.5 67.5 L 16.5 67.5 L 16.5 72.5 Z M 28.5 72.5 L 28.5 67.5 L 23.5 67.5 L 23.5 72.5 Z M 42.5 72.5 L 42.5 67.5 L 37.5 67.5 L 37.5 72.5 Z M 70.5 72.5 L 70.5 67.5 L 65.5 67.5 L 65.5 72.5 Z M 77.5 72.5 L 77.5 67.5 L 72.5 67.5 L 72.5 72.5 Z M 105.5 72.5 L 105.5 67.5 L 100.5 67.5 L 100.5 72.5 Z M 119.5 72.5 L 119.5 67.5 L 114.5 67.5 L 114.5 72.5 Z M 126.5 72.5 L 126.5 67.5 L 121.5 67.5 L 121.5 72.5 Z M 161.5 72.5 L 161.5 67.5 L 156.5 67.5 L 156.5 72.5 Z M 175.5 72.5 L 175.5 67.5 L 170.5 67.5 L 170.5 72.5 Z M 182.5 72.5 L 182.5 67.5 L 177.5 67.5 L 177.5 72.5 Z M 196.5 72.5 L 196.5 67.5 L 191.5 67.5 L 191.5 72.5 Z M 210.5 72.5 L 210.5 67.5 L 205.5 67.5 L 205.5 72.5 Z M 217.5 72.5 L 217.5 67.5 L 212.5 67.5 L 212.5 72.5 Z M 224.5 72.5 L 224.5 67.5 L 219.5 67.5 L 219.5 72.5 Z M 14.5 79.5 L 14.5 74.5 L 9.5 74.5 L 9.5 79.5 Z M 21.5 79.5 L 21.5 74.5 L 16.5 74.5 L 16.5 79.5 Z M 28.5 79.5 L 28.5 74.5 L 23.5 74.5 L 23.5 79.5 Z M 35.5 79.5 L 35.5 74.5 L 30.5 74.5 L 30.5 79.5 Z M 42.5 79.5 L 42.5 74.5 L 37.5 74.5 L 37.5 79.5 Z M 63.5 79.5 L 63.5 74.5 L 58.5 74.5 L 58.5 79.5 Z M 70.5 79.5 L 70.5 74.5 L 65.5 74.5 L 65.5 79.5 Z M 77.5 79.5 L 77.5 74.5 L 72.5 74.5 L 72.5 79.5 Z M 98.5 79.5 L 98.5 74.5 L 93.5 74.5 L 93.5 79.5 Z M 105.5 79.5 L 105.5 74.5 L 100.5 74.5 L 100.5 79.5 Z M 112.5 79.5 L 112.5 74.5 L 107.5 74.5 L 107.5 79.5 Z M 119.5 79.5 L 119.5 74.5 L 114.5 74.5 L 114.5 79.5 Z M 126.5 79.5 L 126.5 74.5 L 121.5 74.5 L 121.5 79.5 Z M 154.5 79.5 L 154.5 74.5 L 149.5 74.5 L 149.5 79.5 Z M 161.5 79.5 L 161.5 74.5 L 156.5 74.5 L 156.5 79.5 Z M 168.5 79.5 L 168.5 74.5 L 163.5 74.5 L 163.5 79.5 Z M 175.5 79.5 L 175.5 74.5 L 170.5 74.5 L 170.5 79.5 Z M 182.5 79.5 L 182.5 74.5 L 177.5 74.5 L 177.5 79.5 Z M 189.5 79.5 L 189.5 74.5 L 184.5 74.5 L 184.5 79.5 Z M 196.5 79.5 L 196.5 74.5 L 191.5 74.5 L 191.5 79.5 Z M 203.5 79.5 L 203.5 74.5 L 198.5 74.5 L 198.5 79.5 Z M 210.5 79.5 L 210.5 74.5 L 205.5 74.5 L 205.5 79.5 Z M 224.5 79.5 L 224.5 74.5 L 219.5 74.5 L 219.5 79.5 Z M 14.5 86.5 L 14.5 81.5 L 9.5 81.5 L 9.5 86.5 Z M 42.5 86.5 L 42.5 81.5 L 37.5 81.5 L 37.5 86.5 Z M 56.5 86.5 L 56.5 81.5 L 51.5 81.5 L 51.5 86.5 Z M 63.5 86.5 L 63.5 81.5 L 58.5 81.5 L 58.5 86.5 Z M 77.5 86.5 L 77.5 81.5 L 72.5 81.5 L 72.5 86.5 Z M 91.5 86.5 L 91.5 81.5 L 86.5 81.5 L 86.5 86.5 Z M 98.5 86.5 L 98.5 81.5 L 93.5 81.5 L 93.5 86.5 Z M 126.5 86.5 L 126.5 81.5 L 121.5 81.5 L 121.5 86.5 Z M 147.5 86.5 L 147.5 81.5 L 142.5 81.5 L 142.5 86.5 Z M 154.5 86.5 L 154.5 81.5 L 149.5 81.5 L 149.5 86.5 Z M 210.5 86.5 L 210.5 81.5 L 205.5 81.5 L 205.5 86.5 Z M 217.5 86.5 L 217.5 81.5 L 212.5 81.5 L 212.5 86.5 Z M 224.5 86.5 L 224.5 81.5 L 219.5 81.5 L 219.5 86.5 Z M 287.5 86.5 L 287.5 81.5 L 282.5 81.5 L 282.5 86.5 Z M 14.5 93.5 L 14.5 88.5 L 9.5 88.5 L 9.5 93.5 Z M 35.5 93.5 L 35.5 88.5 L 30.5 88.5 L 30.5 93.5 Z M 42.5 93.5 L 42.5 88.5 L 37.5 88.5 L 37.5 93.5 Z M 49.5 93.5 L 49.5 88.5 L 44.5 88.5 L 44.5 93.5 Z M 56.5 93.5 L 56.5 88.5 L 51.5 88.5 L 51.5 93.5 Z M 63.5 93.5 L 63.5 88.5 L 58.5 88.5 L 58.5 93.5 Z M 70.5 93.5 L 70.5 88.5 L 65.5 88.5 L 65.5 93.5 Z M 77.5 93.5 L 77.5 88.5 L 72.5 88.5 L 72.5 93.5 Z M 84.5 93.5 L 84.5 88.5 L 79.5 88.5 L 79.5 93.5 Z M 91.5 93.5 L 91.5 88.5 L 86.5 88.5 L 86.5 93.5 Z M 98.5 93.5 L 98.5 88.5 L 93.5 88.5 L 93.5 93.5 Z M 119.5 93.5 L 119.5 88.5 L 114.5 88.5 L 114.5 93.5 Z M 126.5 93.5 L 126.5 88.5 L 121.5 88.5 L 121.5 93.5 Z M 140.5 93.5 L 140.5 88.5 L 135.5 88.5 L 135.5 93.5 Z M 147.5 93.5 L 147.5 88.5 L 142.5 88.5 L 142.5 93.5 Z M 154.5 93.5 L 154.5 88.5 L 149.5 88.5 L 149.5 93.5 Z M 203.5 93.5 L 203.5 88.5 L 198.5 88.5 L 198.5 93.5 Z M 210.5 93.5 L 210.5 88.5 L 205.5 88.5 L 205.5 93.5 Z M 224.5 93.5 L 224.5 88.5 L 219.5 88.5 L 219.5 93.5 Z M 280.5 93.5 L 280.5 88.5 L 275.5 88.5 L 275.5 93.5 Z M 287.5 93.5 L 287.5 88.5 L 282.5 88.5 L 282.5 93.5 Z M 14.5 100.5 L 14.5 95.5 L 9.5 95.5 L 9.5 100.5 Z M 28.5 100.5 L 28.5 95.5 L 23.5 95.5 L 23.5 100.5 Z M 35.5 100.5 L 35.5 95.5 L 30.5 95.5 L 30.5 100.5 Z M 98.5 100.5 L 98.5 95.5 L 93.5 95.5 L 93.5 100.5 Z M 112.5 100.5 L 112.5 95.5 L 107.5 95.5 L 107.5 100.5 Z M 119.5 100.5 L 119.5 95.5 L 114.5 95.5 L 114.5 100.5 Z M 126.5 100.5 L 126.5 95.5 L 121.5 95.5 L 121.5 100.5 Z M 133.5 100.5 L 133.5 95.5 L 128.5 95.5 L 128.5 100.5 Z M 140.5 100.5 L 140.5 95.5 L 135.5 95.5 L 135.5 100.5 Z M 154.5 100.5 L 154.5 95.5 L 149.5 95.5 L 149.5 100.5 Z M 196.5 100.5 L 196.5 95.5 L 191.5 95.5 L 191.5 100.5 Z M 203.5 100.5 L 203.5 95.5 L 198.5 95.5 L 198.5 100.5 Z M 210.5 100.5 L 210.5 95.5 L 205.5 95.5 L 205.5 100.5 Z M 217.5 100.5 L 217.5 95.5 L 212.5 95.5 L 212.5 100.5 Z M 224.5 100.5 L 224.5 95.5 L 219.5 95.5 L 219.5 100.5 Z M 273.5 100.5 L 273.5 95.5 L 268.5 95.5 L 268.5 100.5 Z M 280.5 100.5 L 280.5 95.5 L 275.5 95.5 L 275.5 100.5 Z M 14.5 107.5 L 14.5 102.5 L 9.5 102.5 L 9.5 107.5 Z M 21.5 107.5 L 21.5 102.5 L 16.5 102.5 L 16.5 107.5 Z M 28.5 107.5 L 28.5 102.5 L 23.5 102.5 L 23.5 107.5 Z M 35.5 107.5 L 35.5 102.5 L 30.5 102.5 L 30.5 107.5 Z M 91.5 107.5 L 91.5 102.5 L 86.5 102.5 L 86.5 107.5 Z M 98.5 107.5 L 98.5 102.5 L 93.5 102.5 L 93.5 107.5 Z M 105.5 107.5 L 105.5 102.5 L 100.5 102.5 L 100.5 107.5 Z M 112.5 107.5 L 112.5 102.5 L 107.5 102.5 L 107.5 107.5 Z M 140.5 107.5 L 140.5 102.5 L 135.5 102.5 L 135.5 107.5 Z M 147.5 107.5 L 147.5 102.5 L 142.5 102.5 L 142.5 107.5 Z M 154.5 107.5 L 154.5 102.5 L 149.5 102.5 L 149.5 107.5 Z M 189.5 107.5 L 189.5 102.5 L 184.5 102.5 L 184.5 107.5 Z M 196.5 107.5 L 196.5 102.5 L 191.5 102.5 L 191.5 107.5 Z M 224.5 107.5 L 224.5 102.5 L 219.5 102.5 L 219.5 107.5 Z M 266.5 107.5 L 266.5 102.5 L 261.5 102.5 L 261.5 107.5 Z M 273.5 107.5 L 273.5 102.5 L 268.5 102.5 L 268.5 107.5 Z M 280.5 107.5 L 280.5 102.5 L 275.5 102.5 L 275.5 107.5 Z M 287.5 107.5 L 287.5 102.5 L 282.5 102.5 L 282.5 107.5 Z M 35.5 114.5 L 35.5 109.5 L 30.5 109.5 L 30.5 114.5 Z M 84.5 114.5 L 84.5 109.5 L 79.5 109.5 L 79.5 114.5 Z M 91.5 114.5 L 91.5 109.5 L 86.5 109.5 L 86.5 114.5 Z M 112.5 114.5 L 112.5 109.5 L 107.5 109.5 L 107.5 114.5 Z M 133.5 114.5 L 133.5 109.5 L 128.5 109.5 L 128.5 114.5 Z M 140.5 114.5 L 140.5 109.5 L 135.5 109.5 L 135.5 114.5 Z M 154.5 114.5 L 154.5 109.5 L 149.5 109.5 L 149.5 114.5 Z M 182.5 114.5 L 182.5 109.5 L 177.5 109.5 L 177.5 114.5 Z M 189.5 114.5 L 189.5 109.5 L 184.5 109.5 L 184.5 114.5 Z M 196.5 114.5 L 196.5 109.5 L 191.5 109.5 L 191.5 114.5 Z M 217.5 114.5 L 217.5 109.5 L 212.5 109.5 L 212.5 114.5 Z M 224.5 114.5 L 224.5 109.5 L 219.5 109.5 L 219.5 114.5 Z M 259.5 114.5 L 259.5 109.5 L 254.5 109.5 L 254.5 114.5 Z M 266.5 114.5 L 266.5 109.5 L 261.5 109.5 L 261.5 114.5 Z M 28.5 121.5 L 28.5 116.5 L 23.5 116.5 L 23.5 121.5 Z M 35.5 121.5 L 35.5 116.5 L 30.5 116.5 L 30.5 121.5 Z M 77.5 121.5 L 77.5 116.5 L 72.5 116.5 L 72.5 121.5 Z M 84.5 121.5 L 84.5 116.5 L 79.5 116.5 L 79.5 121.5 Z M 91.5 121.5 L 91.5 116.5 L 86.5 116.5 L 86.5 121.5 Z M 105.5 121.5 L 105.5 116.5 L 100.5 116.5 L 100.5 121.5 Z M 112.5 121.5 L 112.5 116.5 L 107.5 116.5 L 107.5 121.5 Z M 126.5 121.5 L 126.5 116.5 L 121.5 116.5 L 121.5 121.5 Z M 133.5 121.5 L 133.5 116.5 L 128.5 116.5 L 128.5 121.5 Z M 140.5 121.5 L 140.5 116.5 L 135.5 116.5 L 135.5 121.5 Z M 147.5 121.5 L 147.5 116.5 L 142.5 116.5 L 142.5 121.5 Z M 154.5 121.5 L 154.5 116.5 L 149.5 116.5 L 149.5 121.5 Z M 175.5 121.5 L 175.5 116.5 L 170.5 116.5 L 170.5 121.5 Z M 182.5 121.5 L 182.5 116.5 L 177.5 116.5 L 177.5 121.5 Z M 196.5 121.5 L 196.5 116.5 L 191.5 116.5 L 191.5 121.5 Z M 210.5 121.5 L 210.5 116.5 L 205.5 116.5 L 205.5 121.5 Z M 217.5 121.5 L 217.5 116.5 L 212.5 116.5 L 212.5 121.5 Z M 224.5 121.5 L 224.5 116.5 L 219.5 116.5 L 219.5 121.5 Z M 252.5 121.5 L 252.5 116.5 L 247.5 116.5 L 247.5 121.5 Z M 259.5 121.5 L 259.5 116.5 L 254.5 116.5 L 254.5 121.5 Z M 266.5 121.5 L 266.5 116.5 L 261.5 116.5 L 261.5 121.5 Z M 21.5 128.5 L 21.5 123.5 L 16.5 123.5 L 16.5 128.5 Z M 28.5 128.5 L 28.5 123.5 L 23.5 123.5 L 23.5 128.5 Z M 35.5 128.5 L 35.5 123.5 L 30.5 123.5 L 30.5 128.5 Z M 70.5 128.5 L 70.5 123.5 L 65.5 123.5 L 65.5 128.5 Z M 77.5 128.5 L 77.5 123.5 L 72.5 123.5 L 72.5 128.5 Z M 91.5 128.5 L 91.5 123.5 L 86.5 123.5 L 86.5 128.5 Z M 98.5 128.5 L 98.5 123.5 L 93.5 123.5 L 93.5 128.5 Z M 105.5 128.5 L 105.5 123.5 L 100.5 123.5 L 100.5 128.5 Z M 112.5 128.5 L 112.5 123.5 L 107.5 123.5 L 107.5 128.5 Z M 119.5 128.5 L 119.5 123.5 L 114.5 123.5 L 114.5 128.5 Z M 126.5 128.5 L 126.5 123.5 L 121.5 123.5 L 121.5 128.5 Z M 154.5 128.5 L 154.5 123.5 L 149.5 123.5 L 149.5 128.5 Z M 168.5 128.5 L 168.5 123.5 L 163.5 123.5 L 163.5 128.5 Z M 175.5 128.5 L 175.5 123.5 L 170.5 123.5 L 170.5 128.5 Z M 182.5 128.5 L 182.5 123.5 L 177.5 123.5 L 177.5 128.5 Z M 189.5 128.5 L 189.5 123.5 L 184.5 123.5 L 184.5 128.5 Z M 196.5 128.5 L 196.5 123.5 L 191.5 123.5 L 191.5 128.5 Z M 203.5 128.5 L 203.5 123.5 L 198.5 123.5 L 198.5 128.5 Z M 210.5 128.5 L 210.5 123.5 L 205.5 123.5 L 205.5 128.5 Z M 224.5 128.5 L 224.5 123.5 L 219.5 123.5 L 219.5 128.5 Z M 245.5 128.5 L 245.5 123.5 L 240.5 123.5 L 240.5 128.5 Z M 252.5 128.5 L 252.5 123.5 L 247.5 123.5 L 247.5 128.5 Z M 266.5 128.5 L 266.5 123.5 L 261.5 123.5 L 261.5 128.5 Z M 14.5 135.5 L 14.5 130.5 L 9.5 130.5 L 9.5 135.5 Z M 21.5 135.5 L 21.5 130.5 L 16.5 130.5 L 16.5 135.5 Z M 35.5 135.5 L 35.5 130.5 L 30.5 130.5 L 30.5 135.5 Z M 63.5 135.5 L 63.5 130.5 L 58.5 130.5 L 58.5 135.5 Z M 70.5 135.5 L 70.5 130.5 L 65.5 130.5 L 65.5 135.5 Z M 77.5 135.5 L 77.5 130.5 L 72.5 130.5 L 72.5 135.5 Z M 84.5 135.5 L 84.5 130.5 L 79.5 130.5 L 79.5 135.5 Z M 91.5 135.5 L 91.5 130.5 L 86.5 130.5 L 86.5 135.5 Z M 126.5 135.5 L 126.5 130.5 L 121.5 130.5 L 121.5 135.5 Z M 147.5 135.5 L 147.5 130.5 L 142.5 130.5 L 142.5 135.5 Z M 154.5 135.5 L 154.5 130.5 L 149.5 130.5 L 149.5 135.5 Z M 161.5 135.5 L 161.5 130.5 L 156.5 130.5 L 156.5 135.5 Z M 168.5 135.5 L 168.5 130.5 L 163.5 130.5 L 163.5 135.5 Z M 210.5 135.5 L 210.5 130.5 L 205.5 130.5 L 205.5 135.5 Z M 217.5 135.5 L 217.5 130.5 L 212.5 130.5 L 212.5 135.5 Z M 224.5 135.5 L 224.5 130.5 L 219.5 130.5 L 219.5 135.5 Z M 238.5 135.5 L 238.5 130.5 L 233.5 130.5 L 233.5 135.5 Z M 245.5 135.5 L 245.5 130.5 L 240.5 130.5 L 240.5 135.5 Z M 252.5 135.5 L 252.5 130.5 L 247.5 130.5 L 247.5 135.5 Z M 259.5 135.5 L 259.5 130.5 L 254.5 130.5 L 254.5 135.5 Z M 266.5 135.5 L 266.5 130.5 L 261.5 130.5 L 261.5 135.5 Z M 14.5 142.5 L 14.5 137.5 L 9.5 137.5 L 9.5 142.5 Z M 21.5 142.5 L 21.5 137.5 L 16.5 137.5 L 16.5 142.5 Z M 28.5 142.5 L 28.5 137.5 L 23.5 137.5 L 23.5 142.5 Z M 35.5 142.5 L 35.5 137.5 L 30.5 137.5 L 30.5 142.5 Z M 56.5 142.5 L 56.5 137.5 L 51.5 137.5 L 51.5 142.5 Z M 63.5 142.5 L 63.5 137.5 L 58.5 137.5 L 58.5 142.5 Z M 91.5 142.5 L 91.5 137.5 L 86.5 137.5 L 86.5 142.5 Z M 119.5 142.5 L 119.5 137.5 L 114.5 137.5 L 114.5 142.5 Z M 126.5 142.5 L 126.5 137.5 L 121.5 137.5 L 121.5 142.5 Z M 140.5 142.5 L 140.5 137.5 L 135.5 137.5 L 135.5 142.5 Z M 147.5 142.5 L 147.5 137.5 L 142.5 137.5 L 142.5 142.5 Z M 168.5 142.5 L 168.5 137.5 L 163.5 137.5 L 163.5 142.5 Z M 203.5 142.5 L 203.5 137.5 L 198.5 137.5 L 198.5 142.5 Z M 210.5 142.5 L 210.5 137.5 L 205.5 137.5 L 205.5 142.5 Z M 224.5 142.5 L 224.5 137.5 L 219.5 137.5 L 219.5 142.5 Z M 231.5 142.5 L 231.5 137.5 L 226.5 137.5 L 226.5 142.5 Z M 238.5 142.5 L 238.5 137.5 L 233.5 137.5 L 233.5 142.5 Z M 266.5 142.5 L 266.5 137.5 L 261.5 137.5 L 261.5 142.5 Z M 287.5 142.5 L 287.5 137.5 L 282.5 137.5 L 282.5 142.5 Z M 35.5 149.5 L 35.5 144.5 L 30.5 144.5 L 30.5 149.5 Z M 49.5 149.5 L 49.5 144.5 L 44.5 144.5 L 44.5 149.5 Z M 56.5 149.5 L 56.5 144.5 L 51.5 144.5 L 51.5 149.5 Z M 63.5 149.5 L 63.5 144.5 L 58.5 144.5 L 58.5 149.5 Z M 84.5 149.5 L 84.5 144.5 L 79.5 144.5 L 79.5 149.5 Z M 91.5 149.5 L 91.5 144.5 L 86.5 144.5 L 86.5 149.5 Z M 112.5 149.5 L 112.5 144.5 L 107.5 144.5 L 107.5 149.5 Z M 119.5 149.5 L 119.5 144.5 L 114.5 144.5 L 114.5 149.5 Z M 126.5 149.5 L 126.5 144.5 L 121.5 144.5 L 121.5 149.5 Z M 133.5 149.5 L 133.5 144.5 L 128.5 144.5 L 128.5 149.5 Z M 140.5 149.5 L 140.5 144.5 L 135.5 144.5 L 135.5 149.5 Z M 147.5 149.5 L 147.5 144.5 L 142.5 144.5 L 142.5 149.5 Z M 161.5 149.5 L 161.5 144.5 L 156.5 144.5 L 156.5 149.5 Z M 168.5 149.5 L 168.5 144.5 L 163.5 144.5 L 163.5 149.5 Z M 196.5 149.5 L 196.5 144.5 L 191.5 144.5 L 191.5 149.5 Z M 203.5 149.5 L 203.5 144.5 L 198.5 144.5 L 198.5 149.5 Z M 210.5 149.5 L 210.5 144.5 L 205.5 144.5 L 205.5 149.5 Z M 217.5 149.5 L 217.5 144.5 L 212.5 144.5 L 212.5 149.5 Z M 224.5 149.5 L 224.5 144.5 L 219.5 144.5 L 219.5 149.5 Z M 238.5 149.5 L 238.5 144.5 L 233.5 144.5 L 233.5 149.5 Z M 259.5 149.5 L 259.5 144.5 L 254.5 144.5 L 254.5 149.5 Z M 266.5 149.5 L 266.5 144.5 L 261.5 144.5 L 261.5 149.5 Z M 280.5 149.5 L 280.5 144.5 L 275.5 144.5 L 275.5 149.5 Z M 287.5 149.5 L 287.5 144.5 L 282.5 144.5 L 282.5 149.5 Z M 28.5 156.5 L 28.5 151.5 L 23.5 151.5 L 23.5 156.5 Z M 35.5 156.5 L 35.5 151.5 L 30.5 151.5 L 30.5 156.5 Z M 42.5 156.5 L 42.5 151.5 L 37.5 151.5 L 37.5 156.5 Z M 49.5 156.5 L 49.5 151.5 L 44.5 151.5 L 44.5 156.5 Z M 63.5 156.5 L 63.5 151.5 L 58.5 151.5 L 58.5 156.5 Z M 77.5 156.5 L 77.5 151.5 L 72.5 151.5 L 72.5 156.5 Z M 84.5 156.5 L 84.5 151.5 L 79.5 151.5 L 79.5 156.5 Z M 91.5 156.5 L 91.5 151.5 L 86.5 151.5 L 86.5 156.5 Z M 105.5 156.5 L 105.5 151.5 L 100.5 151.5 L 100.5 156.5 Z M 112.5 156.5 L 112.5 151.5 L 107.5 151.5 L 107.5 156.5 Z M 147.5 156.5 L 147.5 151.5 L 142.5 151.5 L 142.5 156.5 Z M 154.5 156.5 L 154.5 151.5 L 149.5 151.5 L 149.5 156.5 Z M 161.5 156.5 L 161.5 151.5 L 156.5 151.5 L 156.5 156.5 Z M 168.5 156.5 L 168.5 151.5 L 163.5 151.5 L 163.5 156.5 Z M 189.5 156.5 L 189.5 151.5 L 184.5 151.5 L 184.5 156.5 Z M 196.5 156.5 L 196.5 151.5 L 191.5 151.5 L 191.5 156.5 Z M 224.5 156.5 L 224.5 151.5 L 219.5 151.5 L 219.5 156.5 Z M 231.5 156.5 L 231.5 151.5 L 226.5 151.5 L 226.5 156.5 Z M 238.5 156.5 L 238.5 151.5 L 233.5 151.5 L 233.5 156.5 Z M 252.5 156.5 L 252.5 151.5 L 247.5 151.5 L 247.5 156.5 Z M 259.5 156.5 L 259.5 151.5 L 254.5 151.5 L 254.5 156.5 Z M 266.5 156.5 L 266.5 151.5 L 261.5 151.5 L 261.5 156.5 Z M 273.5 156.5 L 273.5 151.5 L 268.5 151.5 L 268.5 156.5 Z M 280.5 156.5 L 280.5 151.5 L 275.5 151.5 L 275.5 156.5 Z M 287.5 156.5 L 287.5 151.5 L 282.5 151.5 L 282.5 156.5 Z M 21.5 163.5 L 21.5 158.5 L 16.5 158.5 L 16.5 163.5 Z M 28.5 163.5 L 28.5 158.5 L 23.5 158.5 L 23.5 163.5 Z M 49.5 163.5 L 49.5 158.5 L 44.5 158.5 L 44.5 163.5 Z M 56.5 163.5 L 56.5 158.5 L 51.5 158.5 L 51.5 163.5 Z M 63.5 163.5 L 63.5 158.5 L 58.5 158.5 L 58.5 163.5 Z M 70.5 163.5 L 70.5 158.5 L 65.5 158.5 L 65.5 163.5 Z M 77.5 163.5 L 77.5 158.5 L 72.5 158.5 L 72.5 163.5 Z M 91.5 163.5 L 91.5 158.5 L 86.5 158.5 L 86.5 163.5 Z M 98.5 163.5 L 98.5 158.5 L 93.5 158.5 L 93.5 163.5 Z M 105.5 163.5 L 105.5 158.5 L 100.5 158.5 L 100.5 163.5 Z M 112.5 163.5 L 112.5 158.5 L 107.5 158.5 L 107.5 163.5 Z M 140.5 163.5 L 140.5 158.5 L 135.5 158.5 L 135.5 163.5 Z M 147.5 163.5 L 147.5 158.5 L 142.5 158.5 L 142.5 163.5 Z M 168.5 163.5 L 168.5 158.5 L 163.5 158.5 L 163.5 163.5 Z M 182.5 163.5 L 182.5 158.5 L 177.5 158.5 L 177.5 163.5 Z M 189.5 163.5 L 189.5 158.5 L 184.5 158.5 L 184.5 163.5 Z M 196.5 163.5 L 196.5 158.5 L 191.5 158.5 L 191.5 163.5 Z M 217.5 163.5 L 217.5 158.5 L 212.5 158.5 L 212.5 163.5 Z M 224.5 163.5 L 224.5 158.5 L 219.5 158.5 L 219.5 163.5 Z M 238.5 163.5 L 238.5 158.5 L 233.5 158.5 L 233.5 163.5 Z M 245.5 163.5 L 245.5 158.5 L 240.5 158.5 L 240.5 163.5 Z M 252.5 163.5 L 252.5 158.5 L 247.5 158.5 L 247.5 163.5 Z M 287.5 163.5 L 287.5 158.5 L 282.5 158.5 L 282.5 163.5 Z M 14.5 170.5 L 14.5 165.5 L 9.5 165.5 L 9.5 170.5 Z M 21.5 170.5 L 21.5 165.5 L 16.5 165.5 L 16.5 170.5 Z M 28.5 170.5 L 28.5 165.5 L 23.5 165.5 L 23.5 170.5 Z M 42.5 170.5 L 42.5 165.5 L 37.5 165.5 L 37.5 170.5 Z M 49.5 170.5 L 49.5 165.5 L 44.5 165.5 L 44.5 170.5 Z M 77.5 170.5 L 77.5 165.5 L 72.5 165.5 L 72.5 170.5 Z M 84.5 170.5 L 84.5 165.5 L 79.5 165.5 L 79.5 170.5 Z M 91.5 170.5 L 91.5 165.5 L 86.5 165.5 L 86.5 170.5 Z M 112.5 170.5 L 112.5 165.5 L 107.5 165.5 L 107.5 170.5 Z M 133.5 170.5 L 133.5 165.5 L 128.5 165.5 L 128.5 170.5 Z M 140.5 170.5 L 140.5 165.5 L 135.5 165.5 L 135.5 170.5 Z M 147.5 170.5 L 147.5 165.5 L 142.5 165.5 L 142.5 170.5 Z M 161.5 170.5 L 161.5 165.5 L 156.5 165.5 L 156.5 170.5 Z M 168.5 170.5 L 168.5 165.5 L 163.5 165.5 L 163.5 170.5 Z M 175.5 170.5 L 175.5 165.5 L 170.5 165.5 L 170.5 170.5 Z M 182.5 170.5 L 182.5 165.5 L 177.5 165.5 L 177.5 170.5 Z M 196.5 170.5 L 196.5 165.5 L 191.5 165.5 L 191.5 170.5 Z M 210.5 170.5 L 210.5 165.5 L 205.5 165.5 L 205.5 170.5 Z M 217.5 170.5 L 217.5 165.5 L 212.5 165.5 L 212.5 170.5 Z M 224.5 170.5 L 224.5 165.5 L 219.5 165.5 L 219.5 170.5 Z M 231.5 170.5 L 231.5 165.5 L 226.5 165.5 L 226.5 170.5 Z M 238.5 170.5 L 238.5 165.5 L 233.5 165.5 L 233.5 170.5 Z M 252.5 170.5 L 252.5 165.5 L 247.5 165.5 L 247.5 170.5 Z M 280.5 170.5 L 280.5 165.5 L 275.5 165.5 L 275.5 170.5 Z M 287.5 170.5 L 287.5 165.5 L 282.5 165.5 L 282.5 170.5 Z M 28.5 177.5 L 28.5 172.5 L 23.5 172.5 L 23.5 177.5 Z M 35.5 177.5 L 35.5 172.5 L 30.5 172.5 L 30.5 177.5 Z M 42.5 177.5 L 42.5 172.5 L 37.5 172.5 L 37.5 177.5 Z M 49.5 177.5 L 49.5 172.5 L 44.5 172.5 L 44.5 177.5 Z M 70.5 177.5 L 70.5 172.5 L 65.5 172.5 L 65.5 177.5 Z M 77.5 177.5 L 77.5 172.5 L 72.5 172.5 L 72.5 177.5 Z M 91.5 177.5 L 91.5 172.5 L 86.5 172.5 L 86.5 177.5 Z M 105.5 177.5 L 105.5 172.5 L 100.5 172.5 L 100.5 177.5 Z M 112.5 177.5 L 112.5 172.5 L 107.5 172.5 L 107.5 177.5 Z M 126.5 177.5 L 126.5 172.5 L 121.5 172.5 L 121.5 177.5 Z M 133.5 177.5 L 133.5 172.5 L 128.5 172.5 L 128.5 177.5 Z M 147.5 177.5 L 147.5 172.5 L 142.5 172.5 L 142.5 177.5 Z M 154.5 177.5 L 154.5 172.5 L 149.5 172.5 L 149.5 177.5 Z M 161.5 177.5 L 161.5 172.5 L 156.5 172.5 L 156.5 177.5 Z M 182.5 177.5 L 182.5 172.5 L 177.5 172.5 L 177.5 177.5 Z M 189.5 177.5 L 189.5 172.5 L 184.5 172.5 L 184.5 177.5 Z M 196.5 177.5 L 196.5 172.5 L 191.5 172.5 L 191.5 177.5 Z M 203.5 177.5 L 203.5 172.5 L 198.5 172.5 L 198.5 177.5 Z M 210.5 177.5 L 210.5 172.5 L 205.5 172.5 L 205.5 177.5 Z M 238.5 177.5 L 238.5 172.5 L 233.5 172.5 L 233.5 177.5 Z M 245.5 177.5 L 245.5 172.5 L 240.5 172.5 L 240.5 177.5 Z M 252.5 177.5 L 252.5 172.5 L 247.5 172.5 L 247.5 177.5 Z M 273.5 177.5 L 273.5 172.5 L 268.5 172.5 L 268.5 177.5 Z M 280.5 177.5 L 280.5 172.5 L 275.5 172.5 L 275.5 177.5 Z M 21.5 184.5 L 21.5 179.5 L 16.5 179.5 L 16.5 184.5 Z M 28.5 184.5 L 28.5 179.5 L 23.5 179.5 L 23.5 184.5 Z M 49.5 184.5 L 49.5 179.5 L 44.5 179.5 L 44.5 184.5 Z M 63.5 184.5 L 63.5 179.5 L 58.5 179.5 L 58.5 184.5 Z M 70.5 184.5 L 70.5 179.5 L 65.5 179.5 L 65.5 184.5 Z M 77.5 184.5 L 77.5 179.5 L 72.5 179.5 L 72.5 184.5 Z M 84.5 184.5 L 84.5 179.5 L 79.5 179.5 L 79.5 184.5 Z M 91.5 184.5 L 91.5 179.5 L 86.5 179.5 L 86.5 184.5 Z M 98.5 184.5 L 98.5 179.5 L 93.5 179.5 L 93.5 184.5 Z M 105.5 184.5 L 105.5 179.5 L 100.5 179.5 L 100.5 184.5 Z M 112.5 184.5 L 112.5 179.5 L 107.5 179.5 L 107.5 184.5 Z M 119.5 184.5 L 119.5 179.5 L 114.5 179.5 L 114.5 184.5 Z M 126.5 184.5 L 126.5 179.5 L 121.5 179.5 L 121.5 184.5 Z M 133.5 184.5 L 133.5 179.5 L 128.5 179.5 L 128.5 184.5 Z M 140.5 184.5 L 140.5 179.5 L 135.5 179.5 L 135.5 184.5 Z M 147.5 184.5 L 147.5 179.5 L 142.5 179.5 L 142.5 184.5 Z M 161.5 184.5 L 161.5 179.5 L 156.5 179.5 L 156.5 184.5 Z M 175.5 184.5 L 175.5 179.5 L 170.5 179.5 L 170.5 184.5 Z M 182.5 184.5 L 182.5 179.5 L 177.5 179.5 L 177.5 184.5 Z M 210.5 184.5 L 210.5 179.5 L 205.5 179.5 L 205.5 184.5 Z M 231.5 184.5 L 231.5 179.5 L 226.5 179.5 L 226.5 184.5 Z M 238.5 184.5 L 238.5 179.5 L 233.5 179.5 L 233.5 184.5 Z M 252.5 184.5 L 252.5 179.5 L 247.5 179.5 L 247.5 184.5 Z M 266.5 184.5 L 266.5 179.5 L 261.5 179.5 L 261.5 184.5 Z M 273.5 184.5 L 273.5 179.5 L 268.5 179.5 L 268.5 184.5 Z M 280.5 184.5 L 280.5 179.5 L 275.5 179.5 L 275.5 184.5 Z M 14.5 191.5 L 14.5 186.5 L 9.5 186.5 L 9.5 191.5 Z M 21.5 191.5 L 21.5 186.5 L 16.5 186.5 L 16.5 191.5 Z M 28.5 191.5 L 28.5 186.5 L 23.5 186.5 L 23.5 191.5 Z M 42.5 191.5 L 42.5 186.5 L 37.5 186.5 L 37.5 191.5 Z M 49.5 191.5 L 49.5 186.5 L 44.5 186.5 L 44.5 191.5 Z M 56.5 191.5 L 56.5 186.5 L 51.5 186.5 L 51.5 191.5 Z M 63.5 191.5 L 63.5 186.5 L 58.5 186.5 L 58.5 191.5 Z M 147.5 191.5 L 147.5 186.5 L 142.5 186.5 L 142.5 191.5 Z M 154.5 191.5 L 154.5 186.5 L 149.5 186.5 L 149.5 191.5 Z M 161.5 191.5 L 161.5 186.5 L 156.5 186.5 L 156.5 191.5 Z M 168.5 191.5 L 168.5 186.5 L 163.5 186.5 L 163.5 191.5 Z M 175.5 191.5 L 175.5 186.5 L 170.5 186.5 L 170.5 191.5 Z M 182.5 191.5 L 182.5 186.5 L 177.5 186.5 L 177.5 191.5 Z M 203.5 191.5 L 203.5 186.5 L 198.5 186.5 L 198.5 191.5 Z M 210.5 191.5 L 210.5 186.5 L 205.5 186.5 L 205.5 191.5 Z M 224.5 191.5 L 224.5 186.5 L 219.5 186.5 L 219.5 191.5 Z M 231.5 191.5 L 231.5 186.5 L 226.5 186.5 L 226.5 191.5 Z M 238.5 191.5 L 238.5 186.5 L 233.5 186.5 L 233.5 191.5 Z M 245.5 191.5 L 245.5 186.5 L 240.5 186.5 L 240.5 191.5 Z M 252.5 191.5 L 252.5 186.5 L 247.5 186.5 L 247.5 191.5 Z M 259.5 191.5 L 259.5 186.5 L 254.5 186.5 L 254.5 191.5 Z M 266.5 191.5 L 266.5 186.5 L 261.5 186.5 L 261.5 191.5 Z M 280.5 191.5 L 280.5 186.5 L 275.5 186.5 L 275.5 191.5 Z M 14.5 198.5 L 14.5 193.5 L 9.5 193.5 L 9.5 198.5 Z M 28.5 198.5 L 28.5 193.5 L 23.5 193.5 L 23.5 198.5 Z M 35.5 198.5 L 35.5 193.5 L 30.5 193.5 L 30.5 198.5 Z M 42.5 198.5 L 42.5 193.5 L 37.5 193.5 L 37.5 198.5 Z M 63.5 198.5 L 63.5 193.5 L 58.5 193.5 L 58.5 198.5 Z M 140.5 198.5 L 140.5 193.5 L 135.5 193.5 L 135.5 198.5 Z M 147.5 198.5 L 147.5 193.5 L 142.5 193.5 L 142.5 198.5 Z M 182.5 198.5 L 182.5 193.5 L 177.5 193.5 L 177.5 198.5 Z M 196.5 198.5 L 196.5 193.5 L 191.5 193.5 L 191.5 198.5 Z M 203.5 198.5 L 203.5 193.5 L 198.5 193.5 L 198.5 198.5 Z M 210.5 198.5 L 210.5 193.5 L 205.5 193.5 L 205.5 198.5 Z M 217.5 198.5 L 217.5 193.5 L 212.5 193.5 L 212.5 198.5 Z M 224.5 198.5 L 224.5 193.5 L 219.5 193.5 L 219.5 198.5 Z M 266.5 198.5 L 266.5 193.5 L 261.5 193.5 L 261.5 198.5 Z M 273.5 198.5 L 273.5 193.5 L 268.5 193.5 L 268.5 198.5 Z M 280.5 198.5 L 280.5 193.5 L 275.5 193.5 L 275.5 198.5 Z M 287.5 198.5 L 287.5 193.5 L 282.5 193.5 L 282.5 198.5 Z M 14.5 205.5 L 14.5 200.5 L 9.5 200.5 L 9.5 205.5 Z M 21.5 205.5 L 21.5 200.5 L 16.5 200.5 L 16.5 205.5 Z M 28.5 205.5 L 28.5 200.5 L 23.5 200.5 L 23.5 205.5 Z M 42.5 205.5 L 42.5 200.5 L 37.5 200.5 L 37.5 205.5 Z M 56.5 205.5 L 56.5 200.5 L 51.5 200.5 L 51.5 205.5 Z M 63.5 205.5 L 63.5 200.5 L 58.5 200.5 L 58.5 205.5 Z M 133.5 205.5 L 133.5 200.5 L 128.5 200.5 L 128.5 205.5 Z M 140.5 205.5 L 140.5 200.5 L 135.5 200.5 L 135.5 205.5 Z M 147.5 205.5 L 147.5 200.5 L 142.5 200.5 L 142.5 205.5 Z M 175.5 205.5 L 175.5 200.5 L 170.5 200.5 L 170.5 205.5 Z M 182.5 205.5 L 182.5 200.5 L 177.5 200.5 L 177.5 205.5 Z M 189.5 205.5 L 189.5 200.5 L 184.5 200.5 L 184.5 205.5 Z M 196.5 205.5 L 196.5 200.5 L 191.5 200.5 L 191.5 205.5 Z M 224.5 205.5 L 224.5 200.5 L 219.5 200.5 L 219.5 205.5 Z M 259.5 205.5 L 259.5 200.5 L 254.5 200.5 L 254.5 205.5 Z M 266.5 205.5 L 266.5 200.5 L 261.5 200.5 L 261.5 205.5 Z M 14.5 212.5 L 14.5 207.5 L 9.5 207.5 L 9.5 212.5 Z M 28.5 212.5 L 28.5 207.5 L 23.5 207.5 L 23.5 212.5 Z M 35.5 212.5 L 35.5 207.5 L 30.5 207.5 L 30.5 212.5 Z M 42.5 212.5 L 42.5 207.5 L 37.5 207.5 L 37.5 212.5 Z M 49.5 212.5 L 49.5 207.5 L 44.5 207.5 L 44.5 212.5 Z M 56.5 212.5 L 56.5 207.5 L 51.5 207.5 L 51.5 212.5 Z M 63.5 212.5 L 63.5 207.5 L 58.5 207.5 L 58.5 212.5 Z M 126.5 212.5 L 126.5 207.5 L 121.5 207.5 L 121.5 212.5 Z M 133.5 212.5 L 133.5 207.5 L 128.5 207.5 L 128.5 212.5 Z M 147.5 212.5 L 147.5 207.5 L 142.5 207.5 L 142.5 212.5 Z M 168.5 212.5 L 168.5 207.5 L 163.5 207.5 L 163.5 212.5 Z M 175.5 212.5 L 175.5 207.5 L 170.5 207.5 L 170.5 212.5 Z M 196.5 212.5 L 196.5 207.5 L 191.5 207.5 L 191.5 212.5 Z M 217.5 212.5 L 217.5 207.5 L 212.5 207.5 L 212.5 212.5 Z M 224.5 212.5 L 224.5 207.5 L 219.5 207.5 L 219.5 212.5 Z M 252.5 212.5 L 252.5 207.5 L 247.5 207.5 L 247.5 212.5 Z M 259.5 212.5 L 259.5 207.5 L 254.5 207.5 L 254.5 212.5 Z M 266.5 212.5 L 266.5 207.5 L 261.5 207.5 L 261.5 212.5 Z M 287.5 212.5 L 287.5 207.5 L 282.5 207.5 L 282.5 212.5 Z M 14.5 219.5 L 14.5 214.5 L 9.5 214.5 L 9.5 219.5 Z M 21.5 219.5 L 21.5 214.5 L 16.5 214.5 L 16.5 219.5 Z M 28.5 219.5 L 28.5 214.5 L 23.5 214.5 L 23.5 219.5 Z M 63.5 219.5 L 63.5 214.5 L 58.5 214.5 L 58.5 219.5 Z M 119.5 219.5 L 119.5 214.5 L 114.5 214.5 L 114.5 219.5 Z M 126.5 219.5 L 126.5 214.5 L 121.5 214.5 L 121.5 219.5 Z M 133.5 219.5 L 133.5 214.5 L 128.5 214.5 L 128.5 219.5 Z M 140.5 219.5 L 140.5 214.5 L 135.5 214.5 L 135.5 219.5 Z M 147.5 219.5 L 147.5 214.5 L 142.5 214.5 L 142.5 219.5 Z M 161.5 219.5 L 161.5 214.5 L 156.5 214.5 L 156.5 219.5 Z M 168.5 219.5 L 168.5 214.5 L 163.5 214.5 L 163.5 219.5 Z M 175.5 219.5 L 175.5 214.5 L 170.5 214.5 L 170.5 219.5 Z M 189.5 219.5 L 189.5 214.5 L 184.5 214.5 L 184.5 219.5 Z M 196.5 219.5 L 196.5 214.5 L 191.5 214.5 L 191.5 219.5 Z M 210.5 219.5 L 210.5 214.5 L 205.5 214.5 L 205.5 219.5 Z M 217.5 219.5 L 217.5 214.5 L 212.5 214.5 L 212.5 219.5 Z M 224.5 219.5 L 224.5 214.5 L 219.5 214.5 L 219.5 219.5 Z M 245.5 219.5 L 245.5 214.5 L 240.5 214.5 L 240.5 219.5 Z M 252.5 219.5 L 252.5 214.5 L 247.5 214.5 L 247.5 219.5 Z M 266.5 219.5 L 266.5 214.5 L 261.5 214.5 L 261.5 219.5 Z M 280.5 219.5 L 280.5 214.5 L 275.5 214.5 L 275.5 219.5 Z M 287.5 219.5 L 287.5 214.5 L 282.5 214.5 L 282.5 219.5 Z M 28.5 226.5 L 28.5 221.5 L 23.5 221.5 L 23.5 226.5 Z M 56.5 226.5 L 56.5 221.5 L 51.5 221.5 L 51.5 226.5 Z M 63.5 226.5 L 63.5 221.5 L 58.5 221.5 L 58.5 226.5 Z M 112.5 226.5 L 112.5 221.5 L 107.5 221.5 L 107.5 226.5 Z M 119.5 226.5 L 119.5 221.5 L 114.5 221.5 L 114.5 226.5 Z M 147.5 226.5 L 147.5 221.5 L 142.5 221.5 L 142.5 226.5 Z M 154.5 226.5 L 154.5 221.5 L 149.5 221.5 L 149.5 226.5 Z M 161.5 226.5 L 161.5 221.5 L 156.5 221.5 L 156.5 226.5 Z M 175.5 226.5 L 175.5 221.5 L 170.5 221.5 L 170.5 226.5 Z M 182.5 226.5 L 182.5 221.5 L 177.5 221.5 L 177.5 226.5 Z M 189.5 226.5 L 189.5 221.5 L 184.5 221.5 L 184.5 226.5 Z M 196.5 226.5 L 196.5 221.5 L 191.5 221.5 L 191.5 226.5 Z M 203.5 226.5 L 203.5 221.5 L 198.5 221.5 L 198.5 226.5 Z M 210.5 226.5 L 210.5 221.5 L 205.5 221.5 L 205.5 226.5 Z M 224.5 226.5 L 224.5 221.5 L 219.5 221.5 L 219.5 226.5 Z M 238.5 226.5 L 238.5 221.5 L 233.5 221.5 L 233.5 226.5 Z M 245.5 226.5 L 245.5 221.5 L 240.5 221.5 L 240.5 226.5 Z M 252.5 226.5 L 252.5 221.5 L 247.5 221.5 L 247.5 226.5 Z M 259.5 226.5 L 259.5 221.5 L 254.5 221.5 L 254.5 226.5 Z M 266.5 226.5 L 266.5 221.5 L 261.5 221.5 L 261.5 226.5 Z M 273.5 226.5 L 273.5 221.5 L 268.5 221.5 L 268.5 226.5 Z M 280.5 226.5 L 280.5 221.5 L 275.5 221.5 L 275.5 226.5 Z M 21.5 233.5 L 21.5 228.5 L 16.5 228.5 L 16.5 233.5 Z M 28.5 233.5 L 28.5 228.5 L 23.5 228.5 L 23.5 233.5 Z M 49.5 233.5 L 49.5 228.5 L 44.5 228.5 L 44.5 233.5 Z M 56.5 233.5 L 56.5 228.5 L 51.5 228.5 L 51.5 233.5 Z M 63.5 233.5 L 63.5 228.5 L 58.5 228.5 L 58.5 233.5 Z M 105.5 233.5 L 105.5 228.5 L 100.5 228.5 L 100.5 233.5 Z M 112.5 233.5 L 112.5 228.5 L 107.5 228.5 L 107.5 233.5 Z M 119.5 233.5 L 119.5 228.5 L 114.5 228.5 L 114.5 233.5 Z M 140.5 233.5 L 140.5 228.5 L 135.5 228.5 L 135.5 233.5 Z M 147.5 233.5 L 147.5 228.5 L 142.5 228.5 L 142.5 233.5 Z M 161.5 233.5 L 161.5 228.5 L 156.5 228.5 L 156.5 233.5 Z M 168.5 233.5 L 168.5 228.5 L 163.5 228.5 L 163.5 233.5 Z M 175.5 233.5 L 175.5 228.5 L 170.5 228.5 L 170.5 233.5 Z M 210.5 233.5 L 210.5 228.5 L 205.5 228.5 L 205.5 233.5 Z M 217.5 233.5 L 217.5 228.5 L 212.5 228.5 L 212.5 233.5 Z M 224.5 233.5 L 224.5 228.5 L 219.5 228.5 L 219.5 233.5 Z M 231.5 233.5 L 231.5 228.5 L 226.5 228.5 L 226.5 233.5 Z M 238.5 233.5 L 238.5 228.5 L 233.5 228.5 L 233.5 233.5 Z M 280.5 233.5 L 280.5 228.5 L 275.5 228.5 L 275.5 233.5 Z M 14.5 240.5 L 14.5 235.5 L 9.5 235.5 L 9.5 240.5 Z M 21.5 240.5 L 21.5 235.5 L 16.5 235.5 L 16.5 240.5 Z M 28.5 240.5 L 28.5 235.5 L 23.5 235.5 L 23.5 240.5 Z M 42.5 240.5 L 42.5 235.5 L 37.5 235.5 L 37.5 240.5 Z M 49.5 240.5 L 49.5 235.5 L 44.5 235.5 L 44.5 240.5 Z M 63.5 240.5 L 63.5 235.5 L 58.5 235.5 L 58.5 240.5 Z M 98.5 240.5 L 98.5 235.5 L 93.5 235.5 L 93.5 240.5 Z M 105.5 240.5 L 105.5 235.5 L 100.5 235.5 L 100.5 240.5 Z M 119.5 240.5 L 119.5 235.5 L 114.5 235.5 L 114.5 240.5 Z M 133.5 240.5 L 133.5 235.5 L 128.5 235.5 L 128.5 240.5 Z M 140.5 240.5 L 140.5 235.5 L 135.5 235.5 L 135.5 240.5 Z M 147.5 240.5 L 147.5 235.5 L 142.5 235.5 L 142.5 240.5 Z M 154.5 240.5 L 154.5 235.5 L 149.5 235.5 L 149.5 240.5 Z M 161.5 240.5 L 161.5 235.5 L 156.5 235.5 L 156.5 240.5 Z M 175.5 240.5 L 175.5 235.5 L 170.5 235.5 L 170.5 240.5 Z M 203.5 240.5 L 203.5 235.5 L 198.5 235.5 L 198.5 240.5 Z M 210.5 240.5 L 210.5 235.5 L 205.5 235.5 L 205.5 240.5 Z M 238.5 240.5 L 238.5 235.5 L 233.5 235.5 L 233.5 240.5 Z M 273.5 240.5 L 273.5 235.5 L 268.5 235.5 L 268.5 240.5 Z M 280.5 240.5 L 280.5 235.5 L 275.5 235.5 L 275.5 240.5 Z M 14.5 247.5 L 14.5 242.5 L 9.5 242.5 L 9.5 247.5 Z M 28.5 247.5 L 28.5 242.5 L 23.5 242.5 L 23.5 247.5 Z M 35.5 247.5 L 35.5 242.5 L 30.5 242.5 L 30.5 247.5 Z M 42.5 247.5 L 42.5 242.5 L 37.5 242.5 L 37.5 247.5 Z M 49.5 247.5 L 49.5 242.5 L 44.5 242.5 L 44.5 247.5 Z M 56.5 247.5 L 56.5 242.5 L 51.5 242.5 L 51.5 247.5 Z M 63.5 247.5 L 63.5 242.5 L 58.5 242.5 L 58.5 247.5 Z M 91.5 247.5 L 91.5 242.5 L 86.5 242.5 L 86.5 247.5 Z M 98.5 247.5 L 98.5 242.5 L 93.5 242.5 L 93.5 247.5 Z M 105.5 247.5 L 105.5 242.5 L 100.5 242.5 L 100.5 247.5 Z M 112.5 247.5 L 112.5 242.5 L 107.5 242.5 L 107.5 247.5 Z M 119.5 247.5 L 119.5 242.5 L 114.5 242.5 L 114.5 247.5 Z M 126.5 247.5 L 126.5 242.5 L 121.5 242.5 L 121.5 247.5 Z M 133.5 247.5 L 133.5 242.5 L 128.5 242.5 L 128.5 247.5 Z M 161.5 247.5 L 161.5 242.5 L 156.5 242.5 L 156.5 247.5 Z M 168.5 247.5 L 168.5 242.5 L 163.5 242.5 L 163.5 247.5 Z M 175.5 247.5 L 175.5 242.5 L 170.5 242.5 L 170.5 247.5 Z M 196.5 247.5 L 196.5 242.5 L 191.5 242.5 L 191.5 247.5 Z M 203.5 247.5 L 203.5 242.5 L 198.5 242.5 L 198.5 247.5 Z M 210.5 247.5 L 210.5 242.5 L 205.5 242.5 L 205.5 247.5 Z M 231.5 247.5 L 231.5 242.5 L 226.5 242.5 L 226.5 247.5 Z M 238.5 247.5 L 238.5 242.5 L 233.5 242.5 L 233.5 247.5 Z M 266.5 247.5 L 266.5 242.5 L 261.5 242.5 L 261.5 247.5 Z M 273.5 247.5 L 273.5 242.5 L 268.5 242.5 L 268.5 247.5 Z M 280.5 247.5 L 280.5 242.5 L 275.5 242.5 L 275.5 247.5 Z M 287.5 247.5 L 287.5 242.5 L 282.5 242.5 L 282.5 247.5 Z M 14.5 254.5 L 14.5 249.5 L 9.5 249.5 L 9.5 254.5 Z M 21.5 254.5 L 21.5 249.5 L 16.5 249.5 L 16.5 254.5 Z M 28.5 254.5 L 28.5 249.5 L 23.5 249.5 L 23.5 254.5 Z M 63.5 254.5 L 63.5 249.5 L 58.5 249.5 L 58.5 254.5 Z M 84.5 254.5 L 84.5 249.5 L 79.5 249.5 L 79.5 254.5 Z M 91.5 254.5 L 91.5 249.5 L 86.5 249.5 L 86.5 254.5 Z M 133.5 254.5 L 133.5 249.5 L 128.5 249.5 L 128.5 254.5 Z M 154.5 254.5 L 154.5 249.5 L 149.5 249.5 L 149.5 254.5 Z M 161.5 254.5 L 161.5 249.5 L 156.5 249.5 L 156.5 254.5 Z M 175.5 254.5 L 175.5 249.5 L 170.5 249.5 L 170.5 254.5 Z M 189.5 254.5 L 189.5 249.5 L 184.5 249.5 L 184.5 254.5 Z M 196.5 254.5 L 196.5 249.5 L 191.5 249.5 L 191.5 254.5 Z M 210.5 254.5 L 210.5 249.5 L 205.5 249.5 L 205.5 254.5 Z M 224.5 254.5 L 224.5 249.5 L 219.5 249.5 L 219.5 254.5 Z M 231.5 254.5 L 231.5 249.5 L 226.5 249.5 L 226.5 254.5 Z M 238.5 254.5 L 238.5 249.5 L 233.5 249.5 L 233.5 254.5 Z M 259.5 254.5 L 259.5 249.5 L 254.5 249.5 L 254.5 254.5 Z M 266.5 254.5 L 266.5 249.5 L 261.5 249.5 L 261.5 254.5 Z M 14.5 261.5 L 14.5 256.5 L 9.5 256.5 L 9.5 261.5 Z M 28.5 261.5 L 28.5 256.5 L 23.5 256.5 L 23.5 261.5 Z M 56.5 261.5 L 56.5 256.5 L 51.5 256.5 L 51.5 261.5 Z M 63.5 261.5 L 63.5 256.5 L 58.5 256.5 L 58.5 261.5 Z M 77.5 261.5 L 77.5 256.5 L 72.5 256.5 L 72.5 261.5 Z M 84.5 261.5 L 84.5 256.5 L 79.5 256.5 L 79.5 261.5 Z M 91.5 261.5 L 91.5 256.5 L 86.5 256.5 L 86.5 261.5 Z M 126.5 261.5 L 126.5 256.5 L 121.5 256.5 L 121.5 261.5 Z M 133.5 261.5 L 133.5 256.5 L 128.5 256.5 L 128.5 261.5 Z M 147.5 261.5 L 147.5 256.5 L 142.5 256.5 L 142.5 261.5 Z M 154.5 261.5 L 154.5 256.5 L 149.5 256.5 L 149.5 261.5 Z M 161.5 261.5 L 161.5 256.5 L 156.5 256.5 L 156.5 261.5 Z M 168.5 261.5 L 168.5 256.5 L 163.5 256.5 L 163.5 261.5 Z M 175.5 261.5 L 175.5 256.5 L 170.5 256.5 L 170.5 261.5 Z M 182.5 261.5 L 182.5 256.5 L 177.5 256.5 L 177.5 261.5 Z M 189.5 261.5 L 189.5 256.5 L 184.5 256.5 L 184.5 261.5 Z M 196.5 261.5 L 196.5 256.5 L 191.5 256.5 L 191.5 261.5 Z M 203.5 261.5 L 203.5 256.5 L 198.5 256.5 L 198.5 261.5 Z M 210.5 261.5 L 210.5 256.5 L 205.5 256.5 L 205.5 261.5 Z M 217.5 261.5 L 217.5 256.5 L 212.5 256.5 L 212.5 261.5 Z M 224.5 261.5 L 224.5 256.5 L 219.5 256.5 L 219.5 261.5 Z M 238.5 261.5 L 238.5 256.5 L 233.5 256.5 L 233.5 261.5 Z M 252.5 261.5 L 252.5 256.5 L 247.5 256.5 L 247.5 261.5 Z M 259.5 261.5 L 259.5 256.5 L 254.5 256.5 L 254.5 261.5 Z M 266.5 261.5 L 266.5 256.5 L 261.5 256.5 L 261.5 261.5 Z M 287.5 261.5 L 287.5 256.5 L 282.5 256.5 L 282.5 261.5 Z M 14.5 268.5 L 14.5 263.5 L 9.5 263.5 L 9.5 268.5 Z M 21.5 268.5 L 21.5 263.5 L 16.5 263.5 L 16.5 268.5 Z M 28.5 268.5 L 28.5 263.5 L 23.5 263.5 L 23.5 268.5 Z M 49.5 268.5 L 49.5 263.5 L 44.5 263.5 L 44.5 268.5 Z M 56.5 268.5 L 56.5 263.5 L 51.5 263.5 L 51.5 268.5 Z M 63.5 268.5 L 63.5 263.5 L 58.5 263.5 L 58.5 268.5 Z M 70.5 268.5 L 70.5 263.5 L 65.5 263.5 L 65.5 268.5 Z M 77.5 268.5 L 77.5 263.5 L 72.5 263.5 L 72.5 268.5 Z M 91.5 268.5 L 91.5 263.5 L 86.5 263.5 L 86.5 268.5 Z M 119.5 268.5 L 119.5 263.5 L 114.5 263.5 L 114.5 268.5 Z M 126.5 268.5 L 126.5 263.5 L 121.5 263.5 L 121.5 268.5 Z M 133.5 268.5 L 133.5 263.5 L 128.5 263.5 L 128.5 268.5 Z M 140.5 268.5 L 140.5 263.5 L 135.5 263.5 L 135.5 268.5 Z M 147.5 268.5 L 147.5 263.5 L 142.5 263.5 L 142.5 268.5 Z M 224.5 268.5 L 224.5 263.5 L 219.5 263.5 L 219.5 268.5 Z M 231.5 268.5 L 231.5 263.5 L 226.5 263.5 L 226.5 268.5 Z M 238.5 268.5 L 238.5 263.5 L 233.5 263.5 L 233.5 268.5 Z M 245.5 268.5 L 245.5 263.5 L 240.5 263.5 L 240.5 268.5 Z M 252.5 268.5 L 252.5 263.5 L 247.5 263.5 L 247.5 268.5 Z M 266.5 268.5 L 266.5 263.5 L 261.5 263.5 L 261.5 268.5 Z M 280.5 268.5 L 280.5 263.5 L 275.5 263.5 L 275.5 268.5 Z M 287.5 268.5 L 287.5 263.5 L 282.5 263.5 L 282.5 268.5 Z M 28.5 275.5 L 28.5 270.5 L 23.5 270.5 L 23.5 275.5 Z M 42.5 275.5 L 42.5 270.5 L 37.5 270.5 L 37.5 275.5 Z M 49.5 275.5 L 49.5 270.5 L 44.5 270.5 L 44.5 275.5 Z M 77.5 275.5 L 77.5 270.5 L 72.5 270.5 L 72.5 275.5 Z M 84.5 275.5 L 84.5 270.5 L 79.5 270.5 L 79.5 275.5 Z M 91.5 275.5 L 91.5 270.5 L 86.5 270.5 L 86.5 275.5 Z M 112.5 275.5 L 112.5 270.5 L 107.5 270.5 L 107.5 275.5 Z M 119.5 275.5 L 119.5 270.5 L 114.5 270.5 L 114.5 275.5 Z M 147.5 275.5 L 147.5 270.5 L 142.5 270.5 L 142.5 275.5 Z M 217.5 275.5 L 217.5 270.5 L 212.5 270.5 L 212.5 275.5 Z M 224.5 275.5 L 224.5 270.5 L 219.5 270.5 L 219.5 275.5 Z M 252.5 275.5 L 252.5 270.5 L 247.5 270.5 L 247.5 275.5 Z M 259.5 275.5 L 259.5 270.5 L 254.5 270.5 L 254.5 275.5 Z M 266.5 275.5 L 266.5 270.5 L 261.5 270.5 L 261.5 275.5 Z M 273.5 275.5 L 273.5 270.5 L 268.5 270.5 L 268.5 275.5 Z M 280.5 275.5 L 280.5 270.5 L 275.5 270.5 L 275.5 275.5 Z M 21.5 282.5 L 21.5 277.5 L 16.5 277.5 L 16.5 282.5 Z M 28.5 282.5 L 28.5 277.5 L 23.5 277.5 L 23.5 282.5 Z M 35.5 282.5 L 35.5 277.5 L 30.5 277.5 L 30.5 282.5 Z M 42.5 282.5 L 42.5 277.5 L 37.5 277.5 L 37.5 282.5 Z M 49.5 282.5 L 49.5 277.5 L 44.5 277.5 L 44.5 282.5 Z M 70.5 282.5 L 70.5 277.5 L 65.5 277.5 L 65.5 282.5 Z M 77.5 282.5 L 77.5 277.5 L 72.5 277.5 L 72.5 282.5 Z M 91.5 282.5 L 91.5 277.5 L 86.5 277.5 L 86.5 282.5 Z M 105.5 282.5 L 105.5 277.5 L 100.5 277.5 L 100.5 282.5 Z M 112.5 282.5 L 112.5 277.5 L 107.5 277.5 L 107.5 282.5 Z M 119.5 282.5 L 119.5 277.5 L 114.5 277.5 L 114.5 282.5 Z M 140.5 282.5 L 140.5 277.5 L 135.5 277.5 L 135.5 282.5 Z M 147.5 282.5 L 147.5 277.5 L 142.5 277.5 L 142.5 282.5 Z M 210.5 282.5 L 210.5 277.5 L 205.5 277.5 L 205.5 282.5 Z M 217.5 282.5 L 217.5 277.5 L 212.5 277.5 L 212.5 282.5 Z M 224.5 282.5 L 224.5 277.5 L 219.5 277.5 L 219.5 282.5 Z M 245.5 282.5 L 245.5 277.5 L 240.5 277.5 L 240.5 282.5 Z M 252.5 282.5 L 252.5 277.5 L 247.5 277.5 L 247.5 282.5 Z M 280.5 282.5 L 280.5 277.5 L 275.5 277.5 L 275.5 282.5 Z M 14.5 289.5 L 14.5 284.5 L 9.5 284.5 L 9.5 289.5 Z M 21.5 289.5 L 21.5 284.5 L 16.5 284.5 L 16.5 289.5 Z M 49.5 289.5 L 49.5 284.5 L 44.5 284.5 L 44.5 289.5 Z M 63.5 289.5 L 63.5 284.5 L 58.5 284.5 L 58.5 289.5 Z M 70.5 289.5 L 70.5 284.5 L 65.5 284.5 L 65.5 289.5 Z M 77.5 289.5 L 77.5 284.5 L 72.5 284.5 L 72.5 289.5 Z M 84.5 289.5 L 84.5 284.5 L 79.5 284.5 L 79.5 289.5 Z M 91.5 289.5 L 91.5 284.5 L 86.5 284.5 L 86.5 289.5 Z M 98.5 289.5 L 98.5 284.5 L 93.5 284.5 L 93.5 289.5 Z M 105.5 289.5 L 105.5 284.5 L 100.5 284.5 L 100.5 289.5 Z M 119.5 289.5 L 119.5 284.5 L 114.5 284.5 L 114.5 289.5 Z M 133.5 289.5 L 133.5 284.5 L 128.5 284.5 L 128.5 289.5 Z M 140.5 289.5 L 140.5 284.5 L 135.5 284.5 L 135.5 289.5 Z M 147.5 289.5 L 147.5 284.5 L 142.5 284.5 L 142.5 289.5 Z M 203.5 289.5 L 203.5 284.5 L 198.5 284.5 L 198.5 289.5 Z M 210.5 289.5 L 210.5 284.5 L 205.5 284.5 L 205.5 289.5 Z M 224.5 289.5 L 224.5 284.5 L 219.5 284.5 L 219.5 289.5 Z M 238.5 289.5 L 238.5 284.5 L 233.5 284.5 L 233.5 289.5 Z M 245.5 289.5 L 245.5 284.5 L 240.5 284.5 L 240.5 289.5 Z M 252.5 289.5 L 252.5 284.5 L 247.5 284.5 L 247.5 289.5 Z M 273.5 289.5 L 273.5 284.5 L 268.5 284.5 L 268.5 289.5 Z M 280.5 289.5 L 280.5 284.5 L 275.5 284.5 L 275.5 289.5 Z M 280.5 289.5 "/>
</g>
</svg>
