<?xml version="1.0" encoding="UTF-8"?>
<svg xmlns="http://www.w3.org/2000/svg" xmlns:xlink="http://www.w3.org/1999/xlink" width="800pt" height="250pt" viewBox="0 0 800 250" version="1.1">
<g id="surface275">
<rect x="0" y="0" width="800" height="250" style="fill:rgb(100%,100%,100%);fill-opacity:1;stroke:none;"/>
<path style=" stroke:none;fill-rule:nonzero;fill:rgb(75.5%,30%,100%);fill-opacity:0.16;" d="M 61 147 C 61 147 61 146.976562 61 146.972656 M 61 146.972656 C 59.085938 146.820312 474.738281 227.007812 701 146.972656 "/>
<path style=" stroke:none;fill-rule:nonzero;fill:rgb(74.666667%,20%,100%);fill-opacity:0.15;" d="M 61 146.972656 C 59.085938 146.820312 474.738281 227.007812 701 146.972656 "/>
<path style=" stroke:none;fill-rule:nonzero;fill:rgb(85.8%,29%,100%);fill-opacity:0.05;" d="M 61 146.972656 C 59.085938 146.820312 474.738281 227.007812 701 146.972656 "/>
<path style=" stroke:none;fill-rule:nonzero;fill:rgb(87.166667%,23%,100%);fill-opacity:0.08;" d="M 61 146.972656 C 59.085938 146.820312 474.738281 227.007812 701 146.972656 "/>
<path style=" stroke:none;fill-rule:nonzero;fill:rgb(80.75%,23%,100%);fill-opacity:0.16;" d="M 61 146.972656 C 59.085938 146.820312 474.738281 227.007812 701 146.972656 "/>
<path style=" stroke:none;fill-rule:nonzero;fill:rgb(73.083333%,15%,100%);fill-opacity:0.09;" d="M 61 146.972656 C 59.085938 146.820312 474.738281 227.007812 701 146.972656 "/>
<path style=" stroke:none;fill-rule:nonzero;fill:rgb(79.2%,22%,100%);fill-opacity:0.14;" d="M 61 146.972656 C 59.085938 146.820312 474.738281 227.007812 701 146.972656 "/>
<path style=" stroke:none;fill-rule:nonzero;fill:rgb(64.716667%,27%,100%);fill-opacity:0.19;" d="M 61 146.972656 C 59.085938 146.820312 474.738281 227.007812 701 146.972656 "/>
<path style=" stroke:none;fill-rule:nonzero;fill:rgb(69.2%,12%,100%);fill-opacity:0.12;" d="M 61 146.972656 C 59.085938 146.820312 474.738281 227.007812 701 146.972656 "/>
<path style=" stroke:none;fill-rule:nonzero;fill:rgb(67.6%,19%,100%);fill-opacity:0.09;" d="M 61 146.972656 C 59.085938 146.820312 474.738281 227.007812 701 146.972656 "/>
<path style=" stroke:none;fill-rule:nonzero;fill:rgb(73.3%,11%,100%);fill-opacity:0.07;" d="M 61 146.972656 C 59.085938 146.820312 474.738281 227.007812 701 146.972656 "/>
<path style=" stroke:none;fill-rule:nonzero;fill:rgb(72.866667%,26%,100%);fill-opacity:0.14;" d="M 61 146.972656 C 59.085938 146.820312 474.738281 227.007812 701 146.972656 "/>
<path style=" stroke:none;fill-rule:nonzero;fill:rgb(76%,20%,100%);fill-opacity:0.17;" d="M 61 146.972656 C 59.085938 146.820312 474.738281 227.007812 701 146.972656 "/>
<path style=" stroke:none;fill-rule:nonzero;fill:rgb(70%,28%,100%);fill-opacity:0.17;" d="M 61 146.972656 C 59.085938 146.820312 474.738281 227.007812 701 146.972656 "/>
<path style=" stroke:none;fill-rule:nonzero;fill:rgb(73.6%,12%,100%);fill-opacity:0.11;" d="M 61 146.972656 C 59.085938 146.820312 474.738281 227.007812 701 146.972656 "/>
<path style=" stroke:none;fill-rule:nonzero;fill:rgb(81.066667%,29%,100%);fill-opacity:0.12;" d="M 61 146.972656 C 59.085938 146.820312 474.738281 227.007812 701 146.972656 "/>
<path style=" stroke:none;fill-rule:nonzero;fill:rgb(71.766667%,23%,100%);fill-opacity:0.09;" d="M 61 146.972656 C 59.085938 146.820312 474.738281 227.007812 701 146.972656 "/>
<path style=" stroke:none;fill-rule:nonzero;fill:rgb(78.5%,14%,100%);fill-opacity:0.19;" d="M 61 146.972656 C 59.085938 146.820312 474.738281 227.007812 701 146.972656 "/>
<path style=" stroke:none;fill-rule:nonzero;fill:rgb(76.533333%,12%,100%);fill-opacity:0.09;" d="M 61 146.972656 C 59.085938 146.820312 474.738281 227.007812 701 146.972656 "/>
<path style=" stroke:none;fill-rule:nonzero;fill:rgb(76%,28%,100%);fill-opacity:0.02;" d="M 61 146.972656 C 59.085938 146.820312 474.738281 227.007812 701 146.972656 M 701 146.972656 C 701 146.972656 701 147.003906 701 147 "/>
<path style=" stroke:none;fill-rule:nonzero;fill:rgb(77.9%,22%,100%);fill-opacity:0.01;" d="M 701 147 C 700.996094 147.015625 701 147.03125 701 147.027344 M 701 147.027344 C 825.402344 157 380.375 0.554688 61 147.027344 "/>
<path style=" stroke:none;fill-rule:nonzero;fill:rgb(71%,13%,100%);fill-opacity:0.14;" d="M 701 147.027344 C 825.402344 157 380.375 0.554688 61 147.027344 "/>
<path style=" stroke:none;fill-rule:nonzero;fill:rgb(74.333333%,30%,100%);fill-opacity:0.15;" d="M 701 147.027344 C 825.402344 157 380.375 0.554688 61 147.027344 "/>
<path style=" stroke:none;fill-rule:nonzero;fill:rgb(74.8%,28%,100%);fill-opacity:0.11;" d="M 701 147.027344 C 825.402344 157 380.375 0.554688 61 147.027344 "/>
<path style=" stroke:none;fill-rule:nonzero;fill:rgb(82%,28%,100%);fill-opacity:0.2;" d="M 701 147.027344 C 825.402344 157 380.375 0.554688 61 147.027344 "/>
<path style=" stroke:none;fill-rule:nonzero;fill:rgb(59.4%,16%,100%);fill-opacity:0.1;" d="M 701 147.027344 C 825.402344 157 380.375 0.554688 61 147.027344 "/>
<path style=" stroke:none;fill-rule:nonzero;fill:rgb(68.8%,22%,100%);fill-opacity:0.18;" d="M 701 147.027344 C 825.402344 157 380.375 0.554688 61 147.027344 "/>
<path style=" stroke:none;fill-rule:nonzero;fill:rgb(80.933333%,12%,100%);fill-opacity:0.08;" d="M 701 147.027344 C 825.402344 157 380.375 0.554688 61 147.027344 "/>
<path style=" stroke:none;fill-rule:nonzero;fill:rgb(61.333333%,20%,100%);fill-opacity:0.17;" d="M 701 147.027344 C 825.402344 157 380.375 0.554688 61 147.027344 "/>
<path style=" stroke:none;fill-rule:nonzero;fill:rgb(73.166667%,30%,100%);fill-opacity:0.04;" d="M 701 147.027344 C 825.402344 157 380.375 0.554688 61 147.027344 "/>
<path style=" stroke:none;fill-rule:nonzero;fill:rgb(78.75%,15%,100%);fill-opacity:0.07;" d="M 701 147.027344 C 825.402344 157 380.375 0.554688 61 147.027344 "/>
<path style=" stroke:none;fill-rule:nonzero;fill:rgb(76.333333%,29%,100%);fill-opacity:0.04;" d="M 701 147.027344 C 825.402344 157 380.375 0.554688 61 147.027344 "/>
<path style=" stroke:none;fill-rule:nonzero;fill:rgb(63.166667%,15%,100%);fill-opacity:0.17;" d="M 701 147.027344 C 825.402344 157 380.375 0.554688 61 147.027344 "/>
<path style=" stroke:none;fill-rule:nonzero;fill:rgb(80.633333%,17%,100%);fill-opacity:0.03;" d="M 701 147.027344 C 825.402344 157 380.375 0.554688 61 147.027344 "/>
<path style=" stroke:none;fill-rule:nonzero;fill:rgb(82.5%,30%,100%);fill-opacity:0.12;" d="M 701 147.027344 C 825.402344 157 380.375 0.554688 61 147.027344 "/>
<path style=" stroke:none;fill-rule:nonzero;fill:rgb(80.266667%,26%,100%);fill-opacity:0.03;" d="M 701 147.027344 C 825.402344 157 380.375 0.554688 61 147.027344 "/>
<path style=" stroke:none;fill-rule:nonzero;fill:rgb(84.6%,16%,100%);fill-opacity:0.07;" d="M 701 147.027344 C 825.402344 157 380.375 0.554688 61 147.027344 "/>
<path style=" stroke:none;fill-rule:nonzero;fill:rgb(56.5%,13%,100%);fill-opacity:0.05;" d="M 701 147.027344 C 825.402344 157 380.375 0.554688 61 147.027344 "/>
<path style=" stroke:none;fill-rule:nonzero;fill:rgb(79.25%,17%,100%);fill-opacity:0.01;" d="M 701 147.027344 C 825.402344 157 380.375 0.554688 61 147.027344 "/>
<path style=" stroke:none;fill-rule:nonzero;fill:rgb(69.233333%,29%,100%);fill-opacity:0.11;" d="M 701 147.027344 C 825.402344 157 380.375 0.554688 61 147.027344 "/>
<path style=" stroke:none;fill-rule:nonzero;fill:rgb(70.833333%,30%,100%);fill-opacity:0.16;" d="M 701 147.027344 C 825.402344 157 380.375 0.554688 61 147.027344 M 61 147.027344 C 61 147.019531 61 147 61 147 "/>
<path style=" stroke:none;fill-rule:nonzero;fill:rgb(65.933333%,27%,100%);fill-opacity:0.13;" d="M 61 147.027344 C 61 147.019531 61 147 61 147 M 103 142 C 103 142.003906 103 141.972656 103 141.976562 "/>
<path style=" stroke:none;fill-rule:nonzero;fill:rgb(71.633333%,26%,100%);fill-opacity:0.03;" d="M 103 142 C 103 142.003906 103 141.972656 103 141.976562 M 103 141.976562 C 412.898438 185.648438 538.054688 259.320312 743 141.976562 "/>
<path style=" stroke:none;fill-rule:nonzero;fill:rgb(71.033333%,21%,100%);fill-opacity:0.07;" d="M 103 141.976562 C 412.898438 185.648438 538.054688 259.320312 743 141.976562 "/>
<path style=" stroke:none;fill-rule:nonzero;fill:rgb(59.4%,16%,100%);fill-opacity:0.03;" d="M 103 141.976562 C 412.898438 185.648438 538.054688 259.320312 743 141.976562 "/>
<path style=" stroke:none;fill-rule:nonzero;fill:rgb(84.6%,23%,100%);fill-opacity:0.11;" d="M 103 141.976562 C 412.898438 185.648438 538.054688 259.320312 743 141.976562 "/>
<path style=" stroke:none;fill-rule:nonzero;fill:rgb(66.65%,13%,100%);fill-opacity:0.08;" d="M 103 141.976562 C 412.898438 185.648438 538.054688 259.320312 743 141.976562 "/>
<path style=" stroke:none;fill-rule:nonzero;fill:rgb(81.333333%,20%,100%);fill-opacity:0.04;" d="M 103 141.976562 C 412.898438 185.648438 538.054688 259.320312 743 141.976562 "/>
<path style=" stroke:none;fill-rule:nonzero;fill:rgb(79.7%,13%,100%);fill-opacity:0.09;" d="M 103 141.976562 C 412.898438 185.648438 538.054688 259.320312 743 141.976562 "/>
<path style=" stroke:none;fill-rule:nonzero;fill:rgb(73.4%,16%,100%);fill-opacity:0.2;" d="M 103 141.976562 C 412.898438 185.648438 538.054688 259.320312 743 141.976562 "/>
<path style=" stroke:none;fill-rule:nonzero;fill:rgb(76.883333%,27%,100%);fill-opacity:0.16;" d="M 103 141.976562 C 412.898438 185.648438 538.054688 259.320312 743 141.976562 "/>
<path style=" stroke:none;fill-rule:nonzero;fill:rgb(64.166667%,14%,100%);fill-opacity:0.16;" d="M 103 141.976562 C 412.898438 185.648438 538.054688 259.320312 743 141.976562 "/>
<path style=" stroke:none;fill-rule:nonzero;fill:rgb(64.583333%,15%,100%);fill-opacity:0.09;" d="M 103 141.976562 C 412.898438 185.648438 538.054688 259.320312 743 141.976562 "/>
<path style=" stroke:none;fill-rule:nonzero;fill:rgb(81.583333%,15%,100%);fill-opacity:0.11;" d="M 103 141.976562 C 412.898438 185.648438 538.054688 259.320312 743 141.976562 "/>
<path style=" stroke:none;fill-rule:nonzero;fill:rgb(60.8%,16%,100%);fill-opacity:0.09;" d="M 103 141.976562 C 412.898438 185.648438 538.054688 259.320312 743 141.976562 "/>
<path style=" stroke:none;fill-rule:nonzero;fill:rgb(85.833333%,15%,100%);fill-opacity:0.05;" d="M 103 141.976562 C 412.898438 185.648438 538.054688 259.320312 743 141.976562 "/>
<path style=" stroke:none;fill-rule:nonzero;fill:rgb(85.6%,28%,100%);fill-opacity:0.03;" d="M 103 141.976562 C 412.898438 185.648438 538.054688 259.320312 743 141.976562 "/>
<path style=" stroke:none;fill-rule:nonzero;fill:rgb(81.566667%,21%,100%);fill-opacity:0.06;" d="M 103 141.976562 C 412.898438 185.648438 538.054688 259.320312 743 141.976562 "/>
<path style=" stroke:none;fill-rule:nonzero;fill:rgb(74.1%,26%,100%);fill-opacity:0.16;" d="M 103 141.976562 C 412.898438 185.648438 538.054688 259.320312 743 141.976562 "/>
<path style=" stroke:none;fill-rule:nonzero;fill:rgb(74.333333%,23%,100%);fill-opacity:0.09;" d="M 103 141.976562 C 412.898438 185.648438 538.054688 259.320312 743 141.976562 "/>
<path style=" stroke:none;fill-rule:nonzero;fill:rgb(59.883333%,17%,100%);fill-opacity:0.02;" d="M 103 141.976562 C 412.898438 185.648438 538.054688 259.320312 743 141.976562 "/>
<path style=" stroke:none;fill-rule:nonzero;fill:rgb(79.033333%,26%,100%);fill-opacity:0.14;" d="M 103 141.976562 C 412.898438 185.648438 538.054688 259.320312 743 141.976562 "/>
<path style=" stroke:none;fill-rule:nonzero;fill:rgb(82.4%,12%,100%);fill-opacity:0.2;" d="M 103 141.976562 C 412.898438 185.648438 538.054688 259.320312 743 141.976562 M 743 141.976562 C 743 141.980469 743 141.996094 743 142 "/>
<path style=" stroke:none;fill-rule:nonzero;fill:rgb(80.5%,10%,100%);fill-opacity:0.06;" d="M 743 142 C 743 142.003906 743 142.023438 743 142.023438 M 743 142.023438 C 830.863281 162.597656 157.300781 122.816406 103 142.023438 "/>
<path style=" stroke:none;fill-rule:nonzero;fill:rgb(59.5%,19%,100%);fill-opacity:0.16;" d="M 743 142.023438 C 830.863281 162.597656 157.300781 122.816406 103 142.023438 "/>
<path style=" stroke:none;fill-rule:nonzero;fill:rgb(64.716667%,27%,100%);fill-opacity:0.11;" d="M 743 142.023438 C 830.863281 162.597656 157.300781 122.816406 103 142.023438 "/>
<path style=" stroke:none;fill-rule:nonzero;fill:rgb(69.2%,16%,100%);fill-opacity:0.09;" d="M 743 142.023438 C 830.863281 162.597656 157.300781 122.816406 103 142.023438 "/>
<path style=" stroke:none;fill-rule:nonzero;fill:rgb(81.25%,25%,100%);fill-opacity:0.2;" d="M 743 142.023438 C 830.863281 162.597656 157.300781 122.816406 103 142.023438 "/>
<path style=" stroke:none;fill-rule:nonzero;fill:rgb(76.6%,22%,100%);fill-opacity:0.04;" d="M 743 142.023438 C 830.863281 162.597656 157.300781 122.816406 103 142.023438 "/>
<path style=" stroke:none;fill-rule:nonzero;fill:rgb(77.05%,19%,100%);fill-opacity:0.19;" d="M 743 142.023438 C 830.863281 162.597656 157.300781 122.816406 103 142.023438 "/>
<path style=" stroke:none;fill-rule:nonzero;fill:rgb(80.25%,21%,100%);fill-opacity:0.07;" d="M 743 142.023438 C 830.863281 162.597656 157.300781 122.816406 103 142.023438 "/>
<path style=" stroke:none;fill-rule:nonzero;fill:rgb(64.583333%,15%,100%);fill-opacity:0.15;" d="M 743 142.023438 C 830.863281 162.597656 157.300781 122.816406 103 142.023438 "/>
<path style=" stroke:none;fill-rule:nonzero;fill:rgb(75.7%,19%,100%);fill-opacity:0.2;" d="M 743 142.023438 C 830.863281 162.597656 157.300781 122.816406 103 142.023438 "/>
<path style=" stroke:none;fill-rule:nonzero;fill:rgb(87.666667%,26%,100%);fill-opacity:0.16;" d="M 743 142.023438 C 830.863281 162.597656 157.300781 122.816406 103 142.023438 "/>
<path style=" stroke:none;fill-rule:nonzero;fill:rgb(71.033333%,21%,100%);fill-opacity:0.1;" d="M 743 142.023438 C 830.863281 162.597656 157.300781 122.816406 103 142.023438 "/>
<path style=" stroke:none;fill-rule:nonzero;fill:rgb(84.966667%,18%,100%);fill-opacity:0.01;" d="M 743 142.023438 C 830.863281 162.597656 157.300781 122.816406 103 142.023438 "/>
<path style=" stroke:none;fill-rule:nonzero;fill:rgb(86.433333%,26%,100%);fill-opacity:0.13;" d="M 743 142.023438 C 830.863281 162.597656 157.300781 122.816406 103 142.023438 "/>
<path style=" stroke:none;fill-rule:nonzero;fill:rgb(82.8%,14%,100%);fill-opacity:0.11;" d="M 743 142.023438 C 830.863281 162.597656 157.300781 122.816406 103 142.023438 "/>
<path style=" stroke:none;fill-rule:nonzero;fill:rgb(60%,20%,100%);fill-opacity:0.02;" d="M 743 142.023438 C 830.863281 162.597656 157.300781 122.816406 103 142.023438 "/>
<path style=" stroke:none;fill-rule:nonzero;fill:rgb(83.5%,10%,100%);fill-opacity:0.2;" d="M 743 142.023438 C 830.863281 162.597656 157.300781 122.816406 103 142.023438 "/>
<path style=" stroke:none;fill-rule:nonzero;fill:rgb(65%,30%,100%);fill-opacity:0.02;" d="M 743 142.023438 C 830.863281 162.597656 157.300781 122.816406 103 142.023438 "/>
<path style=" stroke:none;fill-rule:nonzero;fill:rgb(68.8%,22%,100%);fill-opacity:0.14;" d="M 743 142.023438 C 830.863281 162.597656 157.300781 122.816406 103 142.023438 "/>
<path style=" stroke:none;fill-rule:nonzero;fill:rgb(82.25%,29%,100%);fill-opacity:0.09;" d="M 743 142.023438 C 830.863281 162.597656 157.300781 122.816406 103 142.023438 "/>
<path style=" stroke:none;fill-rule:nonzero;fill:rgb(67.933333%,26%,100%);fill-opacity:0.15;" d="M 743 142.023438 C 830.863281 162.597656 157.300781 122.816406 103 142.023438 M 103 142.023438 C 103.003906 142.015625 103.003906 142.007812 103 142 "/>
<path style=" stroke:none;fill-rule:nonzero;fill:rgb(66.166667%,30%,100%);fill-opacity:0.07;" d="M 103 142.023438 C 103.003906 142.015625 103.003906 142.007812 103 142 "/>
<path style=" stroke:none;fill-rule:nonzero;fill:rgb(76%,10%,100%);fill-opacity:0.09;" d="M 103 142.023438 C 103.003906 142.015625 103.003906 142.007812 103 142 "/>
<path style=" stroke:none;fill-rule:nonzero;fill:rgb(82.033333%,23%,100%);fill-opacity:0.03;" d="M 103 142.023438 C 103.003906 142.015625 103.003906 142.007812 103 142 "/>
<path style=" stroke:none;fill-rule:nonzero;fill:rgb(55.5%,11%,100%);fill-opacity:0.2;" d="M 103 142.023438 C 103.003906 142.015625 103.003906 142.007812 103 142 "/>
<path style=" stroke:none;fill-rule:nonzero;fill:rgb(74.783333%,11%,100%);fill-opacity:0.1;" d="M 103 142.023438 C 103.003906 142.015625 103.003906 142.007812 103 142 "/>
<path style=" stroke:none;fill-rule:nonzero;fill:rgb(78.4%,28%,100%);fill-opacity:0.09;" d="M 103 142.023438 C 103.003906 142.015625 103.003906 142.007812 103 142 "/>
<path style=" stroke:none;fill-rule:nonzero;fill:rgb(79.466667%,23%,100%);fill-opacity:0.02;" d="M 103 142.023438 C 103.003906 142.015625 103.003906 142.007812 103 142 "/>
<path style=" stroke:none;fill-rule:nonzero;fill:rgb(65.766667%,21%,100%);fill-opacity:0.08;" d="M 103 142.023438 C 103.003906 142.015625 103.003906 142.007812 103 142 "/>
<path style=" stroke:none;fill-rule:nonzero;fill:rgb(60.366667%,18%,100%);fill-opacity:0.07;" d="M 103 142.023438 C 103.003906 142.015625 103.003906 142.007812 103 142 "/>
<path style=" stroke:none;fill-rule:nonzero;fill:rgb(62.3%,13%,100%);fill-opacity:0.04;" d="M 103 142.023438 C 103.003906 142.015625 103.003906 142.007812 103 142 "/>
<path style=" stroke:none;fill-rule:nonzero;fill:rgb(75.633333%,14%,100%);fill-opacity:0.07;" d="M 103 142.023438 C 103.003906 142.015625 103.003906 142.007812 103 142 "/>
<path style=" stroke:none;fill-rule:nonzero;fill:rgb(80%,20%,100%);fill-opacity:0.08;" d="M 103 142.023438 C 103.003906 142.015625 103.003906 142.007812 103 142 "/>
<path style=" stroke:none;fill-rule:nonzero;fill:rgb(65.6%,14%,100%);fill-opacity:0.16;" d="M 103 142.023438 C 103.003906 142.015625 103.003906 142.007812 103 142 "/>
<path style=" stroke:none;fill-rule:nonzero;fill:rgb(77.75%,11%,100%);fill-opacity:0.15;" d="M 103 142.023438 C 103.003906 142.015625 103.003906 142.007812 103 142 "/>
<path style=" stroke:none;fill-rule:nonzero;fill:rgb(72.766667%,14%,100%);fill-opacity:0.09;" d="M 103 142.023438 C 103.003906 142.015625 103.003906 142.007812 103 142 "/>
<path style=" stroke:none;fill-rule:nonzero;fill:rgb(75%,25%,100%);fill-opacity:0.17;" d="M 103 142.023438 C 103.003906 142.015625 103.003906 142.007812 103 142 "/>
<path style=" stroke:none;fill-rule:nonzero;fill:rgb(73.716667%,17%,100%);fill-opacity:0.11;" d="M 103 142.023438 C 103.003906 142.015625 103.003906 142.007812 103 142 "/>
<path style=" stroke:none;fill-rule:nonzero;fill:rgb(69.583333%,27%,100%);fill-opacity:0.09;" d="M 103 142.023438 C 103.003906 142.015625 103.003906 142.007812 103 142 "/>
<path style=" stroke:none;fill-rule:nonzero;fill:rgb(76.333333%,29%,100%);fill-opacity:0.07;" d="M 103 142.023438 C 103.003906 142.015625 103.003906 142.007812 103 142 "/>
<path style=" stroke:none;fill-rule:nonzero;fill:rgb(76.2%,16%,100%);fill-opacity:0.14;" d="M 103 142.023438 C 103.003906 142.015625 103.003906 142.007812 103 142 M 64 105 C 64 105 64 104.984375 64 104.984375 "/>
<path style=" stroke:none;fill-rule:nonzero;fill:rgb(76.666667%,30%,100%);fill-opacity:0.01;" d="M 64 105 C 64 105 64 104.984375 64 104.984375 M 64 104.984375 C 228.914062 113.238281 866.90625 47.359375 704 104.984375 "/>
<path style=" stroke:none;fill-rule:nonzero;fill:rgb(78.4%,28%,100%);fill-opacity:0.14;" d="M 64 104.984375 C 228.914062 113.238281 866.90625 47.359375 704 104.984375 "/>
<path style=" stroke:none;fill-rule:nonzero;fill:rgb(68.833333%,15%,100%);fill-opacity:0.17;" d="M 64 104.984375 C 228.914062 113.238281 866.90625 47.359375 704 104.984375 "/>
<path style=" stroke:none;fill-rule:nonzero;fill:rgb(74.983333%,21%,100%);fill-opacity:0.12;" d="M 64 104.984375 C 228.914062 113.238281 866.90625 47.359375 704 104.984375 "/>
<path style=" stroke:none;fill-rule:nonzero;fill:rgb(79%,16%,100%);fill-opacity:0.09;" d="M 64 104.984375 C 228.914062 113.238281 866.90625 47.359375 704 104.984375 "/>
<path style=" stroke:none;fill-rule:nonzero;fill:rgb(61.433333%,11%,100%);fill-opacity:0.11;" d="M 64 104.984375 C 228.914062 113.238281 866.90625 47.359375 704 104.984375 "/>
<path style=" stroke:none;fill-rule:nonzero;fill:rgb(82.5%,30%,100%);fill-opacity:0.1;" d="M 64 104.984375 C 228.914062 113.238281 866.90625 47.359375 704 104.984375 "/>
<path style=" stroke:none;fill-rule:nonzero;fill:rgb(57.5%,15%,100%);fill-opacity:0.16;" d="M 64 104.984375 C 228.914062 113.238281 866.90625 47.359375 704 104.984375 "/>
<path style=" stroke:none;fill-rule:nonzero;fill:rgb(67.5%,25%,100%);fill-opacity:0.14;" d="M 64 104.984375 C 228.914062 113.238281 866.90625 47.359375 704 104.984375 "/>
<path style=" stroke:none;fill-rule:nonzero;fill:rgb(83%,15%,100%);fill-opacity:0.03;" d="M 64 104.984375 C 228.914062 113.238281 866.90625 47.359375 704 104.984375 "/>
<path style=" stroke:none;fill-rule:nonzero;fill:rgb(79.316667%,27%,100%);fill-opacity:0.17;" d="M 64 104.984375 C 228.914062 113.238281 866.90625 47.359375 704 104.984375 "/>
<path style=" stroke:none;fill-rule:nonzero;fill:rgb(76.266667%,11%,100%);fill-opacity:0.05;" d="M 64 104.984375 C 228.914062 113.238281 866.90625 47.359375 704 104.984375 "/>
<path style=" stroke:none;fill-rule:nonzero;fill:rgb(77.866667%,17%,100%);fill-opacity:0.04;" d="M 64 104.984375 C 228.914062 113.238281 866.90625 47.359375 704 104.984375 "/>
<path style=" stroke:none;fill-rule:nonzero;fill:rgb(63.5%,27%,100%);fill-opacity:0.16;" d="M 64 104.984375 C 228.914062 113.238281 866.90625 47.359375 704 104.984375 "/>
<path style=" stroke:none;fill-rule:nonzero;fill:rgb(60%,20%,100%);fill-opacity:0.05;" d="M 64 104.984375 C 228.914062 113.238281 866.90625 47.359375 704 104.984375 "/>
<path style=" stroke:none;fill-rule:nonzero;fill:rgb(71.25%,25%,100%);fill-opacity:0.09;" d="M 64 104.984375 C 228.914062 113.238281 866.90625 47.359375 704 104.984375 "/>
<path style=" stroke:none;fill-rule:nonzero;fill:rgb(61.5%,23%,100%);fill-opacity:0.15;" d="M 64 104.984375 C 228.914062 113.238281 866.90625 47.359375 704 104.984375 "/>
<path style=" stroke:none;fill-rule:nonzero;fill:rgb(81.75%,27%,100%);fill-opacity:0.15;" d="M 64 104.984375 C 228.914062 113.238281 866.90625 47.359375 704 104.984375 "/>
<path style=" stroke:none;fill-rule:nonzero;fill:rgb(81.066667%,29%,100%);fill-opacity:0.13;" d="M 64 104.984375 C 228.914062 113.238281 866.90625 47.359375 704 104.984375 "/>
<path style=" stroke:none;fill-rule:nonzero;fill:rgb(72.016667%,27%,100%);fill-opacity:0.18;" d="M 64 104.984375 C 228.914062 113.238281 866.90625 47.359375 704 104.984375 "/>
<path style=" stroke:none;fill-rule:nonzero;fill:rgb(67.6%,19%,100%);fill-opacity:0.04;" d="M 64 104.984375 C 228.914062 113.238281 866.90625 47.359375 704 104.984375 M 704 104.984375 C 704 104.992188 704 104.996094 704 105 "/>
<path style=" stroke:none;fill-rule:nonzero;fill:rgb(77.333333%,20%,100%);fill-opacity:0.17;" d="M 704 105.015625 C 417.226562 0.335938 71.382812 102.890625 64 105.015625 "/>
<path style=" stroke:none;fill-rule:nonzero;fill:rgb(63.75%,13%,100%);fill-opacity:0.14;" d="M 704 105.015625 C 417.226562 0.335938 71.382812 102.890625 64 105.015625 "/>
<path style=" stroke:none;fill-rule:nonzero;fill:rgb(67.083333%,21%,100%);fill-opacity:0.07;" d="M 704 105.015625 C 417.226562 0.335938 71.382812 102.890625 64 105.015625 "/>
<path style=" stroke:none;fill-rule:nonzero;fill:rgb(72.35%,21%,100%);fill-opacity:0.04;" d="M 704 105.015625 C 417.226562 0.335938 71.382812 102.890625 64 105.015625 "/>
<path style=" stroke:none;fill-rule:nonzero;fill:rgb(80%,25%,100%);fill-opacity:0.18;" d="M 704 105.015625 C 417.226562 0.335938 71.382812 102.890625 64 105.015625 "/>
<path style=" stroke:none;fill-rule:nonzero;fill:rgb(78.466667%,24%,100%);fill-opacity:0.12;" d="M 704 105.015625 C 417.226562 0.335938 71.382812 102.890625 64 105.015625 "/>
<path style=" stroke:none;fill-rule:nonzero;fill:rgb(57.466667%,12%,100%);fill-opacity:0.13;" d="M 704 105.015625 C 417.226562 0.335938 71.382812 102.890625 64 105.015625 "/>
<path style=" stroke:none;fill-rule:nonzero;fill:rgb(84.616667%,29%,100%);fill-opacity:0.18;" d="M 704 105.015625 C 417.226562 0.335938 71.382812 102.890625 64 105.015625 "/>
<path style=" stroke:none;fill-rule:nonzero;fill:rgb(78.7%,29%,100%);fill-opacity:0.15;" d="M 704 105.015625 C 417.226562 0.335938 71.382812 102.890625 64 105.015625 "/>
<path style=" stroke:none;fill-rule:nonzero;fill:rgb(80.533333%,27%,100%);fill-opacity:0.18;" d="M 704 105.015625 C 417.226562 0.335938 71.382812 102.890625 64 105.015625 "/>
<path style=" stroke:none;fill-rule:nonzero;fill:rgb(66.2%,22%,100%);fill-opacity:0.07;" d="M 704 105.015625 C 417.226562 0.335938 71.382812 102.890625 64 105.015625 "/>
<path style=" stroke:none;fill-rule:nonzero;fill:rgb(80.5%,10%,100%);fill-opacity:0.17;" d="M 704 105.015625 C 417.226562 0.335938 71.382812 102.890625 64 105.015625 "/>
<path style=" stroke:none;fill-rule:nonzero;fill:rgb(75.7%,19%,100%);fill-opacity:0.15;" d="M 704 105.015625 C 417.226562 0.335938 71.382812 102.890625 64 105.015625 "/>
<path style=" stroke:none;fill-rule:nonzero;fill:rgb(61.816667%,21%,100%);fill-opacity:0.08;" d="M 704 105.015625 C 417.226562 0.335938 71.382812 102.890625 64 105.015625 "/>
<path style=" stroke:none;fill-rule:nonzero;fill:rgb(60.85%,13%,100%);fill-opacity:0.02;" d="M 704 105.015625 C 417.226562 0.335938 71.382812 102.890625 64 105.015625 "/>
<path style=" stroke:none;fill-rule:nonzero;fill:rgb(68.5%,30%,100%);fill-opacity:0.03;" d="M 704 105.015625 C 417.226562 0.335938 71.382812 102.890625 64 105.015625 "/>
<path style=" stroke:none;fill-rule:nonzero;fill:rgb(67.733333%,12%,100%);fill-opacity:0.13;" d="M 704 105.015625 C 417.226562 0.335938 71.382812 102.890625 64 105.015625 "/>
<path style=" stroke:none;fill-rule:nonzero;fill:rgb(82.666667%,20%,100%);fill-opacity:0.05;" d="M 704 105.015625 C 417.226562 0.335938 71.382812 102.890625 64 105.015625 "/>
<path style=" stroke:none;fill-rule:nonzero;fill:rgb(83.2%,28%,100%);fill-opacity:0.03;" d="M 704 105.015625 C 417.226562 0.335938 71.382812 102.890625 64 105.015625 M 64 105.015625 C 64 105.011719 64 105.003906 64 105 "/>
<path style=" stroke:none;fill-rule:nonzero;fill:rgb(85.7%,22%,100%);fill-opacity:0.05;" d="M 64 105.015625 C 64 105.011719 64 105.003906 64 105 M 75 113 C 75 113 75.003906 112.988281 75 112.980469 "/>
<path style=" stroke:none;fill-rule:nonzero;fill:rgb(87.166667%,23%,100%);fill-opacity:0.03;" d="M 75 113 C 75 113 75.003906 112.988281 75 112.980469 M 75 112.980469 C 140.429688 128.300781 570.191406 164.207031 715 112.980469 "/>
<path style=" stroke:none;fill-rule:nonzero;fill:rgb(61.3%,14%,100%);fill-opacity:0.01;" d="M 75 112.980469 C 140.429688 128.300781 570.191406 164.207031 715 112.980469 "/>
<path style=" stroke:none;fill-rule:nonzero;fill:rgb(74.983333%,21%,100%);fill-opacity:0.16;" d="M 75 112.980469 C 140.429688 128.300781 570.191406 164.207031 715 112.980469 "/>
<path style=" stroke:none;fill-rule:nonzero;fill:rgb(69.333333%,20%,100%);fill-opacity:0.03;" d="M 75 112.980469 C 140.429688 128.300781 570.191406 164.207031 715 112.980469 "/>
<path style=" stroke:none;fill-rule:nonzero;fill:rgb(56%,12%,100%);fill-opacity:0.01;" d="M 75 112.980469 C 140.429688 128.300781 570.191406 164.207031 715 112.980469 "/>
<path style=" stroke:none;fill-rule:nonzero;fill:rgb(69.2%,23%,100%);fill-opacity:0.02;" d="M 75 112.980469 C 140.429688 128.300781 570.191406 164.207031 715 112.980469 "/>
<path style=" stroke:none;fill-rule:nonzero;fill:rgb(68.566667%,18%,100%);fill-opacity:0.15;" d="M 75 112.980469 C 140.429688 128.300781 570.191406 164.207031 715 112.980469 "/>
<path style=" stroke:none;fill-rule:nonzero;fill:rgb(65.416667%,17%,100%);fill-opacity:0.03;" d="M 75 112.980469 C 140.429688 128.300781 570.191406 164.207031 715 112.980469 "/>
<path style=" stroke:none;fill-rule:nonzero;fill:rgb(79.6%,28%,100%);fill-opacity:0.04;" d="M 75 112.980469 C 140.429688 128.300781 570.191406 164.207031 715 112.980469 "/>
<path style=" stroke:none;fill-rule:nonzero;fill:rgb(86.666667%,20%,100%);fill-opacity:0.04;" d="M 75 112.980469 C 140.429688 128.300781 570.191406 164.207031 715 112.980469 "/>
<path style=" stroke:none;fill-rule:nonzero;fill:rgb(79%,30%,100%);fill-opacity:0.1;" d="M 75 112.980469 C 140.429688 128.300781 570.191406 164.207031 715 112.980469 "/>
<path style=" stroke:none;fill-rule:nonzero;fill:rgb(63.75%,25%,100%);fill-opacity:0.07;" d="M 75 112.980469 C 140.429688 128.300781 570.191406 164.207031 715 112.980469 "/>
<path style=" stroke:none;fill-rule:nonzero;fill:rgb(66%,15%,100%);fill-opacity:0.11;" d="M 75 112.980469 C 140.429688 128.300781 570.191406 164.207031 715 112.980469 "/>
<path style=" stroke:none;fill-rule:nonzero;fill:rgb(84.8%,24%,100%);fill-opacity:0.15;" d="M 75 112.980469 C 140.429688 128.300781 570.191406 164.207031 715 112.980469 "/>
<path style=" stroke:none;fill-rule:nonzero;fill:rgb(73.716667%,17%,100%);fill-opacity:0.19;" d="M 75 112.980469 C 140.429688 128.300781 570.191406 164.207031 715 112.980469 "/>
<path style=" stroke:none;fill-rule:nonzero;fill:rgb(79%,30%,100%);fill-opacity:0.16;" d="M 75 112.980469 C 140.429688 128.300781 570.191406 164.207031 715 112.980469 "/>
<path style=" stroke:none;fill-rule:nonzero;fill:rgb(68.466667%,14%,100%);fill-opacity:0.13;" d="M 75 112.980469 C 140.429688 128.300781 570.191406 164.207031 715 112.980469 "/>
<path style=" stroke:none;fill-rule:nonzero;fill:rgb(73.6%,12%,100%);fill-opacity:0.06;" d="M 75 112.980469 C 140.429688 128.300781 570.191406 164.207031 715 112.980469 "/>
<path style=" stroke:none;fill-rule:nonzero;fill:rgb(77.333333%,20%,100%);fill-opacity:0.14;" d="M 75 112.980469 C 140.429688 128.300781 570.191406 164.207031 715 112.980469 M 715 112.980469 C 715 112.988281 714.996094 112.988281 715 113 "/>
<path style=" stroke:none;fill-rule:nonzero;fill:rgb(65.2%,13%,100%);fill-opacity:0.15;" d="M 715 113 C 715 113 715 113.015625 715 113.019531 M 715 113.019531 C 848.085938 131.773438 134.734375 91.886719 75 113.019531 "/>
<path style=" stroke:none;fill-rule:nonzero;fill:rgb(64.8%,12%,100%);fill-opacity:0.02;" d="M 715 113.019531 C 848.085938 131.773438 134.734375 91.886719 75 113.019531 "/>
<path style=" stroke:none;fill-rule:nonzero;fill:rgb(79.883333%,29%,100%);fill-opacity:0.14;" d="M 715 113.019531 C 848.085938 131.773438 134.734375 91.886719 75 113.019531 "/>
<path style=" stroke:none;fill-rule:nonzero;fill:rgb(81.5%,26%,100%);fill-opacity:0.17;" d="M 715 113.019531 C 848.085938 131.773438 134.734375 91.886719 75 113.019531 "/>
<path style=" stroke:none;fill-rule:nonzero;fill:rgb(87.166667%,30%,100%);fill-opacity:0.12;" d="M 715 113.019531 C 848.085938 131.773438 134.734375 91.886719 75 113.019531 "/>
<path style=" stroke:none;fill-rule:nonzero;fill:rgb(61.733333%,18%,100%);fill-opacity:0.12;" d="M 715 113.019531 C 848.085938 131.773438 134.734375 91.886719 75 113.019531 "/>
<path style=" stroke:none;fill-rule:nonzero;fill:rgb(86%,16%,100%);fill-opacity:0.18;" d="M 715 113.019531 C 848.085938 131.773438 134.734375 91.886719 75 113.019531 "/>
<path style=" stroke:none;fill-rule:nonzero;fill:rgb(72.4%,28%,100%);fill-opacity:0.04;" d="M 715 113.019531 C 848.085938 131.773438 134.734375 91.886719 75 113.019531 "/>
<path style=" stroke:none;fill-rule:nonzero;fill:rgb(84.4%,22%,100%);fill-opacity:0.01;" d="M 715 113.019531 C 848.085938 131.773438 134.734375 91.886719 75 113.019531 "/>
<path style=" stroke:none;fill-rule:nonzero;fill:rgb(85.5%,13%,100%);fill-opacity:0.11;" d="M 715 113.019531 C 848.085938 131.773438 134.734375 91.886719 75 113.019531 "/>
<path style=" stroke:none;fill-rule:nonzero;fill:rgb(83.8%,19%,100%);fill-opacity:0.17;" d="M 715 113.019531 C 848.085938 131.773438 134.734375 91.886719 75 113.019531 "/>
<path style=" stroke:none;fill-rule:nonzero;fill:rgb(82%,28%,100%);fill-opacity:0.04;" d="M 715 113.019531 C 848.085938 131.773438 134.734375 91.886719 75 113.019531 "/>
<path style=" stroke:none;fill-rule:nonzero;fill:rgb(85.8%,29%,100%);fill-opacity:0.13;" d="M 715 113.019531 C 848.085938 131.773438 134.734375 91.886719 75 113.019531 "/>
<path style=" stroke:none;fill-rule:nonzero;fill:rgb(59.4%,13%,100%);fill-opacity:0.17;" d="M 715 113.019531 C 848.085938 131.773438 134.734375 91.886719 75 113.019531 "/>
<path style=" stroke:none;fill-rule:nonzero;fill:rgb(84.966667%,18%,100%);fill-opacity:0.05;" d="M 715 113.019531 C 848.085938 131.773438 134.734375 91.886719 75 113.019531 "/>
<path style=" stroke:none;fill-rule:nonzero;fill:rgb(70.666667%,12%,100%);fill-opacity:0.02;" d="M 715 113.019531 C 848.085938 131.773438 134.734375 91.886719 75 113.019531 "/>
<path style=" stroke:none;fill-rule:nonzero;fill:rgb(67.333333%,30%,100%);fill-opacity:0.13;" d="M 715 113.019531 C 848.085938 131.773438 134.734375 91.886719 75 113.019531 "/>
<path style=" stroke:none;fill-rule:nonzero;fill:rgb(87.166667%,30%,100%);fill-opacity:0.1;" d="M 715 113.019531 C 848.085938 131.773438 134.734375 91.886719 75 113.019531 "/>
<path style=" stroke:none;fill-rule:nonzero;fill:rgb(65.35%,23%,100%);fill-opacity:0.2;" d="M 715 113.019531 C 848.085938 131.773438 134.734375 91.886719 75 113.019531 "/>
<path style=" stroke:none;fill-rule:nonzero;fill:rgb(75.35%,13%,100%);fill-opacity:0.11;" d="M 715 113.019531 C 848.085938 131.773438 134.734375 91.886719 75 113.019531 "/>
<path style=" stroke:none;fill-rule:nonzero;fill:rgb(63.5%,27%,100%);fill-opacity:0.08;" d="M 715 113.019531 C 848.085938 131.773438 134.734375 91.886719 75 113.019531 M 75 113.019531 C 75 113.023438 75 113 75 113 "/>
<path style=" stroke:none;fill-rule:nonzero;fill:rgb(68.95%,19%,100%);fill-opacity:0.1;" d="M 75 113.019531 C 75 113.023438 75 113 75 113 M 96 102 C 96 101.992188 96.003906 101.988281 96 101.976562 "/>
<path style=" stroke:none;fill-rule:nonzero;fill:rgb(77.5%,25%,100%);fill-opacity:0.02;" d="M 96 101.976562 C 146.5 120.414062 808.550781 83.453125 736 101.976562 "/>
<path style=" stroke:none;fill-rule:nonzero;fill:rgb(85%,25%,100%);fill-opacity:0.15;" d="M 96 101.976562 C 146.5 120.414062 808.550781 83.453125 736 101.976562 "/>
<path style=" stroke:none;fill-rule:nonzero;fill:rgb(84.783333%,17%,100%);fill-opacity:0.14;" d="M 96 101.976562 C 146.5 120.414062 808.550781 83.453125 736 101.976562 "/>
<path style=" stroke:none;fill-rule:nonzero;fill:rgb(59.5%,10%,100%);fill-opacity:0.16;" d="M 96 101.976562 C 146.5 120.414062 808.550781 83.453125 736 101.976562 "/>
<path style=" stroke:none;fill-rule:nonzero;fill:rgb(67.916667%,23%,100%);fill-opacity:0.1;" d="M 96 101.976562 C 146.5 120.414062 808.550781 83.453125 736 101.976562 "/>
<path style=" stroke:none;fill-rule:nonzero;fill:rgb(72%,16%,100%);fill-opacity:0.09;" d="M 96 101.976562 C 146.5 120.414062 808.550781 83.453125 736 101.976562 "/>
<path style=" stroke:none;fill-rule:nonzero;fill:rgb(84.416667%,15%,100%);fill-opacity:0.2;" d="M 96 101.976562 C 146.5 120.414062 808.550781 83.453125 736 101.976562 "/>
<path style=" stroke:none;fill-rule:nonzero;fill:rgb(69.333333%,20%,100%);fill-opacity:0.11;" d="M 96 101.976562 C 146.5 120.414062 808.550781 83.453125 736 101.976562 "/>
<path style=" stroke:none;fill-rule:nonzero;fill:rgb(70%,25%,100%);fill-opacity:0.2;" d="M 96 101.976562 C 146.5 120.414062 808.550781 83.453125 736 101.976562 "/>
<path style=" stroke:none;fill-rule:nonzero;fill:rgb(73.75%,25%,100%);fill-opacity:0.17;" d="M 96 101.976562 C 146.5 120.414062 808.550781 83.453125 736 101.976562 "/>
<path style=" stroke:none;fill-rule:nonzero;fill:rgb(76.883333%,27%,100%);fill-opacity:0.18;" d="M 96 101.976562 C 146.5 120.414062 808.550781 83.453125 736 101.976562 "/>
<path style=" stroke:none;fill-rule:nonzero;fill:rgb(70%,25%,100%);fill-opacity:0.06;" d="M 96 101.976562 C 146.5 120.414062 808.550781 83.453125 736 101.976562 "/>
<path style=" stroke:none;fill-rule:nonzero;fill:rgb(84.4%,28%,100%);fill-opacity:0.08;" d="M 96 101.976562 C 146.5 120.414062 808.550781 83.453125 736 101.976562 "/>
<path style=" stroke:none;fill-rule:nonzero;fill:rgb(67.733333%,12%,100%);fill-opacity:0.02;" d="M 96 101.976562 C 146.5 120.414062 808.550781 83.453125 736 101.976562 "/>
<path style=" stroke:none;fill-rule:nonzero;fill:rgb(84.183333%,27%,100%);fill-opacity:0.15;" d="M 96 101.976562 C 146.5 120.414062 808.550781 83.453125 736 101.976562 "/>
<path style=" stroke:none;fill-rule:nonzero;fill:rgb(80.4%,16%,100%);fill-opacity:0.13;" d="M 96 101.976562 C 146.5 120.414062 808.550781 83.453125 736 101.976562 "/>
<path style=" stroke:none;fill-rule:nonzero;fill:rgb(58.916667%,15%,100%);fill-opacity:0.03;" d="M 96 101.976562 C 146.5 120.414062 808.550781 83.453125 736 101.976562 "/>
<path style=" stroke:none;fill-rule:nonzero;fill:rgb(70.866667%,24%,100%);fill-opacity:0.13;" d="M 96 101.976562 C 146.5 120.414062 808.550781 83.453125 736 101.976562 "/>
<path style=" stroke:none;fill-rule:nonzero;fill:rgb(80.866667%,18%,100%);fill-opacity:0.06;" d="M 96 101.976562 C 146.5 120.414062 808.550781 83.453125 736 101.976562 "/>
<path style=" stroke:none;fill-rule:nonzero;fill:rgb(75.633333%,14%,100%);fill-opacity:0.06;" d="M 96 101.976562 C 146.5 120.414062 808.550781 83.453125 736 101.976562 M 736 101.976562 C 735.996094 101.988281 735.996094 101.992188 736 102 "/>
<path style=" stroke:none;fill-rule:nonzero;fill:rgb(58.433333%,14%,100%);fill-opacity:0.06;" d="M 736 101.976562 C 735.996094 101.988281 735.996094 101.992188 736 102 "/>
<path style=" stroke:none;fill-rule:nonzero;fill:rgb(65%,25%,100%);fill-opacity:0.1;" d="M 736 101.976562 C 735.996094 101.988281 735.996094 101.992188 736 102 "/>
<path style=" stroke:none;fill-rule:nonzero;fill:rgb(75.4%,18%,100%);fill-opacity:0.06;" d="M 736 101.976562 C 735.996094 101.988281 735.996094 101.992188 736 102 "/>
<path style=" stroke:none;fill-rule:nonzero;fill:rgb(66.866667%,29%,100%);fill-opacity:0.14;" d="M 736 101.976562 C 735.996094 101.988281 735.996094 101.992188 736 102 "/>
<path style=" stroke:none;fill-rule:nonzero;fill:rgb(85.2%,26%,100%);fill-opacity:0.19;" d="M 736 101.976562 C 735.996094 101.988281 735.996094 101.992188 736 102 "/>
<path style=" stroke:none;fill-rule:nonzero;fill:rgb(68.566667%,18%,100%);fill-opacity:0.01;" d="M 736 101.976562 C 735.996094 101.988281 735.996094 101.992188 736 102 "/>
<path style=" stroke:none;fill-rule:nonzero;fill:rgb(84.6%,23%,100%);fill-opacity:0.09;" d="M 736 101.976562 C 735.996094 101.988281 735.996094 101.992188 736 102 "/>
<path style=" stroke:none;fill-rule:nonzero;fill:rgb(88%,28%,100%);fill-opacity:0.07;" d="M 736 101.976562 C 735.996094 101.988281 735.996094 101.992188 736 102 "/>
<path style=" stroke:none;fill-rule:nonzero;fill:rgb(80.933333%,12%,100%);fill-opacity:0.2;" d="M 736 101.976562 C 735.996094 101.988281 735.996094 101.992188 736 102 "/>
<path style=" stroke:none;fill-rule:nonzero;fill:rgb(77.616667%,21%,100%);fill-opacity:0.09;" d="M 736 101.976562 C 735.996094 101.988281 735.996094 101.992188 736 102 "/>
<path style=" stroke:none;fill-rule:nonzero;fill:rgb(84.233333%,14%,100%);fill-opacity:0.15;" d="M 736 101.976562 C 735.996094 101.988281 735.996094 101.992188 736 102 "/>
<path style=" stroke:none;fill-rule:nonzero;fill:rgb(76.333333%,29%,100%);fill-opacity:0.13;" d="M 736 101.976562 C 735.996094 101.988281 735.996094 101.992188 736 102 "/>
<path style=" stroke:none;fill-rule:nonzero;fill:rgb(71.25%,25%,100%);fill-opacity:0.03;" d="M 736 101.976562 C 735.996094 101.988281 735.996094 101.992188 736 102 "/>
<path style=" stroke:none;fill-rule:nonzero;fill:rgb(71.6%,29%,100%);fill-opacity:0.11;" d="M 736 101.976562 C 735.996094 101.988281 735.996094 101.992188 736 102 "/>
<path style=" stroke:none;fill-rule:nonzero;fill:rgb(66%,15%,100%);fill-opacity:0.1;" d="M 736 101.976562 C 735.996094 101.988281 735.996094 101.992188 736 102 "/>
<path style=" stroke:none;fill-rule:nonzero;fill:rgb(69.716667%,21%,100%);fill-opacity:0.08;" d="M 736 101.976562 C 735.996094 101.988281 735.996094 101.992188 736 102 "/>
<path style=" stroke:none;fill-rule:nonzero;fill:rgb(65.683333%,29%,100%);fill-opacity:0.14;" d="M 736 101.976562 C 735.996094 101.988281 735.996094 101.992188 736 102 "/>
<path style=" stroke:none;fill-rule:nonzero;fill:rgb(70%,25%,100%);fill-opacity:0.08;" d="M 736 101.976562 C 735.996094 101.988281 735.996094 101.992188 736 102 "/>
<path style=" stroke:none;fill-rule:nonzero;fill:rgb(82.966667%,27%,100%);fill-opacity:0.16;" d="M 736 101.976562 C 735.996094 101.988281 735.996094 101.992188 736 102 M 736 102 C 736 102.003906 736 102.019531 736 102.023438 "/>
<path style=" stroke:none;fill-rule:nonzero;fill:rgb(69.2%,23%,100%);fill-opacity:0.05;" d="M 736 102 C 736 102.003906 736 102.019531 736 102.023438 M 736 102.023438 C 373.554688 -6.136719 -38.222656 184.3125 96 102.023438 "/>
<path style=" stroke:none;fill-rule:nonzero;fill:rgb(72.7%,22%,100%);fill-opacity:0.08;" d="M 736 102.023438 C 373.554688 -6.136719 -38.222656 184.3125 96 102.023438 "/>
<path style=" stroke:none;fill-rule:nonzero;fill:rgb(75.3%,22%,100%);fill-opacity:0.18;" d="M 736 102.023438 C 373.554688 -6.136719 -38.222656 184.3125 96 102.023438 "/>
<path style=" stroke:none;fill-rule:nonzero;fill:rgb(75.066667%,12%,100%);fill-opacity:0.11;" d="M 736 102.023438 C 373.554688 -6.136719 -38.222656 184.3125 96 102.023438 "/>
<path style=" stroke:none;fill-rule:nonzero;fill:rgb(58.433333%,14%,100%);fill-opacity:0.2;" d="M 736 102.023438 C 373.554688 -6.136719 -38.222656 184.3125 96 102.023438 "/>
<path style=" stroke:none;fill-rule:nonzero;fill:rgb(82%,10%,100%);fill-opacity:0.05;" d="M 736 102.023438 C 373.554688 -6.136719 -38.222656 184.3125 96 102.023438 "/>
<path style=" stroke:none;fill-rule:nonzero;fill:rgb(82.883333%,21%,100%);fill-opacity:0.03;" d="M 736 102.023438 C 373.554688 -6.136719 -38.222656 184.3125 96 102.023438 "/>
<path style=" stroke:none;fill-rule:nonzero;fill:rgb(79.5%,18%,100%);fill-opacity:0.06;" d="M 736 102.023438 C 373.554688 -6.136719 -38.222656 184.3125 96 102.023438 "/>
<path style=" stroke:none;fill-rule:nonzero;fill:rgb(67.916667%,23%,100%);fill-opacity:0.08;" d="M 736 102.023438 C 373.554688 -6.136719 -38.222656 184.3125 96 102.023438 "/>
<path style=" stroke:none;fill-rule:nonzero;fill:rgb(64.5%,29%,100%);fill-opacity:0.11;" d="M 736 102.023438 C 373.554688 -6.136719 -38.222656 184.3125 96 102.023438 "/>
<path style=" stroke:none;fill-rule:nonzero;fill:rgb(79.75%,19%,100%);fill-opacity:0.01;" d="M 736 102.023438 C 373.554688 -6.136719 -38.222656 184.3125 96 102.023438 "/>
<path style=" stroke:none;fill-rule:nonzero;fill:rgb(58.933333%,12%,100%);fill-opacity:0.18;" d="M 736 102.023438 C 373.554688 -6.136719 -38.222656 184.3125 96 102.023438 "/>
<path style=" stroke:none;fill-rule:nonzero;fill:rgb(66.25%,25%,100%);fill-opacity:0.06;" d="M 736 102.023438 C 373.554688 -6.136719 -38.222656 184.3125 96 102.023438 "/>
<path style=" stroke:none;fill-rule:nonzero;fill:rgb(74.35%,19%,100%);fill-opacity:0.01;" d="M 736 102.023438 C 373.554688 -6.136719 -38.222656 184.3125 96 102.023438 "/>
<path style=" stroke:none;fill-rule:nonzero;fill:rgb(80.166667%,30%,100%);fill-opacity:0.11;" d="M 736 102.023438 C 373.554688 -6.136719 -38.222656 184.3125 96 102.023438 "/>
<path style=" stroke:none;fill-rule:nonzero;fill:rgb(83.2%,16%,100%);fill-opacity:0.16;" d="M 736 102.023438 C 373.554688 -6.136719 -38.222656 184.3125 96 102.023438 "/>
<path style=" stroke:none;fill-rule:nonzero;fill:rgb(66.633333%,23%,100%);fill-opacity:0.13;" d="M 736 102.023438 C 373.554688 -6.136719 -38.222656 184.3125 96 102.023438 "/>
<path style=" stroke:none;fill-rule:nonzero;fill:rgb(82.966667%,27%,100%);fill-opacity:0.2;" d="M 736 102.023438 C 373.554688 -6.136719 -38.222656 184.3125 96 102.023438 "/>
<path style=" stroke:none;fill-rule:nonzero;fill:rgb(67.033333%,14%,100%);fill-opacity:0.16;" d="M 736 102.023438 C 373.554688 -6.136719 -38.222656 184.3125 96 102.023438 "/>
<path style=" stroke:none;fill-rule:nonzero;fill:rgb(64.583333%,15%,100%);fill-opacity:0.19;" d="M 736 102.023438 C 373.554688 -6.136719 -38.222656 184.3125 96 102.023438 "/>
<path style=" stroke:none;fill-rule:nonzero;fill:rgb(68.75%,25%,100%);fill-opacity:0.1;" d="M 736 102.023438 C 373.554688 -6.136719 -38.222656 184.3125 96 102.023438 M 96 102.023438 C 96 102.023438 96.003906 102.007812 96 102 "/>
<path style=" stroke:none;fill-rule:nonzero;fill:rgb(66.2%,22%,100%);fill-opacity:0.01;" d="M 96 102.023438 C 96 102.023438 96.003906 102.007812 96 102 M 65 104 C 65.003906 103.984375 64.996094 103.964844 65 103.972656 "/>
<path style=" stroke:none;fill-rule:nonzero;fill:rgb(84.4%,22%,100%);fill-opacity:0.09;" d="M 65 104 C 65.003906 103.984375 64.996094 103.964844 65 103.972656 M 65 103.972656 C 420.085938 209.933594 816.410156 56.867188 705 103.972656 "/>
<path style=" stroke:none;fill-rule:nonzero;fill:rgb(62.666667%,20%,100%);fill-opacity:0.18;" d="M 65 103.972656 C 420.085938 209.933594 816.410156 56.867188 705 103.972656 "/>
<path style=" stroke:none;fill-rule:nonzero;fill:rgb(71.25%,25%,100%);fill-opacity:0.09;" d="M 65 103.972656 C 420.085938 209.933594 816.410156 56.867188 705 103.972656 "/>
<path style=" stroke:none;fill-rule:nonzero;fill:rgb(87.166667%,23%,100%);fill-opacity:0.12;" d="M 65 103.972656 C 420.085938 209.933594 816.410156 56.867188 705 103.972656 "/>
<path style=" stroke:none;fill-rule:nonzero;fill:rgb(64.716667%,27%,100%);fill-opacity:0.12;" d="M 65 103.972656 C 420.085938 209.933594 816.410156 56.867188 705 103.972656 "/>
<path style=" stroke:none;fill-rule:nonzero;fill:rgb(68.05%,29%,100%);fill-opacity:0.07;" d="M 65 103.972656 C 420.085938 209.933594 816.410156 56.867188 705 103.972656 "/>
<path style=" stroke:none;fill-rule:nonzero;fill:rgb(77.833333%,30%,100%);fill-opacity:0.01;" d="M 65 103.972656 C 420.085938 209.933594 816.410156 56.867188 705 103.972656 "/>
<path style=" stroke:none;fill-rule:nonzero;fill:rgb(68%,20%,100%);fill-opacity:0.17;" d="M 65 103.972656 C 420.085938 209.933594 816.410156 56.867188 705 103.972656 "/>
<path style=" stroke:none;fill-rule:nonzero;fill:rgb(66.25%,25%,100%);fill-opacity:0.03;" d="M 65 103.972656 C 420.085938 209.933594 816.410156 56.867188 705 103.972656 "/>
<path style=" stroke:none;fill-rule:nonzero;fill:rgb(85.666667%,14%,100%);fill-opacity:0.18;" d="M 65 103.972656 C 420.085938 209.933594 816.410156 56.867188 705 103.972656 "/>
<path style=" stroke:none;fill-rule:nonzero;fill:rgb(80.533333%,27%,100%);fill-opacity:0.18;" d="M 65 103.972656 C 420.085938 209.933594 816.410156 56.867188 705 103.972656 "/>
<path style=" stroke:none;fill-rule:nonzero;fill:rgb(78.4%,19%,100%);fill-opacity:0.14;" d="M 65 103.972656 C 420.085938 209.933594 816.410156 56.867188 705 103.972656 "/>
<path style=" stroke:none;fill-rule:nonzero;fill:rgb(75.15%,29%,100%);fill-opacity:0.1;" d="M 65 103.972656 C 420.085938 209.933594 816.410156 56.867188 705 103.972656 "/>
<path style=" stroke:none;fill-rule:nonzero;fill:rgb(86%,16%,100%);fill-opacity:0.06;" d="M 65 103.972656 C 420.085938 209.933594 816.410156 56.867188 705 103.972656 "/>
<path style=" stroke:none;fill-rule:nonzero;fill:rgb(76.566667%,26%,100%);fill-opacity:0.07;" d="M 65 103.972656 C 420.085938 209.933594 816.410156 56.867188 705 103.972656 "/>
<path style=" stroke:none;fill-rule:nonzero;fill:rgb(65.2%,13%,100%);fill-opacity:0.14;" d="M 65 103.972656 C 420.085938 209.933594 816.410156 56.867188 705 103.972656 "/>
<path style=" stroke:none;fill-rule:nonzero;fill:rgb(87.333333%,24%,100%);fill-opacity:0.17;" d="M 65 103.972656 C 420.085938 209.933594 816.410156 56.867188 705 103.972656 "/>
<path style=" stroke:none;fill-rule:nonzero;fill:rgb(83.1%,22%,100%);fill-opacity:0.19;" d="M 65 103.972656 C 420.085938 209.933594 816.410156 56.867188 705 103.972656 "/>
<path style=" stroke:none;fill-rule:nonzero;fill:rgb(60.85%,19%,100%);fill-opacity:0.14;" d="M 65 103.972656 C 420.085938 209.933594 816.410156 56.867188 705 103.972656 "/>
<path style=" stroke:none;fill-rule:nonzero;fill:rgb(63.1%,18%,100%);fill-opacity:0.19;" d="M 65 103.972656 C 420.085938 209.933594 816.410156 56.867188 705 103.972656 "/>
<path style=" stroke:none;fill-rule:nonzero;fill:rgb(74.783333%,11%,100%);fill-opacity:0.09;" d="M 65 103.972656 C 420.085938 209.933594 816.410156 56.867188 705 103.972656 M 705 103.972656 C 704.996094 103.980469 705 103.996094 705 104 "/>
<path style=" stroke:none;fill-rule:nonzero;fill:rgb(65.2%,28%,100%);fill-opacity:0.14;" d="M 705 104 C 705 104.011719 705 104.023438 705 104.027344 M 705 104.027344 C 358.761719 33.84375 -100.160156 185.855469 65 104.027344 "/>
<path style=" stroke:none;fill-rule:nonzero;fill:rgb(74.666667%,20%,100%);fill-opacity:0.09;" d="M 705 104.027344 C 358.761719 33.84375 -100.160156 185.855469 65 104.027344 "/>
<path style=" stroke:none;fill-rule:nonzero;fill:rgb(72.5%,25%,100%);fill-opacity:0.01;" d="M 705 104.027344 C 358.761719 33.84375 -100.160156 185.855469 65 104.027344 "/>
<path style=" stroke:none;fill-rule:nonzero;fill:rgb(73.716667%,17%,100%);fill-opacity:0.09;" d="M 705 104.027344 C 358.761719 33.84375 -100.160156 185.855469 65 104.027344 "/>
<path style=" stroke:none;fill-rule:nonzero;fill:rgb(67.083333%,21%,100%);fill-opacity:0.1;" d="M 705 104.027344 C 358.761719 33.84375 -100.160156 185.855469 65 104.027344 "/>
<path style=" stroke:none;fill-rule:nonzero;fill:rgb(86.666667%,20%,100%);fill-opacity:0.1;" d="M 705 104.027344 C 358.761719 33.84375 -100.160156 185.855469 65 104.027344 "/>
<path style=" stroke:none;fill-rule:nonzero;fill:rgb(65%,25%,100%);fill-opacity:0.07;" d="M 705 104.027344 C 358.761719 33.84375 -100.160156 185.855469 65 104.027344 "/>
<path style=" stroke:none;fill-rule:nonzero;fill:rgb(64%,28%,100%);fill-opacity:0.09;" d="M 705 104.027344 C 358.761719 33.84375 -100.160156 185.855469 65 104.027344 "/>
<path style=" stroke:none;fill-rule:nonzero;fill:rgb(71.033333%,21%,100%);fill-opacity:0.2;" d="M 705 104.027344 C 358.761719 33.84375 -100.160156 185.855469 65 104.027344 "/>
<path style=" stroke:none;fill-rule:nonzero;fill:rgb(74.8%,28%,100%);fill-opacity:0.16;" d="M 705 104.027344 C 358.761719 33.84375 -100.160156 185.855469 65 104.027344 "/>
<path style=" stroke:none;fill-rule:nonzero;fill:rgb(68.1%,13%,100%);fill-opacity:0.17;" d="M 705 104.027344 C 358.761719 33.84375 -100.160156 185.855469 65 104.027344 "/>
<path style=" stroke:none;fill-rule:nonzero;fill:rgb(83%,15%,100%);fill-opacity:0.16;" d="M 705 104.027344 C 358.761719 33.84375 -100.160156 185.855469 65 104.027344 "/>
<path style=" stroke:none;fill-rule:nonzero;fill:rgb(85%,10%,100%);fill-opacity:0.04;" d="M 705 104.027344 C 358.761719 33.84375 -100.160156 185.855469 65 104.027344 "/>
<path style=" stroke:none;fill-rule:nonzero;fill:rgb(75.333333%,26%,100%);fill-opacity:0.08;" d="M 705 104.027344 C 358.761719 33.84375 -100.160156 185.855469 65 104.027344 "/>
<path style=" stroke:none;fill-rule:nonzero;fill:rgb(68%,20%,100%);fill-opacity:0.05;" d="M 705 104.027344 C 358.761719 33.84375 -100.160156 185.855469 65 104.027344 "/>
<path style=" stroke:none;fill-rule:nonzero;fill:rgb(73.4%,24%,100%);fill-opacity:0.1;" d="M 705 104.027344 C 358.761719 33.84375 -100.160156 185.855469 65 104.027344 "/>
<path style=" stroke:none;fill-rule:nonzero;fill:rgb(66.25%,25%,100%);fill-opacity:0.05;" d="M 705 104.027344 C 358.761719 33.84375 -100.160156 185.855469 65 104.027344 "/>
<path style=" stroke:none;fill-rule:nonzero;fill:rgb(84.416667%,15%,100%);fill-opacity:0.18;" d="M 705 104.027344 C 358.761719 33.84375 -100.160156 185.855469 65 104.027344 M 65 104.027344 C 65 104.027344 64.996094 103.992188 65 104 "/>
<path style=" stroke:none;fill-rule:nonzero;fill:rgb(66.166667%,30%,100%);fill-opacity:0.1;" d="M 65 104.027344 C 65 104.027344 64.996094 103.992188 65 104 M 93 140 C -77.703125 94.589844 913.449219 93.921875 733 140 "/>
<path style=" stroke:none;fill-rule:nonzero;fill:rgb(80.4%,16%,100%);fill-opacity:0.1;" d="M 93 140 C -77.703125 94.589844 913.449219 93.921875 733 140 "/>
<path style=" stroke:none;fill-rule:nonzero;fill:rgb(80.633333%,17%,100%);fill-opacity:0.17;" d="M 93 140 C -77.703125 94.589844 913.449219 93.921875 733 140 "/>
<path style=" stroke:none;fill-rule:nonzero;fill:rgb(74.666667%,20%,100%);fill-opacity:0.06;" d="M 93 140 C -77.703125 94.589844 913.449219 93.921875 733 140 "/>
<path style=" stroke:none;fill-rule:nonzero;fill:rgb(75.333333%,26%,100%);fill-opacity:0.19;" d="M 93 140 C -77.703125 94.589844 913.449219 93.921875 733 140 "/>
<path style=" stroke:none;fill-rule:nonzero;fill:rgb(71.633333%,26%,100%);fill-opacity:0.06;" d="M 93 140 C -77.703125 94.589844 913.449219 93.921875 733 140 "/>
<path style=" stroke:none;fill-rule:nonzero;fill:rgb(63.6%,22%,100%);fill-opacity:0.2;" d="M 93 140 C -77.703125 94.589844 913.449219 93.921875 733 140 "/>
<path style=" stroke:none;fill-rule:nonzero;fill:rgb(70.483333%,23%,100%);fill-opacity:0.08;" d="M 93 140 C -77.703125 94.589844 913.449219 93.921875 733 140 "/>
<path style=" stroke:none;fill-rule:nonzero;fill:rgb(80.866667%,18%,100%);fill-opacity:0.09;" d="M 93 140 C -77.703125 94.589844 913.449219 93.921875 733 140 "/>
<path style=" stroke:none;fill-rule:nonzero;fill:rgb(70.3%,19%,100%);fill-opacity:0.18;" d="M 93 140 C -77.703125 94.589844 913.449219 93.921875 733 140 "/>
<path style=" stroke:none;fill-rule:nonzero;fill:rgb(62.783333%,23%,100%);fill-opacity:0.13;" d="M 93 140 C -77.703125 94.589844 913.449219 93.921875 733 140 "/>
<path style=" stroke:none;fill-rule:nonzero;fill:rgb(84.6%,16%,100%);fill-opacity:0.04;" d="M 93 140 C -77.703125 94.589844 913.449219 93.921875 733 140 "/>
<path style=" stroke:none;fill-rule:nonzero;fill:rgb(73.333333%,20%,100%);fill-opacity:0.18;" d="M 93 140 C -77.703125 94.589844 913.449219 93.921875 733 140 "/>
<path style=" stroke:none;fill-rule:nonzero;fill:rgb(69.2%,23%,100%);fill-opacity:0.11;" d="M 93 140 C -77.703125 94.589844 913.449219 93.921875 733 140 "/>
<path style=" stroke:none;fill-rule:nonzero;fill:rgb(67%,10%,100%);fill-opacity:0.13;" d="M 93 140 C -77.703125 94.589844 913.449219 93.921875 733 140 "/>
<path style=" stroke:none;fill-rule:nonzero;fill:rgb(72.133333%,12%,100%);fill-opacity:0.11;" d="M 93 140 C -77.703125 94.589844 913.449219 93.921875 733 140 "/>
<path style=" stroke:none;fill-rule:nonzero;fill:rgb(79.733333%,24%,100%);fill-opacity:0.1;" d="M 93 140 C -77.703125 94.589844 913.449219 93.921875 733 140 "/>
<path style=" stroke:none;fill-rule:nonzero;fill:rgb(80.866667%,18%,100%);fill-opacity:0.16;" d="M 93 140 C -77.703125 94.589844 913.449219 93.921875 733 140 "/>
<path style=" stroke:none;fill-rule:nonzero;fill:rgb(78.4%,28%,100%);fill-opacity:0.18;" d="M 93 140 C -77.703125 94.589844 913.449219 93.921875 733 140 "/>
<path style=" stroke:none;fill-rule:nonzero;fill:rgb(61.266667%,17%,100%);fill-opacity:0.01;" d="M 93 140 C -77.703125 94.589844 913.449219 93.921875 733 140 "/>
<path style=" stroke:none;fill-rule:nonzero;fill:rgb(87.166667%,30%,100%);fill-opacity:0.07;" d="M 93 140 C -77.703125 94.589844 913.449219 93.921875 733 140 M 733 140 C 759.34375 145.339844 -55.824219 178 93 140 "/>
<path style=" stroke:none;fill-rule:nonzero;fill:rgb(75.7%,19%,100%);fill-opacity:0.02;" d="M 733 140 C 759.34375 145.339844 -55.824219 178 93 140 "/>
<path style=" stroke:none;fill-rule:nonzero;fill:rgb(72.666667%,18%,100%);fill-opacity:0.16;" d="M 733 140 C 759.34375 145.339844 -55.824219 178 93 140 "/>
<path style=" stroke:none;fill-rule:nonzero;fill:rgb(83.75%,25%,100%);fill-opacity:0.14;" d="M 733 140 C 759.34375 145.339844 -55.824219 178 93 140 "/>
<path style=" stroke:none;fill-rule:nonzero;fill:rgb(84.616667%,29%,100%);fill-opacity:0.02;" d="M 733 140 C 759.34375 145.339844 -55.824219 178 93 140 "/>
<path style=" stroke:none;fill-rule:nonzero;fill:rgb(73.05%,23%,100%);fill-opacity:0.07;" d="M 733 140 C 759.34375 145.339844 -55.824219 178 93 140 "/>
<path style=" stroke:none;fill-rule:nonzero;fill:rgb(69.6%,24%,100%);fill-opacity:0.11;" d="M 733 140 C 759.34375 145.339844 -55.824219 178 93 140 "/>
<path style=" stroke:none;fill-rule:nonzero;fill:rgb(67.2%,18%,100%);fill-opacity:0.02;" d="M 733 140 C 759.34375 145.339844 -55.824219 178 93 140 "/>
<path style=" stroke:none;fill-rule:nonzero;fill:rgb(64%,20%,100%);fill-opacity:0.04;" d="M 733 140 C 759.34375 145.339844 -55.824219 178 93 140 "/>
<path style=" stroke:none;fill-rule:nonzero;fill:rgb(73%,10%,100%);fill-opacity:0.16;" d="M 733 140 C 759.34375 145.339844 -55.824219 178 93 140 "/>
<path style=" stroke:none;fill-rule:nonzero;fill:rgb(79.6%,28%,100%);fill-opacity:0.09;" d="M 733 140 C 759.34375 145.339844 -55.824219 178 93 140 "/>
<path style=" stroke:none;fill-rule:nonzero;fill:rgb(69.9%,14%,100%);fill-opacity:0.04;" d="M 733 140 C 759.34375 145.339844 -55.824219 178 93 140 "/>
<path style=" stroke:none;fill-rule:nonzero;fill:rgb(85.2%,26%,100%);fill-opacity:0.1;" d="M 733 140 C 759.34375 145.339844 -55.824219 178 93 140 "/>
<path style=" stroke:none;fill-rule:nonzero;fill:rgb(87.166667%,30%,100%);fill-opacity:0.2;" d="M 733 140 C 759.34375 145.339844 -55.824219 178 93 140 "/>
<path style=" stroke:none;fill-rule:nonzero;fill:rgb(73.4%,24%,100%);fill-opacity:0.17;" d="M 733 140 C 759.34375 145.339844 -55.824219 178 93 140 "/>
<path style=" stroke:none;fill-rule:nonzero;fill:rgb(70.3%,19%,100%);fill-opacity:0.16;" d="M 733 140 C 759.34375 145.339844 -55.824219 178 93 140 "/>
<path style=" stroke:none;fill-rule:nonzero;fill:rgb(75.4%,18%,100%);fill-opacity:0.12;" d="M 733 140 C 759.34375 145.339844 -55.824219 178 93 140 "/>
<path style=" stroke:none;fill-rule:nonzero;fill:rgb(74.666667%,20%,100%);fill-opacity:0.13;" d="M 733 140 C 759.34375 145.339844 -55.824219 178 93 140 "/>
<path style=" stroke:none;fill-rule:nonzero;fill:rgb(58.433333%,14%,100%);fill-opacity:0.04;" d="M 733 140 C 759.34375 145.339844 -55.824219 178 93 140 "/>
<path style=" stroke:none;fill-rule:nonzero;fill:rgb(86%,16%,100%);fill-opacity:0.13;" d="M 733 140 C 759.34375 145.339844 -55.824219 178 93 140 M 72 108 C 72 108 72 107.996094 72 107.988281 "/>
<path style=" stroke:none;fill-rule:nonzero;fill:rgb(74.35%,19%,100%);fill-opacity:0.05;" d="M 72 108 C 72 108 72 107.996094 72 107.988281 M 72 107.988281 C 290.605469 118.925781 813.488281 78.804688 712 107.988281 "/>
<path style=" stroke:none;fill-rule:nonzero;fill:rgb(71%,13%,100%);fill-opacity:0.06;" d="M 72 107.988281 C 290.605469 118.925781 813.488281 78.804688 712 107.988281 "/>
<path style=" stroke:none;fill-rule:nonzero;fill:rgb(81.333333%,30%,100%);fill-opacity:0.13;" d="M 72 107.988281 C 290.605469 118.925781 813.488281 78.804688 712 107.988281 "/>
<path style=" stroke:none;fill-rule:nonzero;fill:rgb(81.333333%,20%,100%);fill-opacity:0.09;" d="M 72 107.988281 C 290.605469 118.925781 813.488281 78.804688 712 107.988281 "/>
<path style=" stroke:none;fill-rule:nonzero;fill:rgb(66.25%,19%,100%);fill-opacity:0.2;" d="M 72 107.988281 C 290.605469 118.925781 813.488281 78.804688 712 107.988281 "/>
<path style=" stroke:none;fill-rule:nonzero;fill:rgb(56%,12%,100%);fill-opacity:0.2;" d="M 72 107.988281 C 290.605469 118.925781 813.488281 78.804688 712 107.988281 "/>
<path style=" stroke:none;fill-rule:nonzero;fill:rgb(59.95%,11%,100%);fill-opacity:0.19;" d="M 72 107.988281 C 290.605469 118.925781 813.488281 78.804688 712 107.988281 "/>
<path style=" stroke:none;fill-rule:nonzero;fill:rgb(71.25%,25%,100%);fill-opacity:0.02;" d="M 72 107.988281 C 290.605469 118.925781 813.488281 78.804688 712 107.988281 "/>
<path style=" stroke:none;fill-rule:nonzero;fill:rgb(76.883333%,27%,100%);fill-opacity:0.01;" d="M 72 107.988281 C 290.605469 118.925781 813.488281 78.804688 712 107.988281 "/>
<path style=" stroke:none;fill-rule:nonzero;fill:rgb(69.2%,23%,100%);fill-opacity:0.17;" d="M 72 107.988281 C 290.605469 118.925781 813.488281 78.804688 712 107.988281 "/>
<path style=" stroke:none;fill-rule:nonzero;fill:rgb(65.933333%,27%,100%);fill-opacity:0.18;" d="M 72 107.988281 C 290.605469 118.925781 813.488281 78.804688 712 107.988281 "/>
<path style=" stroke:none;fill-rule:nonzero;fill:rgb(77.833333%,30%,100%);fill-opacity:0.04;" d="M 72 107.988281 C 290.605469 118.925781 813.488281 78.804688 712 107.988281 "/>
<path style=" stroke:none;fill-rule:nonzero;fill:rgb(74.666667%,20%,100%);fill-opacity:0.06;" d="M 72 107.988281 C 290.605469 118.925781 813.488281 78.804688 712 107.988281 "/>
<path style=" stroke:none;fill-rule:nonzero;fill:rgb(74.8%,16%,100%);fill-opacity:0.12;" d="M 72 107.988281 C 290.605469 118.925781 813.488281 78.804688 712 107.988281 "/>
<path style=" stroke:none;fill-rule:nonzero;fill:rgb(67.6%,19%,100%);fill-opacity:0.06;" d="M 72 107.988281 C 290.605469 118.925781 813.488281 78.804688 712 107.988281 "/>
<path style=" stroke:none;fill-rule:nonzero;fill:rgb(82.266667%,24%,100%);fill-opacity:0.07;" d="M 72 107.988281 C 290.605469 118.925781 813.488281 78.804688 712 107.988281 "/>
<path style=" stroke:none;fill-rule:nonzero;fill:rgb(80%,25%,100%);fill-opacity:0.19;" d="M 72 107.988281 C 290.605469 118.925781 813.488281 78.804688 712 107.988281 "/>
<path style=" stroke:none;fill-rule:nonzero;fill:rgb(83.966667%,26%,100%);fill-opacity:0.08;" d="M 72 107.988281 C 290.605469 118.925781 813.488281 78.804688 712 107.988281 "/>
<path style=" stroke:none;fill-rule:nonzero;fill:rgb(72.5%,25%,100%);fill-opacity:0.01;" d="M 72 107.988281 C 290.605469 118.925781 813.488281 78.804688 712 107.988281 "/>
<path style=" stroke:none;fill-rule:nonzero;fill:rgb(63.6%,22%,100%);fill-opacity:0.15;" d="M 72 107.988281 C 290.605469 118.925781 813.488281 78.804688 712 107.988281 "/>
<path style=" stroke:none;fill-rule:nonzero;fill:rgb(85.6%,28%,100%);fill-opacity:0.15;" d="M 72 107.988281 C 290.605469 118.925781 813.488281 78.804688 712 107.988281 M 712 107.988281 C 712 107.996094 711.996094 107.992188 712 108 "/>
<path style=" stroke:none;fill-rule:nonzero;fill:rgb(72.333333%,17%,100%);fill-opacity:0.16;" d="M 712 108 C 712 108.007812 711.996094 108.003906 712 108.011719 M 712 108.011719 C 573.488281 62.109375 6.890625 124.636719 72 108.011719 "/>
<path style=" stroke:none;fill-rule:nonzero;fill:rgb(74.45%,27%,100%);fill-opacity:0.15;" d="M 712 108.011719 C 573.488281 62.109375 6.890625 124.636719 72 108.011719 "/>
<path style=" stroke:none;fill-rule:nonzero;fill:rgb(66.166667%,30%,100%);fill-opacity:0.12;" d="M 712 108.011719 C 573.488281 62.109375 6.890625 124.636719 72 108.011719 "/>
<path style=" stroke:none;fill-rule:nonzero;fill:rgb(81.066667%,29%,100%);fill-opacity:0.14;" d="M 712 108.011719 C 573.488281 62.109375 6.890625 124.636719 72 108.011719 "/>
<path style=" stroke:none;fill-rule:nonzero;fill:rgb(85.2%,26%,100%);fill-opacity:0.12;" d="M 712 108.011719 C 573.488281 62.109375 6.890625 124.636719 72 108.011719 "/>
<path style=" stroke:none;fill-rule:nonzero;fill:rgb(64.45%,21%,100%);fill-opacity:0.17;" d="M 712 108.011719 C 573.488281 62.109375 6.890625 124.636719 72 108.011719 "/>
<path style=" stroke:none;fill-rule:nonzero;fill:rgb(71.633333%,26%,100%);fill-opacity:0.08;" d="M 712 108.011719 C 573.488281 62.109375 6.890625 124.636719 72 108.011719 "/>
<path style=" stroke:none;fill-rule:nonzero;fill:rgb(69.166667%,26%,100%);fill-opacity:0.11;" d="M 712 108.011719 C 573.488281 62.109375 6.890625 124.636719 72 108.011719 "/>
<path style=" stroke:none;fill-rule:nonzero;fill:rgb(85.6%,28%,100%);fill-opacity:0.12;" d="M 712 108.011719 C 573.488281 62.109375 6.890625 124.636719 72 108.011719 "/>
<path style=" stroke:none;fill-rule:nonzero;fill:rgb(85.5%,13%,100%);fill-opacity:0.16;" d="M 712 108.011719 C 573.488281 62.109375 6.890625 124.636719 72 108.011719 "/>
<path style=" stroke:none;fill-rule:nonzero;fill:rgb(67.2%,18%,100%);fill-opacity:0.11;" d="M 712 108.011719 C 573.488281 62.109375 6.890625 124.636719 72 108.011719 "/>
<path style=" stroke:none;fill-rule:nonzero;fill:rgb(72.133333%,24%,100%);fill-opacity:0.01;" d="M 712 108.011719 C 573.488281 62.109375 6.890625 124.636719 72 108.011719 "/>
<path style=" stroke:none;fill-rule:nonzero;fill:rgb(80.166667%,30%,100%);fill-opacity:0.18;" d="M 712 108.011719 C 573.488281 62.109375 6.890625 124.636719 72 108.011719 "/>
<path style=" stroke:none;fill-rule:nonzero;fill:rgb(79.25%,17%,100%);fill-opacity:0.15;" d="M 712 108.011719 C 573.488281 62.109375 6.890625 124.636719 72 108.011719 "/>
<path style=" stroke:none;fill-rule:nonzero;fill:rgb(70.333333%,11%,100%);fill-opacity:0.1;" d="M 712 108.011719 C 573.488281 62.109375 6.890625 124.636719 72 108.011719 "/>
<path style=" stroke:none;fill-rule:nonzero;fill:rgb(76.9%,23%,100%);fill-opacity:0.08;" d="M 712 108.011719 C 573.488281 62.109375 6.890625 124.636719 72 108.011719 "/>
<path style=" stroke:none;fill-rule:nonzero;fill:rgb(73.4%,24%,100%);fill-opacity:0.15;" d="M 712 108.011719 C 573.488281 62.109375 6.890625 124.636719 72 108.011719 "/>
<path style=" stroke:none;fill-rule:nonzero;fill:rgb(61.266667%,17%,100%);fill-opacity:0.08;" d="M 712 108.011719 C 573.488281 62.109375 6.890625 124.636719 72 108.011719 "/>
<path style=" stroke:none;fill-rule:nonzero;fill:rgb(56.5%,10%,100%);fill-opacity:0.05;" d="M 712 108.011719 C 573.488281 62.109375 6.890625 124.636719 72 108.011719 "/>
<path style=" stroke:none;fill-rule:nonzero;fill:rgb(70.25%,15%,100%);fill-opacity:0.02;" d="M 712 108.011719 C 573.488281 62.109375 6.890625 124.636719 72 108.011719 "/>
<path style=" stroke:none;fill-rule:nonzero;fill:rgb(79.316667%,27%,100%);fill-opacity:0.2;" d="M 712 108.011719 C 573.488281 62.109375 6.890625 124.636719 72 108.011719 M 72 108.011719 C 72 108.007812 72 107.996094 72 108 "/>
<path style=" stroke:none;fill-rule:nonzero;fill:rgb(80.716667%,11%,100%);fill-opacity:0.04;" d="M 72 108.011719 C 72 108.007812 72 107.996094 72 108 M 61 143 C 61.003906 142.988281 61.007812 142.988281 61 142.976562 "/>
<path style=" stroke:none;fill-rule:nonzero;fill:rgb(58.466667%,11%,100%);fill-opacity:0.06;" d="M 61 143 C 61.003906 142.988281 61.007812 142.988281 61 142.976562 "/>
<path style=" stroke:none;fill-rule:nonzero;fill:rgb(80.166667%,15%,100%);fill-opacity:0.1;" d="M 61 143 C 61.003906 142.988281 61.007812 142.988281 61 142.976562 "/>
<path style=" stroke:none;fill-rule:nonzero;fill:rgb(74.2%,14%,100%);fill-opacity:0.05;" d="M 61 143 C 61.003906 142.988281 61.007812 142.988281 61 142.976562 "/>
<path style=" stroke:none;fill-rule:nonzero;fill:rgb(71.6%,29%,100%);fill-opacity:0.2;" d="M 61 143 C 61.003906 142.988281 61.007812 142.988281 61 142.976562 "/>
<path style=" stroke:none;fill-rule:nonzero;fill:rgb(80%,20%,100%);fill-opacity:0.13;" d="M 61 143 C 61.003906 142.988281 61.007812 142.988281 61 142.976562 "/>
<path style=" stroke:none;fill-rule:nonzero;fill:rgb(68.333333%,24%,100%);fill-opacity:0.08;" d="M 61 143 C 61.003906 142.988281 61.007812 142.988281 61 142.976562 "/>
<path style=" stroke:none;fill-rule:nonzero;fill:rgb(85.833333%,15%,100%);fill-opacity:0.14;" d="M 61 143 C 61.003906 142.988281 61.007812 142.988281 61 142.976562 "/>
<path style=" stroke:none;fill-rule:nonzero;fill:rgb(70%,25%,100%);fill-opacity:0.14;" d="M 61 143 C 61.003906 142.988281 61.007812 142.988281 61 142.976562 "/>
<path style=" stroke:none;fill-rule:nonzero;fill:rgb(63.75%,25%,100%);fill-opacity:0.05;" d="M 61 143 C 61.003906 142.988281 61.007812 142.988281 61 142.976562 "/>
<path style=" stroke:none;fill-rule:nonzero;fill:rgb(80.5%,22%,100%);fill-opacity:0.1;" d="M 61 143 C 61.003906 142.988281 61.007812 142.988281 61 142.976562 "/>
<path style=" stroke:none;fill-rule:nonzero;fill:rgb(69.716667%,21%,100%);fill-opacity:0.01;" d="M 61 143 C 61.003906 142.988281 61.007812 142.988281 61 142.976562 "/>
<path style=" stroke:none;fill-rule:nonzero;fill:rgb(59.5%,10%,100%);fill-opacity:0.14;" d="M 61 143 C 61.003906 142.988281 61.007812 142.988281 61 142.976562 "/>
<path style=" stroke:none;fill-rule:nonzero;fill:rgb(86.666667%,20%,100%);fill-opacity:0.02;" d="M 61 143 C 61.003906 142.988281 61.007812 142.988281 61 142.976562 "/>
<path style=" stroke:none;fill-rule:nonzero;fill:rgb(67.15%,27%,100%);fill-opacity:0.18;" d="M 61 143 C 61.003906 142.988281 61.007812 142.988281 61 142.976562 "/>
<path style=" stroke:none;fill-rule:nonzero;fill:rgb(76.566667%,26%,100%);fill-opacity:0.04;" d="M 61 143 C 61.003906 142.988281 61.007812 142.988281 61 142.976562 "/>
<path style=" stroke:none;fill-rule:nonzero;fill:rgb(64.716667%,27%,100%);fill-opacity:0.01;" d="M 61 143 C 61.003906 142.988281 61.007812 142.988281 61 142.976562 "/>
<path style=" stroke:none;fill-rule:nonzero;fill:rgb(69.933333%,18%,100%);fill-opacity:0.07;" d="M 61 143 C 61.003906 142.988281 61.007812 142.988281 61 142.976562 "/>
<path style=" stroke:none;fill-rule:nonzero;fill:rgb(73.3%,11%,100%);fill-opacity:0.05;" d="M 61 143 C 61.003906 142.988281 61.007812 142.988281 61 142.976562 "/>
<path style=" stroke:none;fill-rule:nonzero;fill:rgb(61.333333%,20%,100%);fill-opacity:0.15;" d="M 61 143 C 61.003906 142.988281 61.007812 142.988281 61 142.976562 "/>
<path style=" stroke:none;fill-rule:nonzero;fill:rgb(76.2%,16%,100%);fill-opacity:0.19;" d="M 61 143 C 61.003906 142.988281 61.007812 142.988281 61 142.976562 M 61 142.976562 C 279.703125 215.453125 409.414062 309.925781 701 142.976562 "/>
<path style=" stroke:none;fill-rule:nonzero;fill:rgb(66.2%,22%,100%);fill-opacity:0.2;" d="M 61 142.976562 C 279.703125 215.453125 409.414062 309.925781 701 142.976562 "/>
<path style=" stroke:none;fill-rule:nonzero;fill:rgb(82%,28%,100%);fill-opacity:0.03;" d="M 61 142.976562 C 279.703125 215.453125 409.414062 309.925781 701 142.976562 "/>
<path style=" stroke:none;fill-rule:nonzero;fill:rgb(67.6%,28%,100%);fill-opacity:0.14;" d="M 61 142.976562 C 279.703125 215.453125 409.414062 309.925781 701 142.976562 "/>
<path style=" stroke:none;fill-rule:nonzero;fill:rgb(59.4%,16%,100%);fill-opacity:0.16;" d="M 61 142.976562 C 279.703125 215.453125 409.414062 309.925781 701 142.976562 "/>
<path style=" stroke:none;fill-rule:nonzero;fill:rgb(76.883333%,27%,100%);fill-opacity:0.19;" d="M 61 142.976562 C 279.703125 215.453125 409.414062 309.925781 701 142.976562 "/>
<path style=" stroke:none;fill-rule:nonzero;fill:rgb(63.6%,16%,100%);fill-opacity:0.1;" d="M 61 142.976562 C 279.703125 215.453125 409.414062 309.925781 701 142.976562 "/>
<path style=" stroke:none;fill-rule:nonzero;fill:rgb(80.5%,22%,100%);fill-opacity:0.08;" d="M 61 142.976562 C 279.703125 215.453125 409.414062 309.925781 701 142.976562 "/>
<path style=" stroke:none;fill-rule:nonzero;fill:rgb(78.133333%,18%,100%);fill-opacity:0.06;" d="M 61 142.976562 C 279.703125 215.453125 409.414062 309.925781 701 142.976562 "/>
<path style=" stroke:none;fill-rule:nonzero;fill:rgb(76%,28%,100%);fill-opacity:0.09;" d="M 61 142.976562 C 279.703125 215.453125 409.414062 309.925781 701 142.976562 "/>
<path style=" stroke:none;fill-rule:nonzero;fill:rgb(69.233333%,29%,100%);fill-opacity:0.06;" d="M 61 142.976562 C 279.703125 215.453125 409.414062 309.925781 701 142.976562 "/>
<path style=" stroke:none;fill-rule:nonzero;fill:rgb(63.75%,13%,100%);fill-opacity:0.1;" d="M 61 142.976562 C 279.703125 215.453125 409.414062 309.925781 701 142.976562 "/>
<path style=" stroke:none;fill-rule:nonzero;fill:rgb(69.6%,24%,100%);fill-opacity:0.12;" d="M 61 142.976562 C 279.703125 215.453125 409.414062 309.925781 701 142.976562 "/>
<path style=" stroke:none;fill-rule:nonzero;fill:rgb(66.866667%,29%,100%);fill-opacity:0.05;" d="M 61 142.976562 C 279.703125 215.453125 409.414062 309.925781 701 142.976562 "/>
<path style=" stroke:none;fill-rule:nonzero;fill:rgb(66.166667%,30%,100%);fill-opacity:0.15;" d="M 61 142.976562 C 279.703125 215.453125 409.414062 309.925781 701 142.976562 "/>
<path style=" stroke:none;fill-rule:nonzero;fill:rgb(70.25%,15%,100%);fill-opacity:0.05;" d="M 61 142.976562 C 279.703125 215.453125 409.414062 309.925781 701 142.976562 "/>
<path style=" stroke:none;fill-rule:nonzero;fill:rgb(76.483333%,17%,100%);fill-opacity:0.16;" d="M 61 142.976562 C 279.703125 215.453125 409.414062 309.925781 701 142.976562 "/>
<path style=" stroke:none;fill-rule:nonzero;fill:rgb(69.233333%,29%,100%);fill-opacity:0.18;" d="M 61 142.976562 C 279.703125 215.453125 409.414062 309.925781 701 142.976562 "/>
<path style=" stroke:none;fill-rule:nonzero;fill:rgb(80.166667%,15%,100%);fill-opacity:0.16;" d="M 61 142.976562 C 279.703125 215.453125 409.414062 309.925781 701 142.976562 "/>
<path style=" stroke:none;fill-rule:nonzero;fill:rgb(62.916667%,11%,100%);fill-opacity:0.18;" d="M 61 142.976562 C 279.703125 215.453125 409.414062 309.925781 701 142.976562 "/>
<path style=" stroke:none;fill-rule:nonzero;fill:rgb(77.066667%,14%,100%);fill-opacity:0.03;" d="M 61 142.976562 C 279.703125 215.453125 409.414062 309.925781 701 142.976562 M 701 142.976562 C 701 142.972656 701 143.003906 701 143 "/>
<path style=" stroke:none;fill-rule:nonzero;fill:rgb(80.933333%,12%,100%);fill-opacity:0.03;" d="M 701 143 C 701 143.003906 700.996094 143.015625 701 143.023438 M 701 143.023438 C 748.042969 152.558594 146.921875 109.699219 61 143.023438 "/>
<path style=" stroke:none;fill-rule:nonzero;fill:rgb(73%,10%,100%);fill-opacity:0.14;" d="M 701 143.023438 C 748.042969 152.558594 146.921875 109.699219 61 143.023438 "/>
<path style=" stroke:none;fill-rule:nonzero;fill:rgb(68.75%,25%,100%);fill-opacity:0.12;" d="M 701 143.023438 C 748.042969 152.558594 146.921875 109.699219 61 143.023438 "/>
<path style=" stroke:none;fill-rule:nonzero;fill:rgb(79.933333%,14%,100%);fill-opacity:0.04;" d="M 701 143.023438 C 748.042969 152.558594 146.921875 109.699219 61 143.023438 "/>
<path style=" stroke:none;fill-rule:nonzero;fill:rgb(85.516667%,21%,100%);fill-opacity:0.01;" d="M 701 143.023438 C 748.042969 152.558594 146.921875 109.699219 61 143.023438 "/>
<path style=" stroke:none;fill-rule:nonzero;fill:rgb(64.166667%,14%,100%);fill-opacity:0.14;" d="M 701 143.023438 C 748.042969 152.558594 146.921875 109.699219 61 143.023438 "/>
<path style=" stroke:none;fill-rule:nonzero;fill:rgb(78.25%,13%,100%);fill-opacity:0.08;" d="M 701 143.023438 C 748.042969 152.558594 146.921875 109.699219 61 143.023438 "/>
<path style=" stroke:none;fill-rule:nonzero;fill:rgb(67.5%,22%,100%);fill-opacity:0.11;" d="M 701 143.023438 C 748.042969 152.558594 146.921875 109.699219 61 143.023438 "/>
<path style=" stroke:none;fill-rule:nonzero;fill:rgb(84.8%,24%,100%);fill-opacity:0.08;" d="M 701 143.023438 C 748.042969 152.558594 146.921875 109.699219 61 143.023438 "/>
<path style=" stroke:none;fill-rule:nonzero;fill:rgb(64.716667%,27%,100%);fill-opacity:0.15;" d="M 701 143.023438 C 748.042969 152.558594 146.921875 109.699219 61 143.023438 "/>
<path style=" stroke:none;fill-rule:nonzero;fill:rgb(83.1%,22%,100%);fill-opacity:0.05;" d="M 701 143.023438 C 748.042969 152.558594 146.921875 109.699219 61 143.023438 "/>
<path style=" stroke:none;fill-rule:nonzero;fill:rgb(73.6%,12%,100%);fill-opacity:0.02;" d="M 701 143.023438 C 748.042969 152.558594 146.921875 109.699219 61 143.023438 "/>
<path style=" stroke:none;fill-rule:nonzero;fill:rgb(78.25%,13%,100%);fill-opacity:0.1;" d="M 701 143.023438 C 748.042969 152.558594 146.921875 109.699219 61 143.023438 "/>
<path style=" stroke:none;fill-rule:nonzero;fill:rgb(85.7%,22%,100%);fill-opacity:0.03;" d="M 701 143.023438 C 748.042969 152.558594 146.921875 109.699219 61 143.023438 "/>
<path style=" stroke:none;fill-rule:nonzero;fill:rgb(72.35%,21%,100%);fill-opacity:0.04;" d="M 701 143.023438 C 748.042969 152.558594 146.921875 109.699219 61 143.023438 "/>
<path style=" stroke:none;fill-rule:nonzero;fill:rgb(70.666667%,20%,100%);fill-opacity:0.08;" d="M 701 143.023438 C 748.042969 152.558594 146.921875 109.699219 61 143.023438 "/>
<path style=" stroke:none;fill-rule:nonzero;fill:rgb(73.666667%,21%,100%);fill-opacity:0.13;" d="M 701 143.023438 C 748.042969 152.558594 146.921875 109.699219 61 143.023438 "/>
<path style=" stroke:none;fill-rule:nonzero;fill:rgb(74.8%,16%,100%);fill-opacity:0.07;" d="M 701 143.023438 C 748.042969 152.558594 146.921875 109.699219 61 143.023438 "/>
<path style=" stroke:none;fill-rule:nonzero;fill:rgb(64.45%,21%,100%);fill-opacity:0.12;" d="M 701 143.023438 C 748.042969 152.558594 146.921875 109.699219 61 143.023438 "/>
<path style=" stroke:none;fill-rule:nonzero;fill:rgb(67.333333%,30%,100%);fill-opacity:0.17;" d="M 701 143.023438 C 748.042969 152.558594 146.921875 109.699219 61 143.023438 M 61 143.023438 C 61.003906 143.015625 61 143.003906 61 143 "/>
<path style=" stroke:none;fill-rule:nonzero;fill:rgb(64.8%,12%,100%);fill-opacity:0.06;" d="M 61 143.023438 C 61.003906 143.015625 61 143.003906 61 143 M 66 139 C 66 138.988281 65.996094 138.96875 66 138.976562 "/>
<path style=" stroke:none;fill-rule:nonzero;fill:rgb(79.033333%,26%,100%);fill-opacity:0.16;" d="M 66 139 C 66 138.988281 65.996094 138.96875 66 138.976562 M 66 138.976562 C 227.078125 147.035156 390.089844 332.664062 706 138.976562 "/>
<path style=" stroke:none;fill-rule:nonzero;fill:rgb(66.7%,26%,100%);fill-opacity:0.03;" d="M 66 138.976562 C 227.078125 147.035156 390.089844 332.664062 706 138.976562 "/>
<path style=" stroke:none;fill-rule:nonzero;fill:rgb(65.333333%,20%,100%);fill-opacity:0.08;" d="M 66 138.976562 C 227.078125 147.035156 390.089844 332.664062 706 138.976562 "/>
<path style=" stroke:none;fill-rule:nonzero;fill:rgb(81%,24%,100%);fill-opacity:0.11;" d="M 66 138.976562 C 227.078125 147.035156 390.089844 332.664062 706 138.976562 "/>
<path style=" stroke:none;fill-rule:nonzero;fill:rgb(60.8%,16%,100%);fill-opacity:0.1;" d="M 66 138.976562 C 227.078125 147.035156 390.089844 332.664062 706 138.976562 "/>
<path style=" stroke:none;fill-rule:nonzero;fill:rgb(74.45%,27%,100%);fill-opacity:0.1;" d="M 66 138.976562 C 227.078125 147.035156 390.089844 332.664062 706 138.976562 "/>
<path style=" stroke:none;fill-rule:nonzero;fill:rgb(83.4%,17%,100%);fill-opacity:0.16;" d="M 66 138.976562 C 227.078125 147.035156 390.089844 332.664062 706 138.976562 "/>
<path style=" stroke:none;fill-rule:nonzero;fill:rgb(79.466667%,12%,100%);fill-opacity:0.11;" d="M 66 138.976562 C 227.078125 147.035156 390.089844 332.664062 706 138.976562 "/>
<path style=" stroke:none;fill-rule:nonzero;fill:rgb(69.2%,12%,100%);fill-opacity:0.01;" d="M 66 138.976562 C 227.078125 147.035156 390.089844 332.664062 706 138.976562 "/>
<path style=" stroke:none;fill-rule:nonzero;fill:rgb(76.483333%,17%,100%);fill-opacity:0.11;" d="M 66 138.976562 C 227.078125 147.035156 390.089844 332.664062 706 138.976562 "/>
<path style=" stroke:none;fill-rule:nonzero;fill:rgb(83.433333%,29%,100%);fill-opacity:0.15;" d="M 66 138.976562 C 227.078125 147.035156 390.089844 332.664062 706 138.976562 "/>
<path style=" stroke:none;fill-rule:nonzero;fill:rgb(74.35%,19%,100%);fill-opacity:0.12;" d="M 66 138.976562 C 227.078125 147.035156 390.089844 332.664062 706 138.976562 "/>
<path style=" stroke:none;fill-rule:nonzero;fill:rgb(77.2%,24%,100%);fill-opacity:0.09;" d="M 66 138.976562 C 227.078125 147.035156 390.089844 332.664062 706 138.976562 "/>
<path style=" stroke:none;fill-rule:nonzero;fill:rgb(79.883333%,29%,100%);fill-opacity:0.13;" d="M 66 138.976562 C 227.078125 147.035156 390.089844 332.664062 706 138.976562 "/>
<path style=" stroke:none;fill-rule:nonzero;fill:rgb(64.716667%,27%,100%);fill-opacity:0.17;" d="M 66 138.976562 C 227.078125 147.035156 390.089844 332.664062 706 138.976562 "/>
<path style=" stroke:none;fill-rule:nonzero;fill:rgb(81.583333%,15%,100%);fill-opacity:0.08;" d="M 66 138.976562 C 227.078125 147.035156 390.089844 332.664062 706 138.976562 "/>
<path style=" stroke:none;fill-rule:nonzero;fill:rgb(63.333333%,12%,100%);fill-opacity:0.02;" d="M 66 138.976562 C 227.078125 147.035156 390.089844 332.664062 706 138.976562 "/>
<path style=" stroke:none;fill-rule:nonzero;fill:rgb(61.3%,14%,100%);fill-opacity:0.03;" d="M 66 138.976562 C 227.078125 147.035156 390.089844 332.664062 706 138.976562 "/>
<path style=" stroke:none;fill-rule:nonzero;fill:rgb(65.6%,14%,100%);fill-opacity:0.05;" d="M 66 138.976562 C 227.078125 147.035156 390.089844 332.664062 706 138.976562 "/>
<path style=" stroke:none;fill-rule:nonzero;fill:rgb(79%,16%,100%);fill-opacity:0.04;" d="M 66 138.976562 C 227.078125 147.035156 390.089844 332.664062 706 138.976562 "/>
<path style=" stroke:none;fill-rule:nonzero;fill:rgb(58%,10%,100%);fill-opacity:0.01;" d="M 66 138.976562 C 227.078125 147.035156 390.089844 332.664062 706 138.976562 M 706 138.976562 C 705.996094 138.988281 706 138.996094 706 139 "/>
<path style=" stroke:none;fill-rule:nonzero;fill:rgb(66.2%,22%,100%);fill-opacity:0.02;" d="M 706 138.976562 C 705.996094 138.988281 706 138.996094 706 139 M 706 139 C 706 139.003906 705.992188 139.011719 706 139.023438 "/>
<path style=" stroke:none;fill-rule:nonzero;fill:rgb(76.333333%,29%,100%);fill-opacity:0.11;" d="M 706 139 C 706 139.003906 705.992188 139.011719 706 139.023438 "/>
<path style=" stroke:none;fill-rule:nonzero;fill:rgb(68.1%,13%,100%);fill-opacity:0.12;" d="M 706 139 C 706 139.003906 705.992188 139.011719 706 139.023438 "/>
<path style=" stroke:none;fill-rule:nonzero;fill:rgb(77.616667%,21%,100%);fill-opacity:0.17;" d="M 706 139 C 706 139.003906 705.992188 139.011719 706 139.023438 "/>
<path style=" stroke:none;fill-rule:nonzero;fill:rgb(71.2%,28%,100%);fill-opacity:0.16;" d="M 706 139 C 706 139.003906 705.992188 139.011719 706 139.023438 "/>
<path style=" stroke:none;fill-rule:nonzero;fill:rgb(65.416667%,17%,100%);fill-opacity:0.08;" d="M 706 139 C 706 139.003906 705.992188 139.011719 706 139.023438 "/>
<path style=" stroke:none;fill-rule:nonzero;fill:rgb(57.95%,13%,100%);fill-opacity:0.05;" d="M 706 139 C 706 139.003906 705.992188 139.011719 706 139.023438 "/>
<path style=" stroke:none;fill-rule:nonzero;fill:rgb(65.833333%,18%,100%);fill-opacity:0.1;" d="M 706 139 C 706 139.003906 705.992188 139.011719 706 139.023438 "/>
<path style=" stroke:none;fill-rule:nonzero;fill:rgb(64.5%,29%,100%);fill-opacity:0.2;" d="M 706 139 C 706 139.003906 705.992188 139.011719 706 139.023438 "/>
<path style=" stroke:none;fill-rule:nonzero;fill:rgb(71.25%,25%,100%);fill-opacity:0.12;" d="M 706 139 C 706 139.003906 705.992188 139.011719 706 139.023438 "/>
<path style=" stroke:none;fill-rule:nonzero;fill:rgb(66.4%,28%,100%);fill-opacity:0.18;" d="M 706 139 C 706 139.003906 705.992188 139.011719 706 139.023438 "/>
<path style=" stroke:none;fill-rule:nonzero;fill:rgb(62.5%,10%,100%);fill-opacity:0.18;" d="M 706 139 C 706 139.003906 705.992188 139.011719 706 139.023438 "/>
<path style=" stroke:none;fill-rule:nonzero;fill:rgb(80%,20%,100%);fill-opacity:0.17;" d="M 706 139 C 706 139.003906 705.992188 139.011719 706 139.023438 "/>
<path style=" stroke:none;fill-rule:nonzero;fill:rgb(62.65%,17%,100%);fill-opacity:0.16;" d="M 706 139 C 706 139.003906 705.992188 139.011719 706 139.023438 "/>
<path style=" stroke:none;fill-rule:nonzero;fill:rgb(85.4%,27%,100%);fill-opacity:0.06;" d="M 706 139 C 706 139.003906 705.992188 139.011719 706 139.023438 "/>
<path style=" stroke:none;fill-rule:nonzero;fill:rgb(67.733333%,12%,100%);fill-opacity:0.12;" d="M 706 139 C 706 139.003906 705.992188 139.011719 706 139.023438 "/>
<path style=" stroke:none;fill-rule:nonzero;fill:rgb(73%,10%,100%);fill-opacity:0.16;" d="M 706 139 C 706 139.003906 705.992188 139.011719 706 139.023438 "/>
<path style=" stroke:none;fill-rule:nonzero;fill:rgb(83.1%,22%,100%);fill-opacity:0.19;" d="M 706 139 C 706 139.003906 705.992188 139.011719 706 139.023438 "/>
<path style=" stroke:none;fill-rule:nonzero;fill:rgb(62.3%,13%,100%);fill-opacity:0.16;" d="M 706 139 C 706 139.003906 705.992188 139.011719 706 139.023438 "/>
<path style=" stroke:none;fill-rule:nonzero;fill:rgb(78.7%,29%,100%);fill-opacity:0.15;" d="M 706 139 C 706 139.003906 705.992188 139.011719 706 139.023438 M 706 139.023438 C 458.105469 96.472656 122.773438 110.894531 66 139.023438 "/>
<path style=" stroke:none;fill-rule:nonzero;fill:rgb(85%,10%,100%);fill-opacity:0.03;" d="M 706 139.023438 C 458.105469 96.472656 122.773438 110.894531 66 139.023438 "/>
<path style=" stroke:none;fill-rule:nonzero;fill:rgb(77.5%,25%,100%);fill-opacity:0.14;" d="M 706 139.023438 C 458.105469 96.472656 122.773438 110.894531 66 139.023438 "/>
<path style=" stroke:none;fill-rule:nonzero;fill:rgb(84%,20%,100%);fill-opacity:0.01;" d="M 706 139.023438 C 458.105469 96.472656 122.773438 110.894531 66 139.023438 "/>
<path style=" stroke:none;fill-rule:nonzero;fill:rgb(84.966667%,18%,100%);fill-opacity:0.01;" d="M 706 139.023438 C 458.105469 96.472656 122.773438 110.894531 66 139.023438 "/>
<path style=" stroke:none;fill-rule:nonzero;fill:rgb(76.25%,25%,100%);fill-opacity:0.13;" d="M 706 139.023438 C 458.105469 96.472656 122.773438 110.894531 66 139.023438 "/>
<path style=" stroke:none;fill-rule:nonzero;fill:rgb(71.633333%,26%,100%);fill-opacity:0.02;" d="M 706 139.023438 C 458.105469 96.472656 122.773438 110.894531 66 139.023438 "/>
<path style=" stroke:none;fill-rule:nonzero;fill:rgb(62.666667%,20%,100%);fill-opacity:0.14;" d="M 706 139.023438 C 458.105469 96.472656 122.773438 110.894531 66 139.023438 "/>
<path style=" stroke:none;fill-rule:nonzero;fill:rgb(64.033333%,17%,100%);fill-opacity:0.06;" d="M 706 139.023438 C 458.105469 96.472656 122.773438 110.894531 66 139.023438 "/>
<path style=" stroke:none;fill-rule:nonzero;fill:rgb(69.2%,12%,100%);fill-opacity:0.2;" d="M 706 139.023438 C 458.105469 96.472656 122.773438 110.894531 66 139.023438 "/>
<path style=" stroke:none;fill-rule:nonzero;fill:rgb(69.933333%,18%,100%);fill-opacity:0.16;" d="M 706 139.023438 C 458.105469 96.472656 122.773438 110.894531 66 139.023438 "/>
<path style=" stroke:none;fill-rule:nonzero;fill:rgb(67.933333%,26%,100%);fill-opacity:0.01;" d="M 706 139.023438 C 458.105469 96.472656 122.773438 110.894531 66 139.023438 "/>
<path style=" stroke:none;fill-rule:nonzero;fill:rgb(71.5%,10%,100%);fill-opacity:0.04;" d="M 706 139.023438 C 458.105469 96.472656 122.773438 110.894531 66 139.023438 "/>
<path style=" stroke:none;fill-rule:nonzero;fill:rgb(68.366667%,27%,100%);fill-opacity:0.2;" d="M 706 139.023438 C 458.105469 96.472656 122.773438 110.894531 66 139.023438 "/>
<path style=" stroke:none;fill-rule:nonzero;fill:rgb(60.333333%,15%,100%);fill-opacity:0.01;" d="M 706 139.023438 C 458.105469 96.472656 122.773438 110.894531 66 139.023438 "/>
<path style=" stroke:none;fill-rule:nonzero;fill:rgb(76%,10%,100%);fill-opacity:0.07;" d="M 706 139.023438 C 458.105469 96.472656 122.773438 110.894531 66 139.023438 "/>
<path style=" stroke:none;fill-rule:nonzero;fill:rgb(70.6%,16%,100%);fill-opacity:0.19;" d="M 706 139.023438 C 458.105469 96.472656 122.773438 110.894531 66 139.023438 "/>
<path style=" stroke:none;fill-rule:nonzero;fill:rgb(70.666667%,12%,100%);fill-opacity:0.11;" d="M 706 139.023438 C 458.105469 96.472656 122.773438 110.894531 66 139.023438 "/>
<path style=" stroke:none;fill-rule:nonzero;fill:rgb(60.333333%,15%,100%);fill-opacity:0.1;" d="M 706 139.023438 C 458.105469 96.472656 122.773438 110.894531 66 139.023438 "/>
<path style=" stroke:none;fill-rule:nonzero;fill:rgb(64.716667%,27%,100%);fill-opacity:0.15;" d="M 706 139.023438 C 458.105469 96.472656 122.773438 110.894531 66 139.023438 "/>
<path style=" stroke:none;fill-rule:nonzero;fill:rgb(64.583333%,15%,100%);fill-opacity:0.13;" d="M 706 139.023438 C 458.105469 96.472656 122.773438 110.894531 66 139.023438 M 66 139.023438 C 66 139.027344 66.003906 139.007812 66 139 "/>
</g>
</svg>
