<?xml version="1.0" encoding="UTF-8"?>
<svg xmlns="http://www.w3.org/2000/svg" xmlns:xlink="http://www.w3.org/1999/xlink" width="800pt" height="250pt" viewBox="0 0 800 250" version="1.1">
<g id="surface80">
<rect x="0" y="0" width="800" height="250" style="fill:rgb(100%,100%,100%);fill-opacity:1;stroke:none;"/>
<path style=" stroke:none;fill-rule:nonzero;fill:rgb(68.333333%,24%,100%);fill-opacity:0.13;" d="M 88 124 C -75.28125 80.5625 524.992188 224.582031 728 124 "/>
<path style=" stroke:none;fill-rule:nonzero;fill:rgb(72%,30%,100%);fill-opacity:0.19;" d="M 88 124 C -75.28125 80.5625 524.992188 224.582031 728 124 "/>
<path style=" stroke:none;fill-rule:nonzero;fill:rgb(85.333333%,12%,100%);fill-opacity:0.13;" d="M 88 124 C -75.28125 80.5625 524.992188 224.582031 728 124 "/>
<path style=" stroke:none;fill-rule:nonzero;fill:rgb(58.466667%,11%,100%);fill-opacity:0.16;" d="M 88 124 C -75.28125 80.5625 524.992188 224.582031 728 124 "/>
<path style=" stroke:none;fill-rule:nonzero;fill:rgb(76.566667%,26%,100%);fill-opacity:0.04;" d="M 88 124 C -75.28125 80.5625 524.992188 224.582031 728 124 "/>
<path style=" stroke:none;fill-rule:nonzero;fill:rgb(68.5%,10%,100%);fill-opacity:0.04;" d="M 88 124 C -75.28125 80.5625 524.992188 224.582031 728 124 "/>
<path style=" stroke:none;fill-rule:nonzero;fill:rgb(73.4%,24%,100%);fill-opacity:0.1;" d="M 88 124 C -75.28125 80.5625 524.992188 224.582031 728 124 "/>
<path style=" stroke:none;fill-rule:nonzero;fill:rgb(76.2%,16%,100%);fill-opacity:0.04;" d="M 88 124 C -75.28125 80.5625 524.992188 224.582031 728 124 "/>
<path style=" stroke:none;fill-rule:nonzero;fill:rgb(59.5%,10%,100%);fill-opacity:0.15;" d="M 88 124 C -75.28125 80.5625 524.992188 224.582031 728 124 "/>
<path style=" stroke:none;fill-rule:nonzero;fill:rgb(78.666667%,20%,100%);fill-opacity:0.18;" d="M 88 124 C -75.28125 80.5625 524.992188 224.582031 728 124 "/>
<path style=" stroke:none;fill-rule:nonzero;fill:rgb(85.166667%,11%,100%);fill-opacity:0.15;" d="M 88 124 C -75.28125 80.5625 524.992188 224.582031 728 124 "/>
<path style=" stroke:none;fill-rule:nonzero;fill:rgb(78.4%,28%,100%);fill-opacity:0.13;" d="M 88 124 C -75.28125 80.5625 524.992188 224.582031 728 124 "/>
<path style=" stroke:none;fill-rule:nonzero;fill:rgb(86.333333%,18%,100%);fill-opacity:0.02;" d="M 88 124 C -75.28125 80.5625 524.992188 224.582031 728 124 "/>
<path style=" stroke:none;fill-rule:nonzero;fill:rgb(78.1%,27%,100%);fill-opacity:0.1;" d="M 88 124 C -75.28125 80.5625 524.992188 224.582031 728 124 "/>
<path style=" stroke:none;fill-rule:nonzero;fill:rgb(70.1%,22%,100%);fill-opacity:0.03;" d="M 88 124 C -75.28125 80.5625 524.992188 224.582031 728 124 "/>
<path style=" stroke:none;fill-rule:nonzero;fill:rgb(80.716667%,11%,100%);fill-opacity:0.18;" d="M 88 124 C -75.28125 80.5625 524.992188 224.582031 728 124 "/>
<path style=" stroke:none;fill-rule:nonzero;fill:rgb(86%,30%,100%);fill-opacity:0.08;" d="M 88 124 C -75.28125 80.5625 524.992188 224.582031 728 124 "/>
<path style=" stroke:none;fill-rule:nonzero;fill:rgb(77.8%,26%,100%);fill-opacity:0.07;" d="M 88 124 C -75.28125 80.5625 524.992188 224.582031 728 124 "/>
<path style=" stroke:none;fill-rule:nonzero;fill:rgb(80.166667%,15%,100%);fill-opacity:0.01;" d="M 88 124 C -75.28125 80.5625 524.992188 224.582031 728 124 "/>
<path style=" stroke:none;fill-rule:nonzero;fill:rgb(84.6%,23%,100%);fill-opacity:0.16;" d="M 88 124 C -75.28125 80.5625 524.992188 224.582031 728 124 "/>
<path style=" stroke:none;fill-rule:nonzero;fill:rgb(63.6%,16%,100%);fill-opacity:0.02;" d="M 88 124 C -75.28125 80.5625 524.992188 224.582031 728 124 M 728 124 C 832.566406 138.734375 364.101562 35.558594 88 124 "/>
<path style=" stroke:none;fill-rule:nonzero;fill:rgb(66.4%,28%,100%);fill-opacity:0.04;" d="M 728 124 C 832.566406 138.734375 364.101562 35.558594 88 124 "/>
<path style=" stroke:none;fill-rule:nonzero;fill:rgb(70.833333%,30%,100%);fill-opacity:0.05;" d="M 728 124 C 832.566406 138.734375 364.101562 35.558594 88 124 "/>
<path style=" stroke:none;fill-rule:nonzero;fill:rgb(74.033333%,18%,100%);fill-opacity:0.04;" d="M 728 124 C 832.566406 138.734375 364.101562 35.558594 88 124 "/>
<path style=" stroke:none;fill-rule:nonzero;fill:rgb(61.333333%,20%,100%);fill-opacity:0.01;" d="M 728 124 C 832.566406 138.734375 364.101562 35.558594 88 124 "/>
<path style=" stroke:none;fill-rule:nonzero;fill:rgb(82.666667%,20%,100%);fill-opacity:0.17;" d="M 728 124 C 832.566406 138.734375 364.101562 35.558594 88 124 "/>
<path style=" stroke:none;fill-rule:nonzero;fill:rgb(73.716667%,17%,100%);fill-opacity:0.11;" d="M 728 124 C 832.566406 138.734375 364.101562 35.558594 88 124 "/>
<path style=" stroke:none;fill-rule:nonzero;fill:rgb(80.716667%,11%,100%);fill-opacity:0.03;" d="M 728 124 C 832.566406 138.734375 364.101562 35.558594 88 124 "/>
<path style=" stroke:none;fill-rule:nonzero;fill:rgb(69.6%,24%,100%);fill-opacity:0.2;" d="M 728 124 C 832.566406 138.734375 364.101562 35.558594 88 124 "/>
<path style=" stroke:none;fill-rule:nonzero;fill:rgb(74%,22%,100%);fill-opacity:0.12;" d="M 728 124 C 832.566406 138.734375 364.101562 35.558594 88 124 "/>
<path style=" stroke:none;fill-rule:nonzero;fill:rgb(61.866667%,12%,100%);fill-opacity:0.08;" d="M 728 124 C 832.566406 138.734375 364.101562 35.558594 88 124 "/>
<path style=" stroke:none;fill-rule:nonzero;fill:rgb(80.75%,23%,100%);fill-opacity:0.16;" d="M 728 124 C 832.566406 138.734375 364.101562 35.558594 88 124 "/>
<path style=" stroke:none;fill-rule:nonzero;fill:rgb(74.2%,14%,100%);fill-opacity:0.03;" d="M 728 124 C 832.566406 138.734375 364.101562 35.558594 88 124 "/>
<path style=" stroke:none;fill-rule:nonzero;fill:rgb(72.016667%,27%,100%);fill-opacity:0.15;" d="M 728 124 C 832.566406 138.734375 364.101562 35.558594 88 124 "/>
<path style=" stroke:none;fill-rule:nonzero;fill:rgb(67.15%,27%,100%);fill-opacity:0.16;" d="M 728 124 C 832.566406 138.734375 364.101562 35.558594 88 124 "/>
<path style=" stroke:none;fill-rule:nonzero;fill:rgb(67.083333%,21%,100%);fill-opacity:0.1;" d="M 728 124 C 832.566406 138.734375 364.101562 35.558594 88 124 "/>
<path style=" stroke:none;fill-rule:nonzero;fill:rgb(84.6%,23%,100%);fill-opacity:0.12;" d="M 728 124 C 832.566406 138.734375 364.101562 35.558594 88 124 "/>
<path style=" stroke:none;fill-rule:nonzero;fill:rgb(57.95%,13%,100%);fill-opacity:0.14;" d="M 728 124 C 832.566406 138.734375 364.101562 35.558594 88 124 "/>
<path style=" stroke:none;fill-rule:nonzero;fill:rgb(80.633333%,17%,100%);fill-opacity:0.1;" d="M 728 124 C 832.566406 138.734375 364.101562 35.558594 88 124 M 91 106 C 91 106 91.007812 105.984375 91 105.96875 "/>
<path style=" stroke:none;fill-rule:nonzero;fill:rgb(80.4%,16%,100%);fill-opacity:0.04;" d="M 91 106 C 91 106 91.007812 105.984375 91 105.96875 "/>
<path style=" stroke:none;fill-rule:nonzero;fill:rgb(75.066667%,12%,100%);fill-opacity:0.03;" d="M 91 106 C 91 106 91.007812 105.984375 91 105.96875 "/>
<path style=" stroke:none;fill-rule:nonzero;fill:rgb(73.3%,11%,100%);fill-opacity:0.07;" d="M 91 106 C 91 106 91.007812 105.984375 91 105.96875 "/>
<path style=" stroke:none;fill-rule:nonzero;fill:rgb(81.366667%,14%,100%);fill-opacity:0.06;" d="M 91 106 C 91 106 91.007812 105.984375 91 105.96875 "/>
<path style=" stroke:none;fill-rule:nonzero;fill:rgb(69.2%,16%,100%);fill-opacity:0.07;" d="M 91 106 C 91 106 91.007812 105.984375 91 105.96875 "/>
<path style=" stroke:none;fill-rule:nonzero;fill:rgb(72.35%,21%,100%);fill-opacity:0.01;" d="M 91 106 C 91 106 91.007812 105.984375 91 105.96875 "/>
<path style=" stroke:none;fill-rule:nonzero;fill:rgb(64.5%,29%,100%);fill-opacity:0.2;" d="M 91 106 C 91 106 91.007812 105.984375 91 105.96875 "/>
<path style=" stroke:none;fill-rule:nonzero;fill:rgb(72.766667%,14%,100%);fill-opacity:0.06;" d="M 91 106 C 91 106 91.007812 105.984375 91 105.96875 "/>
<path style=" stroke:none;fill-rule:nonzero;fill:rgb(74.783333%,11%,100%);fill-opacity:0.06;" d="M 91 106 C 91 106 91.007812 105.984375 91 105.96875 "/>
<path style=" stroke:none;fill-rule:nonzero;fill:rgb(81.1%,19%,100%);fill-opacity:0.08;" d="M 91 106 C 91 106 91.007812 105.984375 91 105.96875 "/>
<path style=" stroke:none;fill-rule:nonzero;fill:rgb(78.666667%,20%,100%);fill-opacity:0.05;" d="M 91 106 C 91 106 91.007812 105.984375 91 105.96875 "/>
<path style=" stroke:none;fill-rule:nonzero;fill:rgb(65.833333%,18%,100%);fill-opacity:0.17;" d="M 91 106 C 91 106 91.007812 105.984375 91 105.96875 "/>
<path style=" stroke:none;fill-rule:nonzero;fill:rgb(63.1%,18%,100%);fill-opacity:0.07;" d="M 91 106 C 91 106 91.007812 105.984375 91 105.96875 "/>
<path style=" stroke:none;fill-rule:nonzero;fill:rgb(70%,28%,100%);fill-opacity:0.15;" d="M 91 106 C 91 106 91.007812 105.984375 91 105.96875 "/>
<path style=" stroke:none;fill-rule:nonzero;fill:rgb(70.833333%,30%,100%);fill-opacity:0.1;" d="M 91 106 C 91 106 91.007812 105.984375 91 105.96875 "/>
<path style=" stroke:none;fill-rule:nonzero;fill:rgb(71.3%,18%,100%);fill-opacity:0.06;" d="M 91 106 C 91 106 91.007812 105.984375 91 105.96875 "/>
<path style=" stroke:none;fill-rule:nonzero;fill:rgb(84.4%,28%,100%);fill-opacity:0.09;" d="M 91 106 C 91 106 91.007812 105.984375 91 105.96875 "/>
<path style=" stroke:none;fill-rule:nonzero;fill:rgb(73.966667%,29%,100%);fill-opacity:0.18;" d="M 91 106 C 91 106 91.007812 105.984375 91 105.96875 M 91 105.96875 C 239.4375 145.457031 577.707031 193.738281 731 105.96875 "/>
<path style=" stroke:none;fill-rule:nonzero;fill:rgb(61.75%,15%,100%);fill-opacity:0.03;" d="M 91 105.96875 C 239.4375 145.457031 577.707031 193.738281 731 105.96875 "/>
<path style=" stroke:none;fill-rule:nonzero;fill:rgb(79%,10%,100%);fill-opacity:0.06;" d="M 91 105.96875 C 239.4375 145.457031 577.707031 193.738281 731 105.96875 "/>
<path style=" stroke:none;fill-rule:nonzero;fill:rgb(81.333333%,20%,100%);fill-opacity:0.01;" d="M 91 105.96875 C 239.4375 145.457031 577.707031 193.738281 731 105.96875 "/>
<path style=" stroke:none;fill-rule:nonzero;fill:rgb(75%,25%,100%);fill-opacity:0.2;" d="M 91 105.96875 C 239.4375 145.457031 577.707031 193.738281 731 105.96875 "/>
<path style=" stroke:none;fill-rule:nonzero;fill:rgb(68.05%,29%,100%);fill-opacity:0.04;" d="M 91 105.96875 C 239.4375 145.457031 577.707031 193.738281 731 105.96875 "/>
<path style=" stroke:none;fill-rule:nonzero;fill:rgb(62.2%,16%,100%);fill-opacity:0.14;" d="M 91 105.96875 C 239.4375 145.457031 577.707031 193.738281 731 105.96875 "/>
<path style=" stroke:none;fill-rule:nonzero;fill:rgb(80.166667%,30%,100%);fill-opacity:0.18;" d="M 91 105.96875 C 239.4375 145.457031 577.707031 193.738281 731 105.96875 "/>
<path style=" stroke:none;fill-rule:nonzero;fill:rgb(73.4%,16%,100%);fill-opacity:0.16;" d="M 91 105.96875 C 239.4375 145.457031 577.707031 193.738281 731 105.96875 "/>
<path style=" stroke:none;fill-rule:nonzero;fill:rgb(76.766667%,18%,100%);fill-opacity:0.13;" d="M 91 105.96875 C 239.4375 145.457031 577.707031 193.738281 731 105.96875 "/>
<path style=" stroke:none;fill-rule:nonzero;fill:rgb(81.333333%,30%,100%);fill-opacity:0.01;" d="M 91 105.96875 C 239.4375 145.457031 577.707031 193.738281 731 105.96875 "/>
<path style=" stroke:none;fill-rule:nonzero;fill:rgb(56%,12%,100%);fill-opacity:0.12;" d="M 91 105.96875 C 239.4375 145.457031 577.707031 193.738281 731 105.96875 "/>
<path style=" stroke:none;fill-rule:nonzero;fill:rgb(80.8%,28%,100%);fill-opacity:0.2;" d="M 91 105.96875 C 239.4375 145.457031 577.707031 193.738281 731 105.96875 "/>
<path style=" stroke:none;fill-rule:nonzero;fill:rgb(81.066667%,29%,100%);fill-opacity:0.03;" d="M 91 105.96875 C 239.4375 145.457031 577.707031 193.738281 731 105.96875 "/>
<path style=" stroke:none;fill-rule:nonzero;fill:rgb(84.8%,24%,100%);fill-opacity:0.17;" d="M 91 105.96875 C 239.4375 145.457031 577.707031 193.738281 731 105.96875 "/>
<path style=" stroke:none;fill-rule:nonzero;fill:rgb(82.233333%,18%,100%);fill-opacity:0.13;" d="M 91 105.96875 C 239.4375 145.457031 577.707031 193.738281 731 105.96875 "/>
<path style=" stroke:none;fill-rule:nonzero;fill:rgb(84.233333%,14%,100%);fill-opacity:0.02;" d="M 91 105.96875 C 239.4375 145.457031 577.707031 193.738281 731 105.96875 "/>
<path style=" stroke:none;fill-rule:nonzero;fill:rgb(86%,30%,100%);fill-opacity:0.05;" d="M 91 105.96875 C 239.4375 145.457031 577.707031 193.738281 731 105.96875 M 731 105.96875 C 731 105.972656 730.996094 105.988281 731 106 "/>
<path style=" stroke:none;fill-rule:nonzero;fill:rgb(77.516667%,29%,100%);fill-opacity:0.12;" d="M 731 106 C 731 105.996094 731 106.035156 731 106.03125 M 731 106.03125 C 433.90625 55.03125 -25.71875 155.378906 91 106.03125 "/>
<path style=" stroke:none;fill-rule:nonzero;fill:rgb(84.183333%,27%,100%);fill-opacity:0.15;" d="M 731 106.03125 C 433.90625 55.03125 -25.71875 155.378906 91 106.03125 "/>
<path style=" stroke:none;fill-rule:nonzero;fill:rgb(70.866667%,24%,100%);fill-opacity:0.08;" d="M 731 106.03125 C 433.90625 55.03125 -25.71875 155.378906 91 106.03125 "/>
<path style=" stroke:none;fill-rule:nonzero;fill:rgb(82.5%,25%,100%);fill-opacity:0.16;" d="M 731 106.03125 C 433.90625 55.03125 -25.71875 155.378906 91 106.03125 "/>
<path style=" stroke:none;fill-rule:nonzero;fill:rgb(61.266667%,17%,100%);fill-opacity:0.19;" d="M 731 106.03125 C 433.90625 55.03125 -25.71875 155.378906 91 106.03125 "/>
<path style=" stroke:none;fill-rule:nonzero;fill:rgb(59.4%,16%,100%);fill-opacity:0.17;" d="M 731 106.03125 C 433.90625 55.03125 -25.71875 155.378906 91 106.03125 "/>
<path style=" stroke:none;fill-rule:nonzero;fill:rgb(66.2%,22%,100%);fill-opacity:0.05;" d="M 731 106.03125 C 433.90625 55.03125 -25.71875 155.378906 91 106.03125 "/>
<path style=" stroke:none;fill-rule:nonzero;fill:rgb(79.033333%,26%,100%);fill-opacity:0.2;" d="M 731 106.03125 C 433.90625 55.03125 -25.71875 155.378906 91 106.03125 "/>
<path style=" stroke:none;fill-rule:nonzero;fill:rgb(86%,16%,100%);fill-opacity:0.17;" d="M 731 106.03125 C 433.90625 55.03125 -25.71875 155.378906 91 106.03125 "/>
<path style=" stroke:none;fill-rule:nonzero;fill:rgb(63.5%,27%,100%);fill-opacity:0.04;" d="M 731 106.03125 C 433.90625 55.03125 -25.71875 155.378906 91 106.03125 "/>
<path style=" stroke:none;fill-rule:nonzero;fill:rgb(87.333333%,24%,100%);fill-opacity:0.18;" d="M 731 106.03125 C 433.90625 55.03125 -25.71875 155.378906 91 106.03125 "/>
<path style=" stroke:none;fill-rule:nonzero;fill:rgb(78.133333%,18%,100%);fill-opacity:0.2;" d="M 731 106.03125 C 433.90625 55.03125 -25.71875 155.378906 91 106.03125 "/>
<path style=" stroke:none;fill-rule:nonzero;fill:rgb(84.2%,21%,100%);fill-opacity:0.14;" d="M 731 106.03125 C 433.90625 55.03125 -25.71875 155.378906 91 106.03125 "/>
<path style=" stroke:none;fill-rule:nonzero;fill:rgb(76.9%,23%,100%);fill-opacity:0.17;" d="M 731 106.03125 C 433.90625 55.03125 -25.71875 155.378906 91 106.03125 "/>
<path style=" stroke:none;fill-rule:nonzero;fill:rgb(71.633333%,26%,100%);fill-opacity:0.16;" d="M 731 106.03125 C 433.90625 55.03125 -25.71875 155.378906 91 106.03125 "/>
<path style=" stroke:none;fill-rule:nonzero;fill:rgb(65%,30%,100%);fill-opacity:0.17;" d="M 731 106.03125 C 433.90625 55.03125 -25.71875 155.378906 91 106.03125 "/>
<path style=" stroke:none;fill-rule:nonzero;fill:rgb(57%,14%,100%);fill-opacity:0.15;" d="M 731 106.03125 C 433.90625 55.03125 -25.71875 155.378906 91 106.03125 "/>
<path style=" stroke:none;fill-rule:nonzero;fill:rgb(87.166667%,23%,100%);fill-opacity:0.03;" d="M 731 106.03125 C 433.90625 55.03125 -25.71875 155.378906 91 106.03125 "/>
<path style=" stroke:none;fill-rule:nonzero;fill:rgb(82.8%,14%,100%);fill-opacity:0.04;" d="M 731 106.03125 C 433.90625 55.03125 -25.71875 155.378906 91 106.03125 M 91 106.03125 C 91.003906 106.015625 91.003906 106.003906 91 106 "/>
<path style=" stroke:none;fill-rule:nonzero;fill:rgb(84.05%,13%,100%);fill-opacity:0.04;" d="M 91 106.03125 C 91.003906 106.015625 91.003906 106.003906 91 106 "/>
<path style=" stroke:none;fill-rule:nonzero;fill:rgb(62.5%,10%,100%);fill-opacity:0.16;" d="M 91 106.03125 C 91.003906 106.015625 91.003906 106.003906 91 106 "/>
<path style=" stroke:none;fill-rule:nonzero;fill:rgb(85.883333%,23%,100%);fill-opacity:0.02;" d="M 91 106.03125 C 91.003906 106.015625 91.003906 106.003906 91 106 "/>
<path style=" stroke:none;fill-rule:nonzero;fill:rgb(72%,16%,100%);fill-opacity:0.06;" d="M 91 106.03125 C 91.003906 106.015625 91.003906 106.003906 91 106 "/>
<path style=" stroke:none;fill-rule:nonzero;fill:rgb(74.333333%,23%,100%);fill-opacity:0.2;" d="M 91 106.03125 C 91.003906 106.015625 91.003906 106.003906 91 106 "/>
<path style=" stroke:none;fill-rule:nonzero;fill:rgb(84.4%,22%,100%);fill-opacity:0.13;" d="M 91 106.03125 C 91.003906 106.015625 91.003906 106.003906 91 106 "/>
<path style=" stroke:none;fill-rule:nonzero;fill:rgb(68.8%,28%,100%);fill-opacity:0.08;" d="M 91 106.03125 C 91.003906 106.015625 91.003906 106.003906 91 106 "/>
<path style=" stroke:none;fill-rule:nonzero;fill:rgb(80%,20%,100%);fill-opacity:0.02;" d="M 91 106.03125 C 91.003906 106.015625 91.003906 106.003906 91 106 "/>
<path style=" stroke:none;fill-rule:nonzero;fill:rgb(80.5%,10%,100%);fill-opacity:0.04;" d="M 91 106.03125 C 91.003906 106.015625 91.003906 106.003906 91 106 "/>
<path style=" stroke:none;fill-rule:nonzero;fill:rgb(73.333333%,20%,100%);fill-opacity:0.02;" d="M 91 106.03125 C 91.003906 106.015625 91.003906 106.003906 91 106 "/>
<path style=" stroke:none;fill-rule:nonzero;fill:rgb(70.4%,26%,100%);fill-opacity:0.08;" d="M 91 106.03125 C 91.003906 106.015625 91.003906 106.003906 91 106 "/>
<path style=" stroke:none;fill-rule:nonzero;fill:rgb(78.133333%,18%,100%);fill-opacity:0.09;" d="M 91 106.03125 C 91.003906 106.015625 91.003906 106.003906 91 106 "/>
<path style=" stroke:none;fill-rule:nonzero;fill:rgb(59%,18%,100%);fill-opacity:0.17;" d="M 91 106.03125 C 91.003906 106.015625 91.003906 106.003906 91 106 "/>
<path style=" stroke:none;fill-rule:nonzero;fill:rgb(69.933333%,18%,100%);fill-opacity:0.11;" d="M 91 106.03125 C 91.003906 106.015625 91.003906 106.003906 91 106 "/>
<path style=" stroke:none;fill-rule:nonzero;fill:rgb(82.733333%,26%,100%);fill-opacity:0.08;" d="M 91 106.03125 C 91.003906 106.015625 91.003906 106.003906 91 106 "/>
<path style=" stroke:none;fill-rule:nonzero;fill:rgb(85.666667%,14%,100%);fill-opacity:0.2;" d="M 91 106.03125 C 91.003906 106.015625 91.003906 106.003906 91 106 "/>
<path style=" stroke:none;fill-rule:nonzero;fill:rgb(65.2%,28%,100%);fill-opacity:0.12;" d="M 91 106.03125 C 91.003906 106.015625 91.003906 106.003906 91 106 "/>
<path style=" stroke:none;fill-rule:nonzero;fill:rgb(72.333333%,17%,100%);fill-opacity:0.02;" d="M 91 106.03125 C 91.003906 106.015625 91.003906 106.003906 91 106 "/>
<path style=" stroke:none;fill-rule:nonzero;fill:rgb(65.8%,24%,100%);fill-opacity:0.2;" d="M 91 106.03125 C 91.003906 106.015625 91.003906 106.003906 91 106 M 75 140 C 75 139.996094 75 139.980469 75 139.980469 "/>
<path style=" stroke:none;fill-rule:nonzero;fill:rgb(69.9%,14%,100%);fill-opacity:0.06;" d="M 75 140 C 75 139.996094 75 139.980469 75 139.980469 M 75 139.980469 C 445.894531 203.648438 760.832031 111.882812 715 139.980469 "/>
<path style=" stroke:none;fill-rule:nonzero;fill:rgb(60.366667%,18%,100%);fill-opacity:0.19;" d="M 75 139.980469 C 445.894531 203.648438 760.832031 111.882812 715 139.980469 "/>
<path style=" stroke:none;fill-rule:nonzero;fill:rgb(68.8%,28%,100%);fill-opacity:0.08;" d="M 75 139.980469 C 445.894531 203.648438 760.832031 111.882812 715 139.980469 "/>
<path style=" stroke:none;fill-rule:nonzero;fill:rgb(63.5%,27%,100%);fill-opacity:0.11;" d="M 75 139.980469 C 445.894531 203.648438 760.832031 111.882812 715 139.980469 "/>
<path style=" stroke:none;fill-rule:nonzero;fill:rgb(77.333333%,20%,100%);fill-opacity:0.16;" d="M 75 139.980469 C 445.894531 203.648438 760.832031 111.882812 715 139.980469 "/>
<path style=" stroke:none;fill-rule:nonzero;fill:rgb(60.85%,13%,100%);fill-opacity:0.05;" d="M 75 139.980469 C 445.894531 203.648438 760.832031 111.882812 715 139.980469 "/>
<path style=" stroke:none;fill-rule:nonzero;fill:rgb(82.45%,19%,100%);fill-opacity:0.02;" d="M 75 139.980469 C 445.894531 203.648438 760.832031 111.882812 715 139.980469 "/>
<path style=" stroke:none;fill-rule:nonzero;fill:rgb(65.466667%,26%,100%);fill-opacity:0.02;" d="M 75 139.980469 C 445.894531 203.648438 760.832031 111.882812 715 139.980469 "/>
<path style=" stroke:none;fill-rule:nonzero;fill:rgb(80.716667%,11%,100%);fill-opacity:0.16;" d="M 75 139.980469 C 445.894531 203.648438 760.832031 111.882812 715 139.980469 "/>
<path style=" stroke:none;fill-rule:nonzero;fill:rgb(67.2%,18%,100%);fill-opacity:0.01;" d="M 75 139.980469 C 445.894531 203.648438 760.832031 111.882812 715 139.980469 "/>
<path style=" stroke:none;fill-rule:nonzero;fill:rgb(66.8%,17%,100%);fill-opacity:0.04;" d="M 75 139.980469 C 445.894531 203.648438 760.832031 111.882812 715 139.980469 "/>
<path style=" stroke:none;fill-rule:nonzero;fill:rgb(85.2%,26%,100%);fill-opacity:0.17;" d="M 75 139.980469 C 445.894531 203.648438 760.832031 111.882812 715 139.980469 "/>
<path style=" stroke:none;fill-rule:nonzero;fill:rgb(56%,12%,100%);fill-opacity:0.09;" d="M 75 139.980469 C 445.894531 203.648438 760.832031 111.882812 715 139.980469 "/>
<path style=" stroke:none;fill-rule:nonzero;fill:rgb(58%,16%,100%);fill-opacity:0.17;" d="M 75 139.980469 C 445.894531 203.648438 760.832031 111.882812 715 139.980469 "/>
<path style=" stroke:none;fill-rule:nonzero;fill:rgb(73.4%,16%,100%);fill-opacity:0.08;" d="M 75 139.980469 C 445.894531 203.648438 760.832031 111.882812 715 139.980469 "/>
<path style=" stroke:none;fill-rule:nonzero;fill:rgb(77.5%,25%,100%);fill-opacity:0.15;" d="M 75 139.980469 C 445.894531 203.648438 760.832031 111.882812 715 139.980469 "/>
<path style=" stroke:none;fill-rule:nonzero;fill:rgb(72.866667%,26%,100%);fill-opacity:0.06;" d="M 75 139.980469 C 445.894531 203.648438 760.832031 111.882812 715 139.980469 "/>
<path style=" stroke:none;fill-rule:nonzero;fill:rgb(85.883333%,23%,100%);fill-opacity:0.1;" d="M 75 139.980469 C 445.894531 203.648438 760.832031 111.882812 715 139.980469 "/>
<path style=" stroke:none;fill-rule:nonzero;fill:rgb(85%,10%,100%);fill-opacity:0.17;" d="M 715 140 C 715 140 714.996094 140.011719 715 140.019531 M 715 140.019531 C 592 118.902344 359.628906 67.339844 75 140.019531 "/>
<path style=" stroke:none;fill-rule:nonzero;fill:rgb(73.716667%,17%,100%);fill-opacity:0.16;" d="M 715 140.019531 C 592 118.902344 359.628906 67.339844 75 140.019531 "/>
<path style=" stroke:none;fill-rule:nonzero;fill:rgb(77.833333%,30%,100%);fill-opacity:0.1;" d="M 715 140.019531 C 592 118.902344 359.628906 67.339844 75 140.019531 "/>
<path style=" stroke:none;fill-rule:nonzero;fill:rgb(62.916667%,11%,100%);fill-opacity:0.19;" d="M 715 140.019531 C 592 118.902344 359.628906 67.339844 75 140.019531 "/>
<path style=" stroke:none;fill-rule:nonzero;fill:rgb(83.5%,10%,100%);fill-opacity:0.05;" d="M 715 140.019531 C 592 118.902344 359.628906 67.339844 75 140.019531 "/>
<path style=" stroke:none;fill-rule:nonzero;fill:rgb(78.183333%,23%,100%);fill-opacity:0.06;" d="M 715 140.019531 C 592 118.902344 359.628906 67.339844 75 140.019531 "/>
<path style=" stroke:none;fill-rule:nonzero;fill:rgb(65%,30%,100%);fill-opacity:0.01;" d="M 715 140.019531 C 592 118.902344 359.628906 67.339844 75 140.019531 "/>
<path style=" stroke:none;fill-rule:nonzero;fill:rgb(86.333333%,18%,100%);fill-opacity:0.18;" d="M 715 140.019531 C 592 118.902344 359.628906 67.339844 75 140.019531 "/>
<path style=" stroke:none;fill-rule:nonzero;fill:rgb(66.25%,25%,100%);fill-opacity:0.13;" d="M 715 140.019531 C 592 118.902344 359.628906 67.339844 75 140.019531 "/>
<path style=" stroke:none;fill-rule:nonzero;fill:rgb(70.866667%,24%,100%);fill-opacity:0.1;" d="M 715 140.019531 C 592 118.902344 359.628906 67.339844 75 140.019531 "/>
<path style=" stroke:none;fill-rule:nonzero;fill:rgb(69.716667%,21%,100%);fill-opacity:0.03;" d="M 715 140.019531 C 592 118.902344 359.628906 67.339844 75 140.019531 "/>
<path style=" stroke:none;fill-rule:nonzero;fill:rgb(70.8%,27%,100%);fill-opacity:0.2;" d="M 715 140.019531 C 592 118.902344 359.628906 67.339844 75 140.019531 "/>
<path style=" stroke:none;fill-rule:nonzero;fill:rgb(80.866667%,18%,100%);fill-opacity:0.16;" d="M 715 140.019531 C 592 118.902344 359.628906 67.339844 75 140.019531 "/>
<path style=" stroke:none;fill-rule:nonzero;fill:rgb(78.1%,27%,100%);fill-opacity:0.1;" d="M 715 140.019531 C 592 118.902344 359.628906 67.339844 75 140.019531 "/>
<path style=" stroke:none;fill-rule:nonzero;fill:rgb(87.166667%,30%,100%);fill-opacity:0.06;" d="M 715 140.019531 C 592 118.902344 359.628906 67.339844 75 140.019531 "/>
<path style=" stroke:none;fill-rule:nonzero;fill:rgb(73.4%,24%,100%);fill-opacity:0.2;" d="M 715 140.019531 C 592 118.902344 359.628906 67.339844 75 140.019531 "/>
<path style=" stroke:none;fill-rule:nonzero;fill:rgb(68.85%,11%,100%);fill-opacity:0.17;" d="M 715 140.019531 C 592 118.902344 359.628906 67.339844 75 140.019531 "/>
<path style=" stroke:none;fill-rule:nonzero;fill:rgb(77.8%,26%,100%);fill-opacity:0.17;" d="M 715 140.019531 C 592 118.902344 359.628906 67.339844 75 140.019531 "/>
<path style=" stroke:none;fill-rule:nonzero;fill:rgb(70.4%,26%,100%);fill-opacity:0.19;" d="M 715 140.019531 C 592 118.902344 359.628906 67.339844 75 140.019531 "/>
<path style=" stroke:none;fill-rule:nonzero;fill:rgb(61.5%,23%,100%);fill-opacity:0.07;" d="M 715 140.019531 C 592 118.902344 359.628906 67.339844 75 140.019531 "/>
<path style=" stroke:none;fill-rule:nonzero;fill:rgb(74.783333%,11%,100%);fill-opacity:0.07;" d="M 75 140.019531 C 75.003906 140.011719 75.003906 140.003906 75 140 "/>
<path style=" stroke:none;fill-rule:nonzero;fill:rgb(84.966667%,18%,100%);fill-opacity:0.2;" d="M 75 140.019531 C 75.003906 140.011719 75.003906 140.003906 75 140 "/>
<path style=" stroke:none;fill-rule:nonzero;fill:rgb(58%,16%,100%);fill-opacity:0.12;" d="M 75 140.019531 C 75.003906 140.011719 75.003906 140.003906 75 140 "/>
<path style=" stroke:none;fill-rule:nonzero;fill:rgb(82.5%,25%,100%);fill-opacity:0.05;" d="M 75 140.019531 C 75.003906 140.011719 75.003906 140.003906 75 140 "/>
<path style=" stroke:none;fill-rule:nonzero;fill:rgb(65.5%,10%,100%);fill-opacity:0.04;" d="M 75 140.019531 C 75.003906 140.011719 75.003906 140.003906 75 140 "/>
<path style=" stroke:none;fill-rule:nonzero;fill:rgb(85.7%,22%,100%);fill-opacity:0.2;" d="M 75 140.019531 C 75.003906 140.011719 75.003906 140.003906 75 140 "/>
<path style=" stroke:none;fill-rule:nonzero;fill:rgb(82.8%,14%,100%);fill-opacity:0.13;" d="M 75 140.019531 C 75.003906 140.011719 75.003906 140.003906 75 140 "/>
<path style=" stroke:none;fill-rule:nonzero;fill:rgb(83.866667%,12%,100%);fill-opacity:0.17;" d="M 75 140.019531 C 75.003906 140.011719 75.003906 140.003906 75 140 "/>
<path style=" stroke:none;fill-rule:nonzero;fill:rgb(63.1%,18%,100%);fill-opacity:0.19;" d="M 75 140.019531 C 75.003906 140.011719 75.003906 140.003906 75 140 "/>
<path style=" stroke:none;fill-rule:nonzero;fill:rgb(75.933333%,24%,100%);fill-opacity:0.17;" d="M 75 140.019531 C 75.003906 140.011719 75.003906 140.003906 75 140 "/>
<path style=" stroke:none;fill-rule:nonzero;fill:rgb(82.666667%,20%,100%);fill-opacity:0.03;" d="M 75 140.019531 C 75.003906 140.011719 75.003906 140.003906 75 140 "/>
<path style=" stroke:none;fill-rule:nonzero;fill:rgb(64.45%,21%,100%);fill-opacity:0.04;" d="M 75 140.019531 C 75.003906 140.011719 75.003906 140.003906 75 140 "/>
<path style=" stroke:none;fill-rule:nonzero;fill:rgb(87.666667%,26%,100%);fill-opacity:0.12;" d="M 75 140.019531 C 75.003906 140.011719 75.003906 140.003906 75 140 "/>
<path style=" stroke:none;fill-rule:nonzero;fill:rgb(64%,10%,100%);fill-opacity:0.15;" d="M 75 140.019531 C 75.003906 140.011719 75.003906 140.003906 75 140 "/>
<path style=" stroke:none;fill-rule:nonzero;fill:rgb(76.25%,25%,100%);fill-opacity:0.12;" d="M 75 140.019531 C 75.003906 140.011719 75.003906 140.003906 75 140 "/>
<path style=" stroke:none;fill-rule:nonzero;fill:rgb(71.6%,29%,100%);fill-opacity:0.01;" d="M 75 140.019531 C 75.003906 140.011719 75.003906 140.003906 75 140 "/>
<path style=" stroke:none;fill-rule:nonzero;fill:rgb(62.5%,25%,100%);fill-opacity:0.17;" d="M 75 140.019531 C 75.003906 140.011719 75.003906 140.003906 75 140 "/>
<path style=" stroke:none;fill-rule:nonzero;fill:rgb(62.733333%,14%,100%);fill-opacity:0.12;" d="M 75 140.019531 C 75.003906 140.011719 75.003906 140.003906 75 140 "/>
<path style=" stroke:none;fill-rule:nonzero;fill:rgb(86%,30%,100%);fill-opacity:0.15;" d="M 75 140.019531 C 75.003906 140.011719 75.003906 140.003906 75 140 "/>
<path style=" stroke:none;fill-rule:nonzero;fill:rgb(79.25%,17%,100%);fill-opacity:0.05;" d="M 75 140.019531 C 75.003906 140.011719 75.003906 140.003906 75 140 M 102 138 C 102 137.992188 102.003906 137.980469 102 137.976562 "/>
<path style=" stroke:none;fill-rule:nonzero;fill:rgb(67.333333%,30%,100%);fill-opacity:0.02;" d="M 102 138 C 102 137.992188 102.003906 137.980469 102 137.976562 M 102 137.976562 C 105.785156 138.625 754.042969 132.007812 742 137.976562 "/>
<path style=" stroke:none;fill-rule:nonzero;fill:rgb(59.4%,13%,100%);fill-opacity:0.05;" d="M 102 137.976562 C 105.785156 138.625 754.042969 132.007812 742 137.976562 "/>
<path style=" stroke:none;fill-rule:nonzero;fill:rgb(69.9%,14%,100%);fill-opacity:0.12;" d="M 102 137.976562 C 105.785156 138.625 754.042969 132.007812 742 137.976562 "/>
<path style=" stroke:none;fill-rule:nonzero;fill:rgb(77.2%,24%,100%);fill-opacity:0.05;" d="M 102 137.976562 C 105.785156 138.625 754.042969 132.007812 742 137.976562 "/>
<path style=" stroke:none;fill-rule:nonzero;fill:rgb(68.833333%,15%,100%);fill-opacity:0.04;" d="M 102 137.976562 C 105.785156 138.625 754.042969 132.007812 742 137.976562 "/>
<path style=" stroke:none;fill-rule:nonzero;fill:rgb(70.666667%,12%,100%);fill-opacity:0.07;" d="M 102 137.976562 C 105.785156 138.625 754.042969 132.007812 742 137.976562 "/>
<path style=" stroke:none;fill-rule:nonzero;fill:rgb(62.3%,13%,100%);fill-opacity:0.05;" d="M 102 137.976562 C 105.785156 138.625 754.042969 132.007812 742 137.976562 "/>
<path style=" stroke:none;fill-rule:nonzero;fill:rgb(74.666667%,24%,100%);fill-opacity:0.17;" d="M 102 137.976562 C 105.785156 138.625 754.042969 132.007812 742 137.976562 "/>
<path style=" stroke:none;fill-rule:nonzero;fill:rgb(86.5%,19%,100%);fill-opacity:0.04;" d="M 102 137.976562 C 105.785156 138.625 754.042969 132.007812 742 137.976562 "/>
<path style=" stroke:none;fill-rule:nonzero;fill:rgb(78.75%,25%,100%);fill-opacity:0.04;" d="M 102 137.976562 C 105.785156 138.625 754.042969 132.007812 742 137.976562 "/>
<path style=" stroke:none;fill-rule:nonzero;fill:rgb(83.683333%,11%,100%);fill-opacity:0.02;" d="M 102 137.976562 C 105.785156 138.625 754.042969 132.007812 742 137.976562 "/>
<path style=" stroke:none;fill-rule:nonzero;fill:rgb(72%,20%,100%);fill-opacity:0.05;" d="M 102 137.976562 C 105.785156 138.625 754.042969 132.007812 742 137.976562 "/>
<path style=" stroke:none;fill-rule:nonzero;fill:rgb(64%,20%,100%);fill-opacity:0.17;" d="M 102 137.976562 C 105.785156 138.625 754.042969 132.007812 742 137.976562 "/>
<path style=" stroke:none;fill-rule:nonzero;fill:rgb(73.05%,23%,100%);fill-opacity:0.1;" d="M 102 137.976562 C 105.785156 138.625 754.042969 132.007812 742 137.976562 "/>
<path style=" stroke:none;fill-rule:nonzero;fill:rgb(82.233333%,18%,100%);fill-opacity:0.2;" d="M 102 137.976562 C 105.785156 138.625 754.042969 132.007812 742 137.976562 "/>
<path style=" stroke:none;fill-rule:nonzero;fill:rgb(64.8%,12%,100%);fill-opacity:0.15;" d="M 102 137.976562 C 105.785156 138.625 754.042969 132.007812 742 137.976562 "/>
<path style=" stroke:none;fill-rule:nonzero;fill:rgb(78.466667%,24%,100%);fill-opacity:0.05;" d="M 102 137.976562 C 105.785156 138.625 754.042969 132.007812 742 137.976562 "/>
<path style=" stroke:none;fill-rule:nonzero;fill:rgb(70.1%,22%,100%);fill-opacity:0.08;" d="M 102 137.976562 C 105.785156 138.625 754.042969 132.007812 742 137.976562 "/>
<path style=" stroke:none;fill-rule:nonzero;fill:rgb(83.4%,17%,100%);fill-opacity:0.1;" d="M 102 137.976562 C 105.785156 138.625 754.042969 132.007812 742 137.976562 "/>
<path style=" stroke:none;fill-rule:nonzero;fill:rgb(59.883333%,17%,100%);fill-opacity:0.12;" d="M 102 137.976562 C 105.785156 138.625 754.042969 132.007812 742 137.976562 "/>
<path style=" stroke:none;fill-rule:nonzero;fill:rgb(61.3%,14%,100%);fill-opacity:0.11;" d="M 742 138 C 742 137.996094 742 138.023438 742 138.023438 M 742 138.023438 C 495.996094 95.796875 431.273438 53.945312 102 138.023438 "/>
<path style=" stroke:none;fill-rule:nonzero;fill:rgb(77.5%,25%,100%);fill-opacity:0.17;" d="M 742 138.023438 C 495.996094 95.796875 431.273438 53.945312 102 138.023438 "/>
<path style=" stroke:none;fill-rule:nonzero;fill:rgb(72.783333%,29%,100%);fill-opacity:0.11;" d="M 742 138.023438 C 495.996094 95.796875 431.273438 53.945312 102 138.023438 "/>
<path style=" stroke:none;fill-rule:nonzero;fill:rgb(60.333333%,15%,100%);fill-opacity:0.12;" d="M 742 138.023438 C 495.996094 95.796875 431.273438 53.945312 102 138.023438 "/>
<path style=" stroke:none;fill-rule:nonzero;fill:rgb(73.166667%,30%,100%);fill-opacity:0.07;" d="M 742 138.023438 C 495.996094 95.796875 431.273438 53.945312 102 138.023438 "/>
<path style=" stroke:none;fill-rule:nonzero;fill:rgb(80.4%,16%,100%);fill-opacity:0.2;" d="M 742 138.023438 C 495.996094 95.796875 431.273438 53.945312 102 138.023438 "/>
<path style=" stroke:none;fill-rule:nonzero;fill:rgb(62.666667%,20%,100%);fill-opacity:0.07;" d="M 742 138.023438 C 495.996094 95.796875 431.273438 53.945312 102 138.023438 "/>
<path style=" stroke:none;fill-rule:nonzero;fill:rgb(86.166667%,17%,100%);fill-opacity:0.19;" d="M 742 138.023438 C 495.996094 95.796875 431.273438 53.945312 102 138.023438 "/>
<path style=" stroke:none;fill-rule:nonzero;fill:rgb(67.6%,19%,100%);fill-opacity:0.14;" d="M 742 138.023438 C 495.996094 95.796875 431.273438 53.945312 102 138.023438 "/>
<path style=" stroke:none;fill-rule:nonzero;fill:rgb(85.8%,29%,100%);fill-opacity:0.05;" d="M 742 138.023438 C 495.996094 95.796875 431.273438 53.945312 102 138.023438 "/>
<path style=" stroke:none;fill-rule:nonzero;fill:rgb(75.1%,17%,100%);fill-opacity:0.1;" d="M 742 138.023438 C 495.996094 95.796875 431.273438 53.945312 102 138.023438 "/>
<path style=" stroke:none;fill-rule:nonzero;fill:rgb(85.516667%,21%,100%);fill-opacity:0.03;" d="M 742 138.023438 C 495.996094 95.796875 431.273438 53.945312 102 138.023438 "/>
<path style=" stroke:none;fill-rule:nonzero;fill:rgb(65.416667%,17%,100%);fill-opacity:0.16;" d="M 742 138.023438 C 495.996094 95.796875 431.273438 53.945312 102 138.023438 "/>
<path style=" stroke:none;fill-rule:nonzero;fill:rgb(67.916667%,23%,100%);fill-opacity:0.08;" d="M 742 138.023438 C 495.996094 95.796875 431.273438 53.945312 102 138.023438 "/>
<path style=" stroke:none;fill-rule:nonzero;fill:rgb(76.8%,13%,100%);fill-opacity:0.02;" d="M 742 138.023438 C 495.996094 95.796875 431.273438 53.945312 102 138.023438 "/>
<path style=" stroke:none;fill-rule:nonzero;fill:rgb(77.333333%,15%,100%);fill-opacity:0.01;" d="M 742 138.023438 C 495.996094 95.796875 431.273438 53.945312 102 138.023438 "/>
<path style=" stroke:none;fill-rule:nonzero;fill:rgb(65.833333%,18%,100%);fill-opacity:0.13;" d="M 742 138.023438 C 495.996094 95.796875 431.273438 53.945312 102 138.023438 "/>
<path style=" stroke:none;fill-rule:nonzero;fill:rgb(81.333333%,30%,100%);fill-opacity:0.06;" d="M 742 138.023438 C 495.996094 95.796875 431.273438 53.945312 102 138.023438 "/>
<path style=" stroke:none;fill-rule:nonzero;fill:rgb(59.883333%,17%,100%);fill-opacity:0.14;" d="M 742 138.023438 C 495.996094 95.796875 431.273438 53.945312 102 138.023438 "/>
<path style=" stroke:none;fill-rule:nonzero;fill:rgb(73.4%,16%,100%);fill-opacity:0.2;" d="M 742 138.023438 C 495.996094 95.796875 431.273438 53.945312 102 138.023438 M 102 138.023438 C 102.003906 138.015625 101.996094 137.992188 102 138 "/>
<path style=" stroke:none;fill-rule:nonzero;fill:rgb(76.8%,13%,100%);fill-opacity:0.13;" d="M 102 138.023438 C 102.003906 138.015625 101.996094 137.992188 102 138 M 95 107 C 95.003906 106.988281 95 106.96875 95 106.96875 "/>
<path style=" stroke:none;fill-rule:nonzero;fill:rgb(84.416667%,15%,100%);fill-opacity:0.06;" d="M 95 107 C 95.003906 106.988281 95 106.96875 95 106.96875 M 95 106.96875 C 350.039062 119.734375 628.203125 144.746094 735 106.96875 "/>
<path style=" stroke:none;fill-rule:nonzero;fill:rgb(84.783333%,17%,100%);fill-opacity:0.17;" d="M 95 106.96875 C 350.039062 119.734375 628.203125 144.746094 735 106.96875 "/>
<path style=" stroke:none;fill-rule:nonzero;fill:rgb(64.9%,22%,100%);fill-opacity:0.2;" d="M 95 106.96875 C 350.039062 119.734375 628.203125 144.746094 735 106.96875 "/>
<path style=" stroke:none;fill-rule:nonzero;fill:rgb(66.666667%,20%,100%);fill-opacity:0.09;" d="M 95 106.96875 C 350.039062 119.734375 628.203125 144.746094 735 106.96875 "/>
<path style=" stroke:none;fill-rule:nonzero;fill:rgb(63%,26%,100%);fill-opacity:0.1;" d="M 95 106.96875 C 350.039062 119.734375 628.203125 144.746094 735 106.96875 "/>
<path style=" stroke:none;fill-rule:nonzero;fill:rgb(78.7%,29%,100%);fill-opacity:0.04;" d="M 95 106.96875 C 350.039062 119.734375 628.203125 144.746094 735 106.96875 "/>
<path style=" stroke:none;fill-rule:nonzero;fill:rgb(66.4%,28%,100%);fill-opacity:0.12;" d="M 95 106.96875 C 350.039062 119.734375 628.203125 144.746094 735 106.96875 "/>
<path style=" stroke:none;fill-rule:nonzero;fill:rgb(83.75%,25%,100%);fill-opacity:0.11;" d="M 95 106.96875 C 350.039062 119.734375 628.203125 144.746094 735 106.96875 "/>
<path style=" stroke:none;fill-rule:nonzero;fill:rgb(61.816667%,21%,100%);fill-opacity:0.16;" d="M 95 106.96875 C 350.039062 119.734375 628.203125 144.746094 735 106.96875 "/>
<path style=" stroke:none;fill-rule:nonzero;fill:rgb(77.833333%,30%,100%);fill-opacity:0.12;" d="M 95 106.96875 C 350.039062 119.734375 628.203125 144.746094 735 106.96875 "/>
<path style=" stroke:none;fill-rule:nonzero;fill:rgb(82.883333%,21%,100%);fill-opacity:0.14;" d="M 95 106.96875 C 350.039062 119.734375 628.203125 144.746094 735 106.96875 "/>
<path style=" stroke:none;fill-rule:nonzero;fill:rgb(71.633333%,26%,100%);fill-opacity:0.19;" d="M 95 106.96875 C 350.039062 119.734375 628.203125 144.746094 735 106.96875 "/>
<path style=" stroke:none;fill-rule:nonzero;fill:rgb(69.2%,12%,100%);fill-opacity:0.1;" d="M 95 106.96875 C 350.039062 119.734375 628.203125 144.746094 735 106.96875 "/>
<path style=" stroke:none;fill-rule:nonzero;fill:rgb(75.15%,29%,100%);fill-opacity:0.03;" d="M 95 106.96875 C 350.039062 119.734375 628.203125 144.746094 735 106.96875 "/>
<path style=" stroke:none;fill-rule:nonzero;fill:rgb(72.666667%,18%,100%);fill-opacity:0.01;" d="M 95 106.96875 C 350.039062 119.734375 628.203125 144.746094 735 106.96875 "/>
<path style=" stroke:none;fill-rule:nonzero;fill:rgb(86.666667%,20%,100%);fill-opacity:0.01;" d="M 95 106.96875 C 350.039062 119.734375 628.203125 144.746094 735 106.96875 "/>
<path style=" stroke:none;fill-rule:nonzero;fill:rgb(80.5%,22%,100%);fill-opacity:0.18;" d="M 95 106.96875 C 350.039062 119.734375 628.203125 144.746094 735 106.96875 "/>
<path style=" stroke:none;fill-rule:nonzero;fill:rgb(57.5%,15%,100%);fill-opacity:0.16;" d="M 95 106.96875 C 350.039062 119.734375 628.203125 144.746094 735 106.96875 "/>
<path style=" stroke:none;fill-rule:nonzero;fill:rgb(81.333333%,30%,100%);fill-opacity:0.17;" d="M 95 106.96875 C 350.039062 119.734375 628.203125 144.746094 735 106.96875 "/>
<path style=" stroke:none;fill-rule:nonzero;fill:rgb(86.616667%,27%,100%);fill-opacity:0.15;" d="M 95 106.96875 C 350.039062 119.734375 628.203125 144.746094 735 106.96875 "/>
<path style=" stroke:none;fill-rule:nonzero;fill:rgb(71.333333%,14%,100%);fill-opacity:0.03;" d="M 95 106.96875 C 350.039062 119.734375 628.203125 144.746094 735 106.96875 M 735 106.96875 C 735 106.980469 734.996094 106.984375 735 107 "/>
<path style=" stroke:none;fill-rule:nonzero;fill:rgb(60.8%,16%,100%);fill-opacity:0.19;" d="M 735 107 C 735 107.003906 735.003906 107.035156 735 107.03125 M 735 107.03125 C 836.144531 118.199219 388.253906 -60.875 95 107.03125 "/>
<path style=" stroke:none;fill-rule:nonzero;fill:rgb(83.8%,19%,100%);fill-opacity:0.11;" d="M 735 107.03125 C 836.144531 118.199219 388.253906 -60.875 95 107.03125 "/>
<path style=" stroke:none;fill-rule:nonzero;fill:rgb(82.45%,19%,100%);fill-opacity:0.03;" d="M 735 107.03125 C 836.144531 118.199219 388.253906 -60.875 95 107.03125 "/>
<path style=" stroke:none;fill-rule:nonzero;fill:rgb(69.716667%,21%,100%);fill-opacity:0.13;" d="M 735 107.03125 C 836.144531 118.199219 388.253906 -60.875 95 107.03125 "/>
<path style=" stroke:none;fill-rule:nonzero;fill:rgb(88%,28%,100%);fill-opacity:0.09;" d="M 735 107.03125 C 836.144531 118.199219 388.253906 -60.875 95 107.03125 "/>
<path style=" stroke:none;fill-rule:nonzero;fill:rgb(78.7%,29%,100%);fill-opacity:0.1;" d="M 735 107.03125 C 836.144531 118.199219 388.253906 -60.875 95 107.03125 "/>
<path style=" stroke:none;fill-rule:nonzero;fill:rgb(76.9%,23%,100%);fill-opacity:0.18;" d="M 735 107.03125 C 836.144531 118.199219 388.253906 -60.875 95 107.03125 "/>
<path style=" stroke:none;fill-rule:nonzero;fill:rgb(63.75%,13%,100%);fill-opacity:0.16;" d="M 735 107.03125 C 836.144531 118.199219 388.253906 -60.875 95 107.03125 "/>
<path style=" stroke:none;fill-rule:nonzero;fill:rgb(78.75%,25%,100%);fill-opacity:0.02;" d="M 735 107.03125 C 836.144531 118.199219 388.253906 -60.875 95 107.03125 "/>
<path style=" stroke:none;fill-rule:nonzero;fill:rgb(63.266667%,24%,100%);fill-opacity:0.15;" d="M 735 107.03125 C 836.144531 118.199219 388.253906 -60.875 95 107.03125 "/>
<path style=" stroke:none;fill-rule:nonzero;fill:rgb(70.4%,26%,100%);fill-opacity:0.17;" d="M 735 107.03125 C 836.144531 118.199219 388.253906 -60.875 95 107.03125 "/>
<path style=" stroke:none;fill-rule:nonzero;fill:rgb(75.7%,19%,100%);fill-opacity:0.16;" d="M 735 107.03125 C 836.144531 118.199219 388.253906 -60.875 95 107.03125 "/>
<path style=" stroke:none;fill-rule:nonzero;fill:rgb(77.8%,26%,100%);fill-opacity:0.18;" d="M 735 107.03125 C 836.144531 118.199219 388.253906 -60.875 95 107.03125 "/>
<path style=" stroke:none;fill-rule:nonzero;fill:rgb(80.933333%,12%,100%);fill-opacity:0.08;" d="M 735 107.03125 C 836.144531 118.199219 388.253906 -60.875 95 107.03125 "/>
<path style=" stroke:none;fill-rule:nonzero;fill:rgb(70.333333%,11%,100%);fill-opacity:0.16;" d="M 735 107.03125 C 836.144531 118.199219 388.253906 -60.875 95 107.03125 "/>
<path style=" stroke:none;fill-rule:nonzero;fill:rgb(82.266667%,24%,100%);fill-opacity:0.12;" d="M 735 107.03125 C 836.144531 118.199219 388.253906 -60.875 95 107.03125 "/>
<path style=" stroke:none;fill-rule:nonzero;fill:rgb(68.566667%,18%,100%);fill-opacity:0.16;" d="M 735 107.03125 C 836.144531 118.199219 388.253906 -60.875 95 107.03125 "/>
<path style=" stroke:none;fill-rule:nonzero;fill:rgb(74.45%,27%,100%);fill-opacity:0.02;" d="M 735 107.03125 C 836.144531 118.199219 388.253906 -60.875 95 107.03125 "/>
<path style=" stroke:none;fill-rule:nonzero;fill:rgb(66.25%,19%,100%);fill-opacity:0.02;" d="M 735 107.03125 C 836.144531 118.199219 388.253906 -60.875 95 107.03125 M 95 107.03125 C 95 107.03125 95.003906 107.015625 95 107 "/>
<path style=" stroke:none;fill-rule:nonzero;fill:rgb(78.4%,28%,100%);fill-opacity:0.14;" d="M 95 107.03125 C 95 107.03125 95.003906 107.015625 95 107 M 73 136 C 142.167969 152.195312 682.226562 146.886719 713 136 "/>
<path style=" stroke:none;fill-rule:nonzero;fill:rgb(61.816667%,21%,100%);fill-opacity:0.19;" d="M 73 136 C 142.167969 152.195312 682.226562 146.886719 713 136 "/>
<path style=" stroke:none;fill-rule:nonzero;fill:rgb(66.4%,16%,100%);fill-opacity:0.15;" d="M 73 136 C 142.167969 152.195312 682.226562 146.886719 713 136 "/>
<path style=" stroke:none;fill-rule:nonzero;fill:rgb(86.25%,25%,100%);fill-opacity:0.13;" d="M 73 136 C 142.167969 152.195312 682.226562 146.886719 713 136 "/>
<path style=" stroke:none;fill-rule:nonzero;fill:rgb(76.6%,22%,100%);fill-opacity:0.11;" d="M 73 136 C 142.167969 152.195312 682.226562 146.886719 713 136 "/>
<path style=" stroke:none;fill-rule:nonzero;fill:rgb(80.716667%,11%,100%);fill-opacity:0.15;" d="M 73 136 C 142.167969 152.195312 682.226562 146.886719 713 136 "/>
<path style=" stroke:none;fill-rule:nonzero;fill:rgb(63.75%,13%,100%);fill-opacity:0.19;" d="M 73 136 C 142.167969 152.195312 682.226562 146.886719 713 136 "/>
<path style=" stroke:none;fill-rule:nonzero;fill:rgb(58.433333%,14%,100%);fill-opacity:0.2;" d="M 73 136 C 142.167969 152.195312 682.226562 146.886719 713 136 "/>
<path style=" stroke:none;fill-rule:nonzero;fill:rgb(63.5%,27%,100%);fill-opacity:0.2;" d="M 73 136 C 142.167969 152.195312 682.226562 146.886719 713 136 "/>
<path style=" stroke:none;fill-rule:nonzero;fill:rgb(83.6%,18%,100%);fill-opacity:0.15;" d="M 73 136 C 142.167969 152.195312 682.226562 146.886719 713 136 "/>
<path style=" stroke:none;fill-rule:nonzero;fill:rgb(69.583333%,27%,100%);fill-opacity:0.08;" d="M 73 136 C 142.167969 152.195312 682.226562 146.886719 713 136 "/>
<path style=" stroke:none;fill-rule:nonzero;fill:rgb(65%,25%,100%);fill-opacity:0.11;" d="M 73 136 C 142.167969 152.195312 682.226562 146.886719 713 136 "/>
<path style=" stroke:none;fill-rule:nonzero;fill:rgb(82.25%,29%,100%);fill-opacity:0.08;" d="M 73 136 C 142.167969 152.195312 682.226562 146.886719 713 136 "/>
<path style=" stroke:none;fill-rule:nonzero;fill:rgb(58%,16%,100%);fill-opacity:0.16;" d="M 73 136 C 142.167969 152.195312 682.226562 146.886719 713 136 "/>
<path style=" stroke:none;fill-rule:nonzero;fill:rgb(67.416667%,15%,100%);fill-opacity:0.15;" d="M 73 136 C 142.167969 152.195312 682.226562 146.886719 713 136 "/>
<path style=" stroke:none;fill-rule:nonzero;fill:rgb(61.266667%,17%,100%);fill-opacity:0.14;" d="M 73 136 C 142.167969 152.195312 682.226562 146.886719 713 136 "/>
<path style=" stroke:none;fill-rule:nonzero;fill:rgb(76%,28%,100%);fill-opacity:0.07;" d="M 73 136 C 142.167969 152.195312 682.226562 146.886719 713 136 "/>
<path style=" stroke:none;fill-rule:nonzero;fill:rgb(65.933333%,27%,100%);fill-opacity:0.13;" d="M 73 136 C 142.167969 152.195312 682.226562 146.886719 713 136 "/>
<path style=" stroke:none;fill-rule:nonzero;fill:rgb(77.833333%,30%,100%);fill-opacity:0.11;" d="M 73 136 C 142.167969 152.195312 682.226562 146.886719 713 136 "/>
<path style=" stroke:none;fill-rule:nonzero;fill:rgb(75.633333%,14%,100%);fill-opacity:0.11;" d="M 73 136 C 142.167969 152.195312 682.226562 146.886719 713 136 "/>
<path style=" stroke:none;fill-rule:nonzero;fill:rgb(71.65%,19%,100%);fill-opacity:0.06;" d="M 73 136 C 142.167969 152.195312 682.226562 146.886719 713 136 M 713 136 C 514.304688 101.894531 354.539062 -36.613281 73 136 "/>
<path style=" stroke:none;fill-rule:nonzero;fill:rgb(60.4%,12%,100%);fill-opacity:0.18;" d="M 713 136 C 514.304688 101.894531 354.539062 -36.613281 73 136 "/>
<path style=" stroke:none;fill-rule:nonzero;fill:rgb(84.05%,13%,100%);fill-opacity:0.03;" d="M 713 136 C 514.304688 101.894531 354.539062 -36.613281 73 136 "/>
<path style=" stroke:none;fill-rule:nonzero;fill:rgb(81.5%,26%,100%);fill-opacity:0.16;" d="M 713 136 C 514.304688 101.894531 354.539062 -36.613281 73 136 "/>
<path style=" stroke:none;fill-rule:nonzero;fill:rgb(78.4%,28%,100%);fill-opacity:0.13;" d="M 713 136 C 514.304688 101.894531 354.539062 -36.613281 73 136 "/>
<path style=" stroke:none;fill-rule:nonzero;fill:rgb(79.466667%,23%,100%);fill-opacity:0.09;" d="M 713 136 C 514.304688 101.894531 354.539062 -36.613281 73 136 "/>
<path style=" stroke:none;fill-rule:nonzero;fill:rgb(69.933333%,18%,100%);fill-opacity:0.01;" d="M 713 136 C 514.304688 101.894531 354.539062 -36.613281 73 136 "/>
<path style=" stroke:none;fill-rule:nonzero;fill:rgb(63.6%,22%,100%);fill-opacity:0.2;" d="M 713 136 C 514.304688 101.894531 354.539062 -36.613281 73 136 "/>
<path style=" stroke:none;fill-rule:nonzero;fill:rgb(65.416667%,17%,100%);fill-opacity:0.19;" d="M 713 136 C 514.304688 101.894531 354.539062 -36.613281 73 136 "/>
<path style=" stroke:none;fill-rule:nonzero;fill:rgb(81.15%,13%,100%);fill-opacity:0.07;" d="M 713 136 C 514.304688 101.894531 354.539062 -36.613281 73 136 "/>
<path style=" stroke:none;fill-rule:nonzero;fill:rgb(75.5%,30%,100%);fill-opacity:0.17;" d="M 713 136 C 514.304688 101.894531 354.539062 -36.613281 73 136 "/>
<path style=" stroke:none;fill-rule:nonzero;fill:rgb(68.1%,13%,100%);fill-opacity:0.18;" d="M 713 136 C 514.304688 101.894531 354.539062 -36.613281 73 136 "/>
<path style=" stroke:none;fill-rule:nonzero;fill:rgb(69.666667%,30%,100%);fill-opacity:0.15;" d="M 713 136 C 514.304688 101.894531 354.539062 -36.613281 73 136 "/>
<path style=" stroke:none;fill-rule:nonzero;fill:rgb(70%,28%,100%);fill-opacity:0.06;" d="M 713 136 C 514.304688 101.894531 354.539062 -36.613281 73 136 "/>
<path style=" stroke:none;fill-rule:nonzero;fill:rgb(73.083333%,15%,100%);fill-opacity:0.19;" d="M 713 136 C 514.304688 101.894531 354.539062 -36.613281 73 136 "/>
<path style=" stroke:none;fill-rule:nonzero;fill:rgb(83.433333%,29%,100%);fill-opacity:0.15;" d="M 713 136 C 514.304688 101.894531 354.539062 -36.613281 73 136 "/>
<path style=" stroke:none;fill-rule:nonzero;fill:rgb(86.8%,28%,100%);fill-opacity:0.16;" d="M 713 136 C 514.304688 101.894531 354.539062 -36.613281 73 136 "/>
<path style=" stroke:none;fill-rule:nonzero;fill:rgb(58.933333%,12%,100%);fill-opacity:0.14;" d="M 713 136 C 514.304688 101.894531 354.539062 -36.613281 73 136 "/>
<path style=" stroke:none;fill-rule:nonzero;fill:rgb(77.066667%,14%,100%);fill-opacity:0.18;" d="M 713 136 C 514.304688 101.894531 354.539062 -36.613281 73 136 "/>
<path style=" stroke:none;fill-rule:nonzero;fill:rgb(79.033333%,26%,100%);fill-opacity:0.09;" d="M 713 136 C 514.304688 101.894531 354.539062 -36.613281 73 136 M 59 106 C -23.0625 96.9375 604.375 152.882812 699 106 "/>
<path style=" stroke:none;fill-rule:nonzero;fill:rgb(87%,22%,100%);fill-opacity:0.07;" d="M 59 106 C -23.0625 96.9375 604.375 152.882812 699 106 "/>
<path style=" stroke:none;fill-rule:nonzero;fill:rgb(64.8%,12%,100%);fill-opacity:0.17;" d="M 59 106 C -23.0625 96.9375 604.375 152.882812 699 106 "/>
<path style=" stroke:none;fill-rule:nonzero;fill:rgb(81.583333%,15%,100%);fill-opacity:0.1;" d="M 59 106 C -23.0625 96.9375 604.375 152.882812 699 106 "/>
<path style=" stroke:none;fill-rule:nonzero;fill:rgb(67.2%,18%,100%);fill-opacity:0.18;" d="M 59 106 C -23.0625 96.9375 604.375 152.882812 699 106 "/>
<path style=" stroke:none;fill-rule:nonzero;fill:rgb(80.166667%,30%,100%);fill-opacity:0.1;" d="M 59 106 C -23.0625 96.9375 604.375 152.882812 699 106 "/>
<path style=" stroke:none;fill-rule:nonzero;fill:rgb(84.966667%,18%,100%);fill-opacity:0.17;" d="M 59 106 C -23.0625 96.9375 604.375 152.882812 699 106 "/>
<path style=" stroke:none;fill-rule:nonzero;fill:rgb(81.566667%,21%,100%);fill-opacity:0.2;" d="M 59 106 C -23.0625 96.9375 604.375 152.882812 699 106 "/>
<path style=" stroke:none;fill-rule:nonzero;fill:rgb(85.7%,22%,100%);fill-opacity:0.08;" d="M 59 106 C -23.0625 96.9375 604.375 152.882812 699 106 "/>
<path style=" stroke:none;fill-rule:nonzero;fill:rgb(58.466667%,11%,100%);fill-opacity:0.2;" d="M 59 106 C -23.0625 96.9375 604.375 152.882812 699 106 "/>
<path style=" stroke:none;fill-rule:nonzero;fill:rgb(80.75%,23%,100%);fill-opacity:0.14;" d="M 59 106 C -23.0625 96.9375 604.375 152.882812 699 106 "/>
<path style=" stroke:none;fill-rule:nonzero;fill:rgb(86%,30%,100%);fill-opacity:0.03;" d="M 59 106 C -23.0625 96.9375 604.375 152.882812 699 106 "/>
<path style=" stroke:none;fill-rule:nonzero;fill:rgb(80%,25%,100%);fill-opacity:0.05;" d="M 59 106 C -23.0625 96.9375 604.375 152.882812 699 106 "/>
<path style=" stroke:none;fill-rule:nonzero;fill:rgb(75.333333%,26%,100%);fill-opacity:0.01;" d="M 59 106 C -23.0625 96.9375 604.375 152.882812 699 106 "/>
<path style=" stroke:none;fill-rule:nonzero;fill:rgb(65%,16%,100%);fill-opacity:0.06;" d="M 59 106 C -23.0625 96.9375 604.375 152.882812 699 106 "/>
<path style=" stroke:none;fill-rule:nonzero;fill:rgb(68.466667%,14%,100%);fill-opacity:0.11;" d="M 59 106 C -23.0625 96.9375 604.375 152.882812 699 106 "/>
<path style=" stroke:none;fill-rule:nonzero;fill:rgb(79.6%,28%,100%);fill-opacity:0.17;" d="M 59 106 C -23.0625 96.9375 604.375 152.882812 699 106 "/>
<path style=" stroke:none;fill-rule:nonzero;fill:rgb(63.55%,19%,100%);fill-opacity:0.1;" d="M 59 106 C -23.0625 96.9375 604.375 152.882812 699 106 "/>
<path style=" stroke:none;fill-rule:nonzero;fill:rgb(60.85%,13%,100%);fill-opacity:0.09;" d="M 59 106 C -23.0625 96.9375 604.375 152.882812 699 106 "/>
<path style=" stroke:none;fill-rule:nonzero;fill:rgb(74.666667%,20%,100%);fill-opacity:0.09;" d="M 59 106 C -23.0625 96.9375 604.375 152.882812 699 106 "/>
<path style=" stroke:none;fill-rule:nonzero;fill:rgb(73.4%,16%,100%);fill-opacity:0.12;" d="M 59 106 C -23.0625 96.9375 604.375 152.882812 699 106 M 699 106 C 407.367188 37.714844 64.582031 104.574219 59 106 "/>
<path style=" stroke:none;fill-rule:nonzero;fill:rgb(72.766667%,14%,100%);fill-opacity:0.01;" d="M 699 106 C 407.367188 37.714844 64.582031 104.574219 59 106 "/>
<path style=" stroke:none;fill-rule:nonzero;fill:rgb(62.733333%,14%,100%);fill-opacity:0.1;" d="M 699 106 C 407.367188 37.714844 64.582031 104.574219 59 106 "/>
<path style=" stroke:none;fill-rule:nonzero;fill:rgb(68.75%,25%,100%);fill-opacity:0.12;" d="M 699 106 C 407.367188 37.714844 64.582031 104.574219 59 106 "/>
<path style=" stroke:none;fill-rule:nonzero;fill:rgb(66.7%,26%,100%);fill-opacity:0.19;" d="M 699 106 C 407.367188 37.714844 64.582031 104.574219 59 106 "/>
<path style=" stroke:none;fill-rule:nonzero;fill:rgb(78.1%,27%,100%);fill-opacity:0.15;" d="M 699 106 C 407.367188 37.714844 64.582031 104.574219 59 106 "/>
<path style=" stroke:none;fill-rule:nonzero;fill:rgb(72.866667%,26%,100%);fill-opacity:0.1;" d="M 699 106 C 407.367188 37.714844 64.582031 104.574219 59 106 "/>
<path style=" stroke:none;fill-rule:nonzero;fill:rgb(66.25%,19%,100%);fill-opacity:0.08;" d="M 699 106 C 407.367188 37.714844 64.582031 104.574219 59 106 "/>
<path style=" stroke:none;fill-rule:nonzero;fill:rgb(66.4%,16%,100%);fill-opacity:0.09;" d="M 699 106 C 407.367188 37.714844 64.582031 104.574219 59 106 "/>
<path style=" stroke:none;fill-rule:nonzero;fill:rgb(65.466667%,26%,100%);fill-opacity:0.15;" d="M 699 106 C 407.367188 37.714844 64.582031 104.574219 59 106 "/>
<path style=" stroke:none;fill-rule:nonzero;fill:rgb(71.816667%,11%,100%);fill-opacity:0.14;" d="M 699 106 C 407.367188 37.714844 64.582031 104.574219 59 106 "/>
<path style=" stroke:none;fill-rule:nonzero;fill:rgb(71.333333%,14%,100%);fill-opacity:0.17;" d="M 699 106 C 407.367188 37.714844 64.582031 104.574219 59 106 "/>
<path style=" stroke:none;fill-rule:nonzero;fill:rgb(66.2%,22%,100%);fill-opacity:0.1;" d="M 699 106 C 407.367188 37.714844 64.582031 104.574219 59 106 "/>
<path style=" stroke:none;fill-rule:nonzero;fill:rgb(75.5%,30%,100%);fill-opacity:0.02;" d="M 699 106 C 407.367188 37.714844 64.582031 104.574219 59 106 "/>
<path style=" stroke:none;fill-rule:nonzero;fill:rgb(60.333333%,15%,100%);fill-opacity:0.19;" d="M 699 106 C 407.367188 37.714844 64.582031 104.574219 59 106 "/>
<path style=" stroke:none;fill-rule:nonzero;fill:rgb(81.333333%,20%,100%);fill-opacity:0.14;" d="M 699 106 C 407.367188 37.714844 64.582031 104.574219 59 106 "/>
<path style=" stroke:none;fill-rule:nonzero;fill:rgb(67.083333%,21%,100%);fill-opacity:0.17;" d="M 699 106 C 407.367188 37.714844 64.582031 104.574219 59 106 "/>
<path style=" stroke:none;fill-rule:nonzero;fill:rgb(80.166667%,30%,100%);fill-opacity:0.12;" d="M 699 106 C 407.367188 37.714844 64.582031 104.574219 59 106 "/>
<path style=" stroke:none;fill-rule:nonzero;fill:rgb(74.8%,16%,100%);fill-opacity:0.17;" d="M 699 106 C 407.367188 37.714844 64.582031 104.574219 59 106 "/>
<path style=" stroke:none;fill-rule:nonzero;fill:rgb(62%,24%,100%);fill-opacity:0.2;" d="M 699 106 C 407.367188 37.714844 64.582031 104.574219 59 106 "/>
<path style=" stroke:none;fill-rule:nonzero;fill:rgb(83.316667%,23%,100%);fill-opacity:0.04;" d="M 699 106 C 407.367188 37.714844 64.582031 104.574219 59 106 M 88 100 C -48.691406 54.703125 772.75 82.640625 728 100 "/>
<path style=" stroke:none;fill-rule:nonzero;fill:rgb(84.2%,21%,100%);fill-opacity:0.1;" d="M 88 100 C -48.691406 54.703125 772.75 82.640625 728 100 "/>
<path style=" stroke:none;fill-rule:nonzero;fill:rgb(74.8%,16%,100%);fill-opacity:0.08;" d="M 88 100 C -48.691406 54.703125 772.75 82.640625 728 100 "/>
<path style=" stroke:none;fill-rule:nonzero;fill:rgb(81.333333%,20%,100%);fill-opacity:0.19;" d="M 88 100 C -48.691406 54.703125 772.75 82.640625 728 100 "/>
<path style=" stroke:none;fill-rule:nonzero;fill:rgb(68.5%,10%,100%);fill-opacity:0.03;" d="M 88 100 C -48.691406 54.703125 772.75 82.640625 728 100 "/>
<path style=" stroke:none;fill-rule:nonzero;fill:rgb(60.366667%,18%,100%);fill-opacity:0.04;" d="M 88 100 C -48.691406 54.703125 772.75 82.640625 728 100 "/>
<path style=" stroke:none;fill-rule:nonzero;fill:rgb(70.6%,16%,100%);fill-opacity:0.14;" d="M 88 100 C -48.691406 54.703125 772.75 82.640625 728 100 "/>
<path style=" stroke:none;fill-rule:nonzero;fill:rgb(78.183333%,23%,100%);fill-opacity:0.16;" d="M 88 100 C -48.691406 54.703125 772.75 82.640625 728 100 "/>
<path style=" stroke:none;fill-rule:nonzero;fill:rgb(73.75%,25%,100%);fill-opacity:0.19;" d="M 88 100 C -48.691406 54.703125 772.75 82.640625 728 100 "/>
<path style=" stroke:none;fill-rule:nonzero;fill:rgb(65.466667%,26%,100%);fill-opacity:0.07;" d="M 88 100 C -48.691406 54.703125 772.75 82.640625 728 100 "/>
<path style=" stroke:none;fill-rule:nonzero;fill:rgb(58.5%,17%,100%);fill-opacity:0.16;" d="M 88 100 C -48.691406 54.703125 772.75 82.640625 728 100 "/>
<path style=" stroke:none;fill-rule:nonzero;fill:rgb(68.366667%,27%,100%);fill-opacity:0.04;" d="M 88 100 C -48.691406 54.703125 772.75 82.640625 728 100 "/>
<path style=" stroke:none;fill-rule:nonzero;fill:rgb(82.883333%,21%,100%);fill-opacity:0.14;" d="M 88 100 C -48.691406 54.703125 772.75 82.640625 728 100 "/>
<path style=" stroke:none;fill-rule:nonzero;fill:rgb(60.85%,13%,100%);fill-opacity:0.09;" d="M 88 100 C -48.691406 54.703125 772.75 82.640625 728 100 "/>
<path style=" stroke:none;fill-rule:nonzero;fill:rgb(72.45%,13%,100%);fill-opacity:0.15;" d="M 88 100 C -48.691406 54.703125 772.75 82.640625 728 100 "/>
<path style=" stroke:none;fill-rule:nonzero;fill:rgb(80.166667%,15%,100%);fill-opacity:0.2;" d="M 88 100 C -48.691406 54.703125 772.75 82.640625 728 100 "/>
<path style=" stroke:none;fill-rule:nonzero;fill:rgb(84.833333%,30%,100%);fill-opacity:0.06;" d="M 88 100 C -48.691406 54.703125 772.75 82.640625 728 100 "/>
<path style=" stroke:none;fill-rule:nonzero;fill:rgb(75.066667%,12%,100%);fill-opacity:0.07;" d="M 88 100 C -48.691406 54.703125 772.75 82.640625 728 100 "/>
<path style=" stroke:none;fill-rule:nonzero;fill:rgb(74.666667%,20%,100%);fill-opacity:0.02;" d="M 88 100 C -48.691406 54.703125 772.75 82.640625 728 100 "/>
<path style=" stroke:none;fill-rule:nonzero;fill:rgb(69.2%,12%,100%);fill-opacity:0.12;" d="M 88 100 C -48.691406 54.703125 772.75 82.640625 728 100 M 728 100 C 632.328125 71.449219 16.398438 127.773438 88 100 "/>
<path style=" stroke:none;fill-rule:nonzero;fill:rgb(81.066667%,29%,100%);fill-opacity:0.12;" d="M 728 100 C 632.328125 71.449219 16.398438 127.773438 88 100 "/>
<path style=" stroke:none;fill-rule:nonzero;fill:rgb(81%,24%,100%);fill-opacity:0.2;" d="M 728 100 C 632.328125 71.449219 16.398438 127.773438 88 100 "/>
<path style=" stroke:none;fill-rule:nonzero;fill:rgb(77.8%,26%,100%);fill-opacity:0.08;" d="M 728 100 C 632.328125 71.449219 16.398438 127.773438 88 100 "/>
<path style=" stroke:none;fill-rule:nonzero;fill:rgb(61.433333%,11%,100%);fill-opacity:0.01;" d="M 728 100 C 632.328125 71.449219 16.398438 127.773438 88 100 "/>
<path style=" stroke:none;fill-rule:nonzero;fill:rgb(85.15%,19%,100%);fill-opacity:0.11;" d="M 728 100 C 632.328125 71.449219 16.398438 127.773438 88 100 "/>
<path style=" stroke:none;fill-rule:nonzero;fill:rgb(85.883333%,23%,100%);fill-opacity:0.07;" d="M 728 100 C 632.328125 71.449219 16.398438 127.773438 88 100 "/>
<path style=" stroke:none;fill-rule:nonzero;fill:rgb(65.766667%,21%,100%);fill-opacity:0.17;" d="M 728 100 C 632.328125 71.449219 16.398438 127.773438 88 100 "/>
<path style=" stroke:none;fill-rule:nonzero;fill:rgb(86.166667%,17%,100%);fill-opacity:0.14;" d="M 728 100 C 632.328125 71.449219 16.398438 127.773438 88 100 "/>
<path style=" stroke:none;fill-rule:nonzero;fill:rgb(79%,10%,100%);fill-opacity:0.16;" d="M 728 100 C 632.328125 71.449219 16.398438 127.773438 88 100 "/>
<path style=" stroke:none;fill-rule:nonzero;fill:rgb(72.7%,22%,100%);fill-opacity:0.13;" d="M 728 100 C 632.328125 71.449219 16.398438 127.773438 88 100 "/>
<path style=" stroke:none;fill-rule:nonzero;fill:rgb(69.933333%,18%,100%);fill-opacity:0.01;" d="M 728 100 C 632.328125 71.449219 16.398438 127.773438 88 100 "/>
<path style=" stroke:none;fill-rule:nonzero;fill:rgb(86.616667%,27%,100%);fill-opacity:0.2;" d="M 728 100 C 632.328125 71.449219 16.398438 127.773438 88 100 "/>
<path style=" stroke:none;fill-rule:nonzero;fill:rgb(79.5%,18%,100%);fill-opacity:0.05;" d="M 728 100 C 632.328125 71.449219 16.398438 127.773438 88 100 "/>
<path style=" stroke:none;fill-rule:nonzero;fill:rgb(65.833333%,18%,100%);fill-opacity:0.07;" d="M 728 100 C 632.328125 71.449219 16.398438 127.773438 88 100 "/>
<path style=" stroke:none;fill-rule:nonzero;fill:rgb(85.333333%,12%,100%);fill-opacity:0.09;" d="M 728 100 C 632.328125 71.449219 16.398438 127.773438 88 100 "/>
<path style=" stroke:none;fill-rule:nonzero;fill:rgb(76.566667%,26%,100%);fill-opacity:0.17;" d="M 728 100 C 632.328125 71.449219 16.398438 127.773438 88 100 "/>
<path style=" stroke:none;fill-rule:nonzero;fill:rgb(84.4%,28%,100%);fill-opacity:0.1;" d="M 728 100 C 632.328125 71.449219 16.398438 127.773438 88 100 "/>
<path style=" stroke:none;fill-rule:nonzero;fill:rgb(78.25%,13%,100%);fill-opacity:0.19;" d="M 728 100 C 632.328125 71.449219 16.398438 127.773438 88 100 M 100 120 C 434.613281 167.15625 884.960938 37 740 120 "/>
<path style=" stroke:none;fill-rule:nonzero;fill:rgb(60.5%,21%,100%);fill-opacity:0.08;" d="M 100 120 C 434.613281 167.15625 884.960938 37 740 120 "/>
<path style=" stroke:none;fill-rule:nonzero;fill:rgb(69.6%,24%,100%);fill-opacity:0.17;" d="M 100 120 C 434.613281 167.15625 884.960938 37 740 120 "/>
<path style=" stroke:none;fill-rule:nonzero;fill:rgb(80.933333%,12%,100%);fill-opacity:0.18;" d="M 100 120 C 434.613281 167.15625 884.960938 37 740 120 "/>
<path style=" stroke:none;fill-rule:nonzero;fill:rgb(56.5%,13%,100%);fill-opacity:0.09;" d="M 100 120 C 434.613281 167.15625 884.960938 37 740 120 "/>
<path style=" stroke:none;fill-rule:nonzero;fill:rgb(84.8%,24%,100%);fill-opacity:0.18;" d="M 100 120 C 434.613281 167.15625 884.960938 37 740 120 "/>
<path style=" stroke:none;fill-rule:nonzero;fill:rgb(71.65%,19%,100%);fill-opacity:0.11;" d="M 100 120 C 434.613281 167.15625 884.960938 37 740 120 "/>
<path style=" stroke:none;fill-rule:nonzero;fill:rgb(65%,16%,100%);fill-opacity:0.02;" d="M 100 120 C 434.613281 167.15625 884.960938 37 740 120 "/>
<path style=" stroke:none;fill-rule:nonzero;fill:rgb(78.75%,15%,100%);fill-opacity:0.15;" d="M 100 120 C 434.613281 167.15625 884.960938 37 740 120 "/>
<path style=" stroke:none;fill-rule:nonzero;fill:rgb(74.333333%,30%,100%);fill-opacity:0.06;" d="M 100 120 C 434.613281 167.15625 884.960938 37 740 120 "/>
<path style=" stroke:none;fill-rule:nonzero;fill:rgb(80.866667%,18%,100%);fill-opacity:0.2;" d="M 100 120 C 434.613281 167.15625 884.960938 37 740 120 "/>
<path style=" stroke:none;fill-rule:nonzero;fill:rgb(82.6%,13%,100%);fill-opacity:0.07;" d="M 100 120 C 434.613281 167.15625 884.960938 37 740 120 "/>
<path style=" stroke:none;fill-rule:nonzero;fill:rgb(84.966667%,18%,100%);fill-opacity:0.09;" d="M 100 120 C 434.613281 167.15625 884.960938 37 740 120 "/>
<path style=" stroke:none;fill-rule:nonzero;fill:rgb(71.816667%,11%,100%);fill-opacity:0.18;" d="M 100 120 C 434.613281 167.15625 884.960938 37 740 120 "/>
<path style=" stroke:none;fill-rule:nonzero;fill:rgb(67.15%,27%,100%);fill-opacity:0.05;" d="M 100 120 C 434.613281 167.15625 884.960938 37 740 120 "/>
<path style=" stroke:none;fill-rule:nonzero;fill:rgb(76.666667%,30%,100%);fill-opacity:0.03;" d="M 100 120 C 434.613281 167.15625 884.960938 37 740 120 "/>
<path style=" stroke:none;fill-rule:nonzero;fill:rgb(61.333333%,20%,100%);fill-opacity:0.04;" d="M 100 120 C 434.613281 167.15625 884.960938 37 740 120 "/>
<path style=" stroke:none;fill-rule:nonzero;fill:rgb(85.8%,29%,100%);fill-opacity:0.11;" d="M 100 120 C 434.613281 167.15625 884.960938 37 740 120 "/>
<path style=" stroke:none;fill-rule:nonzero;fill:rgb(80.25%,21%,100%);fill-opacity:0.02;" d="M 100 120 C 434.613281 167.15625 884.960938 37 740 120 M 740 120 C 845.761719 148.136719 -62.894531 183.179688 100 120 "/>
<path style=" stroke:none;fill-rule:nonzero;fill:rgb(74.333333%,30%,100%);fill-opacity:0.12;" d="M 740 120 C 845.761719 148.136719 -62.894531 183.179688 100 120 "/>
<path style=" stroke:none;fill-rule:nonzero;fill:rgb(83.1%,22%,100%);fill-opacity:0.15;" d="M 740 120 C 845.761719 148.136719 -62.894531 183.179688 100 120 "/>
<path style=" stroke:none;fill-rule:nonzero;fill:rgb(70.1%,22%,100%);fill-opacity:0.15;" d="M 740 120 C 845.761719 148.136719 -62.894531 183.179688 100 120 "/>
<path style=" stroke:none;fill-rule:nonzero;fill:rgb(73.6%,12%,100%);fill-opacity:0.08;" d="M 740 120 C 845.761719 148.136719 -62.894531 183.179688 100 120 "/>
<path style=" stroke:none;fill-rule:nonzero;fill:rgb(63.6%,16%,100%);fill-opacity:0.17;" d="M 740 120 C 845.761719 148.136719 -62.894531 183.179688 100 120 "/>
<path style=" stroke:none;fill-rule:nonzero;fill:rgb(61.816667%,21%,100%);fill-opacity:0.08;" d="M 740 120 C 845.761719 148.136719 -62.894531 183.179688 100 120 "/>
<path style=" stroke:none;fill-rule:nonzero;fill:rgb(84.8%,24%,100%);fill-opacity:0.14;" d="M 740 120 C 845.761719 148.136719 -62.894531 183.179688 100 120 "/>
<path style=" stroke:none;fill-rule:nonzero;fill:rgb(56.983333%,11%,100%);fill-opacity:0.13;" d="M 740 120 C 845.761719 148.136719 -62.894531 183.179688 100 120 "/>
<path style=" stroke:none;fill-rule:nonzero;fill:rgb(65.333333%,20%,100%);fill-opacity:0.06;" d="M 740 120 C 845.761719 148.136719 -62.894531 183.179688 100 120 "/>
<path style=" stroke:none;fill-rule:nonzero;fill:rgb(82.8%,14%,100%);fill-opacity:0.08;" d="M 740 120 C 845.761719 148.136719 -62.894531 183.179688 100 120 "/>
<path style=" stroke:none;fill-rule:nonzero;fill:rgb(67.066667%,24%,100%);fill-opacity:0.12;" d="M 740 120 C 845.761719 148.136719 -62.894531 183.179688 100 120 "/>
<path style=" stroke:none;fill-rule:nonzero;fill:rgb(75.7%,19%,100%);fill-opacity:0.2;" d="M 740 120 C 845.761719 148.136719 -62.894531 183.179688 100 120 "/>
<path style=" stroke:none;fill-rule:nonzero;fill:rgb(82.033333%,23%,100%);fill-opacity:0.13;" d="M 740 120 C 845.761719 148.136719 -62.894531 183.179688 100 120 "/>
<path style=" stroke:none;fill-rule:nonzero;fill:rgb(87.666667%,26%,100%);fill-opacity:0.13;" d="M 740 120 C 845.761719 148.136719 -62.894531 183.179688 100 120 "/>
<path style=" stroke:none;fill-rule:nonzero;fill:rgb(64.583333%,15%,100%);fill-opacity:0.02;" d="M 740 120 C 845.761719 148.136719 -62.894531 183.179688 100 120 "/>
<path style=" stroke:none;fill-rule:nonzero;fill:rgb(70.1%,22%,100%);fill-opacity:0.16;" d="M 740 120 C 845.761719 148.136719 -62.894531 183.179688 100 120 "/>
<path style=" stroke:none;fill-rule:nonzero;fill:rgb(86.666667%,20%,100%);fill-opacity:0.09;" d="M 740 120 C 845.761719 148.136719 -62.894531 183.179688 100 120 "/>
<path style=" stroke:none;fill-rule:nonzero;fill:rgb(57.95%,13%,100%);fill-opacity:0.09;" d="M 740 120 C 845.761719 148.136719 -62.894531 183.179688 100 120 "/>
<path style=" stroke:none;fill-rule:nonzero;fill:rgb(70.3%,19%,100%);fill-opacity:0.08;" d="M 740 120 C 845.761719 148.136719 -62.894531 183.179688 100 120 M 96 127 C 314.722656 178.210938 542.25 182.714844 736 127 "/>
<path style=" stroke:none;fill-rule:nonzero;fill:rgb(86.666667%,20%,100%);fill-opacity:0.03;" d="M 96 127 C 314.722656 178.210938 542.25 182.714844 736 127 "/>
<path style=" stroke:none;fill-rule:nonzero;fill:rgb(86.433333%,26%,100%);fill-opacity:0.12;" d="M 96 127 C 314.722656 178.210938 542.25 182.714844 736 127 "/>
<path style=" stroke:none;fill-rule:nonzero;fill:rgb(68.5%,10%,100%);fill-opacity:0.14;" d="M 96 127 C 314.722656 178.210938 542.25 182.714844 736 127 "/>
<path style=" stroke:none;fill-rule:nonzero;fill:rgb(77.6%,16%,100%);fill-opacity:0.08;" d="M 96 127 C 314.722656 178.210938 542.25 182.714844 736 127 "/>
<path style=" stroke:none;fill-rule:nonzero;fill:rgb(77.616667%,21%,100%);fill-opacity:0.15;" d="M 96 127 C 314.722656 178.210938 542.25 182.714844 736 127 "/>
<path style=" stroke:none;fill-rule:nonzero;fill:rgb(68%,20%,100%);fill-opacity:0.09;" d="M 96 127 C 314.722656 178.210938 542.25 182.714844 736 127 "/>
<path style=" stroke:none;fill-rule:nonzero;fill:rgb(55%,10%,100%);fill-opacity:0.18;" d="M 96 127 C 314.722656 178.210938 542.25 182.714844 736 127 "/>
<path style=" stroke:none;fill-rule:nonzero;fill:rgb(71.5%,10%,100%);fill-opacity:0.11;" d="M 96 127 C 314.722656 178.210938 542.25 182.714844 736 127 "/>
<path style=" stroke:none;fill-rule:nonzero;fill:rgb(63.1%,18%,100%);fill-opacity:0.1;" d="M 96 127 C 314.722656 178.210938 542.25 182.714844 736 127 "/>
<path style=" stroke:none;fill-rule:nonzero;fill:rgb(83.533333%,24%,100%);fill-opacity:0.07;" d="M 96 127 C 314.722656 178.210938 542.25 182.714844 736 127 "/>
<path style=" stroke:none;fill-rule:nonzero;fill:rgb(77.05%,19%,100%);fill-opacity:0.02;" d="M 96 127 C 314.722656 178.210938 542.25 182.714844 736 127 "/>
<path style=" stroke:none;fill-rule:nonzero;fill:rgb(82.6%,13%,100%);fill-opacity:0.08;" d="M 96 127 C 314.722656 178.210938 542.25 182.714844 736 127 "/>
<path style=" stroke:none;fill-rule:nonzero;fill:rgb(71.033333%,21%,100%);fill-opacity:0.09;" d="M 96 127 C 314.722656 178.210938 542.25 182.714844 736 127 "/>
<path style=" stroke:none;fill-rule:nonzero;fill:rgb(68.1%,13%,100%);fill-opacity:0.11;" d="M 96 127 C 314.722656 178.210938 542.25 182.714844 736 127 "/>
<path style=" stroke:none;fill-rule:nonzero;fill:rgb(81.8%,22%,100%);fill-opacity:0.02;" d="M 96 127 C 314.722656 178.210938 542.25 182.714844 736 127 "/>
<path style=" stroke:none;fill-rule:nonzero;fill:rgb(75.916667%,15%,100%);fill-opacity:0.13;" d="M 96 127 C 314.722656 178.210938 542.25 182.714844 736 127 "/>
<path style=" stroke:none;fill-rule:nonzero;fill:rgb(56.5%,13%,100%);fill-opacity:0.19;" d="M 96 127 C 314.722656 178.210938 542.25 182.714844 736 127 "/>
<path style=" stroke:none;fill-rule:nonzero;fill:rgb(72.45%,13%,100%);fill-opacity:0.2;" d="M 96 127 C 314.722656 178.210938 542.25 182.714844 736 127 "/>
<path style=" stroke:none;fill-rule:nonzero;fill:rgb(68.833333%,15%,100%);fill-opacity:0.1;" d="M 96 127 C 314.722656 178.210938 542.25 182.714844 736 127 "/>
<path style=" stroke:none;fill-rule:nonzero;fill:rgb(71.033333%,21%,100%);fill-opacity:0.16;" d="M 96 127 C 314.722656 178.210938 542.25 182.714844 736 127 M 736 127 C 583.851562 86.523438 218.023438 75.410156 96 127 "/>
<path style=" stroke:none;fill-rule:nonzero;fill:rgb(64.8%,12%,100%);fill-opacity:0.08;" d="M 736 127 C 583.851562 86.523438 218.023438 75.410156 96 127 "/>
<path style=" stroke:none;fill-rule:nonzero;fill:rgb(77.75%,11%,100%);fill-opacity:0.19;" d="M 736 127 C 583.851562 86.523438 218.023438 75.410156 96 127 "/>
<path style=" stroke:none;fill-rule:nonzero;fill:rgb(66.8%,17%,100%);fill-opacity:0.17;" d="M 736 127 C 583.851562 86.523438 218.023438 75.410156 96 127 "/>
<path style=" stroke:none;fill-rule:nonzero;fill:rgb(77.5%,25%,100%);fill-opacity:0.18;" d="M 736 127 C 583.851562 86.523438 218.023438 75.410156 96 127 "/>
<path style=" stroke:none;fill-rule:nonzero;fill:rgb(70.833333%,30%,100%);fill-opacity:0.18;" d="M 736 127 C 583.851562 86.523438 218.023438 75.410156 96 127 "/>
<path style=" stroke:none;fill-rule:nonzero;fill:rgb(68.4%,21%,100%);fill-opacity:0.19;" d="M 736 127 C 583.851562 86.523438 218.023438 75.410156 96 127 "/>
<path style=" stroke:none;fill-rule:nonzero;fill:rgb(68.95%,19%,100%);fill-opacity:0.04;" d="M 736 127 C 583.851562 86.523438 218.023438 75.410156 96 127 "/>
<path style=" stroke:none;fill-rule:nonzero;fill:rgb(85.15%,19%,100%);fill-opacity:0.17;" d="M 736 127 C 583.851562 86.523438 218.023438 75.410156 96 127 "/>
<path style=" stroke:none;fill-rule:nonzero;fill:rgb(65.8%,24%,100%);fill-opacity:0.01;" d="M 736 127 C 583.851562 86.523438 218.023438 75.410156 96 127 "/>
<path style=" stroke:none;fill-rule:nonzero;fill:rgb(63.55%,19%,100%);fill-opacity:0.19;" d="M 736 127 C 583.851562 86.523438 218.023438 75.410156 96 127 "/>
<path style=" stroke:none;fill-rule:nonzero;fill:rgb(69.666667%,30%,100%);fill-opacity:0.17;" d="M 736 127 C 583.851562 86.523438 218.023438 75.410156 96 127 "/>
<path style=" stroke:none;fill-rule:nonzero;fill:rgb(82.733333%,26%,100%);fill-opacity:0.04;" d="M 736 127 C 583.851562 86.523438 218.023438 75.410156 96 127 "/>
<path style=" stroke:none;fill-rule:nonzero;fill:rgb(69.9%,14%,100%);fill-opacity:0.16;" d="M 736 127 C 583.851562 86.523438 218.023438 75.410156 96 127 "/>
<path style=" stroke:none;fill-rule:nonzero;fill:rgb(59.4%,16%,100%);fill-opacity:0.1;" d="M 736 127 C 583.851562 86.523438 218.023438 75.410156 96 127 "/>
<path style=" stroke:none;fill-rule:nonzero;fill:rgb(61.866667%,12%,100%);fill-opacity:0.01;" d="M 736 127 C 583.851562 86.523438 218.023438 75.410156 96 127 "/>
<path style=" stroke:none;fill-rule:nonzero;fill:rgb(77.6%,16%,100%);fill-opacity:0.13;" d="M 736 127 C 583.851562 86.523438 218.023438 75.410156 96 127 "/>
<path style=" stroke:none;fill-rule:nonzero;fill:rgb(81%,24%,100%);fill-opacity:0.12;" d="M 736 127 C 583.851562 86.523438 218.023438 75.410156 96 127 "/>
<path style=" stroke:none;fill-rule:nonzero;fill:rgb(80.533333%,27%,100%);fill-opacity:0.03;" d="M 736 127 C 583.851562 86.523438 218.023438 75.410156 96 127 "/>
</g>
</svg>
