<?xml version="1.0" encoding="UTF-8"?>
<svg xmlns="http://www.w3.org/2000/svg" xmlns:xlink="http://www.w3.org/1999/xlink" width="800pt" height="250pt" viewBox="0 0 800 250" version="1.1">
<g id="surface90">
<rect x="0" y="0" width="800" height="250" style="fill:rgb(100%,100%,100%);fill-opacity:1;stroke:none;"/>
<path style=" stroke:none;fill-rule:nonzero;fill:rgb(70.25%,15%,100%);fill-opacity:0.16;" d="M 89 124 C 393.839844 185.792969 775.507812 112.125 729 124 "/>
<path style=" stroke:none;fill-rule:nonzero;fill:rgb(66.25%,25%,100%);fill-opacity:0.15;" d="M 89 124 C 393.839844 185.792969 775.507812 112.125 729 124 "/>
<path style=" stroke:none;fill-rule:nonzero;fill:rgb(78.133333%,18%,100%);fill-opacity:0.14;" d="M 89 124 C 393.839844 185.792969 775.507812 112.125 729 124 "/>
<path style=" stroke:none;fill-rule:nonzero;fill:rgb(60.85%,13%,100%);fill-opacity:0.2;" d="M 89 124 C 393.839844 185.792969 775.507812 112.125 729 124 "/>
<path style=" stroke:none;fill-rule:nonzero;fill:rgb(65.466667%,26%,100%);fill-opacity:0.15;" d="M 89 124 C 393.839844 185.792969 775.507812 112.125 729 124 "/>
<path style=" stroke:none;fill-rule:nonzero;fill:rgb(85.833333%,15%,100%);fill-opacity:0.14;" d="M 89 124 C 393.839844 185.792969 775.507812 112.125 729 124 "/>
<path style=" stroke:none;fill-rule:nonzero;fill:rgb(63.6%,16%,100%);fill-opacity:0.02;" d="M 89 124 C 393.839844 185.792969 775.507812 112.125 729 124 "/>
<path style=" stroke:none;fill-rule:nonzero;fill:rgb(67.5%,22%,100%);fill-opacity:0.14;" d="M 89 124 C 393.839844 185.792969 775.507812 112.125 729 124 "/>
<path style=" stroke:none;fill-rule:nonzero;fill:rgb(67.15%,27%,100%);fill-opacity:0.04;" d="M 89 124 C 393.839844 185.792969 775.507812 112.125 729 124 "/>
<path style=" stroke:none;fill-rule:nonzero;fill:rgb(80.25%,21%,100%);fill-opacity:0.12;" d="M 89 124 C 393.839844 185.792969 775.507812 112.125 729 124 "/>
<path style=" stroke:none;fill-rule:nonzero;fill:rgb(75.933333%,24%,100%);fill-opacity:0.05;" d="M 89 124 C 393.839844 185.792969 775.507812 112.125 729 124 "/>
<path style=" stroke:none;fill-rule:nonzero;fill:rgb(58.433333%,14%,100%);fill-opacity:0.18;" d="M 89 124 C 393.839844 185.792969 775.507812 112.125 729 124 "/>
<path style=" stroke:none;fill-rule:nonzero;fill:rgb(64%,10%,100%);fill-opacity:0.03;" d="M 89 124 C 393.839844 185.792969 775.507812 112.125 729 124 "/>
<path style=" stroke:none;fill-rule:nonzero;fill:rgb(74.333333%,23%,100%);fill-opacity:0.02;" d="M 89 124 C 393.839844 185.792969 775.507812 112.125 729 124 "/>
<path style=" stroke:none;fill-rule:nonzero;fill:rgb(76.533333%,12%,100%);fill-opacity:0.2;" d="M 89 124 C 393.839844 185.792969 775.507812 112.125 729 124 "/>
<path style=" stroke:none;fill-rule:nonzero;fill:rgb(60.8%,16%,100%);fill-opacity:0.19;" d="M 89 124 C 393.839844 185.792969 775.507812 112.125 729 124 "/>
<path style=" stroke:none;fill-rule:nonzero;fill:rgb(74.783333%,11%,100%);fill-opacity:0.11;" d="M 89 124 C 393.839844 185.792969 775.507812 112.125 729 124 "/>
<path style=" stroke:none;fill-rule:nonzero;fill:rgb(65.333333%,20%,100%);fill-opacity:0.05;" d="M 89 124 C 393.839844 185.792969 775.507812 112.125 729 124 "/>
<path style=" stroke:none;fill-rule:nonzero;fill:rgb(84.616667%,29%,100%);fill-opacity:0.19;" d="M 89 124 C 393.839844 185.792969 775.507812 112.125 729 124 "/>
<path style=" stroke:none;fill-rule:nonzero;fill:rgb(63%,26%,100%);fill-opacity:0.1;" d="M 89 124 C 393.839844 185.792969 775.507812 112.125 729 124 M 729 124 C 841.917969 133.054688 247.773438 26.65625 89 124 "/>
<path style=" stroke:none;fill-rule:nonzero;fill:rgb(70.333333%,11%,100%);fill-opacity:0.09;" d="M 729 124 C 841.917969 133.054688 247.773438 26.65625 89 124 "/>
<path style=" stroke:none;fill-rule:nonzero;fill:rgb(81.15%,13%,100%);fill-opacity:0.16;" d="M 729 124 C 841.917969 133.054688 247.773438 26.65625 89 124 "/>
<path style=" stroke:none;fill-rule:nonzero;fill:rgb(80.866667%,18%,100%);fill-opacity:0.09;" d="M 729 124 C 841.917969 133.054688 247.773438 26.65625 89 124 "/>
<path style=" stroke:none;fill-rule:nonzero;fill:rgb(85.333333%,12%,100%);fill-opacity:0.08;" d="M 729 124 C 841.917969 133.054688 247.773438 26.65625 89 124 "/>
<path style=" stroke:none;fill-rule:nonzero;fill:rgb(65.35%,23%,100%);fill-opacity:0.11;" d="M 729 124 C 841.917969 133.054688 247.773438 26.65625 89 124 "/>
<path style=" stroke:none;fill-rule:nonzero;fill:rgb(75.633333%,14%,100%);fill-opacity:0.15;" d="M 729 124 C 841.917969 133.054688 247.773438 26.65625 89 124 "/>
<path style=" stroke:none;fill-rule:nonzero;fill:rgb(82.266667%,24%,100%);fill-opacity:0.19;" d="M 729 124 C 841.917969 133.054688 247.773438 26.65625 89 124 "/>
<path style=" stroke:none;fill-rule:nonzero;fill:rgb(88%,28%,100%);fill-opacity:0.14;" d="M 729 124 C 841.917969 133.054688 247.773438 26.65625 89 124 "/>
<path style=" stroke:none;fill-rule:nonzero;fill:rgb(71.633333%,26%,100%);fill-opacity:0.12;" d="M 729 124 C 841.917969 133.054688 247.773438 26.65625 89 124 "/>
<path style=" stroke:none;fill-rule:nonzero;fill:rgb(78.666667%,20%,100%);fill-opacity:0.14;" d="M 729 124 C 841.917969 133.054688 247.773438 26.65625 89 124 "/>
<path style=" stroke:none;fill-rule:nonzero;fill:rgb(80.266667%,26%,100%);fill-opacity:0.05;" d="M 729 124 C 841.917969 133.054688 247.773438 26.65625 89 124 "/>
<path style=" stroke:none;fill-rule:nonzero;fill:rgb(57%,14%,100%);fill-opacity:0.1;" d="M 729 124 C 841.917969 133.054688 247.773438 26.65625 89 124 "/>
<path style=" stroke:none;fill-rule:nonzero;fill:rgb(62%,24%,100%);fill-opacity:0.08;" d="M 729 124 C 841.917969 133.054688 247.773438 26.65625 89 124 "/>
<path style=" stroke:none;fill-rule:nonzero;fill:rgb(66.666667%,20%,100%);fill-opacity:0.08;" d="M 729 124 C 841.917969 133.054688 247.773438 26.65625 89 124 "/>
<path style=" stroke:none;fill-rule:nonzero;fill:rgb(63.1%,18%,100%);fill-opacity:0.06;" d="M 729 124 C 841.917969 133.054688 247.773438 26.65625 89 124 "/>
<path style=" stroke:none;fill-rule:nonzero;fill:rgb(67.083333%,21%,100%);fill-opacity:0.03;" d="M 729 124 C 841.917969 133.054688 247.773438 26.65625 89 124 "/>
<path style=" stroke:none;fill-rule:nonzero;fill:rgb(58.916667%,15%,100%);fill-opacity:0.18;" d="M 729 124 C 841.917969 133.054688 247.773438 26.65625 89 124 "/>
<path style=" stroke:none;fill-rule:nonzero;fill:rgb(70%,28%,100%);fill-opacity:0.13;" d="M 729 124 C 841.917969 133.054688 247.773438 26.65625 89 124 "/>
<path style=" stroke:none;fill-rule:nonzero;fill:rgb(67.5%,25%,100%);fill-opacity:0.17;" d="M 729 124 C 841.917969 133.054688 247.773438 26.65625 89 124 M 63 134 C -109.246094 120.191406 587.816406 186.824219 703 134 "/>
<path style=" stroke:none;fill-rule:nonzero;fill:rgb(75.1%,17%,100%);fill-opacity:0.04;" d="M 63 134 C -109.246094 120.191406 587.816406 186.824219 703 134 "/>
<path style=" stroke:none;fill-rule:nonzero;fill:rgb(76%,28%,100%);fill-opacity:0.17;" d="M 63 134 C -109.246094 120.191406 587.816406 186.824219 703 134 "/>
<path style=" stroke:none;fill-rule:nonzero;fill:rgb(80.8%,28%,100%);fill-opacity:0.03;" d="M 63 134 C -109.246094 120.191406 587.816406 186.824219 703 134 "/>
<path style=" stroke:none;fill-rule:nonzero;fill:rgb(73.05%,23%,100%);fill-opacity:0.01;" d="M 63 134 C -109.246094 120.191406 587.816406 186.824219 703 134 "/>
<path style=" stroke:none;fill-rule:nonzero;fill:rgb(87.666667%,26%,100%);fill-opacity:0.12;" d="M 63 134 C -109.246094 120.191406 587.816406 186.824219 703 134 "/>
<path style=" stroke:none;fill-rule:nonzero;fill:rgb(56.983333%,11%,100%);fill-opacity:0.02;" d="M 63 134 C -109.246094 120.191406 587.816406 186.824219 703 134 "/>
<path style=" stroke:none;fill-rule:nonzero;fill:rgb(82.033333%,23%,100%);fill-opacity:0.2;" d="M 63 134 C -109.246094 120.191406 587.816406 186.824219 703 134 "/>
<path style=" stroke:none;fill-rule:nonzero;fill:rgb(63.75%,13%,100%);fill-opacity:0.19;" d="M 63 134 C -109.246094 120.191406 587.816406 186.824219 703 134 "/>
<path style=" stroke:none;fill-rule:nonzero;fill:rgb(61%,22%,100%);fill-opacity:0.14;" d="M 63 134 C -109.246094 120.191406 587.816406 186.824219 703 134 "/>
<path style=" stroke:none;fill-rule:nonzero;fill:rgb(66.166667%,30%,100%);fill-opacity:0.1;" d="M 63 134 C -109.246094 120.191406 587.816406 186.824219 703 134 "/>
<path style=" stroke:none;fill-rule:nonzero;fill:rgb(77.2%,24%,100%);fill-opacity:0.01;" d="M 63 134 C -109.246094 120.191406 587.816406 186.824219 703 134 "/>
<path style=" stroke:none;fill-rule:nonzero;fill:rgb(71%,13%,100%);fill-opacity:0.17;" d="M 63 134 C -109.246094 120.191406 587.816406 186.824219 703 134 "/>
<path style=" stroke:none;fill-rule:nonzero;fill:rgb(82.666667%,20%,100%);fill-opacity:0.09;" d="M 63 134 C -109.246094 120.191406 587.816406 186.824219 703 134 "/>
<path style=" stroke:none;fill-rule:nonzero;fill:rgb(62.65%,17%,100%);fill-opacity:0.02;" d="M 63 134 C -109.246094 120.191406 587.816406 186.824219 703 134 "/>
<path style=" stroke:none;fill-rule:nonzero;fill:rgb(83.5%,10%,100%);fill-opacity:0.02;" d="M 63 134 C -109.246094 120.191406 587.816406 186.824219 703 134 "/>
<path style=" stroke:none;fill-rule:nonzero;fill:rgb(83.8%,19%,100%);fill-opacity:0.02;" d="M 63 134 C -109.246094 120.191406 587.816406 186.824219 703 134 "/>
<path style=" stroke:none;fill-rule:nonzero;fill:rgb(66.866667%,29%,100%);fill-opacity:0.03;" d="M 63 134 C -109.246094 120.191406 587.816406 186.824219 703 134 "/>
<path style=" stroke:none;fill-rule:nonzero;fill:rgb(80.166667%,30%,100%);fill-opacity:0.14;" d="M 63 134 C -109.246094 120.191406 587.816406 186.824219 703 134 "/>
<path style=" stroke:none;fill-rule:nonzero;fill:rgb(80.166667%,30%,100%);fill-opacity:0.15;" d="M 63 134 C -109.246094 120.191406 587.816406 186.824219 703 134 M 703 134 C 713.933594 137.625 264.613281 18.566406 63 134 "/>
<path style=" stroke:none;fill-rule:nonzero;fill:rgb(78.1%,27%,100%);fill-opacity:0.03;" d="M 703 134 C 713.933594 137.625 264.613281 18.566406 63 134 "/>
<path style=" stroke:none;fill-rule:nonzero;fill:rgb(79.7%,13%,100%);fill-opacity:0.03;" d="M 703 134 C 713.933594 137.625 264.613281 18.566406 63 134 "/>
<path style=" stroke:none;fill-rule:nonzero;fill:rgb(71.766667%,23%,100%);fill-opacity:0.14;" d="M 703 134 C 713.933594 137.625 264.613281 18.566406 63 134 "/>
<path style=" stroke:none;fill-rule:nonzero;fill:rgb(76.483333%,17%,100%);fill-opacity:0.12;" d="M 703 134 C 713.933594 137.625 264.613281 18.566406 63 134 "/>
<path style=" stroke:none;fill-rule:nonzero;fill:rgb(70.1%,22%,100%);fill-opacity:0.02;" d="M 703 134 C 713.933594 137.625 264.613281 18.566406 63 134 "/>
<path style=" stroke:none;fill-rule:nonzero;fill:rgb(63.166667%,15%,100%);fill-opacity:0.1;" d="M 703 134 C 713.933594 137.625 264.613281 18.566406 63 134 "/>
<path style=" stroke:none;fill-rule:nonzero;fill:rgb(68.466667%,14%,100%);fill-opacity:0.16;" d="M 703 134 C 713.933594 137.625 264.613281 18.566406 63 134 "/>
<path style=" stroke:none;fill-rule:nonzero;fill:rgb(65.6%,14%,100%);fill-opacity:0.04;" d="M 703 134 C 713.933594 137.625 264.613281 18.566406 63 134 "/>
<path style=" stroke:none;fill-rule:nonzero;fill:rgb(85%,25%,100%);fill-opacity:0.01;" d="M 703 134 C 713.933594 137.625 264.613281 18.566406 63 134 "/>
<path style=" stroke:none;fill-rule:nonzero;fill:rgb(77.2%,24%,100%);fill-opacity:0.08;" d="M 703 134 C 713.933594 137.625 264.613281 18.566406 63 134 "/>
<path style=" stroke:none;fill-rule:nonzero;fill:rgb(76%,28%,100%);fill-opacity:0.07;" d="M 703 134 C 713.933594 137.625 264.613281 18.566406 63 134 "/>
<path style=" stroke:none;fill-rule:nonzero;fill:rgb(86.066667%,24%,100%);fill-opacity:0.12;" d="M 703 134 C 713.933594 137.625 264.613281 18.566406 63 134 "/>
<path style=" stroke:none;fill-rule:nonzero;fill:rgb(76%,28%,100%);fill-opacity:0.11;" d="M 703 134 C 713.933594 137.625 264.613281 18.566406 63 134 "/>
<path style=" stroke:none;fill-rule:nonzero;fill:rgb(81.15%,13%,100%);fill-opacity:0.2;" d="M 703 134 C 713.933594 137.625 264.613281 18.566406 63 134 "/>
<path style=" stroke:none;fill-rule:nonzero;fill:rgb(72.766667%,14%,100%);fill-opacity:0.04;" d="M 703 134 C 713.933594 137.625 264.613281 18.566406 63 134 "/>
<path style=" stroke:none;fill-rule:nonzero;fill:rgb(83.666667%,30%,100%);fill-opacity:0.09;" d="M 703 134 C 713.933594 137.625 264.613281 18.566406 63 134 "/>
<path style=" stroke:none;fill-rule:nonzero;fill:rgb(61.816667%,21%,100%);fill-opacity:0.1;" d="M 703 134 C 713.933594 137.625 264.613281 18.566406 63 134 "/>
<path style=" stroke:none;fill-rule:nonzero;fill:rgb(64.4%,11%,100%);fill-opacity:0.2;" d="M 703 134 C 713.933594 137.625 264.613281 18.566406 63 134 "/>
<path style=" stroke:none;fill-rule:nonzero;fill:rgb(74.983333%,21%,100%);fill-opacity:0.2;" d="M 703 134 C 713.933594 137.625 264.613281 18.566406 63 134 M 85 148 C 384.617188 181.089844 902.140625 97.0625 725 148 "/>
<path style=" stroke:none;fill-rule:nonzero;fill:rgb(78.933333%,21%,100%);fill-opacity:0.17;" d="M 85 148 C 384.617188 181.089844 902.140625 97.0625 725 148 "/>
<path style=" stroke:none;fill-rule:nonzero;fill:rgb(68.85%,11%,100%);fill-opacity:0.04;" d="M 85 148 C 384.617188 181.089844 902.140625 97.0625 725 148 "/>
<path style=" stroke:none;fill-rule:nonzero;fill:rgb(68.333333%,24%,100%);fill-opacity:0.07;" d="M 85 148 C 384.617188 181.089844 902.140625 97.0625 725 148 "/>
<path style=" stroke:none;fill-rule:nonzero;fill:rgb(79.933333%,14%,100%);fill-opacity:0.11;" d="M 85 148 C 384.617188 181.089844 902.140625 97.0625 725 148 "/>
<path style=" stroke:none;fill-rule:nonzero;fill:rgb(67.083333%,21%,100%);fill-opacity:0.03;" d="M 85 148 C 384.617188 181.089844 902.140625 97.0625 725 148 "/>
<path style=" stroke:none;fill-rule:nonzero;fill:rgb(85.6%,28%,100%);fill-opacity:0.17;" d="M 85 148 C 384.617188 181.089844 902.140625 97.0625 725 148 "/>
<path style=" stroke:none;fill-rule:nonzero;fill:rgb(70.1%,22%,100%);fill-opacity:0.04;" d="M 85 148 C 384.617188 181.089844 902.140625 97.0625 725 148 "/>
<path style=" stroke:none;fill-rule:nonzero;fill:rgb(83.1%,22%,100%);fill-opacity:0.07;" d="M 85 148 C 384.617188 181.089844 902.140625 97.0625 725 148 "/>
<path style=" stroke:none;fill-rule:nonzero;fill:rgb(69.933333%,18%,100%);fill-opacity:0.04;" d="M 85 148 C 384.617188 181.089844 902.140625 97.0625 725 148 "/>
<path style=" stroke:none;fill-rule:nonzero;fill:rgb(82.2%,11%,100%);fill-opacity:0.06;" d="M 85 148 C 384.617188 181.089844 902.140625 97.0625 725 148 "/>
<path style=" stroke:none;fill-rule:nonzero;fill:rgb(62.916667%,11%,100%);fill-opacity:0.08;" d="M 85 148 C 384.617188 181.089844 902.140625 97.0625 725 148 "/>
<path style=" stroke:none;fill-rule:nonzero;fill:rgb(83.433333%,29%,100%);fill-opacity:0.12;" d="M 85 148 C 384.617188 181.089844 902.140625 97.0625 725 148 "/>
<path style=" stroke:none;fill-rule:nonzero;fill:rgb(75.35%,13%,100%);fill-opacity:0.08;" d="M 85 148 C 384.617188 181.089844 902.140625 97.0625 725 148 "/>
<path style=" stroke:none;fill-rule:nonzero;fill:rgb(69.566667%,17%,100%);fill-opacity:0.17;" d="M 85 148 C 384.617188 181.089844 902.140625 97.0625 725 148 "/>
<path style=" stroke:none;fill-rule:nonzero;fill:rgb(61%,22%,100%);fill-opacity:0.12;" d="M 85 148 C 384.617188 181.089844 902.140625 97.0625 725 148 "/>
<path style=" stroke:none;fill-rule:nonzero;fill:rgb(66.25%,25%,100%);fill-opacity:0.1;" d="M 85 148 C 384.617188 181.089844 902.140625 97.0625 725 148 "/>
<path style=" stroke:none;fill-rule:nonzero;fill:rgb(67.933333%,26%,100%);fill-opacity:0.02;" d="M 85 148 C 384.617188 181.089844 902.140625 97.0625 725 148 "/>
<path style=" stroke:none;fill-rule:nonzero;fill:rgb(56.5%,10%,100%);fill-opacity:0.19;" d="M 85 148 C 384.617188 181.089844 902.140625 97.0625 725 148 "/>
<path style=" stroke:none;fill-rule:nonzero;fill:rgb(66.8%,17%,100%);fill-opacity:0.13;" d="M 85 148 C 384.617188 181.089844 902.140625 97.0625 725 148 "/>
<path style=" stroke:none;fill-rule:nonzero;fill:rgb(81.15%,13%,100%);fill-opacity:0.13;" d="M 85 148 C 384.617188 181.089844 902.140625 97.0625 725 148 M 725 148 C 399.890625 102.183594 -30.339844 177.449219 85 148 "/>
<path style=" stroke:none;fill-rule:nonzero;fill:rgb(72.5%,25%,100%);fill-opacity:0.07;" d="M 725 148 C 399.890625 102.183594 -30.339844 177.449219 85 148 "/>
<path style=" stroke:none;fill-rule:nonzero;fill:rgb(66.65%,13%,100%);fill-opacity:0.16;" d="M 725 148 C 399.890625 102.183594 -30.339844 177.449219 85 148 "/>
<path style=" stroke:none;fill-rule:nonzero;fill:rgb(77.6%,16%,100%);fill-opacity:0.19;" d="M 725 148 C 399.890625 102.183594 -30.339844 177.449219 85 148 "/>
<path style=" stroke:none;fill-rule:nonzero;fill:rgb(75.1%,17%,100%);fill-opacity:0.08;" d="M 725 148 C 399.890625 102.183594 -30.339844 177.449219 85 148 "/>
<path style=" stroke:none;fill-rule:nonzero;fill:rgb(67.8%,16%,100%);fill-opacity:0.13;" d="M 725 148 C 399.890625 102.183594 -30.339844 177.449219 85 148 "/>
<path style=" stroke:none;fill-rule:nonzero;fill:rgb(76.566667%,26%,100%);fill-opacity:0.17;" d="M 725 148 C 399.890625 102.183594 -30.339844 177.449219 85 148 "/>
<path style=" stroke:none;fill-rule:nonzero;fill:rgb(80.866667%,18%,100%);fill-opacity:0.02;" d="M 725 148 C 399.890625 102.183594 -30.339844 177.449219 85 148 "/>
<path style=" stroke:none;fill-rule:nonzero;fill:rgb(78.133333%,18%,100%);fill-opacity:0.09;" d="M 725 148 C 399.890625 102.183594 -30.339844 177.449219 85 148 "/>
<path style=" stroke:none;fill-rule:nonzero;fill:rgb(74.2%,14%,100%);fill-opacity:0.19;" d="M 725 148 C 399.890625 102.183594 -30.339844 177.449219 85 148 "/>
<path style=" stroke:none;fill-rule:nonzero;fill:rgb(80.5%,22%,100%);fill-opacity:0.16;" d="M 725 148 C 399.890625 102.183594 -30.339844 177.449219 85 148 "/>
<path style=" stroke:none;fill-rule:nonzero;fill:rgb(84.616667%,29%,100%);fill-opacity:0.12;" d="M 725 148 C 399.890625 102.183594 -30.339844 177.449219 85 148 "/>
<path style=" stroke:none;fill-rule:nonzero;fill:rgb(83%,15%,100%);fill-opacity:0.02;" d="M 725 148 C 399.890625 102.183594 -30.339844 177.449219 85 148 "/>
<path style=" stroke:none;fill-rule:nonzero;fill:rgb(84.416667%,15%,100%);fill-opacity:0.16;" d="M 725 148 C 399.890625 102.183594 -30.339844 177.449219 85 148 "/>
<path style=" stroke:none;fill-rule:nonzero;fill:rgb(67.8%,16%,100%);fill-opacity:0.1;" d="M 725 148 C 399.890625 102.183594 -30.339844 177.449219 85 148 "/>
<path style=" stroke:none;fill-rule:nonzero;fill:rgb(73.3%,11%,100%);fill-opacity:0.09;" d="M 725 148 C 399.890625 102.183594 -30.339844 177.449219 85 148 "/>
<path style=" stroke:none;fill-rule:nonzero;fill:rgb(87.166667%,23%,100%);fill-opacity:0.05;" d="M 69 138 C 69 138.003906 69 137.980469 69 137.980469 M 69 137.980469 C 8.285156 119.863281 719.972656 134.46875 709 137.980469 "/>
<path style=" stroke:none;fill-rule:nonzero;fill:rgb(71.3%,18%,100%);fill-opacity:0.01;" d="M 69 137.980469 C 8.285156 119.863281 719.972656 134.46875 709 137.980469 "/>
<path style=" stroke:none;fill-rule:nonzero;fill:rgb(69.2%,16%,100%);fill-opacity:0.01;" d="M 69 137.980469 C 8.285156 119.863281 719.972656 134.46875 709 137.980469 "/>
<path style=" stroke:none;fill-rule:nonzero;fill:rgb(75.633333%,14%,100%);fill-opacity:0.15;" d="M 69 137.980469 C 8.285156 119.863281 719.972656 134.46875 709 137.980469 "/>
<path style=" stroke:none;fill-rule:nonzero;fill:rgb(62.3%,22%,100%);fill-opacity:0.19;" d="M 69 137.980469 C 8.285156 119.863281 719.972656 134.46875 709 137.980469 "/>
<path style=" stroke:none;fill-rule:nonzero;fill:rgb(68.4%,21%,100%);fill-opacity:0.01;" d="M 69 137.980469 C 8.285156 119.863281 719.972656 134.46875 709 137.980469 "/>
<path style=" stroke:none;fill-rule:nonzero;fill:rgb(73.4%,24%,100%);fill-opacity:0.1;" d="M 69 137.980469 C 8.285156 119.863281 719.972656 134.46875 709 137.980469 "/>
<path style=" stroke:none;fill-rule:nonzero;fill:rgb(75.4%,18%,100%);fill-opacity:0.18;" d="M 69 137.980469 C 8.285156 119.863281 719.972656 134.46875 709 137.980469 "/>
<path style=" stroke:none;fill-rule:nonzero;fill:rgb(67.6%,19%,100%);fill-opacity:0.12;" d="M 69 137.980469 C 8.285156 119.863281 719.972656 134.46875 709 137.980469 "/>
<path style=" stroke:none;fill-rule:nonzero;fill:rgb(78.666667%,20%,100%);fill-opacity:0.01;" d="M 69 137.980469 C 8.285156 119.863281 719.972656 134.46875 709 137.980469 "/>
<path style=" stroke:none;fill-rule:nonzero;fill:rgb(83.666667%,30%,100%);fill-opacity:0.13;" d="M 69 137.980469 C 8.285156 119.863281 719.972656 134.46875 709 137.980469 "/>
<path style=" stroke:none;fill-rule:nonzero;fill:rgb(80.4%,16%,100%);fill-opacity:0.06;" d="M 69 137.980469 C 8.285156 119.863281 719.972656 134.46875 709 137.980469 "/>
<path style=" stroke:none;fill-rule:nonzero;fill:rgb(79.316667%,27%,100%);fill-opacity:0.16;" d="M 69 137.980469 C 8.285156 119.863281 719.972656 134.46875 709 137.980469 "/>
<path style=" stroke:none;fill-rule:nonzero;fill:rgb(79.5%,18%,100%);fill-opacity:0.08;" d="M 69 137.980469 C 8.285156 119.863281 719.972656 134.46875 709 137.980469 "/>
<path style=" stroke:none;fill-rule:nonzero;fill:rgb(57.5%,15%,100%);fill-opacity:0.15;" d="M 69 137.980469 C 8.285156 119.863281 719.972656 134.46875 709 137.980469 "/>
<path style=" stroke:none;fill-rule:nonzero;fill:rgb(67.366667%,11%,100%);fill-opacity:0.14;" d="M 69 137.980469 C 8.285156 119.863281 719.972656 134.46875 709 137.980469 "/>
<path style=" stroke:none;fill-rule:nonzero;fill:rgb(67.083333%,21%,100%);fill-opacity:0.05;" d="M 69 137.980469 C 8.285156 119.863281 719.972656 134.46875 709 137.980469 "/>
<path style=" stroke:none;fill-rule:nonzero;fill:rgb(62.783333%,23%,100%);fill-opacity:0.11;" d="M 69 137.980469 C 8.285156 119.863281 719.972656 134.46875 709 137.980469 "/>
<path style=" stroke:none;fill-rule:nonzero;fill:rgb(67.5%,25%,100%);fill-opacity:0.13;" d="M 69 137.980469 C 8.285156 119.863281 719.972656 134.46875 709 137.980469 "/>
<path style=" stroke:none;fill-rule:nonzero;fill:rgb(68.333333%,24%,100%);fill-opacity:0.15;" d="M 69 137.980469 C 8.285156 119.863281 719.972656 134.46875 709 137.980469 "/>
<path style=" stroke:none;fill-rule:nonzero;fill:rgb(64.533333%,24%,100%);fill-opacity:0.07;" d="M 69 137.980469 C 8.285156 119.863281 719.972656 134.46875 709 137.980469 M 709 137.980469 C 709 137.980469 709 138 709 138 "/>
<path style=" stroke:none;fill-rule:nonzero;fill:rgb(75.35%,13%,100%);fill-opacity:0.03;" d="M 709 138 C 709 138 709 138.019531 709 138.019531 M 709 138.019531 C 591.226562 110.441406 112.320312 113.214844 69 138.019531 "/>
<path style=" stroke:none;fill-rule:nonzero;fill:rgb(72.45%,13%,100%);fill-opacity:0.07;" d="M 709 138.019531 C 591.226562 110.441406 112.320312 113.214844 69 138.019531 "/>
<path style=" stroke:none;fill-rule:nonzero;fill:rgb(64.9%,19%,100%);fill-opacity:0.03;" d="M 709 138.019531 C 591.226562 110.441406 112.320312 113.214844 69 138.019531 "/>
<path style=" stroke:none;fill-rule:nonzero;fill:rgb(86.833333%,21%,100%);fill-opacity:0.2;" d="M 709 138.019531 C 591.226562 110.441406 112.320312 113.214844 69 138.019531 "/>
<path style=" stroke:none;fill-rule:nonzero;fill:rgb(62.2%,19%,100%);fill-opacity:0.06;" d="M 709 138.019531 C 591.226562 110.441406 112.320312 113.214844 69 138.019531 "/>
<path style=" stroke:none;fill-rule:nonzero;fill:rgb(66.7%,26%,100%);fill-opacity:0.14;" d="M 709 138.019531 C 591.226562 110.441406 112.320312 113.214844 69 138.019531 "/>
<path style=" stroke:none;fill-rule:nonzero;fill:rgb(60.366667%,18%,100%);fill-opacity:0.13;" d="M 709 138.019531 C 591.226562 110.441406 112.320312 113.214844 69 138.019531 "/>
<path style=" stroke:none;fill-rule:nonzero;fill:rgb(83.4%,17%,100%);fill-opacity:0.04;" d="M 709 138.019531 C 591.226562 110.441406 112.320312 113.214844 69 138.019531 "/>
<path style=" stroke:none;fill-rule:nonzero;fill:rgb(71.033333%,21%,100%);fill-opacity:0.14;" d="M 709 138.019531 C 591.226562 110.441406 112.320312 113.214844 69 138.019531 "/>
<path style=" stroke:none;fill-rule:nonzero;fill:rgb(65.2%,13%,100%);fill-opacity:0.17;" d="M 709 138.019531 C 591.226562 110.441406 112.320312 113.214844 69 138.019531 "/>
<path style=" stroke:none;fill-rule:nonzero;fill:rgb(65%,25%,100%);fill-opacity:0.17;" d="M 709 138.019531 C 591.226562 110.441406 112.320312 113.214844 69 138.019531 "/>
<path style=" stroke:none;fill-rule:nonzero;fill:rgb(60.85%,19%,100%);fill-opacity:0.06;" d="M 709 138.019531 C 591.226562 110.441406 112.320312 113.214844 69 138.019531 "/>
<path style=" stroke:none;fill-rule:nonzero;fill:rgb(82%,28%,100%);fill-opacity:0.07;" d="M 709 138.019531 C 591.226562 110.441406 112.320312 113.214844 69 138.019531 "/>
<path style=" stroke:none;fill-rule:nonzero;fill:rgb(62%,24%,100%);fill-opacity:0.01;" d="M 709 138.019531 C 591.226562 110.441406 112.320312 113.214844 69 138.019531 "/>
<path style=" stroke:none;fill-rule:nonzero;fill:rgb(76.3%,21%,100%);fill-opacity:0.07;" d="M 709 138.019531 C 591.226562 110.441406 112.320312 113.214844 69 138.019531 "/>
<path style=" stroke:none;fill-rule:nonzero;fill:rgb(84.616667%,29%,100%);fill-opacity:0.16;" d="M 709 138.019531 C 591.226562 110.441406 112.320312 113.214844 69 138.019531 "/>
<path style=" stroke:none;fill-rule:nonzero;fill:rgb(61.733333%,18%,100%);fill-opacity:0.11;" d="M 709 138.019531 C 591.226562 110.441406 112.320312 113.214844 69 138.019531 "/>
<path style=" stroke:none;fill-rule:nonzero;fill:rgb(84.6%,23%,100%);fill-opacity:0.09;" d="M 709 138.019531 C 591.226562 110.441406 112.320312 113.214844 69 138.019531 "/>
<path style=" stroke:none;fill-rule:nonzero;fill:rgb(65.416667%,17%,100%);fill-opacity:0.11;" d="M 709 138.019531 C 591.226562 110.441406 112.320312 113.214844 69 138.019531 "/>
<path style=" stroke:none;fill-rule:nonzero;fill:rgb(77.8%,26%,100%);fill-opacity:0.19;" d="M 709 138.019531 C 591.226562 110.441406 112.320312 113.214844 69 138.019531 M 69 138.019531 C 69 138.011719 69 138 69 138 "/>
<path style=" stroke:none;fill-rule:nonzero;fill:rgb(78.5%,14%,100%);fill-opacity:0.09;" d="M 69 138.019531 C 69 138.011719 69 138 69 138 M 83 137 C -28.222656 131.433594 790.097656 103.757812 723 137 "/>
<path style=" stroke:none;fill-rule:nonzero;fill:rgb(78.933333%,21%,100%);fill-opacity:0.05;" d="M 83 137 C -28.222656 131.433594 790.097656 103.757812 723 137 "/>
<path style=" stroke:none;fill-rule:nonzero;fill:rgb(69.566667%,17%,100%);fill-opacity:0.15;" d="M 83 137 C -28.222656 131.433594 790.097656 103.757812 723 137 "/>
<path style=" stroke:none;fill-rule:nonzero;fill:rgb(76.566667%,26%,100%);fill-opacity:0.17;" d="M 83 137 C -28.222656 131.433594 790.097656 103.757812 723 137 "/>
<path style=" stroke:none;fill-rule:nonzero;fill:rgb(59.866667%,14%,100%);fill-opacity:0.07;" d="M 83 137 C -28.222656 131.433594 790.097656 103.757812 723 137 "/>
<path style=" stroke:none;fill-rule:nonzero;fill:rgb(79%,10%,100%);fill-opacity:0.1;" d="M 83 137 C -28.222656 131.433594 790.097656 103.757812 723 137 "/>
<path style=" stroke:none;fill-rule:nonzero;fill:rgb(84.6%,23%,100%);fill-opacity:0.07;" d="M 83 137 C -28.222656 131.433594 790.097656 103.757812 723 137 "/>
<path style=" stroke:none;fill-rule:nonzero;fill:rgb(65%,25%,100%);fill-opacity:0.19;" d="M 83 137 C -28.222656 131.433594 790.097656 103.757812 723 137 "/>
<path style=" stroke:none;fill-rule:nonzero;fill:rgb(82.5%,30%,100%);fill-opacity:0.11;" d="M 83 137 C -28.222656 131.433594 790.097656 103.757812 723 137 "/>
<path style=" stroke:none;fill-rule:nonzero;fill:rgb(79.2%,22%,100%);fill-opacity:0.12;" d="M 83 137 C -28.222656 131.433594 790.097656 103.757812 723 137 "/>
<path style=" stroke:none;fill-rule:nonzero;fill:rgb(66%,15%,100%);fill-opacity:0.17;" d="M 83 137 C -28.222656 131.433594 790.097656 103.757812 723 137 "/>
<path style=" stroke:none;fill-rule:nonzero;fill:rgb(86.833333%,21%,100%);fill-opacity:0.12;" d="M 83 137 C -28.222656 131.433594 790.097656 103.757812 723 137 "/>
<path style=" stroke:none;fill-rule:nonzero;fill:rgb(75.916667%,15%,100%);fill-opacity:0.17;" d="M 83 137 C -28.222656 131.433594 790.097656 103.757812 723 137 "/>
<path style=" stroke:none;fill-rule:nonzero;fill:rgb(84.6%,16%,100%);fill-opacity:0.04;" d="M 83 137 C -28.222656 131.433594 790.097656 103.757812 723 137 "/>
<path style=" stroke:none;fill-rule:nonzero;fill:rgb(67.416667%,15%,100%);fill-opacity:0.01;" d="M 83 137 C -28.222656 131.433594 790.097656 103.757812 723 137 "/>
<path style=" stroke:none;fill-rule:nonzero;fill:rgb(70%,28%,100%);fill-opacity:0.06;" d="M 83 137 C -28.222656 131.433594 790.097656 103.757812 723 137 "/>
<path style=" stroke:none;fill-rule:nonzero;fill:rgb(75%,25%,100%);fill-opacity:0.08;" d="M 83 137 C -28.222656 131.433594 790.097656 103.757812 723 137 "/>
<path style=" stroke:none;fill-rule:nonzero;fill:rgb(85.666667%,14%,100%);fill-opacity:0.05;" d="M 83 137 C -28.222656 131.433594 790.097656 103.757812 723 137 "/>
<path style=" stroke:none;fill-rule:nonzero;fill:rgb(83.1%,22%,100%);fill-opacity:0.1;" d="M 83 137 C -28.222656 131.433594 790.097656 103.757812 723 137 "/>
<path style=" stroke:none;fill-rule:nonzero;fill:rgb(83.5%,10%,100%);fill-opacity:0.16;" d="M 83 137 C -28.222656 131.433594 790.097656 103.757812 723 137 M 723 137 C 352.300781 61.855469 442.820312 33.53125 83 137 "/>
<path style=" stroke:none;fill-rule:nonzero;fill:rgb(69.716667%,21%,100%);fill-opacity:0.16;" d="M 723 137 C 352.300781 61.855469 442.820312 33.53125 83 137 "/>
<path style=" stroke:none;fill-rule:nonzero;fill:rgb(63.75%,13%,100%);fill-opacity:0.11;" d="M 723 137 C 352.300781 61.855469 442.820312 33.53125 83 137 "/>
<path style=" stroke:none;fill-rule:nonzero;fill:rgb(77.2%,28%,100%);fill-opacity:0.1;" d="M 723 137 C 352.300781 61.855469 442.820312 33.53125 83 137 "/>
<path style=" stroke:none;fill-rule:nonzero;fill:rgb(65%,30%,100%);fill-opacity:0.09;" d="M 723 137 C 352.300781 61.855469 442.820312 33.53125 83 137 "/>
<path style=" stroke:none;fill-rule:nonzero;fill:rgb(82.6%,13%,100%);fill-opacity:0.05;" d="M 723 137 C 352.300781 61.855469 442.820312 33.53125 83 137 "/>
<path style=" stroke:none;fill-rule:nonzero;fill:rgb(69.2%,12%,100%);fill-opacity:0.12;" d="M 723 137 C 352.300781 61.855469 442.820312 33.53125 83 137 "/>
<path style=" stroke:none;fill-rule:nonzero;fill:rgb(64.45%,21%,100%);fill-opacity:0.1;" d="M 723 137 C 352.300781 61.855469 442.820312 33.53125 83 137 "/>
<path style=" stroke:none;fill-rule:nonzero;fill:rgb(69.583333%,27%,100%);fill-opacity:0.04;" d="M 723 137 C 352.300781 61.855469 442.820312 33.53125 83 137 "/>
<path style=" stroke:none;fill-rule:nonzero;fill:rgb(64%,28%,100%);fill-opacity:0.05;" d="M 723 137 C 352.300781 61.855469 442.820312 33.53125 83 137 "/>
<path style=" stroke:none;fill-rule:nonzero;fill:rgb(84.416667%,15%,100%);fill-opacity:0.03;" d="M 723 137 C 352.300781 61.855469 442.820312 33.53125 83 137 "/>
<path style=" stroke:none;fill-rule:nonzero;fill:rgb(86%,30%,100%);fill-opacity:0.18;" d="M 723 137 C 352.300781 61.855469 442.820312 33.53125 83 137 "/>
<path style=" stroke:none;fill-rule:nonzero;fill:rgb(59.4%,16%,100%);fill-opacity:0.01;" d="M 723 137 C 352.300781 61.855469 442.820312 33.53125 83 137 "/>
<path style=" stroke:none;fill-rule:nonzero;fill:rgb(74.2%,14%,100%);fill-opacity:0.17;" d="M 723 137 C 352.300781 61.855469 442.820312 33.53125 83 137 "/>
<path style=" stroke:none;fill-rule:nonzero;fill:rgb(68.366667%,27%,100%);fill-opacity:0.04;" d="M 723 137 C 352.300781 61.855469 442.820312 33.53125 83 137 "/>
<path style=" stroke:none;fill-rule:nonzero;fill:rgb(73.666667%,21%,100%);fill-opacity:0.08;" d="M 723 137 C 352.300781 61.855469 442.820312 33.53125 83 137 "/>
<path style=" stroke:none;fill-rule:nonzero;fill:rgb(64.9%,19%,100%);fill-opacity:0.01;" d="M 723 137 C 352.300781 61.855469 442.820312 33.53125 83 137 "/>
<path style=" stroke:none;fill-rule:nonzero;fill:rgb(72.333333%,17%,100%);fill-opacity:0.09;" d="M 723 137 C 352.300781 61.855469 442.820312 33.53125 83 137 "/>
<path style=" stroke:none;fill-rule:nonzero;fill:rgb(57%,14%,100%);fill-opacity:0.09;" d="M 723 137 C 352.300781 61.855469 442.820312 33.53125 83 137 M 71 139 C 400.183594 165.390625 372.675781 270.222656 711 139 "/>
<path style=" stroke:none;fill-rule:nonzero;fill:rgb(66.8%,17%,100%);fill-opacity:0.19;" d="M 71 139 C 400.183594 165.390625 372.675781 270.222656 711 139 "/>
<path style=" stroke:none;fill-rule:nonzero;fill:rgb(88.166667%,29%,100%);fill-opacity:0.05;" d="M 71 139 C 400.183594 165.390625 372.675781 270.222656 711 139 "/>
<path style=" stroke:none;fill-rule:nonzero;fill:rgb(72.666667%,18%,100%);fill-opacity:0.09;" d="M 71 139 C 400.183594 165.390625 372.675781 270.222656 711 139 "/>
<path style=" stroke:none;fill-rule:nonzero;fill:rgb(67.333333%,30%,100%);fill-opacity:0.1;" d="M 71 139 C 400.183594 165.390625 372.675781 270.222656 711 139 "/>
<path style=" stroke:none;fill-rule:nonzero;fill:rgb(65.2%,13%,100%);fill-opacity:0.09;" d="M 71 139 C 400.183594 165.390625 372.675781 270.222656 711 139 "/>
<path style=" stroke:none;fill-rule:nonzero;fill:rgb(65.933333%,27%,100%);fill-opacity:0.01;" d="M 71 139 C 400.183594 165.390625 372.675781 270.222656 711 139 "/>
<path style=" stroke:none;fill-rule:nonzero;fill:rgb(75.666667%,27%,100%);fill-opacity:0.03;" d="M 71 139 C 400.183594 165.390625 372.675781 270.222656 711 139 "/>
<path style=" stroke:none;fill-rule:nonzero;fill:rgb(79.233333%,11%,100%);fill-opacity:0.14;" d="M 71 139 C 400.183594 165.390625 372.675781 270.222656 711 139 "/>
<path style=" stroke:none;fill-rule:nonzero;fill:rgb(75.7%,19%,100%);fill-opacity:0.18;" d="M 71 139 C 400.183594 165.390625 372.675781 270.222656 711 139 "/>
<path style=" stroke:none;fill-rule:nonzero;fill:rgb(85.166667%,11%,100%);fill-opacity:0.16;" d="M 71 139 C 400.183594 165.390625 372.675781 270.222656 711 139 "/>
<path style=" stroke:none;fill-rule:nonzero;fill:rgb(76.333333%,29%,100%);fill-opacity:0.09;" d="M 71 139 C 400.183594 165.390625 372.675781 270.222656 711 139 "/>
<path style=" stroke:none;fill-rule:nonzero;fill:rgb(60.5%,21%,100%);fill-opacity:0.12;" d="M 71 139 C 400.183594 165.390625 372.675781 270.222656 711 139 "/>
<path style=" stroke:none;fill-rule:nonzero;fill:rgb(77.5%,10%,100%);fill-opacity:0.13;" d="M 71 139 C 400.183594 165.390625 372.675781 270.222656 711 139 "/>
<path style=" stroke:none;fill-rule:nonzero;fill:rgb(70.833333%,30%,100%);fill-opacity:0.16;" d="M 71 139 C 400.183594 165.390625 372.675781 270.222656 711 139 "/>
<path style=" stroke:none;fill-rule:nonzero;fill:rgb(86.666667%,20%,100%);fill-opacity:0.16;" d="M 71 139 C 400.183594 165.390625 372.675781 270.222656 711 139 "/>
<path style=" stroke:none;fill-rule:nonzero;fill:rgb(70%,25%,100%);fill-opacity:0.18;" d="M 71 139 C 400.183594 165.390625 372.675781 270.222656 711 139 "/>
<path style=" stroke:none;fill-rule:nonzero;fill:rgb(63.133333%,21%,100%);fill-opacity:0.13;" d="M 71 139 C 400.183594 165.390625 372.675781 270.222656 711 139 "/>
<path style=" stroke:none;fill-rule:nonzero;fill:rgb(75.933333%,24%,100%);fill-opacity:0.09;" d="M 71 139 C 400.183594 165.390625 372.675781 270.222656 711 139 "/>
<path style=" stroke:none;fill-rule:nonzero;fill:rgb(82.25%,29%,100%);fill-opacity:0.15;" d="M 71 139 C 400.183594 165.390625 372.675781 270.222656 711 139 "/>
<path style=" stroke:none;fill-rule:nonzero;fill:rgb(74.033333%,18%,100%);fill-opacity:0.04;" d="M 71 139 C 400.183594 165.390625 372.675781 270.222656 711 139 M 711 139 C 621.9375 115.308594 -102.769531 200.46875 71 139 "/>
<path style=" stroke:none;fill-rule:nonzero;fill:rgb(69.666667%,30%,100%);fill-opacity:0.14;" d="M 711 139 C 621.9375 115.308594 -102.769531 200.46875 71 139 "/>
<path style=" stroke:none;fill-rule:nonzero;fill:rgb(82.6%,13%,100%);fill-opacity:0.05;" d="M 711 139 C 621.9375 115.308594 -102.769531 200.46875 71 139 "/>
<path style=" stroke:none;fill-rule:nonzero;fill:rgb(59.4%,13%,100%);fill-opacity:0.13;" d="M 711 139 C 621.9375 115.308594 -102.769531 200.46875 71 139 "/>
<path style=" stroke:none;fill-rule:nonzero;fill:rgb(65.683333%,29%,100%);fill-opacity:0.11;" d="M 711 139 C 621.9375 115.308594 -102.769531 200.46875 71 139 "/>
<path style=" stroke:none;fill-rule:nonzero;fill:rgb(82.666667%,20%,100%);fill-opacity:0.07;" d="M 711 139 C 621.9375 115.308594 -102.769531 200.46875 71 139 "/>
<path style=" stroke:none;fill-rule:nonzero;fill:rgb(68.75%,25%,100%);fill-opacity:0.14;" d="M 711 139 C 621.9375 115.308594 -102.769531 200.46875 71 139 "/>
<path style=" stroke:none;fill-rule:nonzero;fill:rgb(56%,12%,100%);fill-opacity:0.2;" d="M 711 139 C 621.9375 115.308594 -102.769531 200.46875 71 139 "/>
<path style=" stroke:none;fill-rule:nonzero;fill:rgb(83.966667%,26%,100%);fill-opacity:0.1;" d="M 711 139 C 621.9375 115.308594 -102.769531 200.46875 71 139 "/>
<path style=" stroke:none;fill-rule:nonzero;fill:rgb(85%,25%,100%);fill-opacity:0.13;" d="M 711 139 C 621.9375 115.308594 -102.769531 200.46875 71 139 "/>
<path style=" stroke:none;fill-rule:nonzero;fill:rgb(70.1%,22%,100%);fill-opacity:0.14;" d="M 711 139 C 621.9375 115.308594 -102.769531 200.46875 71 139 "/>
<path style=" stroke:none;fill-rule:nonzero;fill:rgb(57.466667%,12%,100%);fill-opacity:0.11;" d="M 711 139 C 621.9375 115.308594 -102.769531 200.46875 71 139 "/>
<path style=" stroke:none;fill-rule:nonzero;fill:rgb(78.75%,25%,100%);fill-opacity:0.05;" d="M 711 139 C 621.9375 115.308594 -102.769531 200.46875 71 139 "/>
<path style=" stroke:none;fill-rule:nonzero;fill:rgb(84.233333%,14%,100%);fill-opacity:0.07;" d="M 711 139 C 621.9375 115.308594 -102.769531 200.46875 71 139 "/>
<path style=" stroke:none;fill-rule:nonzero;fill:rgb(81.583333%,15%,100%);fill-opacity:0.06;" d="M 711 139 C 621.9375 115.308594 -102.769531 200.46875 71 139 "/>
<path style=" stroke:none;fill-rule:nonzero;fill:rgb(63%,26%,100%);fill-opacity:0.03;" d="M 711 139 C 621.9375 115.308594 -102.769531 200.46875 71 139 "/>
<path style=" stroke:none;fill-rule:nonzero;fill:rgb(81.5%,26%,100%);fill-opacity:0.07;" d="M 711 139 C 621.9375 115.308594 -102.769531 200.46875 71 139 "/>
<path style=" stroke:none;fill-rule:nonzero;fill:rgb(83.6%,18%,100%);fill-opacity:0.04;" d="M 711 139 C 621.9375 115.308594 -102.769531 200.46875 71 139 "/>
<path style=" stroke:none;fill-rule:nonzero;fill:rgb(69.9%,14%,100%);fill-opacity:0.2;" d="M 711 139 C 621.9375 115.308594 -102.769531 200.46875 71 139 "/>
<path style=" stroke:none;fill-rule:nonzero;fill:rgb(69.566667%,17%,100%);fill-opacity:0.16;" d="M 711 139 C 621.9375 115.308594 -102.769531 200.46875 71 139 "/>
<path style=" stroke:none;fill-rule:nonzero;fill:rgb(68.5%,30%,100%);fill-opacity:0.04;" d="M 92 104 C -54.773438 74.246094 486.761719 199.121094 732 104 "/>
<path style=" stroke:none;fill-rule:nonzero;fill:rgb(73.6%,12%,100%);fill-opacity:0.07;" d="M 92 104 C -54.773438 74.246094 486.761719 199.121094 732 104 "/>
<path style=" stroke:none;fill-rule:nonzero;fill:rgb(69.2%,16%,100%);fill-opacity:0.04;" d="M 92 104 C -54.773438 74.246094 486.761719 199.121094 732 104 "/>
<path style=" stroke:none;fill-rule:nonzero;fill:rgb(68.466667%,14%,100%);fill-opacity:0.02;" d="M 92 104 C -54.773438 74.246094 486.761719 199.121094 732 104 "/>
<path style=" stroke:none;fill-rule:nonzero;fill:rgb(68.75%,25%,100%);fill-opacity:0.05;" d="M 92 104 C -54.773438 74.246094 486.761719 199.121094 732 104 "/>
<path style=" stroke:none;fill-rule:nonzero;fill:rgb(70.3%,19%,100%);fill-opacity:0.01;" d="M 92 104 C -54.773438 74.246094 486.761719 199.121094 732 104 "/>
<path style=" stroke:none;fill-rule:nonzero;fill:rgb(68.85%,11%,100%);fill-opacity:0.03;" d="M 92 104 C -54.773438 74.246094 486.761719 199.121094 732 104 "/>
<path style=" stroke:none;fill-rule:nonzero;fill:rgb(66.4%,28%,100%);fill-opacity:0.15;" d="M 92 104 C -54.773438 74.246094 486.761719 199.121094 732 104 "/>
<path style=" stroke:none;fill-rule:nonzero;fill:rgb(73.3%,11%,100%);fill-opacity:0.08;" d="M 92 104 C -54.773438 74.246094 486.761719 199.121094 732 104 "/>
<path style=" stroke:none;fill-rule:nonzero;fill:rgb(61.433333%,11%,100%);fill-opacity:0.2;" d="M 92 104 C -54.773438 74.246094 486.761719 199.121094 732 104 "/>
<path style=" stroke:none;fill-rule:nonzero;fill:rgb(63.5%,27%,100%);fill-opacity:0.03;" d="M 92 104 C -54.773438 74.246094 486.761719 199.121094 732 104 "/>
<path style=" stroke:none;fill-rule:nonzero;fill:rgb(80%,20%,100%);fill-opacity:0.02;" d="M 92 104 C -54.773438 74.246094 486.761719 199.121094 732 104 "/>
<path style=" stroke:none;fill-rule:nonzero;fill:rgb(79.466667%,12%,100%);fill-opacity:0.04;" d="M 92 104 C -54.773438 74.246094 486.761719 199.121094 732 104 "/>
<path style=" stroke:none;fill-rule:nonzero;fill:rgb(59.4%,16%,100%);fill-opacity:0.08;" d="M 92 104 C -54.773438 74.246094 486.761719 199.121094 732 104 "/>
<path style=" stroke:none;fill-rule:nonzero;fill:rgb(67%,10%,100%);fill-opacity:0.01;" d="M 92 104 C -54.773438 74.246094 486.761719 199.121094 732 104 "/>
<path style=" stroke:none;fill-rule:nonzero;fill:rgb(69.2%,16%,100%);fill-opacity:0.04;" d="M 92 104 C -54.773438 74.246094 486.761719 199.121094 732 104 "/>
<path style=" stroke:none;fill-rule:nonzero;fill:rgb(55%,10%,100%);fill-opacity:0.18;" d="M 92 104 C -54.773438 74.246094 486.761719 199.121094 732 104 "/>
<path style=" stroke:none;fill-rule:nonzero;fill:rgb(85.516667%,21%,100%);fill-opacity:0.04;" d="M 92 104 C -54.773438 74.246094 486.761719 199.121094 732 104 M 732 104 C 530.652344 93.925781 280.214844 49.878906 92 104 "/>
<path style=" stroke:none;fill-rule:nonzero;fill:rgb(76%,20%,100%);fill-opacity:0.18;" d="M 732 104 C 530.652344 93.925781 280.214844 49.878906 92 104 "/>
<path style=" stroke:none;fill-rule:nonzero;fill:rgb(77.9%,22%,100%);fill-opacity:0.01;" d="M 732 104 C 530.652344 93.925781 280.214844 49.878906 92 104 "/>
<path style=" stroke:none;fill-rule:nonzero;fill:rgb(77.2%,28%,100%);fill-opacity:0.05;" d="M 732 104 C 530.652344 93.925781 280.214844 49.878906 92 104 "/>
<path style=" stroke:none;fill-rule:nonzero;fill:rgb(61%,10%,100%);fill-opacity:0.17;" d="M 732 104 C 530.652344 93.925781 280.214844 49.878906 92 104 "/>
<path style=" stroke:none;fill-rule:nonzero;fill:rgb(58.466667%,11%,100%);fill-opacity:0.13;" d="M 732 104 C 530.652344 93.925781 280.214844 49.878906 92 104 "/>
<path style=" stroke:none;fill-rule:nonzero;fill:rgb(73.166667%,30%,100%);fill-opacity:0.11;" d="M 732 104 C 530.652344 93.925781 280.214844 49.878906 92 104 "/>
<path style=" stroke:none;fill-rule:nonzero;fill:rgb(62.3%,22%,100%);fill-opacity:0.07;" d="M 732 104 C 530.652344 93.925781 280.214844 49.878906 92 104 "/>
<path style=" stroke:none;fill-rule:nonzero;fill:rgb(62.5%,25%,100%);fill-opacity:0.19;" d="M 732 104 C 530.652344 93.925781 280.214844 49.878906 92 104 "/>
<path style=" stroke:none;fill-rule:nonzero;fill:rgb(84.966667%,18%,100%);fill-opacity:0.04;" d="M 732 104 C 530.652344 93.925781 280.214844 49.878906 92 104 "/>
<path style=" stroke:none;fill-rule:nonzero;fill:rgb(74.333333%,30%,100%);fill-opacity:0.08;" d="M 732 104 C 530.652344 93.925781 280.214844 49.878906 92 104 "/>
<path style=" stroke:none;fill-rule:nonzero;fill:rgb(74.1%,26%,100%);fill-opacity:0.12;" d="M 732 104 C 530.652344 93.925781 280.214844 49.878906 92 104 "/>
<path style=" stroke:none;fill-rule:nonzero;fill:rgb(79.933333%,14%,100%);fill-opacity:0.15;" d="M 732 104 C 530.652344 93.925781 280.214844 49.878906 92 104 "/>
<path style=" stroke:none;fill-rule:nonzero;fill:rgb(74.35%,19%,100%);fill-opacity:0.13;" d="M 732 104 C 530.652344 93.925781 280.214844 49.878906 92 104 "/>
<path style=" stroke:none;fill-rule:nonzero;fill:rgb(64.8%,12%,100%);fill-opacity:0.12;" d="M 732 104 C 530.652344 93.925781 280.214844 49.878906 92 104 "/>
<path style=" stroke:none;fill-rule:nonzero;fill:rgb(83.2%,28%,100%);fill-opacity:0.19;" d="M 732 104 C 530.652344 93.925781 280.214844 49.878906 92 104 "/>
<path style=" stroke:none;fill-rule:nonzero;fill:rgb(78.4%,19%,100%);fill-opacity:0.17;" d="M 732 104 C 530.652344 93.925781 280.214844 49.878906 92 104 M 61 114 C -97.066406 81.957031 363.796875 281.066406 701 114 "/>
<path style=" stroke:none;fill-rule:nonzero;fill:rgb(61.733333%,18%,100%);fill-opacity:0.07;" d="M 61 114 C -97.066406 81.957031 363.796875 281.066406 701 114 "/>
<path style=" stroke:none;fill-rule:nonzero;fill:rgb(66.65%,13%,100%);fill-opacity:0.19;" d="M 61 114 C -97.066406 81.957031 363.796875 281.066406 701 114 "/>
<path style=" stroke:none;fill-rule:nonzero;fill:rgb(85.666667%,14%,100%);fill-opacity:0.16;" d="M 61 114 C -97.066406 81.957031 363.796875 281.066406 701 114 "/>
<path style=" stroke:none;fill-rule:nonzero;fill:rgb(70%,25%,100%);fill-opacity:0.07;" d="M 61 114 C -97.066406 81.957031 363.796875 281.066406 701 114 "/>
<path style=" stroke:none;fill-rule:nonzero;fill:rgb(68.333333%,24%,100%);fill-opacity:0.13;" d="M 61 114 C -97.066406 81.957031 363.796875 281.066406 701 114 "/>
<path style=" stroke:none;fill-rule:nonzero;fill:rgb(80.5%,10%,100%);fill-opacity:0.06;" d="M 61 114 C -97.066406 81.957031 363.796875 281.066406 701 114 "/>
<path style=" stroke:none;fill-rule:nonzero;fill:rgb(81.8%,16%,100%);fill-opacity:0.17;" d="M 61 114 C -97.066406 81.957031 363.796875 281.066406 701 114 "/>
<path style=" stroke:none;fill-rule:nonzero;fill:rgb(76.566667%,26%,100%);fill-opacity:0.01;" d="M 61 114 C -97.066406 81.957031 363.796875 281.066406 701 114 "/>
<path style=" stroke:none;fill-rule:nonzero;fill:rgb(83.1%,22%,100%);fill-opacity:0.06;" d="M 61 114 C -97.066406 81.957031 363.796875 281.066406 701 114 "/>
<path style=" stroke:none;fill-rule:nonzero;fill:rgb(72.666667%,18%,100%);fill-opacity:0.19;" d="M 61 114 C -97.066406 81.957031 363.796875 281.066406 701 114 "/>
<path style=" stroke:none;fill-rule:nonzero;fill:rgb(61.5%,23%,100%);fill-opacity:0.13;" d="M 61 114 C -97.066406 81.957031 363.796875 281.066406 701 114 "/>
<path style=" stroke:none;fill-rule:nonzero;fill:rgb(76.766667%,18%,100%);fill-opacity:0.01;" d="M 61 114 C -97.066406 81.957031 363.796875 281.066406 701 114 "/>
<path style=" stroke:none;fill-rule:nonzero;fill:rgb(75.666667%,27%,100%);fill-opacity:0.15;" d="M 61 114 C -97.066406 81.957031 363.796875 281.066406 701 114 "/>
<path style=" stroke:none;fill-rule:nonzero;fill:rgb(69.2%,12%,100%);fill-opacity:0.12;" d="M 61 114 C -97.066406 81.957031 363.796875 281.066406 701 114 "/>
<path style=" stroke:none;fill-rule:nonzero;fill:rgb(78.183333%,23%,100%);fill-opacity:0.12;" d="M 61 114 C -97.066406 81.957031 363.796875 281.066406 701 114 "/>
<path style=" stroke:none;fill-rule:nonzero;fill:rgb(79.6%,28%,100%);fill-opacity:0.11;" d="M 61 114 C -97.066406 81.957031 363.796875 281.066406 701 114 "/>
<path style=" stroke:none;fill-rule:nonzero;fill:rgb(79.7%,13%,100%);fill-opacity:0.01;" d="M 61 114 C -97.066406 81.957031 363.796875 281.066406 701 114 "/>
<path style=" stroke:none;fill-rule:nonzero;fill:rgb(68.366667%,27%,100%);fill-opacity:0.05;" d="M 61 114 C -97.066406 81.957031 363.796875 281.066406 701 114 "/>
<path style=" stroke:none;fill-rule:nonzero;fill:rgb(83.683333%,11%,100%);fill-opacity:0.05;" d="M 61 114 C -97.066406 81.957031 363.796875 281.066406 701 114 M 701 114 C 737.433594 115.824219 80.453125 105.777344 61 114 "/>
<path style=" stroke:none;fill-rule:nonzero;fill:rgb(70%,28%,100%);fill-opacity:0.16;" d="M 701 114 C 737.433594 115.824219 80.453125 105.777344 61 114 "/>
<path style=" stroke:none;fill-rule:nonzero;fill:rgb(63.166667%,15%,100%);fill-opacity:0.2;" d="M 701 114 C 737.433594 115.824219 80.453125 105.777344 61 114 "/>
<path style=" stroke:none;fill-rule:nonzero;fill:rgb(85.166667%,11%,100%);fill-opacity:0.02;" d="M 701 114 C 737.433594 115.824219 80.453125 105.777344 61 114 "/>
<path style=" stroke:none;fill-rule:nonzero;fill:rgb(73.3%,11%,100%);fill-opacity:0.14;" d="M 701 114 C 737.433594 115.824219 80.453125 105.777344 61 114 "/>
<path style=" stroke:none;fill-rule:nonzero;fill:rgb(76.3%,21%,100%);fill-opacity:0.12;" d="M 701 114 C 737.433594 115.824219 80.453125 105.777344 61 114 "/>
<path style=" stroke:none;fill-rule:nonzero;fill:rgb(68.95%,19%,100%);fill-opacity:0.08;" d="M 701 114 C 737.433594 115.824219 80.453125 105.777344 61 114 "/>
<path style=" stroke:none;fill-rule:nonzero;fill:rgb(69.9%,14%,100%);fill-opacity:0.14;" d="M 701 114 C 737.433594 115.824219 80.453125 105.777344 61 114 "/>
<path style=" stroke:none;fill-rule:nonzero;fill:rgb(81.8%,16%,100%);fill-opacity:0.05;" d="M 701 114 C 737.433594 115.824219 80.453125 105.777344 61 114 "/>
<path style=" stroke:none;fill-rule:nonzero;fill:rgb(66.8%,17%,100%);fill-opacity:0.06;" d="M 701 114 C 737.433594 115.824219 80.453125 105.777344 61 114 "/>
<path style=" stroke:none;fill-rule:nonzero;fill:rgb(80.8%,28%,100%);fill-opacity:0.07;" d="M 701 114 C 737.433594 115.824219 80.453125 105.777344 61 114 "/>
<path style=" stroke:none;fill-rule:nonzero;fill:rgb(85.2%,26%,100%);fill-opacity:0.11;" d="M 701 114 C 737.433594 115.824219 80.453125 105.777344 61 114 "/>
<path style=" stroke:none;fill-rule:nonzero;fill:rgb(74.783333%,11%,100%);fill-opacity:0.18;" d="M 701 114 C 737.433594 115.824219 80.453125 105.777344 61 114 "/>
<path style=" stroke:none;fill-rule:nonzero;fill:rgb(74.8%,16%,100%);fill-opacity:0.08;" d="M 701 114 C 737.433594 115.824219 80.453125 105.777344 61 114 "/>
<path style=" stroke:none;fill-rule:nonzero;fill:rgb(63.6%,22%,100%);fill-opacity:0.11;" d="M 701 114 C 737.433594 115.824219 80.453125 105.777344 61 114 "/>
<path style=" stroke:none;fill-rule:nonzero;fill:rgb(74.5%,15%,100%);fill-opacity:0.13;" d="M 701 114 C 737.433594 115.824219 80.453125 105.777344 61 114 "/>
<path style=" stroke:none;fill-rule:nonzero;fill:rgb(76.9%,23%,100%);fill-opacity:0.04;" d="M 701 114 C 737.433594 115.824219 80.453125 105.777344 61 114 "/>
<path style=" stroke:none;fill-rule:nonzero;fill:rgb(79.316667%,27%,100%);fill-opacity:0.09;" d="M 701 114 C 737.433594 115.824219 80.453125 105.777344 61 114 "/>
<path style=" stroke:none;fill-rule:nonzero;fill:rgb(65%,30%,100%);fill-opacity:0.03;" d="M 701 114 C 737.433594 115.824219 80.453125 105.777344 61 114 M 74 123 C 74 123.003906 74 122.984375 74 122.984375 "/>
<path style=" stroke:none;fill-rule:nonzero;fill:rgb(65.883333%,11%,100%);fill-opacity:0.08;" d="M 74 123 C 74 123.003906 74 122.984375 74 122.984375 M 74 122.984375 C 219.816406 157.128906 579.617188 184.617188 714 122.984375 "/>
<path style=" stroke:none;fill-rule:nonzero;fill:rgb(73.3%,11%,100%);fill-opacity:0.14;" d="M 74 122.984375 C 219.816406 157.128906 579.617188 184.617188 714 122.984375 "/>
<path style=" stroke:none;fill-rule:nonzero;fill:rgb(74.333333%,23%,100%);fill-opacity:0.13;" d="M 74 122.984375 C 219.816406 157.128906 579.617188 184.617188 714 122.984375 "/>
<path style=" stroke:none;fill-rule:nonzero;fill:rgb(77.516667%,29%,100%);fill-opacity:0.15;" d="M 74 122.984375 C 219.816406 157.128906 579.617188 184.617188 714 122.984375 "/>
<path style=" stroke:none;fill-rule:nonzero;fill:rgb(64.45%,21%,100%);fill-opacity:0.2;" d="M 74 122.984375 C 219.816406 157.128906 579.617188 184.617188 714 122.984375 "/>
<path style=" stroke:none;fill-rule:nonzero;fill:rgb(66.633333%,23%,100%);fill-opacity:0.07;" d="M 74 122.984375 C 219.816406 157.128906 579.617188 184.617188 714 122.984375 "/>
<path style=" stroke:none;fill-rule:nonzero;fill:rgb(56.983333%,11%,100%);fill-opacity:0.02;" d="M 74 122.984375 C 219.816406 157.128906 579.617188 184.617188 714 122.984375 "/>
<path style=" stroke:none;fill-rule:nonzero;fill:rgb(75.933333%,24%,100%);fill-opacity:0.14;" d="M 74 122.984375 C 219.816406 157.128906 579.617188 184.617188 714 122.984375 "/>
<path style=" stroke:none;fill-rule:nonzero;fill:rgb(80.75%,23%,100%);fill-opacity:0.2;" d="M 74 122.984375 C 219.816406 157.128906 579.617188 184.617188 714 122.984375 "/>
<path style=" stroke:none;fill-rule:nonzero;fill:rgb(81.8%,22%,100%);fill-opacity:0.01;" d="M 74 122.984375 C 219.816406 157.128906 579.617188 184.617188 714 122.984375 "/>
<path style=" stroke:none;fill-rule:nonzero;fill:rgb(78.133333%,18%,100%);fill-opacity:0.1;" d="M 74 122.984375 C 219.816406 157.128906 579.617188 184.617188 714 122.984375 "/>
<path style=" stroke:none;fill-rule:nonzero;fill:rgb(59.5%,19%,100%);fill-opacity:0.16;" d="M 74 122.984375 C 219.816406 157.128906 579.617188 184.617188 714 122.984375 "/>
<path style=" stroke:none;fill-rule:nonzero;fill:rgb(85.15%,19%,100%);fill-opacity:0.18;" d="M 74 122.984375 C 219.816406 157.128906 579.617188 184.617188 714 122.984375 "/>
<path style=" stroke:none;fill-rule:nonzero;fill:rgb(65%,25%,100%);fill-opacity:0.15;" d="M 74 122.984375 C 219.816406 157.128906 579.617188 184.617188 714 122.984375 "/>
<path style=" stroke:none;fill-rule:nonzero;fill:rgb(86.166667%,17%,100%);fill-opacity:0.03;" d="M 74 122.984375 C 219.816406 157.128906 579.617188 184.617188 714 122.984375 "/>
<path style=" stroke:none;fill-rule:nonzero;fill:rgb(68.366667%,27%,100%);fill-opacity:0.04;" d="M 74 122.984375 C 219.816406 157.128906 579.617188 184.617188 714 122.984375 "/>
<path style=" stroke:none;fill-rule:nonzero;fill:rgb(64.45%,21%,100%);fill-opacity:0.01;" d="M 74 122.984375 C 219.816406 157.128906 579.617188 184.617188 714 122.984375 "/>
<path style=" stroke:none;fill-rule:nonzero;fill:rgb(83.683333%,11%,100%);fill-opacity:0.08;" d="M 74 122.984375 C 219.816406 157.128906 579.617188 184.617188 714 122.984375 "/>
<path style=" stroke:none;fill-rule:nonzero;fill:rgb(82.266667%,24%,100%);fill-opacity:0.15;" d="M 74 122.984375 C 219.816406 157.128906 579.617188 184.617188 714 122.984375 "/>
<path style=" stroke:none;fill-rule:nonzero;fill:rgb(74.8%,28%,100%);fill-opacity:0.14;" d="M 74 122.984375 C 219.816406 157.128906 579.617188 184.617188 714 122.984375 "/>
<path style=" stroke:none;fill-rule:nonzero;fill:rgb(85.833333%,15%,100%);fill-opacity:0.04;" d="M 74 122.984375 C 219.816406 157.128906 579.617188 184.617188 714 122.984375 M 714 122.984375 C 714 122.988281 714 123.003906 714 123 "/>
<path style=" stroke:none;fill-rule:nonzero;fill:rgb(77.6%,16%,100%);fill-opacity:0.04;" d="M 714 123 C 714 123.007812 713.996094 123.007812 714 123.015625 M 714 123.015625 C 870.183594 154.675781 288.808594 39.699219 74 123.015625 "/>
<path style=" stroke:none;fill-rule:nonzero;fill:rgb(82.4%,12%,100%);fill-opacity:0.05;" d="M 714 123.015625 C 870.183594 154.675781 288.808594 39.699219 74 123.015625 "/>
<path style=" stroke:none;fill-rule:nonzero;fill:rgb(81.366667%,14%,100%);fill-opacity:0.02;" d="M 714 123.015625 C 870.183594 154.675781 288.808594 39.699219 74 123.015625 "/>
<path style=" stroke:none;fill-rule:nonzero;fill:rgb(68.95%,19%,100%);fill-opacity:0.18;" d="M 714 123.015625 C 870.183594 154.675781 288.808594 39.699219 74 123.015625 "/>
<path style=" stroke:none;fill-rule:nonzero;fill:rgb(65.683333%,29%,100%);fill-opacity:0.06;" d="M 714 123.015625 C 870.183594 154.675781 288.808594 39.699219 74 123.015625 "/>
<path style=" stroke:none;fill-rule:nonzero;fill:rgb(70.1%,22%,100%);fill-opacity:0.1;" d="M 714 123.015625 C 870.183594 154.675781 288.808594 39.699219 74 123.015625 "/>
<path style=" stroke:none;fill-rule:nonzero;fill:rgb(61.433333%,11%,100%);fill-opacity:0.18;" d="M 714 123.015625 C 870.183594 154.675781 288.808594 39.699219 74 123.015625 "/>
<path style=" stroke:none;fill-rule:nonzero;fill:rgb(70.866667%,24%,100%);fill-opacity:0.06;" d="M 714 123.015625 C 870.183594 154.675781 288.808594 39.699219 74 123.015625 "/>
<path style=" stroke:none;fill-rule:nonzero;fill:rgb(67.416667%,15%,100%);fill-opacity:0.19;" d="M 714 123.015625 C 870.183594 154.675781 288.808594 39.699219 74 123.015625 "/>
<path style=" stroke:none;fill-rule:nonzero;fill:rgb(86.066667%,24%,100%);fill-opacity:0.2;" d="M 714 123.015625 C 870.183594 154.675781 288.808594 39.699219 74 123.015625 "/>
<path style=" stroke:none;fill-rule:nonzero;fill:rgb(62.3%,13%,100%);fill-opacity:0.14;" d="M 714 123.015625 C 870.183594 154.675781 288.808594 39.699219 74 123.015625 "/>
<path style=" stroke:none;fill-rule:nonzero;fill:rgb(59.866667%,14%,100%);fill-opacity:0.1;" d="M 714 123.015625 C 870.183594 154.675781 288.808594 39.699219 74 123.015625 "/>
<path style=" stroke:none;fill-rule:nonzero;fill:rgb(67.6%,19%,100%);fill-opacity:0.1;" d="M 714 123.015625 C 870.183594 154.675781 288.808594 39.699219 74 123.015625 "/>
<path style=" stroke:none;fill-rule:nonzero;fill:rgb(82.016667%,17%,100%);fill-opacity:0.06;" d="M 714 123.015625 C 870.183594 154.675781 288.808594 39.699219 74 123.015625 "/>
<path style=" stroke:none;fill-rule:nonzero;fill:rgb(68.8%,28%,100%);fill-opacity:0.16;" d="M 714 123.015625 C 870.183594 154.675781 288.808594 39.699219 74 123.015625 "/>
<path style=" stroke:none;fill-rule:nonzero;fill:rgb(76.25%,25%,100%);fill-opacity:0.18;" d="M 714 123.015625 C 870.183594 154.675781 288.808594 39.699219 74 123.015625 "/>
<path style=" stroke:none;fill-rule:nonzero;fill:rgb(69.333333%,20%,100%);fill-opacity:0.06;" d="M 714 123.015625 C 870.183594 154.675781 288.808594 39.699219 74 123.015625 "/>
<path style=" stroke:none;fill-rule:nonzero;fill:rgb(77.2%,24%,100%);fill-opacity:0.02;" d="M 714 123.015625 C 870.183594 154.675781 288.808594 39.699219 74 123.015625 "/>
<path style=" stroke:none;fill-rule:nonzero;fill:rgb(62.5%,25%,100%);fill-opacity:0.02;" d="M 714 123.015625 C 870.183594 154.675781 288.808594 39.699219 74 123.015625 "/>
<path style=" stroke:none;fill-rule:nonzero;fill:rgb(84%,20%,100%);fill-opacity:0.19;" d="M 714 123.015625 C 870.183594 154.675781 288.808594 39.699219 74 123.015625 M 74 123.015625 C 74 123.007812 74 122.996094 74 123 "/>
<path style=" stroke:none;fill-rule:nonzero;fill:rgb(70.866667%,24%,100%);fill-opacity:0.1;" d="M 74 123.015625 C 74 123.007812 74 122.996094 74 123 M 60 126 C 407.714844 207.414062 723.769531 118.386719 700 126 "/>
<path style=" stroke:none;fill-rule:nonzero;fill:rgb(81.333333%,30%,100%);fill-opacity:0.18;" d="M 60 126 C 407.714844 207.414062 723.769531 118.386719 700 126 "/>
<path style=" stroke:none;fill-rule:nonzero;fill:rgb(81.066667%,29%,100%);fill-opacity:0.1;" d="M 60 126 C 407.714844 207.414062 723.769531 118.386719 700 126 "/>
<path style=" stroke:none;fill-rule:nonzero;fill:rgb(67.916667%,23%,100%);fill-opacity:0.06;" d="M 60 126 C 407.714844 207.414062 723.769531 118.386719 700 126 "/>
<path style=" stroke:none;fill-rule:nonzero;fill:rgb(82.233333%,18%,100%);fill-opacity:0.04;" d="M 60 126 C 407.714844 207.414062 723.769531 118.386719 700 126 "/>
<path style=" stroke:none;fill-rule:nonzero;fill:rgb(62.5%,10%,100%);fill-opacity:0.19;" d="M 60 126 C 407.714844 207.414062 723.769531 118.386719 700 126 "/>
<path style=" stroke:none;fill-rule:nonzero;fill:rgb(69.6%,24%,100%);fill-opacity:0.09;" d="M 60 126 C 407.714844 207.414062 723.769531 118.386719 700 126 "/>
<path style=" stroke:none;fill-rule:nonzero;fill:rgb(83.316667%,23%,100%);fill-opacity:0.06;" d="M 60 126 C 407.714844 207.414062 723.769531 118.386719 700 126 "/>
<path style=" stroke:none;fill-rule:nonzero;fill:rgb(74.666667%,24%,100%);fill-opacity:0.1;" d="M 60 126 C 407.714844 207.414062 723.769531 118.386719 700 126 "/>
<path style=" stroke:none;fill-rule:nonzero;fill:rgb(83.316667%,23%,100%);fill-opacity:0.11;" d="M 60 126 C 407.714844 207.414062 723.769531 118.386719 700 126 "/>
<path style=" stroke:none;fill-rule:nonzero;fill:rgb(85.666667%,14%,100%);fill-opacity:0.05;" d="M 60 126 C 407.714844 207.414062 723.769531 118.386719 700 126 "/>
<path style=" stroke:none;fill-rule:nonzero;fill:rgb(86%,30%,100%);fill-opacity:0.16;" d="M 60 126 C 407.714844 207.414062 723.769531 118.386719 700 126 "/>
<path style=" stroke:none;fill-rule:nonzero;fill:rgb(80.5%,10%,100%);fill-opacity:0.19;" d="M 60 126 C 407.714844 207.414062 723.769531 118.386719 700 126 "/>
<path style=" stroke:none;fill-rule:nonzero;fill:rgb(68.366667%,27%,100%);fill-opacity:0.1;" d="M 60 126 C 407.714844 207.414062 723.769531 118.386719 700 126 "/>
<path style=" stroke:none;fill-rule:nonzero;fill:rgb(62.2%,19%,100%);fill-opacity:0.11;" d="M 60 126 C 407.714844 207.414062 723.769531 118.386719 700 126 "/>
<path style=" stroke:none;fill-rule:nonzero;fill:rgb(82.016667%,17%,100%);fill-opacity:0.11;" d="M 60 126 C 407.714844 207.414062 723.769531 118.386719 700 126 "/>
<path style=" stroke:none;fill-rule:nonzero;fill:rgb(86.616667%,27%,100%);fill-opacity:0.17;" d="M 60 126 C 407.714844 207.414062 723.769531 118.386719 700 126 "/>
<path style=" stroke:none;fill-rule:nonzero;fill:rgb(63.6%,22%,100%);fill-opacity:0.16;" d="M 60 126 C 407.714844 207.414062 723.769531 118.386719 700 126 "/>
<path style=" stroke:none;fill-rule:nonzero;fill:rgb(75.5%,30%,100%);fill-opacity:0.08;" d="M 60 126 C 407.714844 207.414062 723.769531 118.386719 700 126 "/>
<path style=" stroke:none;fill-rule:nonzero;fill:rgb(84.8%,24%,100%);fill-opacity:0.2;" d="M 60 126 C 407.714844 207.414062 723.769531 118.386719 700 126 "/>
<path style=" stroke:none;fill-rule:nonzero;fill:rgb(73.9%,13%,100%);fill-opacity:0.02;" d="M 60 126 C 407.714844 207.414062 723.769531 118.386719 700 126 M 700 126 C 853.40625 133.675781 122.828125 97.1875 60 126 "/>
<path style=" stroke:none;fill-rule:nonzero;fill:rgb(55%,10%,100%);fill-opacity:0.09;" d="M 700 126 C 853.40625 133.675781 122.828125 97.1875 60 126 "/>
<path style=" stroke:none;fill-rule:nonzero;fill:rgb(69.166667%,26%,100%);fill-opacity:0.13;" d="M 700 126 C 853.40625 133.675781 122.828125 97.1875 60 126 "/>
<path style=" stroke:none;fill-rule:nonzero;fill:rgb(68%,20%,100%);fill-opacity:0.2;" d="M 700 126 C 853.40625 133.675781 122.828125 97.1875 60 126 "/>
<path style=" stroke:none;fill-rule:nonzero;fill:rgb(60.85%,13%,100%);fill-opacity:0.13;" d="M 700 126 C 853.40625 133.675781 122.828125 97.1875 60 126 "/>
<path style=" stroke:none;fill-rule:nonzero;fill:rgb(67.083333%,21%,100%);fill-opacity:0.09;" d="M 700 126 C 853.40625 133.675781 122.828125 97.1875 60 126 "/>
<path style=" stroke:none;fill-rule:nonzero;fill:rgb(80.5%,10%,100%);fill-opacity:0.12;" d="M 700 126 C 853.40625 133.675781 122.828125 97.1875 60 126 "/>
<path style=" stroke:none;fill-rule:nonzero;fill:rgb(82.25%,29%,100%);fill-opacity:0.1;" d="M 700 126 C 853.40625 133.675781 122.828125 97.1875 60 126 "/>
<path style=" stroke:none;fill-rule:nonzero;fill:rgb(75.35%,13%,100%);fill-opacity:0.11;" d="M 700 126 C 853.40625 133.675781 122.828125 97.1875 60 126 "/>
<path style=" stroke:none;fill-rule:nonzero;fill:rgb(77.5%,25%,100%);fill-opacity:0.05;" d="M 700 126 C 853.40625 133.675781 122.828125 97.1875 60 126 "/>
<path style=" stroke:none;fill-rule:nonzero;fill:rgb(80.5%,22%,100%);fill-opacity:0.02;" d="M 700 126 C 853.40625 133.675781 122.828125 97.1875 60 126 "/>
<path style=" stroke:none;fill-rule:nonzero;fill:rgb(80.5%,22%,100%);fill-opacity:0.06;" d="M 700 126 C 853.40625 133.675781 122.828125 97.1875 60 126 "/>
<path style=" stroke:none;fill-rule:nonzero;fill:rgb(74.033333%,18%,100%);fill-opacity:0.08;" d="M 700 126 C 853.40625 133.675781 122.828125 97.1875 60 126 "/>
<path style=" stroke:none;fill-rule:nonzero;fill:rgb(72%,20%,100%);fill-opacity:0.16;" d="M 700 126 C 853.40625 133.675781 122.828125 97.1875 60 126 "/>
<path style=" stroke:none;fill-rule:nonzero;fill:rgb(69.233333%,29%,100%);fill-opacity:0.09;" d="M 700 126 C 853.40625 133.675781 122.828125 97.1875 60 126 "/>
<path style=" stroke:none;fill-rule:nonzero;fill:rgb(63.5%,27%,100%);fill-opacity:0.11;" d="M 700 126 C 853.40625 133.675781 122.828125 97.1875 60 126 "/>
</g>
</svg>
